<svg width="37" height="23" viewBox="-0.5 0 38 23" xmlns="http://www.w3.org/2000/svg"><title>yandex + Rectangle 1</title><g fill="none" fill-rule="evenodd"><g fill="#E9E2D3"><path d="M3.097 6.232H6.92v.966H4.014v3.01c.114-.027.255-.056.422-.084.167-.027.327-.042.482-.042.342 0 .664.045.965.133.302.09.565.24.79.455.223.215.4.507.53.875.13.37.195.833.195 1.394 0 .56-.063 1.042-.19 1.448-.125.405-.3.737-.524.993-.224.258-.49.45-.8.575-.31.126-.652.19-1.027.19-.113 0-.246-.004-.396-.008-.15-.005-.306-.015-.465-.028-.158-.015-.317-.036-.477-.064-.158-.027-.3-.06-.42-.098V6.232zm.916 8.862c.09.038.227.062.41.07.183.01.355.015.52.015.438 0 .797-.165 1.074-.49.277-.328.416-.846.416-1.556 0-.447-.043-.81-.13-1.085-.084-.275-.2-.488-.347-.638-.147-.15-.32-.247-.52-.294-.2-.047-.414-.07-.642-.07-.058 0-.122.005-.195.015-.074.01-.15.02-.228.027-.077.01-.148.023-.214.042-.065.02-.114.033-.146.042v3.92zM12.545 15.557c-.195.205-.443.363-.745.476-.302.113-.62.167-.953.167-.383 0-.715-.086-.996-.26-.28-.172-.512-.42-.695-.74-.183-.323-.317-.708-.403-1.156-.085-.447-.128-.952-.128-1.512 0-1.194.19-2.104.574-2.73.383-.625.925-.938 1.625-.938.23 0 .454.033.68.098.223.065.424.196.603.393.18.195.323.47.434.826.11.355.165.817.165 1.387 0 .158-.006.33-.02.51-.01.183-.025.372-.042.568H9.54c0 .4.028.765.086 1.092.057.327.146.604.27.833.122.23.278.406.47.532.192.126.43.188.715.188.22 0 .44-.047.654-.14.216-.094.38-.205.495-.336l.315.743zm-.683-3.752c.016-.7-.07-1.214-.257-1.54-.188-.327-.444-.49-.77-.49-.375 0-.673.163-.893.49-.22.326-.35.84-.39 1.54h2.31zM14.73 12.868v-.84h.673c.114 0 .226-.03.336-.09.108-.062.207-.144.292-.246.086-.103.155-.222.208-.357.053-.135.08-.277.08-.427 0-.364-.084-.63-.25-.798-.168-.168-.423-.252-.765-.252-.253 0-.483.042-.69.126-.208.084-.37.173-.482.266l-.257-.798c.203-.15.44-.27.715-.364.273-.093.585-.14.936-.14.537 0 .95.143 1.24.426.29.284.434.71.434 1.278 0 .354-.077.68-.232.978-.154.298-.366.512-.635.643v.056c.374.103.644.3.807.588.162.29.244.674.244 1.15 0 .59-.17 1.083-.514 1.48-.342.397-.867.597-1.576.597-.326 0-.6-.035-.824-.105-.225-.07-.426-.16-.605-.272l.232-.868c.154.11.338.195.55.252.212.056.432.084.66.084.398 0 .698-.108.897-.326.2-.217.3-.528.3-.935 0-.34-.094-.61-.28-.808-.188-.2-.502-.298-.94-.298h-.553v-.002zM21.84 12.91h-2.113v3.122h-.88v-7h.88V12h2.114V9.032h.88v7h-.88V12.91zM24.383 9.452c.235-.168.523-.3.86-.392.34-.094.695-.14 1.07-.14.342 0 .616.058.824.175.208.116.37.275.49.476.116.202.194.43.23.687.037.257.056.525.056.806 0 .56-.01 1.105-.032 1.638-.02.533-.03 1.037-.03 1.513 0 .355.01.685.03.987.022.304.062.59.118.86h-.688l-.214-.825h-.05c-.12.242-.298.453-.532.63-.234.177-.55.266-.946.266-.437 0-.794-.174-1.073-.523-.278-.35-.418-.833-.418-1.45 0-.4.06-.736.176-1.007.117-.27.282-.49.497-.658.214-.168.468-.287.763-.357s.624-.104.988-.104h.243c.08 0 .165.006.255.015.023-.29.036-.546.036-.77 0-.532-.07-.905-.206-1.12-.138-.215-.388-.322-.75-.322-.227 0-.473.04-.74.12-.265.078-.487.18-.665.3l-.29-.8zm2.627 3.388c-.08-.01-.16-.016-.242-.02-.08-.006-.16-.008-.24-.008-.194 0-.383.02-.568.056-.185.037-.35.103-.495.196-.145.093-.26.22-.344.378-.084.158-.126.36-.126.602 0 .374.08.663.235.868.156.205.36.31.61.31.337 0 .598-.095.783-.28.185-.187.313-.394.387-.617V12.84z" id="Shape"/><path d="M32.542 9.942H31.21c-.024.793-.057 1.56-.098 2.303-.04.742-.11 1.397-.214 1.967-.102.57-.246 1.024-.434 1.365-.188.34-.436.51-.745.51-.14 0-.258-.008-.355-.026-.097-.017-.188-.05-.27-.096l.136-.87c.172.057.324.045.46-.035.133-.08.25-.323.347-.73.098-.406.178-1.028.238-1.866.062-.837.104-1.98.13-3.43h3.017v7h-.88V9.94z"/></g><path stroke="#E9E2D3" d="M0 0h37v23H0z"/></g></svg>
