<svg xmlns="http://www.w3.org/2000/svg" width="36.52" height="23" viewBox="0 0 36.52 23"><path fill="#E9E2D3" d="M25.783 10.49c.332.013.698-.036.59.49-.246.025-1.963-.245-2.23 1.227-.11.725.515 1.09 1.004 1.066.49-.025.624-.086.797-.21l.123.197h.896l.38-1.913c.1-.48.258-1.63-1.35-1.63-.294.012-.624 0-1.25.12l-.148.763c.232-.024.858-.12 1.188-.11zm.357 1.58c-.062.32-.515.523-.82.406-.32-.123-.234-.49.072-.7.307-.208.662-.11.82-.085l-.072.38zM22.793 13.262c.525 0 .844-.074 1.163-.222l-.28-.856c-.98.33-1.682-.173-1.522-1.19.135-.86.847-1.164 1.165-1.164.316 0 .49.024.733.17l.626-.624c-.246-.27-.528-.533-1.313-.563-.663-.025-1.798.458-2.158 1.777-.49 1.788.59 2.672 1.583 2.672zM12.504 12.5c-.147 0-.785.074-1.264-.086l-.135.725c.44.122.797.122 1.128.122.232 0 1.372.062 1.532-.994.078-.513-.146-.748-.33-.856-.185-.123-.49-.294-.69-.38-.194-.087-.343-.418.015-.516.22-.024.674-.024.943.05l.222-.712c-.454-.172-.81-.136-.944-.136-.135 0-1.282-.013-1.46.835-.133.648.105.918.332 1.018.368.16.577.308.773.405.244.12.2.526-.12.526zM17.26 13.262c.406.012.995-.037 1.228-.158l.147-.726c-.147.036-.698.087-1.08.087-.38 0-.992.023-.88-.772h2.082c.11-.564.37-1.962-1.312-1.962-1.545 0-1.74 1.533-1.777 1.753-.037.22-.062 1.78 1.593 1.78zm.234-2.845c.38 0 .49.294.43.638h-1.19c.11-.443.38-.638.76-.638zM19.74 13.262l.296-1.595c.28-1.043.733-.97.97-.97l.244-.92c-.48 0-.76.172-.908.345l-.085-.344h-.82l-.65 3.483.954.002zM28.3 13.26l.296-1.61c.285-1.053.73-.992.967-.992l.26-.916c-.482 0-.77.173-.916.347l-.088-.348h-.83l-.657 3.518h.966zM7.07 10.27l-.562 2.992H7.5L8.3 9.02h-1.57l-1.165 2.574L5.38 9.02H3.845l-.822 4.242h.957l.59-3.067.257 3.067h.91M14.71 13.273c.222 0 .504-.037.712-.172l.062-.71c-.552.086-.575-.158-.525-.43l.27-1.423h.49l.17-.76h-.515l.194-.933h-.957l-.66 3.336c-.186.96.537 1.093.758 1.093zM30.65 13.262c.32-.013.64-.146.835-.28l.124.28h1.028l.834-4.463h-1.006l-.258 1.347c-.186-.135-.293-.416-.747-.416-.526 0-1.35-.097-1.814 1.496-.31 1.065.32 2.036 1.005 2.036zm-.022-1.852c.206-.77.883-1.078 1.176-.688.106.142.16.54.062.858-.173.43-.394.71-.748.71-.33.002-.625-.378-.49-.88zM7.953 12.207c-.11.725.516 1.09 1.007 1.066.49-.024.626-.086.797-.21l.123.197h.896l.38-1.913c.1-.48.26-1.63-1.35-1.63-.294.012-.625 0-1.25.12l-.147.763c.23-.024.856-.122 1.187-.11.333.013.7-.036.59.49-.247.026-1.963-.245-2.234 1.227zm2-.137c-.062.32-.516.523-.82.406-.32-.123-.235-.49.073-.7.306-.208.66-.11.82-.085l-.073.38z"/><path fill="#E9E2D3" d="M-.012 23h36.52V0H-.01v23zM11.63 1.69c2.266 0 4.328.82 5.96 2.142-1.237 1.2-2.175 2.715-2.684 4.41h.79c.492-1.51 1.353-2.854 2.478-3.925 1.13 1.074 2 2.413 2.494 3.93h.79c-.513-1.705-1.465-3.217-2.714-4.42 1.637-1.338 3.71-2.136 5.988-2.136 5.25 0 9.507 4.257 9.507 9.508 0 5.25-4.26 9.506-9.508 9.506-2.277 0-4.353-.797-5.988-2.134 1.25-1.206 2.2-2.717 2.714-4.422h-.79c-.494 1.517-1.365 2.854-2.494 3.93-1.124-1.07-1.985-2.415-2.48-3.926h-.788c.51 1.695 1.445 3.21 2.685 4.41-1.632 1.323-3.694 2.142-5.96 2.142-5.25 0-9.506-4.257-9.506-9.506 0-5.25 4.256-9.507 9.506-9.507z"/></svg>