<svg width="37" height="23" viewBox="-0.5 0 38 23" xmlns="http://www.w3.org/2000/svg"><title>yandex + Rectangle 1</title><g fill="none" fill-rule="evenodd"><path d="M8.646 9.01c-.112-.228-.295-.42-.52-.56-.234-.146-.51-.245-.83-.307-.32-.058-.693-.084-1.125-.087H4.18c-.206.003-.41.165-.46.364l-1.338 5.836c-.048.198.082.363.287.363h.953c.207 0 .413-.163.458-.364l.33-1.417c.042-.197.246-.363.456-.363h.27c1.167-.002 2.07-.238 2.718-.716.652-.478.975-1.108.975-1.89 0-.343-.06-.63-.184-.86zM6.59 10.918c-.288.21-.688.316-1.205.316H5.15c-.206 0-.333-.164-.29-.364l.29-1.24c.038-.2.248-.363.452-.36l.313-.003c.363 0 .643.062.83.186.183.12.275.312.274.567.005.388-.144.685-.43.897zm13.108-.762l-3.8 6.425c-.122.2-.393.363-.598.363h-.987c-.205 0-.27-.162-.147-.362l.845-1.473s.07-.084.008-.562c-.13-.87-.776-4.562-.776-4.562-.05-.2.08-.363.284-.363h.855c.262 0 .473.17.52.372l.426 2.562h.157l1.497-2.577c.132-.2.396-.365.603-.365 0 0 .917.003 1.143 0 .337-.007-.028.543-.028.543zm6.264-1.123c-.12-.23-.298-.42-.524-.563-.23-.147-.508-.247-.83-.306-.314-.057-.69-.087-1.12-.09l-1.993.003c-.21.004-.407.164-.456.362l-1.34 5.837c-.05.2.083.363.285.363l.955-.002c.202.002.41-.162.458-.36l.324-1.417c.046-.197.25-.362.457-.36h.27c1.17 0 2.073-.24 2.726-.718.644-.48.97-1.11.97-1.893-.003-.342-.063-.63-.184-.858zm-2.057 1.908c-.286.207-.69.313-1.202.313h-.237c-.205 0-.338-.166-.292-.363l.29-1.237c.042-.198.25-.364.455-.362h.31c.366 0 .643.062.828.186.188.12.275.312.278.566 0 .39-.145.687-.43.898zM13.243 9.844c-.36-.202-.928-.305-1.704-.305-.386 0-.768.03-1.153.09-.286.044-.312.053-.49.09-.36.08-.42.44-.42.44l-.115.48c-.065.308.11.294.184.27.158-.05.248-.097.57-.17.31-.07.636-.122.894-.12.38 0 .674.042.868.123.19.084.288.227.288.436l-.02.133-.136.085c-.542.034-.932.084-1.408.152-.463.064-.87.178-1.21.332-.36.16-.63.374-.817.647-.184.275-.275.606-.275.997 0 .367.134.67.39.904.26.23.598.345 1.005.345.258-.002.457-.02.6-.057l.46-.158.393-.218.36-.237.004.006-.036.155-.002.004c-.04.188.073.34.255.357l.004.005h.886l.013-.006c.188-.02.368-.175.41-.357l.694-3.008.036-.245.018-.23c0-.425-.186-.74-.547-.943zm-1.537 3.385l-.148.195-.375.193c-.176.07-.343.108-.498.108-.234 0-.418-.035-.543-.104l-.184-.357c0-.195.044-.348.14-.466l.404-.275c.173-.06.384-.107.63-.142.217-.026.645-.077.702-.077l.065.115c-.013.066-.133.577-.194.81zm18.857-3.38c-.36-.204-.93-.307-1.704-.307-.385 0-.768.03-1.153.093-.286.04-.313.05-.49.087-.363.08-.418.44-.418.44l-.117.48c-.065.307.107.293.188.27.16-.047.246-.094.565-.17.31-.07.637-.12.896-.118.38 0 .67.04.865.122.193.083.287.23.287.434l-.015.135-.137.087c-.545.033-.938.083-1.406.15-.464.065-.872.178-1.21.334-.363.16-.637.375-.822.647-.183.273-.272.605-.272.994 0 .37.132.673.39.906.26.23.597.346 1.005.346.255-.005.455-.022.598-.058l.462-.156.395-.22.355-.24.008.01-.032.153h-.005l.004.005c-.045.187.067.34.252.355v.003h.886l.016-.004c.188-.023.365-.177.404-.36l.697-3.005.037-.246.02-.23c-.004-.424-.183-.74-.55-.94zm-1.535 3.38l-.152.2-.373.19c-.176.07-.345.107-.497.107-.24 0-.42-.033-.542-.104l-.187-.355c0-.193.048-.347.138-.465.092-.113.233-.207.41-.275.17-.06.38-.104.627-.14.217-.028.646-.08.7-.08l.066.116c-.01.067-.133.576-.19.806zm5.11-4.744h.004l-1.276 5.786-.047.068c-.074.164-.236.295-.41.295h-.89l-.014-.02c-.17-.025-.28-.16-.238-.34v-.006l.036-.167 1.194-5.428.043-.188.048-.072c.078-.16.233-.29.41-.29h.854c.206 0 .33.162.287.36z" fill="#E9E2D3"/><path stroke="#E9E2D3" d="M0 0h37v23H0z"/></g></svg>
