<svg xmlns="http://www.w3.org/2000/svg" width="36.52" height="23" viewBox="0 0 36.52 23"><path fill="none" d="M0 16.975h36.52V6.402H0v10.573zm25.805-8.752h2.35l-.15.206.716 6.24.357.52h-2.404l.165-.37c-.028-.397-.083-.936-.165-1.58H24.68l-.412.77c-.207.467-.303.797-.303.975l.096.207h-1.937c.097-.108.178-.207.26-.316l3.424-6.24c.027-.083.082-.15.11-.26-.003-.03-.03-.07-.112-.153zm-7.107.262c.562-.414 1.195-.618 1.938-.618.824 0 1.582.204 2.31.618l-.26 1.33c-.866-.52-1.513-.768-1.952-.768-.646 0-.963.275-.963.81 0 .234.234.537.66.88l1.28.922c.493.478.714.936.714 1.43 0 .592-.303 1.126-.922 1.58-.577.494-1.25.716-2.048.716-.838 0-1.705-.274-2.6-.812v-1.277c1.144.632 1.97.976 2.447.976.33 0 .593-.082.826-.26.232-.18.356-.412.356-.674 0-.276-.233-.578-.715-.922l-1.333-.923c-.438-.425-.66-.99-.66-1.635.003-.566.306-1.02.924-1.375zm-1.127-.262l-.41.51-1.746 5.635c.026.274.083.536.11.825h-2.517l.357-.564 1.745-5.58c.026-.14.026-.29.026-.414-.027-.122-.056-.288-.083-.412h2.518zm-7.777 0l.148 5.114 2.406-4.192c.07-.097.096-.234.096-.412 0-.193-.067-.386-.205-.51h2.31l-4.51 6.97h-1.88l-.36-5.43c0-.384-.19-.688-.562-.922L5.94 8.224h3.853z"/><path fill="none" d="M26.575 12.264l-.206-2.35-1.225 2.35"/><path fill="#E9E2D3" d="M7.798 9.763l.358 5.43h1.882l4.51-6.97h-2.31c.137.124.204.316.204.51 0 .178-.024.315-.096.412L9.94 13.337l-.147-5.114H5.94l1.294.618c.37.235.564.54.564.923zM22.382 14.875c-.083.11-.164.208-.26.316h1.937l-.097-.206c0-.178.096-.508.303-.975l.412-.772h1.993c.083.646.138 1.184.166 1.58l-.165.372h2.405l-.356-.522-.716-6.24.15-.206h-2.35c.08.083.108.124.108.15-.027.112-.082.18-.11.262l-3.42 6.24zm3.987-4.96l.205 2.35h-1.432l1.226-2.35zM19.77 12.416c.48.344.716.646.716.92 0 .262-.124.495-.356.675-.233.18-.495.262-.825.262-.48 0-1.305-.345-2.446-.977v1.277c.893.537 1.76.812 2.598.812.797 0 1.47-.222 2.048-.717.62-.453.922-.988.922-1.58 0-.494-.22-.95-.715-1.43l-1.278-.92c-.427-.345-.66-.647-.66-.88 0-.536.315-.812.963-.812.44 0 1.086.246 1.95.77l.263-1.332c-.728-.414-1.484-.618-2.31-.618-.74 0-1.374.204-1.938.618-.618.355-.922.81-.922 1.373 0 .646.222 1.21.66 1.635l1.33.926zM15.11 9.048l-1.744 5.58-.357.563h2.515c-.026-.288-.083-.548-.11-.823l1.747-5.635.41-.51h-2.515c.027.124.056.29.083.412 0 .125 0 .276-.03.414zM0 0h36.52v6.402H0zM0 16.975h36.52V23H0z"/></svg>