<svg width="37" height="23" viewBox="-0.5 0 38 23" xmlns="http://www.w3.org/2000/svg"><title>yandex + Rectangle 1</title><g fill="none" fill-rule="evenodd"><path d="M28.557 19.11c.002-2.894.002-5.777 0-8.668.002-.183 0-.372-.033-.553-.11-.646-.652-1.03-1.438-1.042-.242-.004-.483.02-.72-.007-.465-.046-.587.107-.582.478.02 1.804.016 3.606.01 5.41-.007.942-.928 1.915-2.034 2.156-3.438.76-6.872 1.523-10.312 2.27-.387.088-.795.132-1.188.124-.17 0-.41-.13-.483-.256-.05-.084.104-.29.224-.396.155-.126.355-.228.56-.3.633-.223 1.273-.43 1.912-.64 2.554-.85 5.11-1.69 7.66-2.544 1.147-.388 1.77-1.154 1.79-2.123.06-3.138.026-6.272.015-9.413 0-.497-.258-.91-.85-1.125-.682-.245-1.28-.052-1.87.23-3.616 1.728-7.23 3.45-10.844 5.168-1.067.512-1.66 1.244-1.654 2.29.01 2.967.002 5.926.005 8.89 0 .147.02.3.062.44.354 1.007 1.277 1.584 2.556 1.584 2.543.007 5.093.004 7.64.004 2.533 0 5.06.003 7.6-.004.55 0 1.056-.113 1.47-.453.53-.43.504-.976.504-1.52zM17.952 8.962c.257-.664.812-1.082 1.666-1.188.562-.074 1.057.274 1.137.785.123.782-.858 1.696-1.823 1.692-.81 0-1.258-.568-.98-1.29z" fill="#E9E2D3"/><path stroke="#E9E2D3" d="M0 0h37v23H0z"/></g></svg>
