<?xml version="1.0" encoding="UTF-8" standalone="no"?>
<!-- Generator: Adobe Illustrator 15.0.0, SVG Export Plug-In . SVG Version: 6.00 Build 0)  -->

<svg
   xmlns:dc="http://purl.org/dc/elements/1.1/"
   xmlns:cc="http://creativecommons.org/ns#"
   xmlns:rdf="http://www.w3.org/1999/02/22-rdf-syntax-ns#"
   xmlns:svg="http://www.w3.org/2000/svg"
   xmlns="http://www.w3.org/2000/svg"
   xmlns:sodipodi="http://sodipodi.sourceforge.net/DTD/sodipodi-0.dtd"
   xmlns:inkscape="http://www.inkscape.org/namespaces/inkscape"
   version="1.1"
   id="Layer_1"
   x="0px"
   y="0px"
   width="192"
   height="197"
   viewBox="0 0 192 197"
   enable-background="new 0 0 206.493 214.936"
   xml:space="preserve"
   inkscape:version="0.48.4 r9939"
   sodipodi:docname="portfolio_label.svg"><metadata
   id="metadata13"><rdf:RDF><cc:Work
       rdf:about=""><dc:format>image/svg+xml</dc:format><dc:type
         rdf:resource="http://purl.org/dc/dcmitype/StillImage" /></cc:Work></rdf:RDF></metadata><defs
   id="defs11" /><sodipodi:namedview
   pagecolor="#ffffff"
   bordercolor="#666666"
   borderopacity="1"
   objecttolerance="10"
   gridtolerance="10"
   guidetolerance="10"
   inkscape:pageopacity="0"
   inkscape:pageshadow="2"
   inkscape:window-width="1920"
   inkscape:window-height="1017"
   id="namedview9"
   showgrid="false"
   inkscape:zoom="6.211233"
   inkscape:cx="108.29195"
   inkscape:cy="20.01467"
   inkscape:window-x="-8"
   inkscape:window-y="-8"
   inkscape:window-maximized="1"
   inkscape:current-layer="Layer_1" />
<g
   id="g3"
   transform="matrix(1.0016421,0,0,1.0016421,-9.8611127,-10.547373)">
	<g
   id="g5">
		<path
   d="m 27.173,43.814 -5.435,-1.246 0.001,4.073 -6.261,-1.399 -0.004,-24.148 6.256,1.605 0.001,4.068 5.432,1.363 L 27.156,15.191 9.865,10.538 v 42.583 l 17.316,3.657 -0.008,-12.964 z m 18.902,0.747 -2.982,-4.766 2.973,-3.334 -0.019,-16.186 -16.384,-4.409 0.027,41.442 16.405,3.464 -0.02,-16.211 z m -11.093,-18.46 5.927,1.521 0.004,4.601 -1.869,2.511 -4.056,-0.998 -0.006,-7.635 z m 0.019,23.506 -0.006,-7.644 4.057,0.951 1.876,3.412 0.004,4.607 -5.931,-1.326 z m 29.036,14.955 -0.015,-8.465 -10.184,-2.277 -0.01,-7.156 5.227,1.223 -0.014,-8.518 -5.226,-1.288 -0.01,-7.148 10.177,2.612 -0.015,-8.448 -15.207,-4.092 0.051,40.341 15.226,3.216 z m 6.89,1.454 -0.023,-11.73 9.997,2.285 -0.062,-26.933 -14.776,-3.977 0.072,39.343 4.792,1.012 z m 5.284,-29.331 0.022,10.516 -5.347,-1.289 -0.021,-10.6 5.346,1.373 z m 21.082,34.899 -0.033,-11.703 -4.422,-1.014 0.01,3.674 -5.085,-1.137 -0.056,-21.769 5.083,1.305 0.01,3.67 4.42,1.11 -0.034,-11.684 -14.049,-3.781 0.092,38.358 14.064,2.971 z m 5.573,-28.057 0.089,29.253 4.289,0.905 -0.093,-29.058 4.508,1.157 -0.026,-7.86 -13.423,-3.612 0.023,8.025 4.633,1.19 z m 13.719,23.542 4.516,1.016 0.438,8.62 4.045,0.854 -1.961,-36.407 -9.816,-2.642 -1.771,36.187 4.168,0.88 0.381,-8.508 z m 0.894,-19.79 2.599,0.667 0.642,12.3 -3.803,-0.902 0.562,-12.065 z m 9.307,30.534 3.977,0.84 -0.057,-14.155 4.444,1.041 0.058,14.053 3.869,0.817 -0.148,-35.138 -3.865,-1.041 0.056,13.731 -4.442,-1.096 -0.055,-13.83 -3.973,-1.069 0.029,7.675 0.107,28.172 z m 26.068,5.505 -0.16,-34.343 -11.723,-3.155 0.149,35.02 11.734,2.478 z m -3.819,-27.938 0.09,19.747 -4.243,-0.949 -0.087,-19.886 4.24,1.088 z m -121.82,62.914 -5.448,-0.684 0.001,4.094 -6.275,-0.752 -0.004,-24.269 6.271,0.96 0.002,4.088 5.445,0.802 L 27.2,89.531 9.866,86.661 v 42.796 l 17.358,1.862 -0.009,-13.025 z m 22.907,15.484 5.532,0.594 -6.033,-21.596 5.64,-18.598 -5.294,-0.877 -4.433,15.075 -2.369,-0.338 -0.017,-15.865 -5.203,-0.861 0.008,8.812 0.03,32.352 5.209,0.559 -0.018,-16.24 2.37,0.309 4.578,16.674 z m 6.528,0.701 15.242,1.636 -0.079,-39.197 -15.224,-2.521 0.061,40.082 z m 10.393,-29.902 0.042,22.557 -5.511,-0.661 -0.038,-22.74 5.507,0.844 z m 17.233,6.371 4.547,0.67 -0.031,-11.889 -14.457,-2.394 0.082,39.051 14.473,1.554 -0.031,-11.91 -4.549,-0.571 0.009,3.739 -5.233,-0.627 -0.05,-22.159 5.23,0.801 0.01,3.735 z m 19.514,28.591 4.287,0.46 -0.118,-37.097 -4.283,-0.708 -4.097,13.05 -4.231,-14.429 -4.455,-0.738 0.021,8.154 0.079,29.934 4.459,0.479 -0.068,-24.546 4.232,14.141 4.099,-12.932 0.075,24.232 z m 16.211,1.74 4.074,0.437 -0.134,-36.167 -4.07,-0.674 -5.38,21.015 -0.075,-21.917 -4.196,-0.694 0.025,7.914 0.096,29.052 4.201,0.451 5.382,-21.163 0.077,21.746 z m 5.965,-11.726 8.199,1.044 0.05,12.208 3.892,0.418 -0.147,-35.354 -3.888,-0.644 0.063,15.747 -4.204,-0.588 -0.062,-15.854 -3.992,-0.661 0.029,7.718 0.06,15.966 z m 25.748,15.13 -0.033,-7.412 -7.735,-0.928 -0.027,-6.255 3.967,0.517 -0.034,-7.453 -3.965,-0.566 -0.027,-6.249 7.73,1.184 -0.034,-7.399 -11.542,-1.912 0.148,35.234 11.552,1.239 z m 9.283,-9.601 0.017,3.307 -4.085,-0.489 -0.094,-19.576 4.083,0.625 0.017,3.303 3.556,0.524 -0.054,-10.522 -11.286,-1.869 0.161,34.471 11.296,1.213 -0.054,-10.539 -3.557,-0.448 z m 16.744,-20.627 -3.576,-0.593 -2.931,12.482 -1.593,-0.228 -0.068,-13.015 -3.492,-0.578 0.037,7.22 0.135,26.499 3.495,0.375 -0.069,-13.318 1.593,0.207 3.14,13.613 3.735,0.4 -4.147,-17.645 3.741,-15.419 z m 0.898,0.149 0.181,32.989 10.352,1.111 -0.188,-32.389 -10.345,-1.711 z m 3.487,26.314 -0.105,-18.739 3.742,0.572 0.106,18.615 -3.743,-0.448 z m 19.07,-22.58 -3.117,-0.516 -4.057,18.47 -0.115,-19.16 -3.201,-0.531 0.04,6.914 0.149,25.374 3.205,0.344 4.057,-18.584 0.117,19.032 3.119,0.334 -0.197,-31.677 z m -2.592,-3.196 -0.035,-5.675 -5.265,-0.953 0.034,5.73 5.266,0.898 z m -176.807,77.879 10e-4,4.112 -6.291,-0.097 -0.004,-24.389 6.286,0.308 0.002,4.107 5.458,0.236 -0.007,-13.064 -17.376,-1.068 v 43.009 l 17.4,0.052 -0.007,-13.09 -5.462,-0.116 z m 25.719,-27.54 -5.428,-0.334 -4.55,15.79 -2.43,-0.095 -0.013,-16.125 -5.337,-0.328 0.006,8.957 0.021,32.889 5.343,0.016 -0.013,-16.508 2.43,0.062 4.689,16.466 5.671,0.017 -6.179,-21.311 5.79,-19.496 z m 1.36,0.084 0.052,40.727 15.62,0.046 -0.07,-39.813 -15.602,-0.96 z m 5.102,32.069 -0.033,-23.104 5.644,0.276 0.037,22.915 -5.648,-0.087 z m 27.889,-30.041 -14.805,-0.91 0.074,39.663 4.802,0.015 -0.024,-11.826 10.017,0.207 -0.064,-27.149 z m -9.97,18.5 -0.021,-10.685 5.356,0.262 0.023,10.601 -5.358,-0.178 z m 12.273,-18.359 0.093,38.661 14.09,0.043 L 98.244,168.6 84.17,167.734 z m 4.635,30.441 -0.057,-21.941 5.092,0.25 0.06,21.77 -5.095,-0.079 z m 21.037,-3.286 0.012,3.612 -4.847,-0.075 -0.066,-21.399 4.844,0.237 0.012,3.608 4.215,0.182 -0.039,-11.487 -13.392,-0.823 0.111,37.702 13.405,0.04 -0.039,-11.508 -4.216,-0.089 z m 17.911,-24.475 -12.807,-0.788 0.027,7.892 4.42,0.216 0.102,28.768 4.091,0.012 -0.105,-28.578 4.302,0.211 -0.03,-7.733 z m 5.215,13.454 -0.053,-13.137 -3.963,-0.244 0.029,7.717 0.109,28.325 12.005,0.036 -0.095,-22.375 -8.032,-0.322 z m 0.058,14.992 -0.028,-7.318 4.173,0.114 0.03,7.269 -4.175,-0.065 z m 16.116,-27.131 0.061,13.535 -2.498,-0.097 -0.061,-13.593 -3.787,-0.232 0.152,35.229 3.79,0.011 -0.062,-13.912 2.498,0.065 0.063,13.854 10.757,0.032 -0.166,-34.231 -10.747,-0.661 z m 3.587,27.438 -0.092,-19.805 3.666,0.18 0.094,19.682 -3.668,-0.057 z"
   id="path7"
   inkscape:connector-curvature="0"
   style="fill:#f6e1ba" />
	</g>
</g>
</svg>