<svg version="1" xmlns="http://www.w3.org/2000/svg" viewBox="0 0 62 70"><path fill="#F1E9DF" d="M35.9 9.9c0 3.3-2.7 6.1-6 6.1s-6.1-2.7-6.1-6.1c0-3.3 2.7-6.1 6.1-6.1 3.3 0 6 2.7 6 6.1zm-6 48.8c-2 0-3.6 1.6-3.6 3.6s1.6 3.6 3.6 3.6 3.6-1.6 3.6-3.6-1.6-3.6-3.6-3.6zM17.6 14.8c.8-.4 1-1.4.6-2.2-.4-.8-1.4-1-2.2-.6-.8.4-1 1.4-.6 2.2.4.7 1.4 1 2.2.6zM41 55.3c-1.9 1.1-2.6 3.6-1.5 5.5s3.6 2.6 5.5 1.5 2.6-3.6 1.5-5.5-3.6-2.6-5.5-1.5zM6.1 24.7c1 .6 2.2.2 2.8-.7.6-1 .2-2.2-.7-2.8-1-.5-2.2-.2-2.8.8-.5.9-.2 2.2.7 2.7zm48.7 20.7c-2.1-1.2-4.8-.5-6.1 1.6-1.2 2.1-.5 4.8 1.6 6.1 2.1 1.2 4.8.5 6.1-1.6 1.3-2.2.5-4.9-1.6-6.1zM6.1 36.1c0-1.3-1.1-2.4-2.4-2.4-1.3 0-2.4 1.1-2.4 2.4 0 1.3 1.1 2.4 2.4 2.4 1.3 0 2.4-1.1 2.4-2.4zm50-4.9c-2.7 0-4.8 2.2-4.8 4.8 0 2.7 2.2 4.8 4.8 4.8 2.7 0 4.8-2.2 4.8-4.8 0-2.6-2.1-4.8-4.8-4.8zM5.7 46.7c-1.4.8-1.8 2.5-1 3.9s2.5 1.8 3.9 1 1.8-2.5 1-3.9c-.8-1.3-2.5-1.7-3.9-1zm49.5-19.2c2.5-1.4 3.4-4.7 1.9-7.2s-4.7-3.4-7.2-1.9c-2.5 1.4-3.4 4.7-1.9 7.2s4.7 3.4 7.2 1.9zM18.4 56c-1.5-.9-3.5-.4-4.4 1.2-.9 1.5-.4 3.5 1.2 4.4 1.5.9 3.5.4 4.4-1.2.8-1.5.3-3.5-1.2-4.4zM45.8 8.5c-2.7-1.6-6.2-.6-7.7 2.1-1.6 2.7-.6 6.2 2.1 7.7 2.7 1.6 6.2.6 7.7-2.1s.6-6.2-2.1-7.7zM31.9 37.2V19.9h-4v15l-13 7.5 2 3.5 15-8.7z"/></svg>