<?xml version="1.0" encoding="utf-8"?>
<!-- Generator: Adobe Illustrator 17.1.0, SVG Export Plug-In . SVG Version: 6.00 Build 0)  -->
<!DOCTYPE svg PUBLIC "-//W3C//DTD SVG 1.0//EN" "http://www.w3.org/TR/2001/REC-SVG-20010904/DTD/svg10.dtd">
<svg version="1.0" id="Слой_1" xmlns="http://www.w3.org/2000/svg" xmlns:xlink="http://www.w3.org/1999/xlink" x="0px" y="0px"
	 viewBox="0 0 62 70" enable-background="new 0 0 62 70" xml:space="preserve">
<path fill="#F1E9DF" d="M35.9,9.9c0,3.3-2.7,6.1-6,6.1c-3.3,0-6.1-2.7-6.1-6.1c0-3.3,2.7-6.1,6.1-6.1C33.2,3.8,35.9,6.5,35.9,9.9z
	 M29.9,58.7c-2,0-3.6,1.6-3.6,3.6c0,2,1.6,3.6,3.6,3.6c2,0,3.6-1.6,3.6-3.6S31.9,58.7,29.9,58.7z M17.6,14.8c0.8-0.4,1-1.4,0.6-2.2
	c-0.4-0.8-1.4-1-2.2-0.6c-0.8,0.4-1,1.4-0.6,2.2C15.8,14.9,16.8,15.2,17.6,14.8z M41,55.3c-1.9,1.1-2.6,3.6-1.5,5.5
	c1.1,1.9,3.6,2.6,5.5,1.5c1.9-1.1,2.6-3.6,1.5-5.5C45.4,54.9,42.9,54.2,41,55.3z M6.1,24.7c1,0.6,2.2,0.2,2.8-0.7
	c0.6-1,0.2-2.2-0.7-2.8C7.2,20.7,6,21,5.4,22C4.9,22.9,5.2,24.2,6.1,24.7z M54.8,45.4c-2.1-1.2-4.8-0.5-6.1,1.6
	c-1.2,2.1-0.5,4.8,1.6,6.1c2.1,1.2,4.8,0.5,6.1-1.6C57.7,49.3,56.9,46.6,54.8,45.4z M6.1,36.1c0-1.3-1.1-2.4-2.4-2.4
	c-1.3,0-2.4,1.1-2.4,2.4c0,1.3,1.1,2.4,2.4,2.4C5,38.5,6.1,37.4,6.1,36.1z M56.1,31.2c-2.7,0-4.8,2.2-4.8,4.8c0,2.7,2.2,4.8,4.8,4.8
	c2.7,0,4.8-2.2,4.8-4.8C60.9,33.4,58.8,31.2,56.1,31.2z M5.7,46.7c-1.4,0.8-1.8,2.5-1,3.9c0.8,1.4,2.5,1.8,3.9,1
	c1.4-0.8,1.8-2.5,1-3.9C8.8,46.4,7.1,46,5.7,46.7z M55.2,27.5c2.5-1.4,3.4-4.7,1.9-7.2c-1.5-2.5-4.7-3.4-7.2-1.9
	c-2.5,1.4-3.4,4.7-1.9,7.2C49.5,28.1,52.7,29,55.2,27.5z M18.4,56c-1.5-0.9-3.5-0.4-4.4,1.2c-0.9,1.5-0.4,3.5,1.2,4.4
	c1.5,0.9,3.5,0.4,4.4-1.2C20.4,58.9,19.9,56.9,18.4,56z M45.8,8.5c-2.7-1.6-6.2-0.6-7.7,2.1c-1.6,2.7-0.6,6.2,2.1,7.7
	c2.7,1.6,6.2,0.6,7.7-2.1C49.4,13.5,48.5,10,45.8,8.5z M31.9,37.2V19.9h-4v15l-13,7.5l2,3.5L31.9,37.2z"/>
</svg>
