<?xml version="1.0" encoding="utf-8"?>
<!-- Generator: Adobe Illustrator 17.1.0, SVG Export Plug-In . SVG Version: 6.00 Build 0)  -->
<!DOCTYPE svg PUBLIC "-//W3C//DTD SVG 1.0//EN" "http://www.w3.org/TR/2001/REC-SVG-20010904/DTD/svg10.dtd">
<svg version="1.0" id="Слой_1" xmlns="http://www.w3.org/2000/svg" xmlns:xlink="http://www.w3.org/1999/xlink" x="0px" y="0px"
	 viewBox="0 0 112 70" enable-background="new 0 0 112 70" xml:space="preserve">
<g>
	<polygon fill="#F1E9DF" points="16.7,12.5 19.4,12.5 19.4,6.9 21.9,6.9 21.9,4.1 14.2,4.1 14.2,6.9 16.7,6.9 	"/>
	<polygon fill="#F1E9DF" points="25.9,12.5 25.9,8.4 27.8,11.3 27.8,11.3 29.7,8.4 29.7,12.5 32.5,12.5 32.5,4.1 29.6,4.1 27.8,7.1 
		26,4.1 23.1,4.1 23.1,12.5 	"/>
	<polygon fill="#F1E9DF" points="40.6,9.7 36.7,9.7 36.7,4.1 33.9,4.1 33.9,12.5 40.6,12.5 	"/>
	<path fill="#F1E9DF" d="M0.8,16.2l4,44.7l17.9,5l17.9-5l4-44.7H0.8z M36,29.5H22.7H15l0.5,5.6h7.2h12.8L34,52l-11.2,3.1l0,0
		L11.5,52l-0.8-8.8h5.5l0.4,4.6l6.1,1.7l0,0l6.1-1.7l0.6-7.1h-6.8H10.5L9,24h13.7h13.7L36,29.5z"/>
	<polygon fill="#F1E9DF" points="7.7,9.7 10.2,9.7 10.2,12.5 13,12.5 13,4.1 10.2,4.1 10.2,6.9 7.7,6.9 7.7,4.1 4.9,4.1 4.9,12.5 
		7.7,12.5 	"/>
</g>
<g>
	<polygon fill="#F1E9DF" points="82.9,7.2 82.9,4.1 78.8,4.1 76,4.1 75.7,4.1 75.7,12.5 76,12.5 78.8,12.5 82.9,12.5 82.9,9.4 
		78.8,9.4 78.8,7.2 	"/>
	<polygon fill="#F1E9DF" points="92.5,4.1 85.5,4.1 85.5,7.2 88.1,9.4 85.5,9.4 85.5,12.5 92.5,12.5 92.5,9.4 89.8,7.2 92.5,7.2 	
		"/>
	<polygon fill="#F1E9DF" points="102,4.1 95,4.1 95,7.2 97.6,9.4 95,9.4 95,12.5 102,12.5 102,9.4 99.3,7.2 102,7.2 	"/>
</g>
<path fill="#F1E9DF" d="M66.5,16.2l4,44.2l18.3,5.3l18.1-5.1l4.2-44.5H66.5z M102.2,28.8l-13.6,6l13.1-0.1l-1.3,16.4l-11.4,3.2
	L77.5,51l-0.6-8.4l5.4-0.1l0.3,4.4l6.3,1.9l6.4-1.8l0.9-7l-19.3-0.1l-0.7-5.3L89.7,29l-14.2-0.1l-0.6-5.4h27.8L102.2,28.8z"/>
<rect x="53.9" y="28.3" fill="#F1E9DF" width="2.5" height="13.5"/>
<rect x="48.3" y="33.8" fill="#F1E9DF" width="13.5" height="2.5"/>
</svg>
