<svg version="1" xmlns="http://www.w3.org/2000/svg" viewBox="0 0 112 70"><g fill="#F1E9DF"><path d="M16.7 12.5h2.7V6.9h2.5V4.1h-7.7v2.8h2.5zM25.9 12.5V8.4l1.9 2.9 1.9-2.9v4.1h2.8V4.1h-2.9l-1.8 3-1.8-3h-2.9v8.4zM40.6 9.7h-3.9V4.1h-2.8v8.4h6.7zM.8 16.2l4 44.7 17.9 5 17.9-5 4-44.7H.8zM36 29.5H15l.5 5.6h20L34 52l-11.2 3.1L11.5 52l-.8-8.8h5.5l.4 4.6 6.1 1.7 6.1-1.7.6-7.1H10.5L9 24h27.4l-.4 5.5zM7.7 9.7h2.5v2.8H13V4.1h-2.8v2.8H7.7V4.1H4.9v8.4h2.8z"/></g><g fill="#F1E9DF"><path d="M82.9 7.2V4.1H75.7v8.4H82.9V9.4h-4.1V7.2zM92.5 4.1h-7v3.1l2.6 2.2h-2.6v3.1h7V9.4l-2.7-2.2h2.7zM102 4.1h-7v3.1l2.6 2.2H95v3.1h7V9.4l-2.7-2.2h2.7z"/></g><path fill="#F1E9DF" d="M66.5 16.2l4 44.2 18.3 5.3 18.1-5.1 4.2-44.5H66.5zm35.7 12.6l-13.6 6 13.1-.1-1.3 16.4L89 54.3 77.5 51l-.6-8.4 5.4-.1.3 4.4 6.3 1.9 6.4-1.8.9-7-19.3-.1-.7-5.3L89.7 29l-14.2-.1-.6-5.4h27.8l-.5 5.3zM53.9 28.3h2.5v13.5h-2.5z"/><path fill="#F1E9DF" d="M48.3 33.8h13.5v2.5H48.3z"/></svg>