<svg version="1" xmlns="http://www.w3.org/2000/svg" viewBox="0 0 48 70"><path fill="#F1E9DF" d="M31.8 63.6c0-.1 0-.1 0 0 0-.1 0-.1 0 0l-1.5-2.9c-2 .5-4.2.7-6.4.7s-4.3-.3-6.4-.7L16 63.6c-.2.4 0 .9.4 1.2 0 0 .1 0 .1.1l.3.1c2.2.5 4.5.7 6.9.7s4.7-.3 6.9-.7c.1 0 .2 0 .3-.1h.1c.4-.2.6-.6.5-1 .4-.2.4-.3.3-.3zm14.3-21.2c-.7 0-1.3.6-1.3 1.3v4.1c-1.8-2.7-4.2-5-6.8-6.7-.2 2-.6 4.1-1 6.1-.1.6-.7 1-1.3 1h-.3c-.7-.2-1.1-.8-1-1.5.9-3.8 1.3-7.7 1.3-11.8C35.7 22 31.2 10.4 24 2.7 16.9 10.5 12.3 22 12.3 34.9c0 4 .5 7.9 1.3 11.5v.2c.2.7-.3 1.4-1 1.6s-1.4-.3-1.6-1c-.5-2-.8-4.1-1-6.2-2.6 1.8-5 4.1-6.8 6.8v-4.1c0-.7-.6-1.3-1.3-1.3-.7 0-1.3.6-1.3 1.3v23.4c0 .7.6 1.3 1.3 1.3s1.3-.6 1.3-1.3c2.4-6 7.1-10.6 12.8-12.8.5 1.3 1.1 2.5 1.7 3.7 4.1 1 8.4 1 12.5 0 .6-1.2 1.2-2.4 1.7-3.7 5.7 2.2 10.5 6.8 12.8 12.8 0 .7.6 1.3 1.3 1.3.7 0 1.3-.6 1.3-1.3V43.7c.1-.7-.5-1.3-1.2-1.3zM24 33.8c-2.9 0-5.2-2.3-5.2-5.2s2.3-5.2 5.2-5.2c2.9 0 5.2 2.3 5.2 5.2s-2.3 5.2-5.2 5.2zm0-18.2c-1.9 0-3.7.2-5.5.5 1.4-3.5 3.3-6.7 5.5-9.5 2.2 2.8 4 6 5.5 9.5-1.8-.3-3.6-.5-5.5-.5z"/></svg>