<?xml version="1.0" encoding="utf-8"?>
<!-- Generator: Adobe Illustrator 17.1.0, SVG Export Plug-In . SVG Version: 6.00 Build 0)  -->
<!DOCTYPE svg PUBLIC "-//W3C//DTD SVG 1.0//EN" "http://www.w3.org/TR/2001/REC-SVG-20010904/DTD/svg10.dtd">
<svg version="1.0" id="Слой_1" xmlns="http://www.w3.org/2000/svg" xmlns:xlink="http://www.w3.org/1999/xlink" x="0px" y="0px"
	 viewBox="0 0 48 70" enable-background="new 0 0 48 70" xml:space="preserve">
<path fill="#F1E9DF" d="M31.8,63.6C31.8,63.5,31.8,63.5,31.8,63.6C31.8,63.5,31.8,63.5,31.8,63.6l-1.5-2.9c-2,0.5-4.2,0.7-6.4,0.7
	c-2.2,0-4.3-0.3-6.4-0.7l-1.5,2.9c-0.2,0.4,0,0.9,0.4,1.2c0,0,0.1,0,0.1,0.1c0,0,0,0,0,0c0,0,0,0,0,0l0.3,0.1
	c2.2,0.5,4.5,0.7,6.9,0.7s4.7-0.3,6.9-0.7c0.1,0,0.2,0,0.3-0.1c0,0,0,0,0,0c0,0,0.1,0,0.1,0c0,0,0,0,0,0c0.4-0.2,0.6-0.6,0.5-1
	C31.9,63.7,31.9,63.6,31.8,63.6z M46.1,42.4c-0.7,0-1.3,0.6-1.3,1.3v4.1c-1.8-2.7-4.2-5-6.8-6.7c-0.2,2-0.6,4.1-1,6.1
	c-0.1,0.6-0.7,1-1.3,1c-0.1,0-0.2,0-0.3,0c-0.7-0.2-1.1-0.8-1-1.5c0.9-3.8,1.3-7.7,1.3-11.8c0-12.9-4.5-24.5-11.7-32.2
	c-7.1,7.8-11.7,19.3-11.7,32.2c0,4,0.5,7.9,1.3,11.5c0,0.1,0,0.1,0,0.2c0.2,0.7-0.3,1.4-1,1.6s-1.4-0.3-1.6-1c-0.5-2-0.8-4.1-1-6.2
	c-2.6,1.8-5,4.1-6.8,6.8v-4.1c0-0.7-0.6-1.3-1.3-1.3c-0.7,0-1.3,0.6-1.3,1.3v23.4c0,0.7,0.6,1.3,1.3,1.3s1.3-0.6,1.3-1.3v0
	c2.4-6,7.1-10.6,12.8-12.8c0.5,1.3,1.1,2.5,1.7,3.7c4.1,1,8.4,1,12.5,0c0.6-1.2,1.2-2.4,1.7-3.7c5.7,2.2,10.5,6.8,12.8,12.8v0
	c0,0.7,0.6,1.3,1.3,1.3c0.7,0,1.3-0.6,1.3-1.3V43.7C47.4,43,46.8,42.4,46.1,42.4z M24,33.8c-2.9,0-5.2-2.3-5.2-5.2s2.3-5.2,5.2-5.2
	c2.9,0,5.2,2.3,5.2,5.2S26.9,33.8,24,33.8z M24,15.6c-1.9,0-3.7,0.2-5.5,0.5c1.4-3.5,3.3-6.7,5.5-9.5c2.2,2.8,4,6,5.5,9.5
	C27.7,15.8,25.9,15.6,24,15.6z"/>
</svg>
