<svg xmlns="http://www.w3.org/2000/svg" width="101.5" height="71" viewBox="-3 0 101.5 71"><path fill="#F1EADF" d="M85.238 25.796h-25.93v41.009h33.024V32.43l-7.094-6.634zm4.7 38.604h-28.23V31.412v-3.22h22.59c.572.543 5.005 4.688 5.642 5.28-.002.975-.002 28.744-.002 30.928z"/><g fill="#FFF"><path d="M31.135 29.19c.415-.09.87-.163 1.365-.215.496-.052.99-.078 1.487-.078.53 0 1.05.05 1.564.146.514.098.972.292 1.376.58.403.288.73.693.985 1.218s.38 1.208.38 2.05c0 .76-.105 1.405-.32 1.935-.212.53-.498.962-.854 1.296-.357.335-.77.578-1.236.727a4.69 4.69 0 0 1-1.443.225h-.225a6.297 6.297 0 0 1-.666-.034 1.87 1.87 0 0 1-.233-.035v4.166h-2.178V29.19zm2.178 5.86c.07.024.2.044.39.062.19.017.32.026.388.026.254 0 .497-.035.727-.104.23-.07.435-.187.614-.354.18-.167.32-.398.424-.69.104-.295.156-.667.156-1.116 0-.38-.05-.703-.147-.968-.098-.265-.23-.475-.398-.63s-.36-.27-.58-.338a2.29 2.29 0 0 0-.69-.104c-.357 0-.65.03-.882.086v4.13zM44.047 38.06c0-.37-.11-.684-.328-.943a4.367 4.367 0 0 0-.822-.735 25.04 25.04 0 0 0-1.072-.708 6.264 6.264 0 0 1-1.07-.847 4.26 4.26 0 0 1-.822-1.14c-.22-.44-.33-.975-.33-1.608 0-.59.09-1.087.27-1.496a2.65 2.65 0 0 1 .734-1.002c.31-.26.68-.45 1.105-.57.427-.12.882-.182 1.366-.182.586 0 1.134.058 1.64.173s.93.27 1.263.467l-.674 1.918c-.197-.138-.488-.265-.874-.38-.386-.115-.804-.173-1.253-.173s-.795.092-1.037.277c-.242.184-.363.455-.363.812 0 .323.11.608.33.856.218.248.49.487.82.717.328.23.685.47 1.07.717.387.248.744.536 1.072.864.328.328.602.714.82 1.158.22.443.33.97.33 1.582s-.09 1.14-.27 1.59a2.91 2.91 0 0 1-.76 1.115 3.264 3.264 0 0 1-1.185.666c-.46.148-.974.224-1.538.224-.715 0-1.34-.07-1.875-.207-.536-.14-.948-.295-1.236-.467l.71-1.954c.23.138.547.276.95.415.402.14.835.21 1.296.21 1.155-.003 1.73-.452 1.73-1.35zM47.832 29.07c.208-.034.44-.06.7-.077l.795-.052a20.21 20.21 0 0 1 1.46-.042c.957 0 1.756.146 2.395.44.64.294 1.152.71 1.54 1.245.385.536.658 1.178.82 1.927.16.75.24 1.584.24 2.506 0 .84-.076 1.645-.232 2.41a5.556 5.556 0 0 1-.82 2.023c-.393.58-.923 1.045-1.59 1.39s-1.51.52-2.524.52c-.15 0-.352-.007-.604-.018a44.85 44.85 0 0 1-.796-.044l-.795-.05a6.82 6.82 0 0 1-.587-.062V29.07zm3.18 1.833c-.184 0-.37.003-.56.01s-.338.02-.44.042v8.33c.033.013.094.022.18.027.087.006.18.01.277.017l.275.016c.086.006.146.01.182.01.52 0 .944-.122 1.278-.364.335-.242.597-.564.787-.968a4.9 4.9 0 0 0 .397-1.39 11.81 11.81 0 0 0 .11-1.652c0-.53-.03-1.042-.094-1.538-.063-.496-.185-.93-.363-1.305s-.433-.675-.76-.9-.752-.337-1.27-.337z"/></g><g fill="#FFF"><path d="M68.736 42.35h1.14v6.325h-1.14V42.35zM72.404 45.566l-.415-1.11h-.047l.145 1.093v3.125h-1.075v-6.37h.877l1.816 3.18.39 1.094h.053l-.146-1.076V42.35h1.075v6.37h-.877l-1.8-3.154zM76.118 42.35c.108-.018.23-.03.366-.04.136-.01.274-.02.416-.027s.278-.015.41-.02l.354-.003c.5 0 .917.076 1.25.23.335.153.604.37.806.65.2.28.345.615.43 1.008.083.39.126.828.126 1.31 0 .44-.04.86-.122 1.26-.082.4-.225.754-.43 1.058-.205.305-.48.547-.83.728s-.79.27-1.32.27c-.078 0-.184-.002-.316-.008l-.415-.023-.416-.026a3.823 3.823 0 0 1-.308-.032V42.35zm1.663.958a7.3 7.3 0 0 0-.293.005c-.1.002-.176.01-.23.02v4.356c.02.006.05.01.095.013l.145.01.145.01.096.003c.27 0 .493-.062.668-.19a1.28 1.28 0 0 0 .41-.505c.1-.21.17-.452.21-.727a6.373 6.373 0 0 0 .01-1.667 2.26 2.26 0 0 0-.19-.682 1.173 1.173 0 0 0-.398-.47c-.175-.117-.396-.175-.667-.175zM81.178 42.35c.108-.018.23-.03.366-.04.136-.01.274-.02.416-.027s.278-.015.41-.02l.354-.003c.5 0 .917.076 1.25.23.335.153.604.37.806.65.2.28.345.615.43 1.008.083.39.126.828.126 1.31 0 .44-.04.86-.122 1.26-.082.4-.225.754-.43 1.058-.205.305-.48.547-.83.728s-.79.27-1.32.27c-.078 0-.184-.002-.316-.008l-.415-.023-.416-.026a3.823 3.823 0 0 1-.308-.032V42.35zm1.663.958a7.3 7.3 0 0 0-.293.005c-.1.002-.176.01-.23.02v4.356c.02.006.05.01.095.013l.145.01.145.01.096.003c.27 0 .493-.062.668-.19a1.28 1.28 0 0 0 .41-.505c.1-.21.17-.452.21-.727a6.373 6.373 0 0 0 .01-1.667 2.26 2.26 0 0 0-.19-.682 1.173 1.173 0 0 0-.398-.47c-.175-.117-.397-.175-.667-.175z"/></g><g fill="#FFF"><path d="M14.022 43.28h-2.29l-.568 2.22H9.43l2.817-9.78h1.373l2.83 9.78h-1.83l-.598-2.22zm-1.914-1.415h1.61l-.556-2.262-.222-1.526h-.055l-.236 1.54-.542 2.248zM17.323 36.607c0-.278.088-.506.264-.687.176-.18.425-.27.75-.27s.582.087.776.263c.194.176.292.407.292.694s-.097.513-.292.68-.453.25-.777.25-.573-.085-.75-.257c-.175-.17-.263-.395-.263-.673zm.18 1.956h1.65V45.5h-1.65v-6.937z"/></g><path fill="none" d="M59.43 7.185H26.864v52.2h30.19V23.358h10.512v-8.563c-.92-.853-7.31-6.827-8.134-7.61z"/><path fill="#F1EADF" d="M26.863 59.385V11.826v-4.64H59.43c.826.782 7.217 6.756 8.136 7.608v8.563h3.452V13.295L60.788 3.73h-37.38V62.85H57.05v-3.468h-30.19z"/><path fill="none" d="M4.95 23.423V59.63h16.175V23.423H4.95z"/><path fill="#F1EADF" d="M4.95 59.63V26.642v-3.22h16.175v-2.396H2.552v41.009h18.573V59.63H4.95z"/></svg>