<svg width="60" height="60" viewBox="0 0 60 60" xmlns="http://www.w3.org/2000/svg"><g fill="none"><circle fill="#F5DA55" cx="30" cy="30" r="30"/><g fill="#000"><path d="M48.77 22.554c-.12.555-.314.965-.576 1.238l-.187-.121c.202-.524.3-.828.292-.904l-.053-.083c-.067.007-.157.19-.27.554l-.097.008a.433.433 0 0 0-.052-.175l-.045.007c-.884 2.5-1.281 3.661-2.098 5.583-.15.493-.277.767-.39.82.008.053.038.084.098.076.022.243-.038.478-.165.714-.382 1.101-.63 1.709-.757 1.815l.083.524c.007.053-.023.091-.083.091l-.09.008c-.015-.144-.067-.213-.157-.205l-.045.007a2.225 2.225 0 0 0-.262.638l.09-.007c.12-.076.172-.167.165-.281l.18-.015.097.038c-.083.129-.12.235-.112.31l.044.084-.112.274.008.045a.552.552 0 0 1 .337.1.64.64 0 0 0 .27-.107c.104-.008.479-.015 1.138-.015l.33-.114c.404-.008.464.007.816-.023l.143-.015.075-.053.007.045c.36-.03.39-.007.674.03l.008.046-.202.015.007.084a.287.287 0 0 0 .157-.06c.053-.008.083.022.09.083-.082.007-.172.03-.277.06l-.09-.03c-.142.038-.112.046-.202.053l-.142-.03c0 .023-.008.038-.03.045.007.054.03.084.082.076l.172-.015-.075-.03c0 .023.015.038.045.038l.742-.069.285-.06c0 .022.015.038.037.038l.135-.054.255-.022c.202-.016.195-.03.622-.1 0-.022.007-.037.03-.037v.038c.816-.137.741-.13.914-.19l-.038-.091c-.232.053-.225.023-.344.038l-.622.03-.008-.045.345-.046.127-.007.068-.054.007.046c.487-.046.66.083 2.93-.403.12-.007.112-.114.187-.326a.217.217 0 0 1-.12-.03c-.187.075-.285.037-.644.098-.03 0-.053-.023-.068-.083v-.038l.345.015c.06-.008.195-.015.374-.122.038.023-.03.046.008.038l.06-.007c.037 0 .052-.03.052-.091l-.037-.084c-.232.023-.345.03-.532.137l-.008-.046-.284.03c-.008-.09-.03-.129-.068-.129l-.15.016c-.172.015-.254.007-.337.076 0-.03-.015-.046-.03-.046l-.164.015-.098.053c0-.03-.015-.045-.03-.045l-.06.053-.007-.046-.225-.015-.052.008.007.083.12.03.105-.007c.037.023.082.03.127.03l.098-.045v.038c-.532.137-.532.106-.9.175-.044-.03-.074-.038-.09-.038-.037.038.046.007.023.007-.06.008-.09-.023-.097-.076l.187-.023c.015 0 .022.016.127.038.15-.076.158-.106.24-.113l-.007-.084c-.525.106-.315.038-.974.091h-.03l-.008-.083c.847-.107.562-.046.847-.13 0 .03.015.046.03.046a.176.176 0 0 1 .12-.053l.06-.008c.292-.023.397.038.981-.129v.038l.097-.045.09-.008c-.007-.091.128-.099.165-.106l-.007-.092c-1.027.213-1.296.152-1.581.236v-.038c-.27.053-.277.023-.345.03-.022 0-.052.023-.082.054 0-.03-.015-.046-.038-.046-.045 0-.022.015-.06.053l.06-.053-.891.144c0-.023-.015-.038-.038-.038-.45.099-.33.114-.936.167a.217.217 0 0 0-.113.046c0-.023-.014-.038-.044-.038l-.375.03-.247.061c0-.023-.015-.038-.045-.038-.143.038-.262.06-.36.068h-.007c-.06.008.03-.015-.015-.038l-.075.046c-.113.008-.053-.008-.427 0-.66.084-.585.091-.66.099l-.247-.015c0 .022-.007.038-.037.045-.277-.038-.42-.083-.427-.137.037-.265.097-.402.194-.417l.045-.008-.045.091.045-.007c.09-.046.128-.091.128-.137l-.008-.091-.09.007-.007-.083a.332.332 0 0 1 .022-.175l.203-.326.007.083.098-.007-.008-.084-.052-.084c.067-.06.127-.098.172-.098l-.008-.046-.127.008-.007-.13c.254-.546.382-.865.374-.949l.09.038c.06-.007.09-.038.083-.098l-.09.007v-.038a.36.36 0 0 1 .03-.182c.142-.144.202-.296.187-.456.03 0 .045.015.045.046.12-.069.21-.25.277-.555.21-.387.51-1.162.899-2.316.75-2.043.72-2.263.824-2.742l-.09.008a.286.286 0 0 1-.037.174.493.493 0 0 0-.143-.038v-.038c-.015-.174.06-.387.225-.638h.038l.075.297.09-.008c0-.023.022-.137.067-.357-.008-.045-.038-.068-.105-.076l-.082.053c-.008-.06 0-.22.007-.486l-.082.015zm-1.078 1.314l.045-.007c-.068.121-.12.19-.173.197l-.007-.129a.337.337 0 0 0 .135-.06zm-.375.912c.09-.372.18-.585.262-.638l.008.045c-.045.35-.12.524-.225.54l.015.22c-.082.114-.12.205-.112.273l-.045.008-.023-.304c.045-.008.09-.053.12-.144zm-.142.493c.007.054-.03.175-.097.357l-.045.008-.008-.13c.053-.151.105-.227.15-.235zm-2.465 5.522l.045.083c.067-.007.097-.037.09-.09l-.008-.046-.044.007-.083.046zm1.184.995v.038c.067-.008.135-.13.195-.365l-.09-.03c-.075.205-.105.319-.105.357zm7.582.266v.038l-.075.09.142-.052h.015l-.008-.084h-.03l-.052.046c0-.023.157-.069.038-.091-.023.038.037.045-.03.053zm.292.302l.202-.02c-.007-.072-.135-.092-.18-.092h-.03l.008.112zm-3.581.047l.06.076c0-.023.007-.038.03-.038l.044.084-.187-.023c-.015-.061.008-.091.053-.099zm-.615.069c.068-.01.113.042.113.111h-.21v-.043a.238.238 0 0 0 .097-.068zm.48-.023l.007.067-.172.023-.008-.068.173-.022zm-1.738.182c0 .023.015.038.045.038.277-.053.247-.06.382-.076.045-.008.067.023.075.076l-.772.068.075.038-.008-.045-.292.022-.007-.045.262-.023.24-.053zm.794-.068v.05c-.023 0 .075.01.03.062-.165-.02-.173-.04-.292-.03v-.052l.262-.03zm.195-.023v.056l-.143.023v-.057l.143-.022zm-4.782.774l.008.13c-.051.007-.094-.023-.111-.084v-.038l.103-.008zm6.4-.113l.007.083.15-.015-.06-.038.008.045.15-.06c1.026-.114 1.146-.069 1.13-.19v-.038c-1.033.235-1.168.19-1.385.213zm1.603-.145l.15.03-.008-.083-.15-.03.008.083zm-4.435.296c.045.023-.053.046.007.038l.525-.045.007.045c-.15.016-.247.038-.277.069 0-.03-.015-.046-.045-.046l-.225.023-.007-.046c.06-.007-.03-.007.015-.038zm2.427-.06l.045.083c.173-.038.075-.03.12-.068 0 .03.015.045.03.045l.12-.007-.008-.091-.314-.008.007.046zm-2.948.355h-.045l-.01-.112h.044l.01.112zm-2.363.26l.007.045 1.379-.113-.008-.084-1.101.091-.232-.03-.045.09zm1.539-.055h.022l-.01-.112h-.023l.011.112zM25.763 26.489c-.974 1.177-1.476 1.822-1.513 1.952-.397.417-.592.668-.57.751-.104.069-.15.137-.134.213-.03.008-.053-.008-.06-.038a1.17 1.17 0 0 1-.757.54l-.352.083c-.045.007-.068.045-.068.106l.008.046.135-.03.007.037-.3.114-.531.122-.278.015c-.037.038.218-.008.12.023l-.344.083c-.21.053-.33.03-.345-.053l-.037.008c.022.083 0 .136-.06.152l.067-.016-.03-.129-.63.152.068.03c-.007-.03-.037-.037-.097-.022l-.083.068-.097-.023a.73.73 0 0 1-.165.084l-.097-.023c-.262.152-.068.152-.083.152l.023.084.15-.038.232-.016-.022.1c-.855.227-.233.098-.465.151l-.045.008.023.083.134-.03.008.045c-.172.038-.27.076-.3.114l-.007-.045c-.225.053-.45.228-.675.516.038.167-.449.372 1.843-.167.158-.007.248-.007.27-.015-.007-.03.008-.046.038-.053.254-.03.135.015.292-.023l.494-.114-.105.06c-.007-.022.008-.037.03-.045.06.015.12.008.188-.007l.03.129-1.956 3.144-.434.547-.21.721.037-.007.21-.091-.067.28.022.084.06.076c-.03.008-.037.023-.03.053l.008.046.09-.023c.127-.114.18-.22.164-.311.143.023.233.03.278.023l.007.045c-.082.023-.127.091-.135.205l.008.046.045-.008c.711-.782 2.442-3.463 3.836-5.286-.045-.197.681-.47 2.18-.82l.045-.008c.052.236-.06.813-.345 1.732-.187.554-.27.858-.262.904-.24.736-.352 1.131-.337 1.192l-.532 1.762a15.83 15.83 0 0 0-.787 2.856c.03-.008.082 0 .142.015l.075-.068c.008.03.023.038.06.038l-.03-.13.233-.007c.067-.015.127-.106.172-.266-.008-.235.037-.364.142-.395.143-.562.232-.85.262-.858.135-.562.233-.881.3-.965.202-.729.345-1.108.442-1.131l.023.09-.143.388c-.254 1.147-.517 2.058-.779 2.727l.075.334.045-.008c.637-1.382 1.543-4.116 2.734-8.202.038-.357.203-.638.51-.836l-.067-.068-.008-.038c.135-.03.232-.083.285-.16-.008-.03-.128-.075-.36-.136l.704-3.053c.21-.912.352-1.71.427-2.408l-.007-.045a1.633 1.633 0 0 1-.412-.388v-.182l-.008-.038-.037.008c-.435.668-1.304 1.83-2.585 3.486zm.997.69c.037.16-.023.456-.173.89-.045.546-.24.858-.577.941l-.007-.045-.3.113-.135.03a.313.313 0 0 1-.187-.007l-.03-.121c-.007-.046.42-.653 1.304-1.815l.105.015zm-.69 1.9l.098-.023.022.083c-.472.145-.734.22-.786.236a.338.338 0 0 0-.128.076c-.007-.03-.067-.03-.187-.008-.023-.084.307-.205.981-.365zm-4.652 1.275l.105-.022-.023-.091-.105.022.023.091zm1.37-.364l.023.095-.224.017-.008-.052.21-.06zm-2.621.873l.007.068-.142.045-.008-.068.143-.045zm-.262.557l.007.051-.172.052-.023-.113.188.01zm.412-.093l.007.038-.315.076-.007-.038.315-.076zm.547-.092l.007.046-.824.19-.023-.084c.48-.083.427-.053.84-.152zm4.128-.972l.067.076a.457.457 0 0 0-.21.091l-.097-.015c-.15.06-.285.107-.39.13l-.09.022c-.052.015-.09-.008-.112-.06l.622-.145.21-.099zm.442-.098l.442-.107.007.046c-.24.053-.427.114-.562.182l-.007-.045a.31.31 0 0 0 .12-.076zm-4.645 1.276l.21-.046.022.083c-.09.023-.023.023-.135.076-.217.023-.172-.007-.517.076l-.007-.045.427-.144zm.569-.099c.06-.016.097.008.105.071l-.127.032c-.053.016-.09-.008-.113-.071l.135-.032zm-2.344 4.8l.01.045c.083-.015.114-.045.093-.106l-.01-.046c-.073.016-.104.046-.093.107zm.179.76c.015.052.045.075.105.06s.082-.046.067-.106l-.007-.046-.09.023-.075.068zm4.78 1.306c.06-.016.09.007.105.06l.007.046-.172.038a.296.296 0 0 0 .007-.137l.053-.007z"/><path d="M30.91 24.157c-.39.281-.831.57-1.326.85l.008.084c.03 0 .074-.023.134-.06.06-.008.09.022.098.075l.082-.045h.038v.038c.007.045-.308.288-.922.729l.045.091h-.037l-.098-.038c0 .03-.037.053-.127.06v.039l.097.121a.327.327 0 0 1-.142-.038c-.202.015-.397.167-.592.44l.045.084c.172-.16.27-.243.3-.243l.007.13c-.03 0-.075.022-.135.06l.113.16c.202-.228.427-.418.666-.578.12.038.188.076.188.114l.09-.007c.674-.501 1.333-.858 1.985-1.079l.008.084c-.12.182-.203.273-.248.28.008.062.023.115.053.168.007.114-.285.873-.884 2.278-1.371 3.259-2.518 5.674-3.447 7.238 0 .03.023.076.06.13.233-.054.375-.114.435-.168h.037l.008.084.097-.008.083-.045c0 .023.03.038.09.03l.007.091c.008.084-.045.213-.142.395-.098.107-.203.334-.307.676l.007.046.09-.008c.375-.425.652-.835.847-1.245 1.086-.327 1.91-.638 2.487-.95.584-.053 1.019-.205 1.318-.455l-.007-.046-.225.068-.045.008-.007-.046c.427-.06.719-.16.876-.288.824-.646 1.446-1.102 1.873-1.367 1.304-.972 1.918-1.9 1.843-2.795-.007-.091-.292-.456-.861-1.094-.008-.121.187-.296.584-.524l1.139-1.003c.254-.326.404-.858.45-1.594l-.016-.168c-.045-.508-.412-.919-1.101-1.238-.412-.28-1.146-.432-2.203-.463-.854.06-2 .38-3.416.942zm6.098.06l-.044.092-1.26-.54c.847.039 1.282.183 1.304.449zM31.9 27.773c.09-.478.187-.744.292-.805l.952-2.157c-.008-.129.187-.235.599-.311l.135-.015.007.129c.405-.069.652-.107.757-.114.75-.069 1.139.09 1.169.455l.09-.007-.015-.205.09-.008c.217.122.33.266.344.44.008.122-.052.274-.18.456-.06.008-.09-.038-.097-.121l-.09.007-.03.259c-.382.584-.652.88-.824.896-.15.213-.247.319-.292.319-.12.144-.442.395-.974.737-.18.015-.832.273-1.963.774a.358.358 0 0 0-.18-.023l-.007-.083c-.015-.16.06-.365.217-.623zm5.23-2.658l.007.091c-.045 0-.128-.137-.262-.41l-.008-.084c.083-.007.172.13.262.403zm-8.302 1.033l.008.052c-.03 0-.075.026-.135.06h-.037l-.008-.095.172-.017zm2.75-.069l.007.13c-.045 0-.097.068-.164.182l-.008-.084c.075-.098.112-.174.112-.228h.053zm-.405.897l.022.167-.067.007-.022-.167.067-.007zm-.127.311c-.008.144-.045.22-.112.228l-.045.008c.052-.1.075-.175.067-.228l.09-.008zm-.195.448l.008.046-.075.136-.09.008-.008-.046c.09-.007.135-.053.128-.144h.037zm-.158.403l-.04.22H30.6l-.02-.22h.11zm4.586.16l.187.113c.008.053-.022.091-.082.091-.083-.053-.143-.076-.188-.068v-.13l.083-.007zm-3.611.485l.007.095-.18.018-.007-.095.18-.018zm2.914.312c.127.06.187.114.195.16v.037c-.12.008-.232-.053-.337-.19l.142-.007zm-3.753.934c.51-.046 1.31-.289 2.412-.73l.277-.022c.555-.046.967.06 1.244.327l.015.167c-.202.592-.427.941-.674 1.048l-1.132.926c-.846.562-1.303.843-1.378.85-1.349.753-2.188 1.14-2.517 1.17l-.045.008c.03-.16.629-1.405 1.798-3.744zm1.22-.494l.008.068-.18.022-.007-.067.18-.023zm4.084-.19l.03.35c-.045.083-.083.129-.127.136l-.053-.592c.097.03.15.068.15.106zm-6.915 2.978c-.06.288-.12.44-.18.44v-.038c-.022-.137.038-.273.18-.402zm1.131 1.625c.33-.06 1.236-.54 2.72-1.443l.007.083c0 .038-.12.152-.382.335-.749.38-1.199.63-1.333.759-.817.289-1.222.47-1.214.54-.727.288-1.199.5-1.431.637-.052.008-.135-.015-.232-.068-.015-.152.052-.266.195-.357a.814.814 0 0 1 .36.053c.134-.068.366-.144.703-.235l-.007-.084-.277.023c.03-.053.292-.175.779-.372l.135-.015v.038c-.233.022-.36.09-.39.212.008.053.038.084.098.076.187-.091.27-.16.27-.182zm-1.38-1.04v.037c.009.061-.028.099-.101.099l-.01-.046c0-.038.037-.075.11-.09zm2.107.592c-.105.007-.307.098-.607.266l-.045.007-.007-.083a.903.903 0 0 0 .562-.259c.06-.007.09.016.097.069zm-2.203.623l.135-.016.008.049a.38.38 0 0 0-.135.056l-.09.008c-.008-.048.022-.08.082-.097zm-.906.508l.09.038c-.03.266-.113.403-.233.41a.574.574 0 0 0-.277-.06l-.007-.13c-.008-.045.022-.075.082-.09.06-.008.09.037.098.121.15-.19.232-.289.247-.289zM13.274 23.777c-.51.38-1.094.752-1.745 1.117l.007.114c.045 0 .098-.03.172-.069.075-.007.12.023.12.099l.12-.068.06-.008.008.053c.007.053-.405.38-1.222.965l.068.106-.06.008-.127-.046c0 .038-.053.06-.173.068l.008.061.135.152a.473.473 0 0 1-.18-.038c-.262.023-.525.22-.78.585l.068.106c.225-.205.352-.311.39-.311l.015.167c-.038 0-.098.03-.173.068l.143.213c.27-.296.562-.547.891-.752.165.046.247.091.247.152l.12-.008c.877-.66 1.746-1.131 2.607-1.427l.008.113c-.157.244-.27.365-.33.373a.464.464 0 0 0 .083.22c.015.152-.375 1.147-1.169 3-1.813 4.299-3.326 7.473-4.548 9.54 0 .037.03.098.068.166.3-.076.494-.144.577-.22l.067-.008.008.114.112-.007.12-.069c0 .038.045.053.12.046l.007.114c.008.114-.052.288-.195.524-.127.144-.254.44-.397.888l.008.054.112-.008c.487-.554.862-1.101 1.117-1.633 1.43-.425 2.517-.843 3.274-1.253.756-.068 1.34-.266 1.73-.6l-.007-.06-.285.083-.067.007-.008-.06c.554-.084.944-.213 1.154-.38 1.086-.85 1.903-1.45 2.457-1.808 1.716-1.276 2.525-2.506 2.427-3.676-.007-.121-.39-.6-1.13-1.435-.016-.16.246-.387.77-.691l1.492-1.33c.33-.432.532-1.131.6-2.096l-.023-.227c-.06-.676-.54-1.223-1.454-1.64-.54-.373-1.506-.57-2.9-.593-1.145.106-2.659.516-4.517 1.245zm8.032.099l-.045.114-1.664-.706c1.11.045 1.679.243 1.709.592zm-6.728 4.678c.112-.622.24-.98.382-1.063l1.244-2.833c-.015-.174.247-.311.794-.402l.18-.015.015.159c.539-.084.869-.13.996-.144.989-.084 1.498.114 1.543.607l.113-.007-.023-.289.12-.008c.292.16.45.357.465.593.014.16-.068.357-.255.592-.075.008-.12-.045-.128-.16l-.12.008-.03.342c-.501.76-.861 1.147-1.086 1.17-.202.28-.33.425-.382.433-.157.19-.584.516-1.288.972-.233.023-1.094.357-2.585 1.018a.423.423 0 0 0-.24-.038l-.007-.107c-.015-.22.075-.493.292-.828zm6.885-3.493l.007.106c-.06.008-.172-.175-.337-.54l-.007-.105c.105-.016.217.167.337.539zm-10.938 1.352l.007.053c-.037 0-.097.03-.172.068l-.06.008-.007-.107.232-.022zm3.618-.091l.015.167c-.052.007-.127.083-.217.243l-.007-.114c.104-.13.157-.228.157-.296h.052zm-.533 1.184l.03.228-.08.008-.031-.228.081-.008zm-.163.41c-.015.19-.06.29-.158.297l-.06.007c.068-.129.105-.22.098-.288l.12-.016zm-.248.593l.008.053-.105.182-.112.008-.008-.053c.112-.008.165-.069.157-.183l.06-.007zm-.254.532l-.03.28-.06.008-.023-.28.113-.008zm6.076.205l.247.151c.007.076-.03.122-.105.13a.496.496 0 0 0-.247-.1l-.015-.166.12-.015zm-4.758.645l.008.106-.233.023-.007-.106.232-.023zm3.836.395c.165.076.247.152.255.213l.007.053c-.157.015-.3-.068-.434-.25l.172-.016zm-4.945 1.23c.675-.06 1.739-.38 3.184-.957l.353-.03c.734-.06 1.28.076 1.64.425l.023.228c-.27.79-.57 1.246-.892 1.39l-1.498 1.208c-1.116.744-1.716 1.116-1.806 1.124-1.775.995-2.884 1.504-3.311 1.542l-.068.007c.06-.212.847-1.853 2.375-4.937zm1.619-.645l.007.079-.24.033-.007-.078.24-.034zm5.379-.243l.037.448c-.052.121-.105.182-.165.182l-.067-.79c.127.054.187.107.195.16zm-9.118 3.919c-.075.387-.157.585-.24.592l-.007-.053c-.015-.197.067-.372.247-.54zm1.499 2.142c.434-.084 1.625-.722 3.58-1.9l.008.107c.008.046-.165.19-.502.44-.996.494-1.58.836-1.753 1.01-1.079.38-1.61.616-1.603.707-.96.388-1.588.669-1.888.843-.068.008-.172-.023-.307-.083-.015-.198.067-.357.262-.486a.942.942 0 0 1 .48.076c.18-.092.486-.198.928-.304l-.007-.114-.352.03c.045-.06.382-.22 1.026-.486l.18-.015.008.053c-.3.023-.472.122-.51.281.008.068.045.106.12.099.217-.152.33-.236.33-.258zm-1.843-1.375l.007.053c.008.076-.03.122-.105.13l-.007-.054c-.008-.068.03-.114.105-.13zm2.802.775c-.143.015-.405.129-.802.357l-.06.007-.008-.114a1.13 1.13 0 0 0 .735-.342c.082-.015.127.023.135.092zm-2.907.82l.18-.015.007.06c-.045 0-.097.03-.172.069l-.113.007c-.007-.053.023-.098.098-.121zm-1.192.676l.128.053c-.045.342-.142.516-.315.532a.759.759 0 0 0-.367-.076l-.015-.167c-.007-.069.03-.107.112-.13.075-.007.12.046.128.16.202-.25.315-.372.33-.372zM42.627 22.66l-.097-.037-1.596.25a.4.4 0 0 0-.217-.038c-.09.008-.225.038-.427.092l-.772.326.06.099c.038 0 .09-.023.158-.06l.27.022-.038.258c-.247.114-.397.281-.435.501-.374.168-.562.289-.562.365l.008.046.06-.008.105-.053.12.144.015.198c.007.06-.63 1.42-1.903 4.07-1.102 2.552-1.679 3.95-1.739 4.2-.374.107-.599.266-.659.471.008.069.12.107.337.13l.008.098-.098.167.015.198c.008.106.285.182.824.243 0-.038.015-.053.053-.061.007.122-.023.365-.105.73l.06-.008c.225-.312.33-.525.322-.646l.045-.008c.053-.007.112.061.18.198-.068.03-.307.577-.712 1.648l.06.099.06-.008c.502-1.283.817-1.997.944-2.134.66-.06 1.79-.175 3.409-.35l.097-.06c0 .038.023.053.06.045l.105-.007.097-.061c0 .038.023.053.06.046l1.222-.107c.322-.03.479-.129.464-.296-.007-.046.187-.099.577-.152.037 0 .09.008.165.03 0-.03.187-.06.577-.098.007-.205.075-.32.194-.327l-.007-.099a1.69 1.69 0 0 0-.375.084c-.254-.015-.42-.03-.487-.06a.377.377 0 0 1-.157.06l-.854.03-.105.054c0-.03-.022-.046-.06-.038l-.045.007-.112.053c0-.03-.09-.053-.27-.076l-.105.061-.21.015-.007-.053c1.094-.121 1.64-.273 1.626-.456.067-.007.105.03.112.1l.322-.084-.007-.1-2.622.077c0 .038-.015.053-.053.06l-.322-.03a.345.345 0 0 0-.202.076l-.12-.045c-.33.03-.577.068-.742.121a4.99 4.99 0 0 0-.75.008l-.591.053-.27-.03c-.015-.175.322-1.041 1.02-2.598.202-.524.389-.85.561-.972.038 0 .09.008.165.038l.42-.144.217.038c.36-.03.779-.137 1.258-.312.12-.007.21 0 .27.023l.322-.076.952-.084c.404-.038.846-.129 1.318-.273l-.007-.099c-.18.015-.27-.015-.277-.083-.015-.137-.143-.19-.39-.167l-.007-.1.262-.075.689-.06-.008-.1c-.03 0-.164 0-.427-.007l-.007-.106.27-.023c.067-.008.105-.046.097-.107-.36.008-.54-.007-.54-.053-2.494.122-3.738.145-3.745.069-.038 0-.09.022-.158.068l-.067-.106c.66-1.42 1.049-2.142 1.161-2.15.008.053-.022.145-.082.266l.007.046.105-.008c.262-.638.48-.964.667-.98.78-.068-.112-.121 1.566-.387.067.03.12.046.15.038.659-.137 1.573-.273 2.75-.418l-.008-.098-.63.06-.007-.098a.32.32 0 0 0 .187-.076l.008.053c.037 0 .082-.023.142-.069a.48.48 0 0 1 .247.03c.217-.06.39-.09.525-.106l.39-.038c.097-.06.142-.113.134-.167v-.045c-.097.007-.21 0-.345-.023-.007-.053.023-.091.09-.106l.727-.069.337-.083c0 .038.023.053.045.053.038 0 .082-.023.142-.068.173.022.278.03.3.022.135-.129.292-.235.465-.303-.075-.076-.113-.137-.12-.19l-.487.045c0-.038-.023-.083-.053-.152 0-.045.105-.09.33-.136l.097.038.09-.053c0 .03.023.045.053.037l.09-.053c0 .03.022.046.052.038l.045-.007-.007-.099a5.63 5.63 0 0 1-.532 0l-.09.06-.008-.052c-2.285.19-3.58.296-3.888.326-.038 0-.202 0-.48-.007 0 .038-.03.06-.097.06l-.097-.045-.337.083c-.075.008-.21 0-.398-.015a.378.378 0 0 1-.187.076c-.075.008 1.813-.106 1.753-.137l-.292.084-.045.007a2.36 2.36 0 0 1-.45-.015.448.448 0 0 1-.24.076.323.323 0 0 1-.194-.038 9.611 9.611 0 0 1-.727.16zm.12.305c0 .038.038.053.098.045l.007.099-.097.007a.323.323 0 0 1-.195-.038.341.341 0 0 1-.187.076h.03l-.27-.03-.008-.046c.33-.022.435-.06.622-.113zm.247-.023l.053-.008.007.099-.15.015c0-.053.023-.091.09-.106zm.577-.061l.008.053a1.962 1.962 0 0 0-.427.091l-.053.008.045-.106.427-.046zm-4.255.494l.165-.016-.008-.098-.165.015.008.099zm1.176-.107l.06-.007.112.045c.008.069-.03.107-.097.107l-.165.015-.007-.053c-.008-.053.03-.084.097-.107zm3.769.22v.068l-.338.045v-.067l.338-.045zm-.967.145l.008.079-.195.022-.008-.079.195-.022zm.93.076l.673-.114.345.015.008.053a1.626 1.626 0 0 0-.428.091c0-.038-.067-.068-.202-.083l-.532.152c-.105-.061-.157-.107-.157-.137l.292.023zm-.668.152c.068-.008.098.023.105.09l-.284.031-.008-.098.187-.023zm-.592-.03l.008.053 1.753-.084-.007-.053-1.754.083zm.105.136v.061l-.382.052v-.062l.382-.05zm-2.51 2.013l.008.053.112-.008c0-.038.008-.09.038-.16l-.008-.098c-.06.008-.112.076-.15.213zm-3.858 5.68l.008.046c.007.069-.03.107-.105.114l-.008-.045c-.007-.061.03-.091.105-.114zm-.097.213c.007.1-.06.342-.195.737l-.165.015c-.007-.068.083-.311.255-.736l.105-.016zm1.805 1.588c.008.053-.082.114-.254.174l-.33-.022-.105.007-.007-.098.696-.061zm.323.03l.007.068-.27.033-.007-.067.27-.034z"/></g></g></svg>