<svg width="60" height="60" viewBox="0 0 60 60" xmlns="http://www.w3.org/2000/svg"><g fill="none"><circle fill="#F84D1A" cx="30" cy="30" r="30"/><path d="M31.87 9.793a2.705 2.705 0 0 0-3.825 0L24.237 13.6l4.83 4.83a3.211 3.211 0 0 1 4.068 4.095l4.655 4.656a3.218 3.218 0 1 1-1.227 5.315 3.22 3.22 0 0 1-.7-3.5l-4.342-4.343V36.08a3.22 3.22 0 1 1-2.646-.094V24.455a3.218 3.218 0 0 1-1.747-4.22l-4.762-4.764L9.792 28.045a2.707 2.707 0 0 0 0 3.826L28.13 50.208a2.706 2.706 0 0 0 3.826 0l18.251-18.252a2.705 2.705 0 0 0 0-3.826L31.87 9.793z" fill="#FFF"/></g></svg>