<svg width="100" height="60" viewBox="0 0 100 60" xmlns="http://www.w3.org/2000/svg"><title>Group 2</title><defs><radialGradient fx="50%" fy="50%" id="a"><stop stop-color="#93B4E7" offset="0%"/><stop stop-color="#B9D1F8" offset="59.273%"/><stop stop-color="#9CB6E0" offset="100%"/></radialGradient></defs><g fill="none" fill-rule="evenodd"><g transform="translate(40)"><circle fill="#FFF" cx="30" cy="30" r="30"/><path fill="url(#a)" d="M17.004.06L.04 9.783v19.446l16.964 9.722L33.97 29.23V9.783z" transform="translate(13 10)"/><path fill="#6F95DB" d="M30.004 19.923l-8.412 4.821v9.643l8.412 4.822 8.413-4.822v-9.643z"/><path fill-opacity=".1" fill="#FFF" d="M30 10l-17 9.789 17 9.188 17-9.128zM30 30.238l-17 8.949 17 9.729 16.94-9.79z"/></g><g><circle fill="#D94749" cx="30" cy="30" r="30"/><g fill="#FFF"><path d="M29.906 43.481c-2.708 0-4.802-.397-5.808-.634-.689-.162-1.241-.33-1.661-.501l1.342 2.239.525 6.995c0 .784 2.553 1.42 5.7 1.42 3.149 0 5.701-.636 5.701-1.42l.416-7.071 1.27-2.17c-.422.175-.98.344-1.676.508-1.007.237-3.1.634-5.809.634zm7.529-22.763c-1.988.271-4.627.42-7.43.42s-5.442-.149-7.43-.42c-.985-.134-1.764-.292-2.316-.47a3.4 3.4 0 0 1-.57-.23l1.232 11.066a10.683 10.683 0 0 1 .693-1.71c.19-.372.397-.723.621-1.053.223-.33.461-.635.714-.913.252-.278.51-.517.776-.717.266-.2.534-.356.804-.47.271-.112.54-.168.805-.168.306 0 .602.081.887.245.286.163.553.427.802.793a.626.626 0 0 1 .109.247c.015.084.022.163.022.236 0 .175-.043.313-.128.414a.388.388 0 0 1-.305.152c-.108 0-.208-.055-.3-.166a3.14 3.14 0 0 1-.31-.475 1.157 1.157 0 0 0-.356-.406.762.762 0 0 0-.421-.125c-.236 0-.487.095-.754.286-.267.19-.532.442-.794.755-.263.313-.514.67-.754 1.073-.24.402-.453.814-.638 1.236a8.686 8.686 0 0 0-.441 1.247c-.11.41-.164.779-.164 1.105 0 .11.007.221.022.335.016.115.044.22.086.312.042.094.1.17.172.23.072.061.164.09.274.09.125 0 .266-.04.424-.121a3.19 3.19 0 0 0 .492-.321c.17-.132.34-.282.512-.45a8.079 8.079 0 0 0 .872-.999c.114-.157.2-.294.257-.411l.47-1.37a.645.645 0 0 1 .223-.315.505.505 0 0 1 .285-.093.45.45 0 0 1 .142.023.348.348 0 0 1 .214.201.475.475 0 0 1 .033.184c0 .186-.017.361-.05.525a4.09 4.09 0 0 1-.13.478c-.051.155-.11.312-.173.469-.064.157-.126.322-.187.493-.013.02-.038.08-.073.183a28.548 28.548 0 0 0-.292.91l-.182.589a46.98 46.98 0 0 0-.333 1.11 144.783 144.783 0 0 0-.169.578 1.36 1.36 0 0 1-.212.423.795.795 0 0 1-.166.168.311.311 0 0 1-.187.068c-.107 0-.185-.035-.234-.105-.049-.07-.073-.199-.073-.385v-.082c0-.027.002-.056.005-.087.003-.062.028-.18.076-.35a33.497 33.497 0 0 1 .38-1.25l.205-.622a9.916 9.916 0 0 1-.58.58 6.224 6.224 0 0 1-.64.52 3.82 3.82 0 0 1-.661.375 1.595 1.595 0 0 1-.64.146c-.236 0-.439-.05-.609-.151-.03-.019-.06-.04-.088-.06l.685 7.016c.179.436 3.538 1.509 7.967 1.509 4.432 0 7.792-1.074 7.968-1.51l.984-8.34-.236.213c-.283.256-.55.477-.8.661-.25.185-.495.328-.734.429a1.944 1.944 0 0 1-.766.152c-.256 0-.453-.055-.593-.164a.538.538 0 0 1-.209-.449v-.043a1.044 1.044 0 0 1 .162-.452c.09-.152.2-.31.327-.472.128-.164.264-.329.409-.496.144-.167.278-.326.4-.475.123-.15.225-.287.306-.411.08-.125.12-.226.12-.303a.136.136 0 0 0-.05-.111c-.033-.027-.089-.041-.166-.041a.965.965 0 0 0-.416.102c-.143.068-.284.16-.424.274-.14.115-.275.246-.408.394a5.83 5.83 0 0 0-.691.941 6.715 6.715 0 0 0-.33.627c-.037.078-.078.165-.121.262-.044.098-.09.198-.14.3l-.133.292-.108.245a5.465 5.465 0 0 1-.068.149c-.017.035-.045.1-.083.198a374.614 374.614 0 0 0-.577 1.499c-.038.096-.061.163-.072.198a2.1 2.1 0 0 1-.118.285c-.045.09-.097.168-.156.237a.712.712 0 0 1-.202.163.526.526 0 0 1-.254.06.506.506 0 0 1-.3-.084c-.08-.056-.12-.164-.12-.323 0-.078.01-.158.031-.24.02-.08.046-.162.076-.241.03-.08.061-.158.093-.233.032-.076.061-.15.088-.22.182-.388.367-.777.555-1.168.188-.39.369-.777.542-1.16l.104-.238-.03.03a6.655 6.655 0 0 1-.654.546 3.483 3.483 0 0 1-.645.376c-.214.093-.421.14-.623.14a.821.821 0 0 1-.345-.064.574.574 0 0 1-.222-.175.69.69 0 0 1-.119-.263c-.008-.034-.013-.07-.018-.106a3.643 3.643 0 0 1-.794.477 1.388 1.388 0 0 1-.544.13.522.522 0 0 1-.394-.157c-.1-.105-.15-.283-.15-.536 0-.179.026-.387.08-.624a3.187 3.187 0 0 1-.328.46c-.131.156-.28.298-.449.426a2.258 2.258 0 0 1-.565.312c-.208.08-.435.12-.68.12-.111 0-.218-.014-.32-.041a.677.677 0 0 1-.27-.14.702.702 0 0 1-.187-.265c-.047-.11-.07-.25-.07-.417 0-.004.006-.063.02-.178.013-.115.056-.295.128-.542.072-.247.184-.567.335-.96.152-.392.365-.868.64-1.428a.79.79 0 0 1 .245-.317.516.516 0 0 1 .588-.012.35.35 0 0 1 .106.11c.027.045.04.097.04.155a.396.396 0 0 1-.015.11 1.31 1.31 0 0 1-.108.26c-.056.107-.12.23-.195.368-.073.138-.152.286-.234.446-.082.159-.159.324-.23.495-.07.171-.13.345-.181.522-.05.177-.079.35-.086.516 0 .07.017.134.05.192.034.059.09.088.167.088.219 0 .427-.07.626-.21a2.75 2.75 0 0 0 .55-.522c.167-.208.32-.431.455-.67.137-.24.25-.458.34-.656.065-.132.121-.274.17-.426.048-.151.102-.291.159-.42.057-.128.122-.235.196-.32a.352.352 0 0 1 .278-.129c.12 0 .216.045.287.135.07.089.106.196.106.32 0 .07-.023.166-.068.289a8.106 8.106 0 0 1-.172.42c-.069.157-.143.325-.224.504-.08.179-.156.36-.224.545-.07.185-.126.365-.172.542a1.985 1.985 0 0 0-.068.493c0 .14.074.21.222.21a.986.986 0 0 0 .388-.105c.155-.07.317-.168.487-.295.042-.031.085-.064.127-.099.048-.19.103-.367.168-.527.118-.304.237-.605.358-.904l.333-.822 1.528-3.76a.632.632 0 0 1 .244-.321.595.595 0 0 1 .31-.094c.105 0 .2.033.285.1.086.066.129.172.129.32 0 .07-.014.144-.043.222a2.647 2.647 0 0 1-.108.25c-.084.183-.184.407-.3.67a93.415 93.415 0 0 0-.782 1.835l-.409.982a116.863 116.863 0 0 0-.673 1.65 3.22 3.22 0 0 0-.108.312 1.123 1.123 0 0 0-.053.318c0 .058.01.105.03.14.02.035.06.052.116.052.07 0 .159-.024.265-.073.106-.048.22-.113.343-.192.123-.08.25-.171.383-.274a11.839 11.839 0 0 0 1.092-.96.227.227 0 0 1 .077-.05c.057-.165.109-.327.155-.486.027-.07.064-.169.11-.297.048-.128.102-.255.162-.38.06-.123.129-.231.204-.323.076-.09.157-.137.245-.137.134 0 .232.03.292.09.06.061.091.15.091.266 0 .023-.003.06-.01.11a3.796 3.796 0 0 1-.058.322.721.721 0 0 1-.033.11c.125-.132.259-.263.404-.393.144-.13.294-.248.448-.353.155-.105.313-.19.475-.257a1.199 1.199 0 0 1 .814-.052.96.96 0 0 1 .292.137c.086.06.156.136.21.227.053.092.08.198.08.318 0 .16-.04.33-.123.51a3.67 3.67 0 0 1-.31.545c-.125.183-.26.36-.404.534-.144.173-.28.33-.406.472a40.53 40.53 0 0 0-.317.361c-.086.1-.13.167-.134.202 0 .046.015.084.045.114.03.029.081.043.152.043a.59.59 0 0 0 .252-.093 4.3 4.3 0 0 0 .466-.324c.2-.153.454-.36.762-.618.21-.177.458-.388.736-.628l1.334-12.057a3.388 3.388 0 0 1-.57.23c-.552.179-1.331.337-2.316.471zm-7.438-2.86c-5.766 0-10.44.629-10.44 1.405s4.674 1.406 10.44 1.406c5.766 0 10.44-.63 10.44-1.406 0-.776-4.674-1.406-10.44-1.406zm4.168 1.816c0 .182-.555.33-1.24.33-.686 0-1.241-.148-1.241-.33 0-.182.555-.33 1.24-.33.686 0 1.241.148 1.241.33z"/><path d="M31.935 19.528a.054.054 0 0 0-.01.03c0 .117.448.213 1 .213.551 0 .998-.096.998-.214l1.305-5.163 5.188-5.347a.104.104 0 0 0 .005-.005c.11-.12-.113-.496-.483-.818-.37-.322-.769-.43-.893-.308a.1.1 0 0 0-.003.003l-5.535 5.685-1.572 5.924z"/></g></g></g></svg>