<svg width="100" height="60" viewBox="0 0 100 60" xmlns="http://www.w3.org/2000/svg"><title>Group 3</title><g fill="none" fill-rule="evenodd"><path d="M70 60c16.569 0 30-13.431 30-30 0-16.569-13.431-30-30-30-16.569 0-30 13.431-30 30 0 16.569 13.431 30 30 30z" fill="#FFF"/><g transform="translate(51 13)"><ellipse fill="#00D8FF" cx="19.002" cy="16.732" rx="3.537" ry="3.532"/><path d="M19.002 9.55c4.749 0 9.16.68 12.486 1.824 4.008 1.378 6.472 3.467 6.472 5.358 0 1.971-2.612 4.19-6.915 5.615-3.254 1.076-7.535 1.638-12.043 1.638-4.622 0-8.998-.527-12.288-1.65-4.162-1.422-6.67-3.67-6.67-5.603 0-1.875 2.353-3.948 6.304-5.324 3.339-1.162 7.859-1.858 12.654-1.858z" stroke="#00D8FF"/><path d="M12.742 13.162c2.372-4.109 5.166-7.585 7.82-9.892 3.197-2.779 6.24-3.867 7.88-2.922 1.71.984 2.33 4.352 1.415 8.787-.692 3.353-2.343 7.338-4.595 11.238-2.309 4-4.953 7.522-7.57 9.807-3.312 2.892-6.514 3.938-8.191 2.973-1.627-.938-2.25-4.009-1.47-8.115.66-3.469 2.316-7.727 4.711-11.876z" stroke="#00D8FF"/><path d="M12.748 20.384c-2.38-4.105-4-8.259-4.675-11.707-.814-4.154-.238-7.33 1.4-8.278 1.708-.988 4.94.158 8.33 3.164 2.563 2.273 5.194 5.692 7.453 9.589 2.316 3.994 4.051 8.042 4.726 11.448.854 4.31.163 7.603-1.512 8.572-1.626.94-4.6-.055-7.772-2.781-2.68-2.304-5.547-5.862-7.95-10.007z" stroke="#00D8FF"/></g><g><path d="M30 60c16.569 0 30-13.431 30-30C60 13.431 46.569 0 30 0 13.431 0 0 13.431 0 30c0 16.569 13.431 30 30 30z" fill="#FFF"/><path fill="#DD0031" d="M30 9l-19.809 6.972 3.022 25.851L30 51l16.787-9.177 3.022-25.851z"/><path fill="#C3002F" d="M30 9v4.662-.021V51l16.787-9.177 3.022-25.851z"/><path d="M30 13.641L17.617 41.046h4.617l2.49-6.132h10.51l2.49 6.132h4.616L30 13.641zm3.617 17.493h-7.234L30 22.545l3.617 8.589z" fill="#FFF"/></g></g></svg>