<svg width="61" height="65" viewBox="0 0 61 65" xmlns="http://www.w3.org/2000/svg"><g fill="none"><ellipse fill="#F9DBB3" cx="30.04" cy="30.001" rx="30" ry="30"/><ellipse fill="#FAC67F" cx="30.49" cy="30.28" rx="28" ry="28"/><path d="M14.161 53.024c.907.585 1.793 1.232 2.762 1.773 1.118.624 2.33 1.131 3.532 1.609a25.669 25.669 0 0 0 9.5 1.834c8.138 0 15.596-3.233 20.766-8.614 4.859-5.057 7.74-12.008 7.74-19.425 0-9.696-4.996-18.499-12.769-23.453l-31.53 46.276z" fill="#F1B669"/><g fill="#FCEB9D"><path d="M16.093 33.698c.346 1.969 1.97 2.764 3.49 2.764 1.52 0 2.97-.933 2.97-2.35V23.231h-5.562v-5.597h11.677v16.478c0 5.321-4.664 8.327-9.327 8.327-4.215 0-8.395-2.35-9.086-7.532l5.838-1.21zM35.09 34.355c2.453 2.97 7.842 3.109 8.015.483.069-1.381-2.177-2.177-4.18-2.452-3.94-.622-7.532-3.11-7.532-7.773 0-4.802 4.352-7.324 8.844-7.324 2.97 0 5.838.83 8.36 3.904l-4.042 3.11c-2.556-2.73-6.944-2.626-7.048.207.069 1.174 1.348 1.865 3.248 2.28 4.353.794 8.706 2.315 8.43 8.325-.208 4.733-5.182 7.324-9.673 7.324-2.936 0-6.046-1.485-8.326-4.422l3.904-3.662z"/></g><g transform="translate(32.105 43.663)"><path d="M16.64 5.866s6.768.077 7.352-.312c.583-.39.622 2.022-1.09 3.228-1.711 1.206-11.864 4.784-13.225 5.874-1.361 1.09-2.84 2.8-4.59 2.84-1.75.039-4.629-1.09-4.629-1.09s2.53-.894 2.724-2.334c.194-1.439 5.056-5.083 5.056-5.083l8.402-3.123z" fill="#87C16C"/><path d="M16.64 5.866s6.768.077 7.352-.312C24.575 5.164.458 16.406.458 16.406s2.528-.894 2.723-2.334c.195-1.439 5.057-5.083 5.057-5.083l8.402-3.123z" fill="#377B3C"/><path d="M.671 16.308s.097-.027.274-.088c.178-.054.434-.157.76-.275.323-.131.719-.278 1.156-.488l.697-.327.757-.394c.267-.13.534-.288.808-.452.274-.165.567-.318.852-.503l.872-.576.225-.148.239-.152.471-.296c.319-.196.633-.406.97-.6l1.043-.559.53-.28.539-.259 1.084-.517a91.121 91.121 0 0 1 2.198-.942c.729-.3 1.453-.576 2.158-.835a38.35 38.35 0 0 1 1.04-.375l.497-.17.485-.187 1.8-.699c1.112-.438 2.044-.793 2.68-1.074.32-.14.571-.249.736-.336.085-.04.143-.08.183-.107.04-.027.062-.04.062-.04l-.057.047c-.037.03-.092.08-.172.129-.156.104-.39.252-.7.416-.616.331-1.505.79-2.593 1.294-.543.253-1.133.524-1.763.799l-.478.21-.505.199-1.02.405c-.694.273-1.4.581-2.124.88-.72.304-1.446.627-2.17.953l-1.077.501-.536.25a133.686 133.686 0 0 1-1.542.792c-.335.18-.66.385-.983.572L6.21 14.18c-.298.174-.602.32-.89.47-.29.15-.57.292-.849.407l-.792.346-.732.269c-.458.172-.87.286-1.204.389a10.89 10.89 0 0 1-1.072.247z" fill="#DAC77C"/><path d="M6.52 7.384S5.172 5.338 5.223 3.783c.052-1.556-.47-3.579-.001-3.63.468-.053 2.491.933 3.113 1.296.622.363 3.06 2.697 3.06 2.697s1.348-1.504 1.764-1.815c.415-.312 3.267-1.763 3.423-1.815.155-.052 1.296-.623 1.4-.052.104.57-.881 3.525-1.089 4.64-.207 1.116.156 2.517.156 2.725 0 .207 1.608.83 2.748 1.037 1.14.207 2.127.259 2.438.518.311.26.519 1.193.519 1.504 0 .311-.779 2.023-1.297 2.386-.52.363-2.023 1.037-2.905 1.037-.881 0-3.423-.467-3.423-.467s-.518 2.75-.778 3.527c-.26.777-1.297 2.179-1.971 2.749-.674.57-1.763.57-1.867 0-.104-.571-.623-2.905-.675-3.164-.052-.259-.466-2.593-.518-3.008-.052-.415-1.349 0-2.594.104-1.245.103-2.541-.416-2.853-.364-.311.052-1.971.052-2.074-.518-.104-.57-.312-2.023 0-2.438.311-.415.726-2.179 2.074-2.541 1.35-.364 2.647-.807 2.647-.807z" fill="#FCEB9D"/><path d="M15.355 9.62c.517-.302.863-.84.863-1.456 0-.945-.812-1.711-1.815-1.711-.172 0-.338.023-.496.066-.149-.804-.89-1.416-1.786-1.416-1.003 0-1.815.767-1.815 1.712l.003.064a1.867 1.867 0 0 0-1.196-.426c-1.003 0-1.815.766-1.815 1.711 0 .707.453 1.312 1.1 1.574-.296.305-.478.71-.478 1.155 0 .945.812 1.712 1.815 1.712l.05-.002c.188.756.906 1.32 1.765 1.32.924 0 1.684-.651 1.799-1.492.24.11.509.174.795.174 1.003 0 1.815-.767 1.815-1.712 0-.507-.234-.96-.604-1.273z" fill="#F5E09F"/><ellipse fill="#D4A668" cx="12.925" cy="8.641" rx="1.167" ry="1.257"/><ellipse fill="#DEBC65" cx="13.884" cy="10.782" rx=".622" ry=".883"/><ellipse fill="#DEBC65" cx="12.095" cy="11.224" rx=".337" ry=".442"/><ellipse fill="#DEBC65" cx="10.928" cy="10.147" rx=".415" ry=".635"/><ellipse fill="#DEBC65" cx="10.124" cy="8.013" rx=".804" ry=".629"/><ellipse fill="#DEBC65" cx="12.858" cy="6.879" rx=".663" ry=".505"/><ellipse fill="#EDCB62" cx="12.728" cy="8.595" rx=".533" ry=".581"/><path d="M16.219 11.408l1.056.103c.312.028.674.058 1.058.078.384.019.79.027 1.193.006.401-.02.797-.065 1.159-.145.178-.047.352-.09.513-.148.16-.06.307-.122.444-.187.132-.07.254-.138.358-.207.106-.066.19-.137.268-.189l.226-.186s-.042.098-.133.268c-.055.077-.111.183-.201.283l-.142.164-.177.162c-.13.109-.278.219-.447.313a3.371 3.371 0 0 1-.554.253c-.2.063-.409.13-.627.165a4.79 4.79 0 0 1-.658.074 5.934 5.934 0 0 1-1.282-.084 6.336 6.336 0 0 1-1.074-.274c-.615-.207-.98-.449-.98-.449zM13.278 13.014s.19.432.292 1.127c.023.173.052.362.06.563.015.201.021.414.013.633 0 .22-.023.448-.044.679-.035.23-.068.464-.122.695-.063.228-.11.461-.2.68a4.351 4.351 0 0 1-.27.63c-.05.1-.097.2-.149.292-.053.094-.117.178-.173.264-.113.17-.219.33-.345.458-.118.133-.23.25-.329.353-.11.093-.21.169-.29.232a5.87 5.87 0 0 1-.259.188s.06-.104.167-.273c.055-.084.12-.187.197-.298.065-.123.136-.26.22-.405.088-.141.151-.312.234-.481.086-.169.151-.357.224-.549.083-.188.133-.395.199-.6.07-.202.11-.42.167-.63.054-.213.085-.431.132-.643.026-.215.077-.425.096-.633.021-.207.053-.407.068-.598l.047-.543c.022-.338.041-.623.05-.823l.015-.318zM8.089 10.147s-.41.021-.995.08c-.146.021-.304.034-.468.06-.165.02-.337.053-.513.084-.178.02-.353.084-.536.117-.177.055-.362.097-.537.163-.174.066-.355.12-.516.204-.083.04-.166.077-.25.112-.08.04-.154.089-.23.132-.076.043-.149.089-.225.128l-.201.145c-.133.093-.262.181-.364.282-.105.097-.214.18-.301.262-.078.088-.153.163-.214.226-.123.125-.2.197-.2.197s.03-.095.096-.263c.033-.083.073-.186.127-.302.058-.111.138-.23.226-.36.046-.063.088-.136.142-.2l.182-.192.195-.202c.072-.062.154-.117.233-.178.08-.058.16-.122.246-.178a6.79 6.79 0 0 1 .272-.15c.18-.11.383-.174.58-.252.2-.07.405-.116.607-.162.204-.03.405-.066.6-.071.194-.018.382-.015.56-.005.177 0 .344.03.497.048.613.09.987.275.987.275zM9.32 6.051s-.282-.263-.637-.701c-.18-.217-.38-.478-.58-.764a15.962 15.962 0 0 1-1.56-2.73A7.411 7.411 0 0 1 6.21.968s.284.264.638.701a15.998 15.998 0 0 1 2.138 3.495c.23.515.336.887.336.887zM14.092 5.435s.02-.303.14-.724c.113-.424.328-.962.61-1.469.284-.505.641-.98.987-1.275.086-.074.161-.142.244-.19.079-.052.145-.095.208-.122.127-.052.197-.07.197-.07s-.045.066-.118.164c-.036.049-.07.122-.115.19-.047.07-.085.163-.138.251-.053.088-.099.197-.156.3a96.3 96.3 0 0 0-.175.333 26.29 26.29 0 0 1-.392.722c-.275.489-.573.972-.831 1.319a5.45 5.45 0 0 1-.46.571z" fill="#DAC77C"/></g></g></svg>