<svg width="234" height="234" viewBox="0 0 234 234" xmlns="http://www.w3.org/2000/svg"><path fill-rule="evenodd" d="M234 0H0v234h234V0zM118.593 177.014V94H93.935v82.603c0 12.329-4.931 15.205-13.15 15.205-8.22 0-11.918-5.753-15.617-12.329l-20.137 12.33C50.784 204.136 62.291 214 81.606 214c21.781-.822 36.987-11.918 36.987-36.986zm62.042-34.277l-5.734-2.457c-10.239-4.505-15.153-6.963-15.153-14.744 0-5.734 4.505-10.24 11.877-10.24 6.962 0 11.058 2.868 15.563 10.24l18.84-12.287C198.246 99.324 187.188 94 172.034 94c-21.706 0-35.63 13.925-35.63 31.536 0 19.659 11.876 29.078 29.078 36.86l5.733 2.457c10.649 4.505 17.611 7.782 17.611 16.382 0 6.963-6.143 12.287-16.382 12.287-12.287 0-18.84-6.143-23.754-15.153l-19.659 11.058C135.994 203.352 150.738 214 173.263 214c22.935 0 40.137-12.287 40.137-33.584-.41-19.658-11.877-28.669-32.765-37.679z" fill="#FFDC2E"/></svg>