<svg width="20" height="18" viewBox="0 0 20 18" xmlns="http://www.w3.org/2000/svg"><path d="M13.648 7.69a.876.876 0 0 0 0-1.23.856.856 0 0 0-1.226-.011l-6.498 6.573a.878.878 0 0 1-1.243-.012.89.89 0 0 1 0-1.246L11.18 5.19a2.577 2.577 0 0 1 3.675 0c1.015 1.027 1.053 2.729.037 3.756l-7.766 7.857c-1.617 1.635-4.297 1.575-5.913-.06a4.223 4.223 0 0 1 .006-5.929L10.83 1.13a3.803 3.803 0 0 1 5.418.007l2.629 2.66a3.911 3.911 0 0 1 0 5.486l-8.324 8.422a.878.878 0 0 1-1.243-.013.887.887 0 0 1 0-1.245l8.333-8.43a2.122 2.122 0 0 0 0-2.976l-2.62-2.65a2.063 2.063 0 0 0-2.941 0l-9.613 9.725a2.43 2.43 0 0 0 0 3.407c.93.94 2.473.975 3.403.034l7.776-7.868z" fill="#A3AAB2" fill-rule="evenodd"/></svg>