<?xml version="1.0" encoding="utf-8"?>
<!-- Generator: Adobe Illustrator 18.0.0, SVG Export Plug-In . SVG Version: 6.00 Build 0)  -->
<!DOCTYPE svg PUBLIC "-//W3C//DTD SVG 1.1//EN" "http://www.w3.org/Graphics/SVG/1.1/DTD/svg11.dtd">
<svg version="1.1" id="Capa_1" xmlns="http://www.w3.org/2000/svg" xmlns:xlink="http://www.w3.org/1999/xlink" x="0px" y="0px"
	 viewBox="0 -1.553 120.498 128.481" enable-background="new 0 -1.553 120.498 128.481" xml:space="preserve">
<g>
	<path fill="#333333" d="M59.806-1.553L-0.499,19.721l9.53,79.198l50.84,28.009l51.102-28.389l9.526-79.195L59.806-1.553z
		 M105.574,94.872l-45.94,25.486v-0.205L14.553,95.089l-8.166-70.83L59.784,5.181v0.175l54.669,18.687L105.574,94.872z"/>
</g>
<g>
	<path fill="#333333" d="M59.274,20.279l-0.001-0.003l0,0.001l0-0.001v0.001L27.725,90.233l11.766-0.217l6.326-15.771h13.457
		l0.03-0.014l14.787,0.014l6.925,15.99l11.258,0.208L59.274,20.279z M59.358,42.707l10.655,22.219H59.784l-0.511-0.017h-9.306
		L59.358,42.707z"/>
</g>
</svg>
