<svg width="66" height="79" viewBox="0 0 66 79" xmlns="http://www.w3.org/2000/svg"><title>Slice 1</title><path d="M54.8 42c.1 12 10.5 16 10.6 16-.1.3-1.7 5.7-5.5 11.3-3.3 4.8-6.7 9.6-12.1 9.7-5.3.1-7-3.1-13.1-3.1s-7.9 3-13 3.2c-5.2.2-9.2-5.2-12.5-10-6.8-9.8-12-27.8-5-39.9 3.5-6 9.7-9.8 16.4-9.9 5.1-.1 9.9 3.4 13.1 3.4 3.1 0 9-4.3 15.1-3.6 2.6.1 9.8 1 14.5 7.8-.3.3-8.6 5.1-8.5 15.1m-10-29.4c2.8-3.3 4.6-8 4.1-12.6-4 .2-8.8 2.7-11.7 6-2.6 3-4.8 7.7-4.2 12.2 4.5.4 9.1-2.2 11.8-5.6" fill="#333" fill-rule="evenodd"/></svg>