<?xml version="1.0" encoding="UTF-8" standalone="no"?>
<svg width="66px" height="79px" viewBox="0 0 66 79" version="1.1" xmlns="http://www.w3.org/2000/svg" xmlns:xlink="http://www.w3.org/1999/xlink" xmlns:sketch="http://www.bohemiancoding.com/sketch/ns">
    <!-- Generator: Sketch 3.0 (7574) - http://www.bohemiancoding.com/sketch -->
    <title>Slice 1</title>
    <description>Created with Sketch.</description>
    <defs></defs>
    <g id="Page-1" stroke="none" stroke-width="1" fill="none" fill-rule="evenodd" sketch:type="MSPage">
        <g id="Apple_logo_black" sketch:type="MSLayerGroup" transform="translate(1.000000, 0.000000)" fill="#333333">
            <g id="Layer-1" sketch:type="MSShapeGroup">
                <g id="svg_1">
                    <path d="M53.8,42 C53.9,54 64.3,58 64.4,58 C64.3,58.3 62.7,63.7 58.9,69.3 C55.6,74.1 52.2,78.9 46.8,79 C41.5,79.1 39.8,75.9 33.7,75.9 C27.6,75.9 25.8,78.9 20.7,79.1 C15.5,79.3 11.5,73.9 8.2,69.1 C1.4,59.3 -3.8,41.3 3.2,29.2 C6.7,23.2 12.9,19.4 19.6,19.3 C24.7,19.2 29.5,22.7 32.7,22.7 C35.8,22.7 41.7,18.4 47.8,19.1 C50.4,19.2 57.6,20.1 62.3,26.9 C62,27.2 53.7,32 53.8,42 M43.8,12.6 C46.6,9.3 48.4,4.6 47.9,0 C43.9,0.2 39.1,2.7 36.2,6 C33.6,9 31.4,13.7 32,18.2 C36.5,18.6 41.1,16 43.8,12.6" id="Shape"></path>
                </g>
            </g>
        </g>
    </g>
</svg>