<?xml version="1.0" encoding="utf-8"?>
<!-- Generator: Adobe Illustrator 18.0.0, SVG Export Plug-In . SVG Version: 6.00 Build 0)  -->
<!DOCTYPE svg PUBLIC "-//W3C//DTD SVG 1.1//EN" "http://www.w3.org/Graphics/SVG/1.1/DTD/svg11.dtd">
<svg version="1.1" id="Capa_1" xmlns="http://www.w3.org/2000/svg" xmlns:xlink="http://www.w3.org/1999/xlink" x="0px" y="0px"
	 viewBox="4.142 -38.006 71.265 83.636" enable-background="new 4.142 -38.006 71.265 83.636" xml:space="preserve">
<g>
	<path fill="#333333" d="M74.946,43.63c-5.001-5.918-13.963-11.69-24.794-13.532c-1.059-6.343-2.951-9.306-3-9.389
		c0.825-0.387,1.82-0.519,2.956-0.268c1.386,0.312,2.331,1.046,2.905,1.977c0.167,0.271,0.592,0.18,0.641-0.136
		c0.071-0.462,0.049-0.966-0.108-1.525c-0.396-1.391-1.479-2.547-2.89-2.852c-0.922-0.196-1.838-0.044-2.612,0.367
		c0.717-0.619,1.609-1.125,2.696-1.479c2.346-0.751,4.391-0.385,5.982,0.63c0.269,0.17,0.599-0.077,0.513-0.385
		c-0.266-0.955-0.792-1.891-1.767-2.751c-1.642-1.444-3.927-2.071-6.004-1.384c-0.669,0.222-1.277,0.552-1.807,0.96
		c0.038-0.049,0.081-0.101,0.119-0.148c1.53-1.798,3.368-2.575,5.181-2.619c0.394-0.009,0.57-0.52,0.268-0.775
		c-0.643-0.535-1.435-0.957-2.463-1.177c-2.313-0.493-4.747,0.2-6.216,2.051c-0.528,0.662-0.894,1.407-1.107,2.177
		c-0.623-0.504-1.353-0.894-2.17-1.125c-2.273-0.645-4.653,0.213-6.244,1.959c-0.687,0.753-1.085,1.539-1.296,2.326
		c-0.11,0.405,0.356,0.733,0.706,0.502c1.49-0.997,3.416-1.422,5.683-0.861c0.062,0.018,0.123,0.035,0.185,0.049
		c-0.669-0.026-1.354,0.062-2.031,0.273c-2.087,0.651-3.579,2.491-4.072,4.622c-0.282,1.228-0.18,2.271,0.139,3.18
		c0.115,0.33,0.57,0.337,0.706,0.015c0.717-1.719,2.152-3.172,4.461-3.915c1.087-0.35,2.108-0.458,3.05-0.374
		c-0.871,0.115-1.703,0.528-2.335,1.226c-0.971,1.07-1.175,2.637-0.685,4.001c0.196,0.55,0.478,0.975,0.808,1.31
		c0.22,0.225,0.616,0.053,0.592-0.26c-0.082-1.094,0.26-2.23,1.204-3.293c0.728-0.816,1.556-1.34,2.395-1.457l0,0
		c-0.002,0,1.329,3.268,1.514,7.983c-2.216-0.227-4.492-0.354-6.816-0.354c-5.69,0-11.102,0.709-15.999,1.994
		C24.249,9.05,37.866-5.608,37.882-5.681v-0.002c1.677,1.109,3.094,2.808,4.01,5.192c1.193,3.097,0.988,5.903-0.092,8.22
		c-0.31,0.663,0.416,1.365,1.083,1.056c0.997-0.462,1.959-1.16,2.842-2.196c2.186-2.568,3.035-6.163,1.794-9.297
		c-0.81-2.045-2.293-3.627-4.091-4.6c2.126,0.59,4.268,1.666,6.356,3.321c4.431,3.521,6.369,7.882,6.521,12.217
		c0.029,0.814,1.028,1.178,1.55,0.552c1.442-1.723,2.529-3.918,2.919-6.834c0.678-5.06-1.063-10.303-5.086-13.446
		c-1.301-1.019-2.725-1.772-4.21-2.271c0.148,0.015,0.295,0.031,0.445,0.046c5.41,0.632,9.27,3.143,11.703,6.546
		c0.568,0.794,1.857,0.455,1.948-0.515c0.189-1.891-0.038-3.933-0.918-6.147c-2.034-5.124-6.528-8.951-12.024-9.416
		c-1.972-0.167-3.891,0.082-5.665,0.671c0.174-1.862-0.02-3.781-0.627-5.661c-1.692-5.249-6.433-8.762-11.883-9.592
		c-2.417-0.367-4.505-0.103-6.341,0.542c-0.869,0.304-0.909,1.567-0.057,1.911c3.926,1.583,7.3,4.787,9.162,9.977
		c0.051,0.141,0.099,0.282,0.145,0.422c-0.821-1.332-1.877-2.551-3.163-3.587c-3.971-3.209-9.473-3.72-14.247-1.919
		c-2.837,1.07-4.758,2.69-6.119,4.552c-0.44,0.601,0.077,1.413,0.805,1.261c4.314-0.9,9.075-0.029,13.576,3.552
		c2.086,1.657,3.62,3.499,4.675,5.439c-1.353-1.536-3.231-2.621-5.406-2.945c-3.334-0.5-6.645,1.136-8.652,3.85
		c-0.805,1.085-1.263,2.172-1.49,3.24c-0.154,0.726,0.702,1.279,1.288,0.823c2.012-1.565,4.69-2.392,7.968-1.93
		c2.692,0.379,4.758,1.484,6.238,3.007C32.578-9.416,11.167,23.417,5.387,40.376C4.28,43.623,3.389,45.63,5.096,45.63h68.297
		C75.073,45.639,76.033,44.917,74.946,43.63z"/>
</g>
</svg>
