<svg xmlns="http://www.w3.org/2000/svg" viewBox="4.142 -38.006 71.265 83.636"><path fill="#333" d="M74.946 43.63c-5-5.918-13.963-11.69-24.794-13.532-1.06-6.343-2.95-9.306-3-9.39.825-.386 1.82-.518 2.956-.267 1.386.313 2.33 1.047 2.905 1.978.167.27.592.18.64-.136.072-.462.05-.966-.107-1.525-.396-1.39-1.48-2.547-2.89-2.852a3.846 3.846 0 0 0-2.612.367c.717-.62 1.61-1.125 2.696-1.48 2.346-.75 4.39-.384 5.982.63.27.17.6-.076.513-.384-.266-.955-.792-1.89-1.767-2.75-1.642-1.445-3.927-2.072-6.004-1.385a6.124 6.124 0 0 0-1.807.96c.038-.05.08-.1.12-.148 1.53-1.798 3.367-2.575 5.18-2.62.394-.008.57-.52.268-.774-.643-.534-1.435-.956-2.463-1.176-2.313-.493-4.747.2-6.216 2.05a6.09 6.09 0 0 0-1.107 2.178 6.066 6.066 0 0 0-2.17-1.125c-2.274-.645-4.654.213-6.245 1.96-.687.752-1.085 1.538-1.296 2.325-.11.405.355.733.705.502 1.49-.997 3.416-1.422 5.683-.86.062.017.123.034.185.048a6.03 6.03 0 0 0-2.03.273c-2.088.65-3.58 2.49-4.073 4.622-.282 1.228-.18 2.27.14 3.18.114.33.57.337.705.015.717-1.72 2.152-3.172 4.46-3.915 1.088-.35 2.11-.458 3.05-.374a3.813 3.813 0 0 0-2.334 1.226c-.97 1.07-1.174 2.636-.684 4 .196.55.478.975.808 1.31.22.225.616.053.592-.26-.082-1.094.26-2.23 1.204-3.293.728-.816 1.556-1.34 2.395-1.457-.002 0 1.33 3.268 1.514 7.983a66.88 66.88 0 0 0-6.817-.354c-5.69 0-11.102.708-16 1.993C24.25 9.05 37.867-5.607 37.884-5.68v-.003c1.676 1.11 3.093 2.808 4.01 5.192 1.192 3.096.987 5.902-.093 8.22-.31.662.416 1.364 1.083 1.055.997-.462 1.96-1.16 2.842-2.196C47.91 4.02 48.76.425 47.52-2.71a8.977 8.977 0 0 0-4.092-4.6c2.126.59 4.268 1.666 6.356 3.32 4.43 3.522 6.37 7.883 6.52 12.218.03.814 1.03 1.178 1.55.552 1.443-1.723 2.53-3.918 2.92-6.834.678-5.06-1.063-10.303-5.086-13.446a14.094 14.094 0 0 0-4.21-2.27l.445.045c5.41.632 9.27 3.143 11.703 6.546.568.794 1.857.455 1.948-.515.19-1.89-.038-3.933-.918-6.147-2.034-5.123-6.528-8.95-12.024-9.415a14.156 14.156 0 0 0-5.665.67c.174-1.86-.02-3.78-.627-5.66-1.692-5.25-6.433-8.762-11.883-9.592-2.417-.367-4.505-.103-6.34.542-.87.304-.91 1.567-.058 1.91 3.925 1.584 7.3 4.788 9.16 9.978.052.14.1.282.146.422a14.1 14.1 0 0 0-3.163-3.587c-3.97-3.21-9.473-3.72-14.247-1.92-2.837 1.07-4.758 2.69-6.12 4.553a.797.797 0 0 0 .806 1.262c4.314-.9 9.075-.03 13.576 3.552 2.086 1.657 3.62 3.5 4.675 5.44a8.938 8.938 0 0 0-5.406-2.946c-3.334-.5-6.645 1.136-8.652 3.85-.805 1.085-1.263 2.172-1.49 3.24-.154.726.702 1.28 1.288.823 2.012-1.564 4.69-2.39 7.968-1.93 2.693.38 4.76 1.485 6.24 3.008-.262.226-21.673 33.06-27.453 50.018-1.107 3.247-1.998 5.254-.29 5.254h68.296c1.68.01 2.64-.713 1.553-2z"/></svg>