<?xml version="1.0" encoding="utf-8"?>
<!-- Generator: Adobe Illustrator 18.0.0, SVG Export Plug-In . SVG Version: 6.00 Build 0)  -->
<!DOCTYPE svg PUBLIC "-//W3C//DTD SVG 1.1//EN" "http://www.w3.org/Graphics/SVG/1.1/DTD/svg11.dtd">
<svg version="1.1" id="Capa_1" xmlns="http://www.w3.org/2000/svg" xmlns:xlink="http://www.w3.org/1999/xlink" x="0px" y="0px"
	 viewBox="0 0 72.578 75.161" enable-background="new 0 0 72.578 75.161" xml:space="preserve">
<g>
	<g>
		<g>
			<path fill="#333333" d="M43.033,46.584C43.033,46.584,42.995,46.584,43.033,46.584C43.071,46.66,43.033,46.66,43.033,46.584z"/>
			<path fill="#333333" d="M72.476,25.91c-0.229-1.326-2.141-0.892-2.218,0.306c-0.268,3.543-1.797,6.08-5.659,6.156
				c-0.038,0-0.038,0-0.077,0c0.701-3.786,0.586-7.609-0.739-10.413c-0.395-0.854-1.721-0.433-1.721,0.472
				c0.038,3.276,0.191,6.398-0.038,9.483c-2.345-1.02-3.824-3.39-4.091-6.003c-0.077-0.816-1.287-0.854-1.287,0
				c-0.115,3.824,1.95,6.819,5.188,8.106c-0.433,2.97-1.326,5.889-3.161,8.731c-0.038,0.038-0.038,0.076-0.038,0.076
				c-1.287-1.593-2.804-3.008-4.525-4.168c-0.077-1.721-1.173-3.085-3.543-3.709c0.268-0.701,0.548-1.44,0.701-2.218
				c0.981-0.268,1.912-0.586,2.766-0.892c0.357-0.115,0.472-0.433,0.433-0.701c0.115-0.586-0.191-1.326-0.969-1.326
				c-0.624-0.038-1.249-0.076-1.912-0.153c-0.038-3.276-1.402-6.003-3.467-8.03c0.229-0.115,0.471-0.357,0.51-0.701
				c0.395-3.467-0.931-5.697-3.046-7.061C45.136,2.661,31.485,0.405,22.665,2.228c-6.513,1.364-11.548,4.996-15.129,10.49
				c-0.816,1.249-2.575,4.13-2.422,6.156c-1.644,0.153-3.084,1.134-3.786,2.804c-1.134,2.689,0.816,5.544,3.594,5.965
				c2.46,0.395,4.487-1.479,5.188-3.671c0.433-1.249,0.076-3.161-0.854-4.334c1.134-0.93,2.256-1.835,3.671-2.613
				c0.93-0.548,1.912-0.981,2.881-1.402c-0.229,3.429,0.433,8.03,3.938,9.05c0.115,0.038,0.191,0.038,0.306,0
				c-0.586,1.95,0.038,3.39,3.008,3.543c-0.892,3.314-0.777,6.87,0.472,9.904c-3.276-1.02-5.455,3.123-4.487,6.207
				c-0.777,1.249-1.479,2.575-2.065,3.938c-0.981-0.892-1.874-1.874-2.689-2.97c-0.51-0.701-0.892-1.402-1.249-2.103
				c3.046-2.141,6.042-7.252,4.678-10.681c-0.306-0.739-1.44-0.892-1.682,0c-0.395,1.517-0.306,3.008-0.854,4.525
				c-0.548,1.555-1.555,2.97-2.728,4.13c-0.076,0.077-0.115,0.115-0.191,0.191c-0.854-2.575-0.981-5.264-0.981-8.234
				c0-0.854-1.249-1.249-1.644-0.433c-1.555,3.123-1.211,6.704,0.268,10.018c-0.433,0.076-0.854,0.115-1.287,0.038
				c-1.797-0.306-2.46-2.345-3.123-3.786c-0.268-0.586-1.02-0.115-0.93,0.395c0.548,3.505,3.046,5.659,6.156,4.92
				c1.364,2.383,3.314,4.525,5.493,6.118c-1.134,3.709-1.44,7.686-0.739,11.662c1.759,9.942,11.586,13.026,20.432,13.103
				c9.98,0.077,21.337-3.747,25.708-13.383c2.881-6.36,1.479-12.988-2.256-18.099c0.153,0,0.268-0.076,0.395-0.191
				c1.912-2.141,3.505-5.417,4.448-8.973c0.191,0.038,0.357,0.038,0.548,0.076C69.468,34.921,73.254,30.626,72.476,25.91z
				 M8.16,22.902c-0.191,1.287-1.211,2.613-2.575,2.728c-1.644,0.153-2.97-1.44-2.613-2.97c0.306-1.326,1.402-2.141,2.651-2.422
				c0.229,0.229,0.586,0.472,1.02,0.586c0.076,0.038,0.191,0.038,0.268,0.038c0,0.038,0.038,0.115,0.038,0.153
				c0.076,0.191,0.357,0.191,0.472,0.076c0.038-0.038,0.076-0.038,0.115-0.076c0.076,0.076,0.153,0.115,0.191,0.191
				C8.122,21.653,8.237,22.316,8.16,22.902z M17.401,19.32c-0.153-0.472-0.268-0.981-0.357-1.479
				c0.076,0.229,0.115,0.433,0.229,0.663c0.076,0.191,0.153,0.306,0.306,0.433c0.115,0.701,0.395,1.326,0.701,1.95
				C17.911,20.404,17.605,19.907,17.401,19.32z M52.159,43.423c0.115-0.115,0.191-0.268,0.268-0.395
				c0.739,1.211,1.479,2.613,2.141,4.091c-0.229-0.115-0.51-0.115-0.816,0.038c-0.969,0.51-1.874,1.134-2.804,1.644
				c-0.433-0.892-0.981-1.759-1.593-2.536C50.362,45.449,51.293,44.506,52.159,43.423z M50.987,60.732
				c0.663,0.191,1.325,0.395,1.95,0.548c0.115,0.115,0.268,0.229,0.51,0.268c0.624,0.115,1.249,0.076,1.874,0.076
				c-0.357,0.586-0.854,1.058-1.479,1.402C50.834,64.912,50.834,62.299,50.987,60.732z M56.646,56.487
				c-0.93-0.191-1.874-0.191-2.766,0c-0.663,0-1.325,0-1.988,0c0.076-0.395,0.153-0.739,0.191-1.134
				c0.153-0.981,0.115-1.95-0.038-2.932c1.287-0.357,2.689-0.306,3.977-0.701c0.038,0,0.038-0.038,0.076-0.038
				C56.48,53.25,56.684,54.881,56.646,56.487z M49.661,42.76c-0.268,0.306-0.548,0.625-0.816,0.854
				c-0.624,0.625-1.287,1.096-2.026,1.555c-0.191-0.357-0.433-0.701-0.625-1.058c-0.395-0.701-0.854-1.402-1.325-2.065
				c0.777-0.586,1.479-1.211,2.141-1.874c0.433,0.229,0.854,0.433,1.287,0.625c0.153,0.076,0.268,0.153,0.395,0.268
				c0.268,0.548,0.548,1.058,0.854,1.555C49.623,42.722,49.623,42.76,49.661,42.76z M48.998,29.224
				c-1.593-0.268-3.161-0.548-4.754-0.701c-1.912-0.191-6.118-0.892-7.252,1.287c-1.326,2.536,2.345,3.977,4.13,4.13
				c2.422,0.153,5.035-0.115,7.609-0.663c-1.644,6.513-9.355,10.107-15.677,9.789c-6.628-0.357-9.279-7.291-8.463-12.95
				c0.816-5.621,4.831-9.317,9.942-10.885c0.153,0.076,0.306,0.115,0.51,0.115C41.899,19.244,48.259,22.316,48.998,29.224z
				 M37.451,45.258c1.517-0.229,2.97-0.701,4.372-1.326c0.115,0.433,0.268,0.816,0.472,1.249c0.153,0.306,0.306,0.586,0.472,0.892
				c0.038,0.077,0.229,0.395,0.268,0.548c0.076,0.115,0.153,0.191,0.268,0.268c-1.797,0.586-3.709,0.93-5.583,1.096l0,0
				C37.769,47.081,37.604,46.15,37.451,45.258z M30.504,47.629c-0.777-0.115-1.555-0.268-2.345-0.395
				c-1.173-0.191-2.307-0.548-3.429-0.93l-0.739-0.357c0.306-0.854,0.586-1.721,0.93-2.536c0.268-0.625,0.625-1.211,0.586-1.835
				c1.364,1.517,3.199,2.69,5.493,3.352C30.593,45.755,30.428,46.66,30.504,47.629z M23.213,27.235
				c-6.08-1.479,5.264-11.153,8.03-12.134c5.544-1.988,16.034-2.766,15.639,5.417c-3.199-2.498-7.648-3.709-11.777-3.467
				c-0.51,0.038-0.816,0.306-0.981,0.663C28.605,18.301,24.819,22.392,23.213,27.235z M58.163,62.758
				c-4.168,7.495-14.543,9.598-22.344,9.84c-8.196,0.191-15.907-2.651-18.023-11.229c-0.777-3.161-0.51-6.513,0.395-9.751
				c2.027,1.058,4.168,1.593,6.245,1.44c0.51-0.038,0.701-0.854,0.115-0.981c-2.141-0.395-4.053-1.211-5.812-2.345
				c0.395-1.173,0.892-2.256,1.402-3.39c2.842,2.919,9.05,3.467,12.478,3.824c5.379,0.51,11.471-0.306,16.034-3.429
				c1.479,3.161,1.835,6.819,1.058,10.222c-0.433,1.759-1.249,4.13-0.739,5.965c0.981,3.467,4.92,2.932,7.176,1.02
				c3.123-2.575,2.498-8.196,1.988-11.662c-0.395-2.727-1.326-7.367-3.505-9.827C60.151,47.591,62.369,55.2,58.163,62.758z"/>
		</g>
		<path fill="#333333" d="M30.899,26.764c-1.555,0-1.555,2.422,0,2.422C32.454,29.147,32.454,26.764,30.899,26.764z"/>
		<path fill="#333333" d="M39.592,23.221c-0.038,0-0.076,0.038-0.115,0.038c-0.624,0.229-1.058,0.701-1.058,1.402
			c0,0.663,0.433,1.173,1.058,1.402c0.038,0,0.077,0.038,0.115,0.038c0.93,0.306,1.874-0.51,1.874-1.44
			C41.465,23.807,40.497,22.864,39.592,23.221z"/>
		<path fill="#333333" d="M39.796,52.396c-0.268-0.153-0.548-0.115-0.739,0.038c-1.479-0.357-3.008,0-3.633,1.555
			c-0.548,1.287,0.191,2.881,1.249,3.671c1.479,1.058,3.747,0.51,4.754-0.969C42.523,55.009,41.274,53.212,39.796,52.396z
			 M40.063,55.748c-0.586,0.625-1.759,0.93-2.46,0.306c-0.51-0.433-0.701-1.134-0.548-1.682c0.191-0.701,1.096-0.892,1.797-0.969
			c0.038,0.077,0.115,0.153,0.229,0.191C39.719,54.027,40.764,54.958,40.063,55.748z"/>
		<path fill="#333333" d="M39.133,59.801c-0.663-0.115-1.058,0.472-1.02,0.93c-1.364,0.51-2.575,1.721-2.728,3.161
			c-0.268,2.269,2.18,3.556,4.13,3.39c1.874-0.191,3.046-1.797,3.046-3.594C42.6,61.713,41.045,60.145,39.133,59.801z
			 M39.719,65.499c-0.969,0.357-2.804-0.268-2.536-1.517c0.23-1.02,1.096-1.988,2.027-2.46c0.854,0.306,1.44,0.892,1.644,1.835
			C41.007,64.211,40.535,65.218,39.719,65.499z"/>
	</g>
</g>
<path fill="#333333" d="M33.439,40.739c-0.114,0-0.23-0.034-0.33-0.105c-0.259-0.183-0.32-0.541-0.137-0.799
	c2.848-4.032,5.059-4.79,10.28-3.53c0.308,0.074,0.497,0.384,0.423,0.692c-0.074,0.308-0.384,0.497-0.692,0.423
	c-4.793-1.157-6.489-0.582-9.074,3.077C33.797,40.655,33.619,40.739,33.439,40.739z"/>
</svg>
