<svg xmlns="http://www.w3.org/2000/svg" viewBox="0 0 72.578 75.161"><g fill="#333"><path d="M43.033 46.584s-.038 0 0 0c.038.076 0 .076 0 0z"/><path d="M72.476 25.91c-.23-1.326-2.14-.892-2.218.306-.268 3.543-1.797 6.08-5.66 6.156h-.076c.7-3.786.586-7.61-.74-10.413-.394-.855-1.72-.434-1.72.47.038 3.277.19 6.4-.038 9.484-2.345-1.02-3.824-3.39-4.09-6.003-.078-.815-1.288-.853-1.288 0-.115 3.825 1.95 6.82 5.188 8.107-.433 2.97-1.326 5.89-3.16 8.73-.04.04-.04.077-.04.077a20.712 20.712 0 0 0-4.524-4.168c-.077-1.72-1.173-3.085-3.543-3.71.268-.7.548-1.44.7-2.217.982-.27 1.913-.587 2.767-.893.357-.115.472-.433.433-.7.115-.587-.19-1.327-.97-1.327-.623-.038-1.248-.076-1.91-.153-.04-3.276-1.403-6.003-3.468-8.03.228-.115.47-.357.51-.7.394-3.468-.932-5.698-3.047-7.062C45.136 2.66 31.485.405 22.665 2.228c-6.513 1.364-11.548 4.996-15.13 10.49-.815 1.25-2.574 4.13-2.42 6.156-1.645.153-3.085 1.134-3.787 2.804-1.134 2.69.816 5.544 3.594 5.965 2.46.395 4.487-1.48 5.188-3.67.433-1.25.076-3.162-.854-4.335 1.134-.93 2.256-1.835 3.67-2.613.93-.548 1.913-.98 2.882-1.402-.23 3.43.433 8.03 3.938 9.05.115.038.19.038.306 0-.586 1.95.038 3.39 3.008 3.543-.892 3.314-.777 6.87.472 9.904-3.276-1.02-5.455 3.123-4.487 6.207a29.716 29.716 0 0 0-2.065 3.938 20.63 20.63 0 0 1-2.69-2.97c-.51-.7-.89-1.402-1.248-2.103 3.046-2.14 6.042-7.252 4.678-10.68-.306-.74-1.44-.893-1.682 0-.395 1.516-.306 3.007-.854 4.524-.548 1.555-1.555 2.97-2.728 4.13l-.19.19c-.855-2.574-.982-5.263-.982-8.233 0-.854-1.25-1.25-1.644-.433-1.555 3.123-1.21 6.704.268 10.018-.433.076-.854.115-1.287.038C6.825 42.44 6.16 40.4 5.5 38.96c-.268-.586-1.02-.115-.93.395.548 3.505 3.046 5.66 6.156 4.92 1.364 2.383 3.314 4.525 5.493 6.118-1.134 3.71-1.44 7.686-.74 11.662 1.76 9.942 11.587 13.026 20.433 13.103 9.98.077 21.337-3.747 25.708-13.383 2.88-6.36 1.48-12.988-2.256-18.1.153 0 .268-.075.395-.19 1.912-2.14 3.505-5.417 4.448-8.973.19.038.357.038.548.076 4.715.333 8.5-3.962 7.723-8.678zM8.16 22.902c-.19 1.287-1.21 2.613-2.575 2.728-1.644.153-2.97-1.44-2.613-2.97.306-1.326 1.402-2.14 2.65-2.422.23.23.587.472 1.02.586.077.038.192.038.27.038 0 .038.037.115.037.153.075.19.356.19.47.076.04-.037.077-.037.116-.075.076.076.153.115.19.19.396.448.51 1.11.434 1.697zm9.24-3.582c-.152-.472-.267-.98-.356-1.48.076.23.115.434.23.664.075.19.152.306.305.433.114.7.394 1.326.7 1.95-.37-.483-.675-.98-.88-1.567zm34.76 24.103c.114-.115.19-.268.267-.395.74 1.21 1.48 2.613 2.14 4.09-.228-.114-.51-.114-.815.04-.97.51-1.874 1.133-2.804 1.643-.433-.89-.98-1.758-1.593-2.535a18.504 18.504 0 0 0 2.804-2.842zm-1.173 17.31c.663.19 1.325.394 1.95.547a.89.89 0 0 0 .51.268c.624.115 1.25.076 1.874.076a3.912 3.912 0 0 1-1.478 1.402c-3.008 1.886-3.008-.727-2.855-2.294zm5.66-4.246a6.747 6.747 0 0 0-2.767 0h-1.988c.076-.395.153-.74.19-1.134.154-.98.116-1.95-.037-2.932 1.287-.356 2.69-.305 3.977-.7.038 0 .038-.038.076-.038.382 1.568.586 3.2.548 4.805zM49.66 42.76c-.267.306-.547.625-.815.854-.624.625-1.287 1.096-2.026 1.555-.192-.358-.434-.702-.626-1.06-.395-.7-.854-1.4-1.325-2.064a20.21 20.21 0 0 0 2.14-1.874c.433.23.854.433 1.287.625.153.076.268.153.395.268.268.548.548 1.058.854 1.555.077.102.077.14.115.14zM49 29.224c-1.593-.268-3.16-.548-4.754-.7-1.912-.192-6.118-.893-7.252 1.286-1.326 2.536 2.345 3.977 4.13 4.13 2.422.153 5.035-.115 7.61-.663-1.645 6.513-9.356 10.107-15.678 9.79-6.628-.358-9.28-7.292-8.463-12.95.817-5.622 4.832-9.318 9.943-10.886.153.077.306.116.51.116 6.856-.102 13.216 2.97 13.955 9.878zM37.45 45.258c1.518-.23 2.97-.7 4.373-1.326.115.433.268.816.472 1.25.153.305.306.585.472.89.038.078.23.396.268.55a.89.89 0 0 0 .268.267c-1.797.585-3.71.93-5.583 1.095.05-.904-.116-1.835-.27-2.727zm-6.946 2.37c-.777-.114-1.555-.267-2.345-.394-1.174-.19-2.308-.548-3.43-.93l-.74-.357c.307-.854.587-1.72.93-2.536.27-.624.626-1.21.587-1.834 1.364 1.517 3.2 2.69 5.493 3.352-.407.827-.572 1.732-.496 2.7zm-7.29-20.393c-6.08-1.48 5.263-11.153 8.03-12.134 5.543-1.987 16.033-2.765 15.638 5.418-3.2-2.498-7.648-3.71-11.777-3.467-.51.04-.816.307-.98.664-5.52.587-9.306 4.678-10.912 9.52zm34.95 35.523c-4.17 7.495-14.544 9.598-22.345 9.84-8.197.19-15.908-2.65-18.024-11.23-.777-3.16-.51-6.512.395-9.75 2.028 1.058 4.17 1.593 6.246 1.44.51-.038.7-.854.115-.98-2.14-.396-4.052-1.212-5.81-2.346.394-1.173.89-2.256 1.4-3.39 2.843 2.92 9.05 3.467 12.48 3.824 5.378.51 11.47-.306 16.033-3.43 1.48 3.162 1.835 6.82 1.058 10.223-.432 1.758-1.248 4.13-.738 5.964.98 3.467 4.92 2.932 7.176 1.02 3.123-2.575 2.498-8.196 1.988-11.662-.395-2.727-1.326-7.367-3.505-9.827 5.52 5.136 7.74 12.745 3.533 20.303z"/><path d="M30.9 26.764c-1.556 0-1.556 2.422 0 2.422 1.554-.04 1.554-2.422 0-2.422zM39.592 23.22c-.038 0-.076.04-.115.04-.624.228-1.058.7-1.058 1.4 0 .664.432 1.174 1.057 1.403.038 0 .077.038.115.038.93.307 1.874-.51 1.874-1.44 0-.853-.97-1.796-1.874-1.44zM39.796 52.396a.646.646 0 0 0-.74.038c-1.478-.357-3.007 0-3.632 1.555-.548 1.286.19 2.88 1.25 3.67 1.478 1.058 3.746.51 4.753-.97 1.096-1.68-.153-3.478-1.63-4.294zm.267 3.352c-.586.625-1.76.93-2.46.306-.51-.433-.7-1.134-.548-1.682.19-.7 1.096-.892 1.797-.97a.39.39 0 0 0 .23.192c.637.433 1.682 1.364.98 2.154zM39.133 59.8c-.663-.114-1.058.473-1.02.93-1.364.51-2.575 1.722-2.728 3.162-.268 2.27 2.18 3.556 4.13 3.39 1.874-.19 3.046-1.797 3.046-3.594.04-1.975-1.515-3.543-3.427-3.887zm.586 5.7c-.97.356-2.805-.27-2.537-1.518.23-1.02 1.096-1.988 2.027-2.46.854.306 1.44.892 1.644 1.835.153.854-.32 1.86-1.135 2.142z"/></g><path fill="#333" d="M33.44 40.74a.573.573 0 0 1-.467-.904c2.847-4.033 5.058-4.79 10.28-3.53a.573.573 0 0 1-.27 1.114c-4.793-1.157-6.49-.582-9.074 3.077a.575.575 0 0 1-.47.242z"/></svg>