<?xml version="1.0" encoding="utf-8"?>
<!-- Generator: Adobe Illustrator 18.0.0, SVG Export Plug-In . SVG Version: 6.00 Build 0)  -->
<!DOCTYPE svg PUBLIC "-//W3C//DTD SVG 1.1//EN" "http://www.w3.org/Graphics/SVG/1.1/DTD/svg11.dtd">
<svg version="1.1" id="Layer_1" xmlns="http://www.w3.org/2000/svg" xmlns:xlink="http://www.w3.org/1999/xlink" x="0px" y="0px"
	 viewBox="0 0 118.559 52.228" enable-background="new 0 0 118.559 52.228" xml:space="preserve">
<path fill="#333333" d="M55.004,0v52.228h63.555V0H55.004z M75.984,35.274c-0.932,0-1.693-0.787-1.693-1.754v-9.464l-3.251,9.721
	c-0.286,0.853-1.181,1.497-2.081,1.497h-0.014c-0.9,0-1.794-0.644-2.081-1.497l-3.252-9.721v9.464c0,0.967-0.761,1.754-1.693,1.754
	c-0.934,0-1.692-0.787-1.692-1.754V18.767c0-0.966,0.784-1.753,1.752-1.753h1.012c0.898,0,1.792,0.643,2.079,1.496l3.882,11.538
	L72.83,18.51c0.29-0.854,1.184-1.496,2.081-1.496h1.012c0.966,0,1.753,0.787,1.753,1.753v14.754h0
	C77.676,34.487,76.918,35.274,75.984,35.274z M93.782,20.349h-4.511v13.326c0,1.042-0.669,1.742-1.668,1.742
	c-1.002,0-1.671-0.7-1.671-1.742V20.349h-4.511c-0.985,0-1.645-0.644-1.645-1.6c0-0.958,0.66-1.599,1.645-1.599h12.36
	c0.985,0,1.648,0.642,1.648,1.599C95.43,19.706,94.767,20.349,93.782,20.349z M111.688,20.349h-4.507v13.326
	c0,1.042-0.67,1.742-1.672,1.742c-0.998,0-1.67-0.7-1.67-1.742V20.349h-4.508c-0.985,0-1.645-0.644-1.645-1.6
	c0-0.958,0.66-1.599,1.645-1.599h12.357c0.989,0,1.648,0.642,1.648,1.599C113.336,19.706,112.677,20.349,111.688,20.349z"/>
<g>
	<circle fill="#333333" cx="14.984" cy="25.297" r="1.266"/>
	<path fill="#333333" d="M-0.633,0v52.228h52.228V0H-0.633z M24.709,22.959c1.999-0.406,4.178-2.271,4.925-4.767
		c0.986-3.29,0.646-5.586,0.517-6.234c0.931,0.06,3.402,0.509,4.582,3.457c-0.181,4.093-2.166,8.226-4.835,10.058
		c-1.275,0.872-2.583,1.121-3.782,0.715c-3.259-1.104-4.3-2.864-5.083-4.146C22.356,23.119,23.722,23.159,24.709,22.959z
		 M16.685,18.817c1.892,0.578,2.461,1.108,3.497,2.367c0.007,0.009,0.014,0.016,0.021,0.026l-0.003,0.003
		c0.242,0.336,0.449,0.683,0.668,1.045c0.894,1.493,1.82,3.04,5.167,4.171c1.278,0.432,2.664,0.174,4.007-0.746
		c2.612-1.795,4.703-5.883,4.912-9.711c0.148-2.747-0.319-4.945-1.25-6.765c2.331-0.075,3.871,0.941,5.072,1.958
		c0.998,0.994,2.518,2.507,3.505,4.916c1.474,3.592,1.588,7.251,0.371,10.331c-0.253,0.639-0.562,1.253-0.929,1.835
		c-0.225,0.359-0.413,0.731-0.564,1.112c-0.389,0.986-0.533,2.051-0.433,3.191c-1.422,1.779-3.637,2.665-6.406,2.559
		c-4.844-0.182-10.286-3.348-13.235-7.699c-0.303-0.446-0.58-0.902-0.822-1.363c-1.256-2.366-2.687-3.729-4.378-4.167
		c-1.629-0.423-3.49,0.058-5.682,1.464c-0.376-0.589-0.94-0.843-1.208-0.936C10.543,19.048,13.27,17.773,16.685,18.817z
		 M8.827,22.626c0.181,0.051,0.908,0.306,1.266,1.05c0.208,0.434,0.262,0.949,0.162,1.547c-1.07-1.128-4.602-1.211-5.619-1.186
		C5.372,23.677,8.424,22.821,8.827,22.626z M4.653,24.295c1.029-0.02,4.617,0.074,5.537,1.244c-0.088,0.359-0.227,0.745-0.415,1.158
		C8.615,25.754,6.065,24.927,4.653,24.295z M9.978,26.862c0.632-1.348,0.749-2.457,0.346-3.295c2.136-1.37,3.934-1.842,5.496-1.439
		c1.593,0.411,3.011,1.771,4.214,4.041c0.223,0.421,0.474,0.838,0.747,1.25c-1.689,3.658-5.867,3.862-6.365,3.871
		C13.019,29.759,11.592,28.205,9.978,26.862z M42.235,41.654c-0.663-1.863-1.89-3.28-3.563-4.096
		c-2.15-1.05-4.915-1.042-7.998,0.019c-1.369,0.472-2.684,0.749-3.909,0.829c-5.448,0.344-8.712-3.13-12.126-6.87
		c1.031-0.064,4.675-0.534,6.308-3.872c3.01,4.357,8.482,7.519,13.359,7.702c2.753,0.106,4.975-0.745,6.453-2.459
		c0.169,1.303,0.646,2.702,1.433,4.187c1.139,2.149,2.744,4.131,4.151,5.649C45.282,42.071,43.97,41.573,42.235,41.654z"/>
</g>
</svg>
