<svg xmlns="http://www.w3.org/2000/svg" viewBox="0 0 118.559 52.228"><path fill="#333" d="M55.004 0v52.228h63.555V0H55.003zm20.98 35.274c-.932 0-1.693-.787-1.693-1.754v-9.464l-3.25 9.72c-.286.854-1.18 1.498-2.08 1.498h-.015c-.9 0-1.794-.644-2.08-1.497l-3.253-9.72v9.463c0 .967-.76 1.754-1.693 1.754-.935 0-1.693-.787-1.693-1.754V18.767c0-.966.784-1.753 1.752-1.753h1.01c.9 0 1.793.643 2.08 1.496l3.882 11.538L72.83 18.51c.29-.854 1.184-1.496 2.08-1.496h1.013c.966 0 1.753.787 1.753 1.753V33.52c0 .967-.758 1.754-1.692 1.754zM93.782 20.35h-4.51v13.325c0 1.042-.67 1.742-1.67 1.742-1 0-1.67-.7-1.67-1.742V20.35h-4.51c-.986 0-1.646-.645-1.646-1.6 0-.96.66-1.6 1.645-1.6h12.36c.986 0 1.65.642 1.65 1.6 0 .956-.663 1.6-1.648 1.6zm17.906 0h-4.507v13.325c0 1.042-.67 1.742-1.67 1.742-1 0-1.67-.7-1.67-1.742V20.35h-4.51c-.984 0-1.644-.645-1.644-1.6 0-.96.66-1.6 1.645-1.6h12.358c.99 0 1.648.642 1.648 1.6 0 .956-.66 1.6-1.648 1.6z"/><g fill="#333"><circle cx="14.984" cy="25.297" r="1.266"/><path d="M-.633 0v52.228h52.228V0H-.633zM24.71 22.96c1.998-.407 4.177-2.272 4.924-4.768.986-3.29.646-5.586.517-6.234.932.06 3.403.51 4.583 3.457-.18 4.093-2.166 8.226-4.835 10.058-1.275.872-2.583 1.12-3.782.715-3.26-1.104-4.3-2.864-5.083-4.146 1.323 1.077 2.69 1.117 3.676.917zm-8.025-4.143c1.892.578 2.46 1.108 3.497 2.367.007.01.014.016.02.026l-.002.003c.242.336.45.683.668 1.045.894 1.493 1.82 3.04 5.167 4.17 1.278.433 2.664.175 4.007-.745 2.612-1.795 4.703-5.883 4.912-9.71.148-2.748-.32-4.946-1.25-6.766 2.33-.075 3.87.94 5.072 1.958.998.994 2.518 2.507 3.505 4.916 1.475 3.593 1.59 7.252.372 10.332-.253.64-.562 1.253-.93 1.835-.224.36-.412.73-.563 1.112-.39.985-.534 2.05-.434 3.19-1.422 1.78-3.637 2.665-6.406 2.56-4.844-.183-10.286-3.35-13.235-7.7a14.09 14.09 0 0 1-.822-1.363c-1.256-2.366-2.687-3.73-4.378-4.167-1.63-.423-3.49.058-5.682 1.464-.376-.59-.94-.843-1.208-.936 1.548-3.36 4.275-4.635 7.69-3.59zm-7.858 3.81c.18.05.908.305 1.266 1.05.208.433.262.948.162 1.546-1.07-1.128-4.602-1.21-5.62-1.186.737-.36 3.79-1.216 4.192-1.41zm-4.174 1.668c1.03-.02 4.617.074 5.537 1.244a6.64 6.64 0 0 1-.415 1.157c-1.16-.943-3.71-1.77-5.122-2.402zm5.325 2.567c.632-1.348.75-2.457.346-3.295 2.136-1.37 3.934-1.842 5.496-1.44 1.593.412 3.01 1.772 4.214 4.042.223.42.474.837.747 1.25-1.688 3.657-5.866 3.86-6.364 3.87-1.397-1.53-2.824-3.085-4.438-4.428zm32.257 14.792c-.663-1.863-1.89-3.28-3.563-4.096-2.15-1.05-4.915-1.042-7.998.02-1.37.47-2.684.748-3.91.828-5.447.344-8.71-3.13-12.125-6.87 1.03-.064 4.674-.534 6.307-3.872 3.01 4.357 8.482 7.52 13.36 7.702 2.752.106 4.974-.745 6.452-2.46.168 1.304.645 2.703 1.432 4.188 1.14 2.15 2.744 4.13 4.15 5.65-1.06-.673-2.372-1.17-4.107-1.09z"/></g></svg>