<svg xmlns="http://www.w3.org/2000/svg" viewBox="0 0 74.998 75.001"><path fill="#333" d="M74.424 39.044a6.57 6.57 0 0 0-8.675-3.318l-3.16 1.417-8.1-18.106 3.16-1.412A6.567 6.567 0 0 0 60.96 8.95a6.56 6.56 0 0 0-8.675-3.315L49.13 7.05l-1.415-3.164C46.235.576 42.35-.906 39.04.576a6.565 6.565 0 0 0-3.313 8.674l1.414 3.16-18.105 8.098-1.412-3.16a6.566 6.566 0 0 0-11.988 5.36l1.412 3.158-3.158 1.417A6.567 6.567 0 0 0 9.25 39.27l3.16-1.417 8.094 18.11-3.16 1.41a6.568 6.568 0 0 0-3.313 8.676 6.568 6.568 0 0 0 8.675 3.318l3.158-1.414 1.414 3.16c1.48 3.313 5.364 4.794 8.675 3.313a6.564 6.564 0 0 0 3.31-8.673l-1.41-3.163 18.107-8.094 1.412 3.15a6.562 6.562 0 0 0 8.675 3.32c3.31-1.475 4.793-5.36 3.312-8.674l-1.412-3.158 3.156-1.417a6.563 6.563 0 0 0 3.318-8.673zm-41.93 11.56L24.396 32.49l18.106-8.095L50.6 42.502l-18.106 8.1z"/></svg>