<?xml version="1.0" encoding="utf-8"?>
<!-- Generator: Adobe Illustrator 18.0.0, SVG Export Plug-In . SVG Version: 6.00 Build 0)  -->
<!DOCTYPE svg PUBLIC "-//W3C//DTD SVG 1.1//EN" "http://www.w3.org/Graphics/SVG/1.1/DTD/svg11.dtd">
<svg version="1.1" id="Capa_1" xmlns="http://www.w3.org/2000/svg" xmlns:xlink="http://www.w3.org/1999/xlink" x="0px" y="0px"
	 viewBox="0 0 74.998 75.001" enable-background="new 0 0 74.998 75.001" xml:space="preserve">
<g>
	<path fill="#333333" d="M74.424,39.044c-1.479-3.311-5.364-4.797-8.675-3.318l-3.16,1.417l-8.1-18.106l3.16-1.412
		c3.311-1.484,4.794-5.367,3.313-8.675c-1.479-3.313-5.362-4.799-8.675-3.315l-3.158,1.414l-1.414-3.163
		c-1.481-3.311-5.364-4.792-8.675-3.311c-3.311,1.479-4.792,5.36-3.313,8.675l1.414,3.16l-18.106,8.098l-1.412-3.16
		c-1.481-3.315-5.364-4.792-8.675-3.315c-3.311,1.481-4.792,5.364-3.313,8.675l1.412,3.158l-3.158,1.417
		c-3.311,1.481-4.794,5.36-3.313,8.673c1.479,3.311,5.364,4.794,8.675,3.315l3.16-1.417l8.095,18.109l-3.16,1.412
		c-3.311,1.481-4.792,5.367-3.313,8.675c1.481,3.313,5.364,4.797,8.675,3.318l3.158-1.414l1.414,3.16
		c1.481,3.313,5.364,4.794,8.675,3.313c3.308-1.479,4.792-5.362,3.311-8.673l-1.41-3.163l18.106-8.095l1.412,3.151
		c1.481,3.318,5.362,4.801,8.675,3.32c3.311-1.476,4.794-5.362,3.313-8.675l-1.412-3.158l3.156-1.417
		C74.421,46.235,75.905,42.354,74.424,39.044z M32.494,50.603l-8.098-18.111l18.106-8.095L50.6,42.502L32.494,50.603z"/>
</g>
</svg>
