<svg xmlns="http://www.w3.org/2000/svg" viewBox="0 0 21.85 6.209"><g fill="#333"><path d="M21.685 2.736c-.25-.125-.54-.1-.81-.09-.144.003-.295.042-.434-.008-.16-.095-.17-.305-.27-.447a.826.826 0 0 0-.963-.196c-.32.164-.534.463-.74.745-.168.173-.29.385-.414.59-.24.404-.425.85-.47 1.32-.406.21-.617.66-1.013.883-.08.04-.1-.07-.102-.126-.01-.28.05-.562.16-.82.136-.31.25-.63.403-.935.477-.983 1.128-1.864 1.716-2.78.07-.114.157-.223.187-.356a.524.524 0 0 0-.084-.408c-.115-.11-.284-.112-.432-.106-.138.008-.294-.015-.408.08-.187.15-.234.4-.327.61-.694 1.205-1.403 2.414-1.885 3.724-.028.065-.037.142-.08.2-.35.132-.55.465-.818.706-.097.08-.186.185-.31.22-.06-.015-.057-.09-.066-.14a1.9 1.9 0 0 1 .16-.813c.137-.314.25-.636.405-.94.505-1.043 1.207-1.972 1.822-2.95a.51.51 0 0 0 .075-.41c-.028-.086-.054-.187-.142-.228-.165-.093-.362-.054-.542-.055a.393.393 0 0 0-.334.177c-.128.17-.16.384-.26.567-.362.61-.71 1.226-1.037 1.853-.265.51-.517 1.027-.72 1.564-.015.033-.028.07-.062.086-.432.272-.768.67-1.208.935-.204.12-.403.266-.64.306-.116.022-.254-.01-.317-.117-.034-.057-.083-.128-.053-.195.07-.056.15-.096.224-.145.604-.393 1.116-.91 1.577-1.46.248-.28.452-.608.54-.974.047-.212.034-.458-.112-.63-.113-.133-.295-.166-.457-.2-.427-.087-.902.018-1.218.328a9.522 9.522 0 0 0-.58.66c-.27-.21-.666-.286-.978-.125-.3.13-.556.333-.83.506.033-.243.016-.51-.138-.712-.148-.12-.356-.132-.535-.09-.09.03-.192.068-.236.158-.034.083.037.15.063.223-.003.11-.034.22-.057.33a20.03 20.03 0 0 1-.518 1.66c-.098.293-.375.498-.434.81-.036.213.123.394.27.527.104.102.274.14.405.07a.636.636 0 0 0 .266-.394c.06-.268.152-.53.28-.772.373-.717 1.032-1.25 1.756-1.59.077-.048.175-.03.25.013-.164.29-.316.59-.41.913-.11.318-.07.668.04.98.085.253.236.505.483.627.294.145.605.308.944.286.13-.002.25-.056.36-.122.362-.21.72-.428 1.042-.695 0 .257.168.473.374.61.247.162.552.283.85.216.316-.087.56-.32.782-.55.115.2.302.35.51.447.225.105.49.17.73.078.33-.125.58-.387.81-.646.143.23.385.374.62.496a.66.66 0 0 0 .54.038c.152-.054.28-.157.395-.267.222-.22.425-.46.586-.728.28-.46.453-.976.587-1.496.02-.067.026-.142.07-.2.077-.017.157-.01.237-.018.235-.01.454-.105.684-.146.102-.013.182-.085.275-.123.054-.025.128-.058.127-.13.01-.102-.085-.17-.165-.21zm-9.07.104c.14-.14.273-.298.453-.387l.056.002c.025.105-.047.197-.097.28-.078.118-.12.255-.207.365a7.053 7.053 0 0 1-1.05 1.1l-.042-.032c.197-.5.51-.948.887-1.328zM19.3 4.286c-.172.326-.38.63-.584.937-.05.064-.11.16-.204.147-.123-.112-.16-.29-.154-.45.013-.265.104-.52.208-.762.2-.45.467-.87.76-1.266.05-.07.102-.15.19-.174.036.068.115.116.118.198.036.48-.113.95-.335 1.37z"/><path d="M7.62 1.035C8.323.98 9.013.757 9.726.808c.24.04.467.156.657.307.068.057.15.133.13.232-.02.23-.266.365-.477.367-.09-.005-.147-.076-.213-.125a.506.506 0 0 0-.273-.073c-.345.002-.69.05-1.028.12.006.02.018.06.025.078-.198.358-.404.71-.575 1.082a10.477 10.477 0 0 0-.85 2.664c-.028.172-.022.346-.033.52-.01.115-.105.223-.224.227-.206.016-.397-.08-.57-.18a.302.302 0 0 1-.157-.222 1.143 1.143 0 0 1 .027-.395c.297-1.184.663-2.357 1.186-3.463.014-.043.078-.13-.005-.136-.297.006-.63.06-.892-.114-.122-.074-.106-.23-.097-.352.012-.1.01-.223.1-.29.084-.074.205-.055.305-.037.28.066.57.04.854.018zM5.205 1.318c0-.076.005-.152-.005-.227a.134.134 0 0 0-.137-.087H.2c-.043.002-.09-.007-.13.014a.13.13 0 0 0-.07.126v4.922c-.01.078.062.152.14.143h4.923a.13.13 0 0 0 .14-.143c.002-1.583 0-3.165.002-4.747zm-2.86 3.717c0 .054-.003.114-.044.154-.048.05-.122.043-.186.045H.687C.625 5.233.552 5.24.503 5.19c-.05-.048-.043-.122-.045-.185V1.66c-.004-.072.018-.16.096-.186.043-.014.09-.013.134-.014h1.428c.063.002.137-.003.185.046.05.048.044.12.046.182v3.347zM4.748 3.49c-.002.063.003.136-.045.184-.05.05-.123.044-.185.046h-1.43c-.06-.003-.134.003-.182-.045-.05-.048-.044-.12-.046-.184V1.66c-.004-.072.018-.162.097-.187.043-.012.088-.012.132-.013h1.428c.062.002.136-.003.184.045.05.048.044.12.046.184v1.8z"/></g></svg>