<svg xmlns="http://www.w3.org/2000/svg" viewBox="0 48.367 54.841 79.006"><path fill="#333" d="M39.806 48.367a3.115 3.115 0 0 1 3.113 3.123v3.072c0 4.13-1.585 8.023-4.46 10.95a15.138 15.138 0 0 1-7.4 4.17l-.284.065v7.938l.283.06a15.118 15.118 0 0 1 7.41 4.177c2.864 2.92 4.448 6.81 4.448 10.94v3.077c0 1.72-1.39 3.127-3.113 3.127a3.127 3.127 0 0 1-3.124-3.128v-3.08a9.312 9.312 0 0 0-2.666-6.56c-1.7-1.73-3.96-2.692-6.358-2.703-2.394.01-4.658.973-6.363 2.704a9.33 9.33 0 0 0-2.662 6.56v3.08c0 1.72-1.396 3.127-3.112 3.127a3.138 3.138 0 0 1-3.13-3.128v-3.08a15.53 15.53 0 0 1 4.46-10.938 15.084 15.084 0 0 1 7.396-4.176l.294-.06v-7.94l-.294-.064a15.135 15.135 0 0 1-7.396-4.17c-2.875-2.932-4.46-6.825-4.46-10.95V51.49a3.128 3.128 0 0 1 3.13-3.123 3.12 3.12 0 0 1 3.113 3.123v3.072c0 2.476.948 4.815 2.663 6.57a8.938 8.938 0 0 0 6.368 2.694c2.395-.01 4.647-.96 6.354-2.693a9.336 9.336 0 0 0 2.667-6.57V51.49a3.12 3.12 0 0 1 3.126-3.123m-12.15 38.237a6.038 6.038 0 0 0-6.033 6.045 6.034 6.034 0 0 0 12.068 0c0-3.338-2.702-6.046-6.033-6.046M54.74 125.216a1.412 1.412 0 0 1-.75 1.823 1.415 1.415 0 0 1-1.833-.75l-1.094-2.673h-6.156l-1.094 2.673c-.288.688-1.134 1.033-1.822.75a1.403 1.403 0 0 1-.753-1.824l5.43-13.145c.33-.778.902-.955 1.317-.955.587 0 1.068.334 1.316.962l5.44 13.14zm-4.815-4.378l-1.94-4.682-1.927 4.682h3.867zm-21.55-1.56c0 4.035-2.206 8.095-7.136 8.095h-.03c-2.334 0-4.258-.82-5.554-2.38-1.18-1.427-1.807-3.41-1.802-5.77.015-5.068 2.91-8.353 7.38-8.353 4.475.02 7.142 3.16 7.142 8.41m-2.94 0c0-3.62-1.404-5.453-4.187-5.468-3.868 0-4.445 3.407-4.466 5.422-.005 1.656.385 2.997 1.125 3.877.738.872 1.847 1.327 3.304 1.332h.025c3.087 0 4.195-2.668 4.195-5.163m14.852-8.146h-9.435a1.42 1.42 0 0 0-1.417 1.428c0 .78.633 1.422 1.417 1.422h3.274v11.708a1.43 1.43 0 0 0 1.433 1.428c.39 0 .743-.153 1.005-.42.284-.27.426-.634.426-1.008l-.004-11.708h3.3c.785 0 1.422-.643 1.422-1.422 0-.79-.637-1.428-1.42-1.428m-28.52.183a1.43 1.43 0 0 0-1.95.527l-3.578 6.2-3.578-6.2a1.43 1.43 0 0 0-1.95-.527 1.43 1.43 0 0 0-.52 1.953l4.62 7.998v4.47a1.43 1.43 0 0 0 1.422 1.428c.79 0 1.433-.643 1.433-1.428v-4.47l4.61-7.998a1.417 1.417 0 0 0-.51-1.953"/></svg>