<?xml version="1.0" encoding="utf-8"?>
<!-- Generator: Adobe Illustrator 18.0.0, SVG Export Plug-In . SVG Version: 6.00 Build 0)  -->
<!DOCTYPE svg PUBLIC "-//W3C//DTD SVG 1.1//EN" "http://www.w3.org/Graphics/SVG/1.1/DTD/svg11.dtd">
<svg version="1.1" id="Layer_1" xmlns="http://www.w3.org/2000/svg" xmlns:xlink="http://www.w3.org/1999/xlink" x="0px" y="0px"
	 viewBox="0 48.367 54.841 79.006" enable-background="new 0 48.367 54.841 79.006" xml:space="preserve">
<path fill="#333333" d="M39.806,48.367c1.721,0,3.113,1.396,3.113,3.123v3.072c0,4.131-1.584,8.023-4.459,10.949
	c-2.025,2.075-4.587,3.513-7.401,4.171l-0.283,0.065v7.938l0.283,0.061c2.814,0.648,5.371,2.096,7.41,4.176
	c2.865,2.921,4.449,6.809,4.449,10.939v3.078c0,1.72-1.391,3.128-3.113,3.128c-1.731,0-3.124-1.408-3.124-3.128v-3.078
	c0-2.475-0.946-4.804-2.667-6.56c-1.701-1.731-3.959-2.693-6.358-2.704c-2.394,0.011-4.658,0.973-6.363,2.704
	c-1.716,1.756-2.662,4.085-2.662,6.56v3.078c0,1.72-1.397,3.128-3.113,3.128c-1.721,0-3.129-1.408-3.129-3.128v-3.078
	c0-4.12,1.585-8.013,4.459-10.939c2.03-2.08,4.591-3.527,7.396-4.176l0.294-0.061v-7.938l-0.294-0.065
	c-2.814-0.659-5.37-2.096-7.396-4.171c-2.875-2.931-4.459-6.824-4.459-10.949V51.49c0-1.727,1.407-3.123,3.129-3.123
	c1.716,0,3.113,1.396,3.113,3.123v3.072c0,2.476,0.947,4.815,2.662,6.571c1.706,1.731,3.969,2.683,6.368,2.693
	c2.394-0.01,4.646-0.961,6.353-2.693c1.721-1.756,2.667-4.095,2.667-6.571V51.49C36.682,49.763,38.075,48.367,39.806,48.367
	 M27.657,86.604c-3.336,0-6.034,2.708-6.034,6.045c0,3.341,2.698,6.043,6.034,6.043c3.33,0,6.034-2.703,6.034-6.043
	C33.691,89.312,30.988,86.604,27.657,86.604"/>
<path fill="#333333" d="M54.739,125.216c0.283,0.709-0.045,1.524-0.749,1.823c-0.167,0.076-0.354,0.106-0.537,0.106
	c-0.567,0-1.063-0.334-1.296-0.855l-1.094-2.673h-6.156l-1.094,2.673c-0.288,0.688-1.134,1.033-1.822,0.749
	c-0.708-0.299-1.048-1.119-0.754-1.823l5.431-13.145c0.329-0.779,0.901-0.956,1.316-0.956c0.587,0,1.068,0.334,1.316,0.962
	L54.739,125.216z M49.925,120.838l-1.939-4.682l-1.928,4.682H49.925z M28.376,119.279c0,4.034-2.207,8.094-7.137,8.094h-0.03
	c-2.333,0-4.257-0.82-5.553-2.379c-1.179-1.428-1.807-3.412-1.802-5.771c0.015-5.068,2.91-8.353,7.381-8.353
	C25.709,110.891,28.376,114.03,28.376,119.279 M25.435,119.279c0-3.619-1.403-5.452-4.186-5.467c-3.867,0-4.444,3.407-4.465,5.422
	c-0.005,1.656,0.385,2.997,1.125,3.877c0.739,0.871,1.848,1.326,3.305,1.331h0.025C24.327,124.442,25.435,121.774,25.435,119.279
	 M40.287,111.134h-9.435c-0.785,0-1.417,0.637-1.417,1.428c0,0.78,0.633,1.422,1.417,1.422h3.274v11.708
	c0,0.784,0.638,1.428,1.433,1.428c0.39,0,0.744-0.153,1.006-0.421c0.284-0.269,0.426-0.633,0.426-1.007l-0.005-11.708h3.3
	c0.785,0,1.422-0.643,1.422-1.422C41.709,111.772,41.071,111.134,40.287,111.134 M11.768,111.317
	c-0.684-0.39-1.554-0.157-1.949,0.527l-3.579,6.201l-3.578-6.201c-0.395-0.688-1.271-0.916-1.95-0.527
	c-0.684,0.395-0.916,1.276-0.521,1.953l4.621,7.998v4.47c0,0.785,0.643,1.428,1.422,1.428c0.79,0,1.433-0.643,1.433-1.428v-4.47
	l4.611-7.998C12.685,112.593,12.451,111.712,11.768,111.317"/>
</svg>
