<svg xmlns="http://www.w3.org/2000/svg" width="121" height="342" viewBox="0 0 121 342"><g opacity=".3" fill="#BAA073"><path d="M18 229h4.403l-2.078-6H18v6M18 229h-2.755l2.077-6H18v6"/><path d="M18.102 223.745L17.264 229h3.032l-.838-5.39M27 229h4.403l-2.078-6H27v6M27 229h-2.755l2.077-6H27v6"/><path d="M27.102 223.745L26.264 229h3.032l-.838-5.39M48 229h4.403l-2.078-6H48v6M48 229h-2.755l2.077-6H48v6"/><path d="M48.102 223.745L47.264 229h3.032l-.838-5.39M57 229h4.403l-2.078-6H57v6M57 229h-2.755l2.077-6H57v6"/><path d="M57.102 223.745L56.264 229h3.032l-.838-5.39"/><path d="M37.75 134.352l-.005 79.843 7.41.008-.3 10.168 19.485-.042-1.487-15.005-8.506-47.072-8.146-27.916-8.45.018zM10.655 224.328l19.486.043-.506-10.167 7.614-.008-.002-79.843-8.454-.02-8.147 27.918-8.503 47.072-1.487 15.006z"/><path d="M37.47 221.167l7.616.008.84-79.87-.22-37.485h.062l1.173-1.57-.005-34.852-5.663-11.908-3.796-4.922-.005 170.6zM37.302 50.568l-3.796 4.922-5.66 11.907-.007 34.853 1.17 1.57h.062l-.22 37.485.84 79.87 7.616-.01-.006-170.597z"/><path d="M33.527 103.82l-.51-1.57.004-34.853 2.46-11.907 1.647-4.922v4.61-4.61l1.647 4.922 2.46 11.907v34.853l-.508 1.57H40.7l.095 37.486-.365 79.87-3.303-.01-3.305.01-.365-79.87.096-37.487z"/><path opacity=".4" fill-rule="evenodd" clip-rule="evenodd" d="M33.798 335.406L21.082 239.53l31.248-.574-18.532 96.45z"/><path fill-rule="evenodd" clip-rule="evenodd" d="M36.04 295.54l-9.69-53.382 21.185.29-11.495 53.09zM62.562 216.337l5.74 7.913h-5.74zM12.74 216.337L7 224.25h5.74z"/><path d="M36.57 99.42c.387.38.908.585 1.45.585.588 0 1.103-.2 1.497-.636.374-.412.583-.938.583-1.488 0-.32-.077-.57-.184-.91h-1.234c.258.215.42.55.42.888 0 .642-.452 1.072-1.077 1.072-.616 0-1.1-.426-1.1-1.057 0-.145.027-.288.077-.42-.296-.166-.592-.32-.877-.484-.125.306-.198.61-.198.942 0 .558.242 1.12.642 1.51zM37.053 93.784c-.16.19-.263.43-.263.683 0 .19.11.442.33.442.232 0 .32-.28.38-.46l.078-.262c.163-.552.442-.978 1.083-.978.395 0 .8.095 1.068.41.263.31.372.726.372 1.125 0 .5-.167.988-.45 1.393l-.832-.442c.226-.256.41-.562.41-.914 0-.243-.12-.5-.4-.5-.288 0-.388.405-.45.626-.185.646-.353 1.073-1.122 1.073-.804 0-1.328-.572-1.328-1.367 0-.4.125-.888.324-1.24l.8.41zM37.053 90.078c-.16.19-.263.43-.263.684 0 .19.11.442.33.442.232 0 .32-.28.38-.457l.078-.264c.163-.552.442-.978 1.083-.978.395 0 .8.094 1.068.41.263.31.372.725.372 1.125 0 .5-.167.988-.45 1.394l-.832-.442c.226-.257.41-.562.41-.915 0-.242-.12-.5-.4-.5-.288 0-.388.406-.45.626-.185.647-.353 1.073-1.122 1.073-.804 0-1.328-.573-1.328-1.367 0-.4.125-.89.324-1.242l.8.41zM37.053 86.372c-.16.19-.263.43-.263.684 0 .19.11.44.33.44.232 0 .32-.278.38-.457l.078-.264c.163-.552.442-.978 1.083-.978.395 0 .8.095 1.068.41.263.31.372.726.372 1.126 0 .5-.167.988-.45 1.393l-.832-.44c.226-.26.41-.564.41-.916 0-.24-.12-.5-.4-.5-.288 0-.388.406-.45.627-.185.646-.353 1.072-1.122 1.072-.804 0-1.328-.574-1.328-1.367 0-.4.125-.89.324-1.242l.8.412zM39.996 81.68v1.15l-1.523.972v.01h1.523v1.03H36.03v-1.54c0-.783.375-1.377 1.222-1.377.547 0 1.02.306 1.12.868l1.624-1.113zm-2.187 2.132v-.1c0-.336-.063-.715-.495-.715-.43 0-.494.38-.494.715v.1h.99z"/></g><path fill="#F7F5EE" d="M58 189h4.403l-2.078-6H58v6"/><path fill="#DFD3BB" d="M58 189h-2.755l2.077-6H58v6"/><path fill="#F2EEE2" d="M58.102 183.745L57.264 189h3.032l-.838-5.39"/><path fill="#F7F5EE" d="M67 189h4.403l-2.078-6H67v6"/><path fill="#DFD3BB" d="M67 189h-2.755l2.077-6H67v6"/><path fill="#F2EEE2" d="M67.102 183.745L66.264 189h3.032l-.838-5.39"/><path fill="#F7F5EE" d="M88 189h4.403l-2.078-6H88v6"/><path fill="#DFD3BB" d="M88 189h-2.755l2.077-6H88v6"/><path fill="#F2EEE2" d="M88.102 183.745L87.264 189h3.032l-.838-5.39"/><path fill="#F7F5EE" d="M97 189h4.403l-2.078-6H97v6"/><path fill="#DFD3BB" d="M97 189h-2.755l2.077-6H97v6"/><path fill="#F2EEE2" d="M97.102 183.745L96.264 189h3.032l-.838-5.39"/><path fill="#F4F1EA" d="M77.75 94.352l-.005 79.843 7.41.008-.3 10.168 19.485-.042-1.487-15.005-8.506-47.072L86.2 94.335l-8.45.018zM50.655 184.328l19.486.043-.506-10.167 7.614-.008-.002-79.843-8.454-.02-8.147 27.918-8.503 47.072-1.487 15.006z"/><path fill="#F7F5EE" d="M77.47 181.167l7.616.008.84-79.87-.22-37.485h.062l1.173-1.57-.005-34.852-5.663-11.908-3.796-4.922-.005 170.6z"/><path fill="#DFD3BB" d="M77.302 10.568l-3.796 4.922-5.66 11.907-.007 34.853 1.17 1.57h.062l-.22 37.485.84 79.87 7.616-.01-.006-170.597z"/><path fill="#F2EEE2" d="M73.527 63.82l-.51-1.57.004-34.853 2.46-11.907 1.647-4.922v4.61-4.61l1.647 4.922 2.46 11.907V62.25l-.508 1.57H80.7l.095 37.486-.365 79.87-3.303-.01-3.305.01-.365-79.87.096-37.487z"/><path opacity=".4" fill-rule="evenodd" clip-rule="evenodd" fill="#EB5E61" d="M73.798 295.406L61.082 199.53l31.248-.574-18.532 96.45z"/><path fill-rule="evenodd" clip-rule="evenodd" fill="#F8AB0D" d="M76.04 255.54l-9.69-53.382 21.185.29-11.495 53.09z"/><path fill-rule="evenodd" clip-rule="evenodd" fill="#F4F1EA" d="M102.562 176.337l5.74 7.913h-5.74zM52.74 176.337L47 184.25h5.74z"/><g fill="#C52018"><path d="M76.57 59.42c.387.38.908.585 1.45.585.588 0 1.103-.2 1.497-.636.374-.412.583-.938.583-1.488 0-.32-.077-.57-.184-.91h-1.234c.258.215.42.55.42.888 0 .642-.452 1.072-1.077 1.072-.616 0-1.1-.426-1.1-1.057 0-.145.027-.288.077-.42-.296-.166-.592-.32-.877-.484-.125.306-.198.61-.198.942 0 .558.242 1.12.642 1.51zM77.053 53.784c-.16.19-.263.43-.263.683 0 .19.11.442.33.442.232 0 .32-.28.38-.46l.078-.262c.163-.552.442-.978 1.083-.978.395 0 .8.095 1.068.41.263.31.372.726.372 1.125 0 .5-.167.988-.45 1.393l-.832-.442c.226-.256.41-.562.41-.914 0-.243-.12-.5-.4-.5-.288 0-.388.405-.45.626-.185.646-.353 1.073-1.122 1.073-.804 0-1.328-.572-1.328-1.367 0-.4.125-.888.324-1.24l.8.41zM77.053 50.078c-.16.19-.263.43-.263.684 0 .19.11.442.33.442.232 0 .32-.28.38-.457l.078-.264c.163-.552.442-.978 1.083-.978.395 0 .8.094 1.068.41.263.31.372.725.372 1.125 0 .5-.167.988-.45 1.394l-.832-.442c.226-.257.41-.562.41-.915 0-.242-.12-.5-.4-.5-.288 0-.388.406-.45.626-.185.647-.353 1.073-1.122 1.073-.804 0-1.328-.573-1.328-1.367 0-.4.125-.89.324-1.242l.8.41zM77.053 46.372c-.16.19-.263.43-.263.684 0 .19.11.44.33.44.232 0 .32-.278.38-.457l.078-.264c.163-.552.442-.978 1.083-.978.395 0 .8.095 1.068.41.263.31.372.726.372 1.126 0 .5-.167.988-.45 1.393l-.832-.44c.226-.26.41-.564.41-.916 0-.24-.12-.5-.4-.5-.288 0-.388.406-.45.627-.185.646-.353 1.072-1.122 1.072-.804 0-1.328-.574-1.328-1.367 0-.4.125-.89.324-1.242l.8.412zM79.996 41.68v1.15l-1.523.972v.01h1.523v1.03H76.03v-1.54c0-.783.375-1.377 1.222-1.377.547 0 1.02.306 1.12.868l1.624-1.113zm-2.187 2.132v-.1c0-.336-.063-.715-.495-.715-.43 0-.494.38-.494.715v.1h.99z"/></g></svg>