<?xml version="1.0" encoding="utf-8"?>
<!-- Generator: Adobe Illustrator 15.0.0, SVG Export Plug-In . SVG Version: 6.00 Build 0)  -->
<!DOCTYPE svg PUBLIC "-//W3C//DTD SVG 1.1//EN" "http://www.w3.org/Graphics/SVG/1.1/DTD/svg11.dtd">
<svg version="1.1" id="Layer_1" xmlns="http://www.w3.org/2000/svg" xmlns:xlink="http://www.w3.org/1999/xlink" x="0px" y="0px"
	 width="121px" height="342px" viewBox="0 0 121 342" enable-background="new 0 0 121 342" xml:space="preserve">
<g>
	<g opacity="0.3">
		<polyline fill="#BAA073" points="18,229 22.403,229 20.325,223 18,223 18,229 		"/>
		<polyline fill="#BAA073" points="18,229 15.245,229 17.322,223 18,223 18,229 		"/>
		<path fill="#BAA073" d="M18.102,223.745L17.264,229h3.032l-0.838-5.39"/>
		<polyline fill="#BAA073" points="27,229 31.403,229 29.325,223 27,223 27,229 		"/>
		<polyline fill="#BAA073" points="27,229 24.245,229 26.322,223 27,223 27,229 		"/>
		<path fill="#BAA073" d="M27.102,223.745L26.264,229h3.032l-0.838-5.39"/>
		<polyline fill="#BAA073" points="48,229 52.403,229 50.325,223 48,223 48,229 		"/>
		<polyline fill="#BAA073" points="48,229 45.245,229 47.322,223 48,223 48,229 		"/>
		<path fill="#BAA073" d="M48.102,223.745L47.264,229h3.032l-0.838-5.39"/>
		<polyline fill="#BAA073" points="57,229 61.403,229 59.325,223 57,223 57,229 		"/>
		<polyline fill="#BAA073" points="57,229 54.245,229 56.322,223 57,223 57,229 		"/>
		<path fill="#BAA073" d="M57.102,223.745L56.264,229h3.032l-0.838-5.39"/>
		<path fill="#BAA073" d="M37.749,134.352l-0.004,79.843l7.411,0.008l-0.302,10.168l19.486-0.043l-1.487-15.005l-8.506-47.072
			l-8.146-27.917L37.749,134.352z"/>
		<path fill="#BAA073" d="M10.655,224.328l19.486,0.043l-0.507-10.168l7.614-0.008l-0.002-79.843l-8.454-0.019l-8.147,27.917
			l-8.503,47.072L10.655,224.328z"/>
		<path fill="#BAA073" d="M37.471,221.167l7.615,0.008l0.841-79.869l-0.22-37.486h0.061l1.173-1.569l-0.006-34.853L41.272,55.49
			l-3.796-4.922L37.471,221.167z"/>
		<path fill="#BAA073" d="M37.302,50.568l-3.796,4.922l-5.661,11.907l-0.006,34.853l1.172,1.569h0.061l-0.22,37.486l0.841,79.869
			l7.615-0.008L37.302,50.568z"/>
		<polygon fill="#BAA073" points="33.527,103.819 33.018,102.25 33.021,67.397 35.479,55.49 37.127,50.568 37.127,55.179 
			37.127,50.568 38.774,55.49 41.233,67.397 41.234,102.25 40.726,103.819 40.699,103.819 40.795,141.306 40.43,221.175 
			37.127,221.167 33.822,221.175 33.457,141.306 33.553,103.819 		"/>
		<path opacity="0.4" fill-rule="evenodd" clip-rule="evenodd" fill="#BAA073" d="M33.798,335.406l-12.716-95.875l31.248-0.575
			L33.798,335.406z"/>
		<path fill-rule="evenodd" clip-rule="evenodd" fill="#BAA073" d="M36.04,295.539l-9.69-53.381l21.185,0.291L36.04,295.539z"/>
		<polygon fill-rule="evenodd" clip-rule="evenodd" fill="#BAA073" points="62.562,216.337 68.303,224.25 62.562,224.25 		"/>
		<polygon fill-rule="evenodd" clip-rule="evenodd" fill="#BAA073" points="12.741,216.337 7,224.25 12.741,224.25 		"/>
		<path fill="#BAA073" d="M36.569,99.421c0.388,0.379,0.909,0.584,1.451,0.584c0.588,0,1.103-0.2,1.497-0.636
			c0.374-0.411,0.583-0.937,0.583-1.487c0-0.321-0.077-0.569-0.184-0.911h-1.234c0.258,0.216,0.42,0.552,0.42,0.889
			c0,0.642-0.452,1.072-1.077,1.072c-0.616,0-1.099-0.426-1.099-1.057c0-0.145,0.026-0.288,0.076-0.421
			c-0.296-0.165-0.592-0.32-0.877-0.483c-0.125,0.305-0.198,0.609-0.198,0.941C35.928,98.47,36.169,99.032,36.569,99.421z"/>
		<path fill="#BAA073" d="M37.053,93.784c-0.159,0.189-0.263,0.431-0.263,0.683c0,0.189,0.11,0.442,0.33,0.442
			c0.232,0,0.32-0.279,0.379-0.458l0.079-0.263c0.163-0.552,0.442-0.978,1.083-0.978c0.394,0,0.799,0.095,1.067,0.41
			c0.263,0.311,0.372,0.726,0.372,1.125c0,0.499-0.167,0.988-0.451,1.393l-0.831-0.442c0.226-0.256,0.41-0.562,0.41-0.914
			c0-0.243-0.12-0.5-0.399-0.5c-0.289,0-0.389,0.405-0.452,0.626c-0.184,0.646-0.352,1.073-1.121,1.073
			c-0.804,0-1.328-0.573-1.328-1.368c0-0.399,0.125-0.888,0.324-1.24L37.053,93.784z"/>
		<path fill="#BAA073" d="M37.053,90.078c-0.159,0.189-0.263,0.431-0.263,0.684c0,0.189,0.11,0.442,0.33,0.442
			c0.232,0,0.32-0.279,0.379-0.457l0.079-0.264c0.163-0.552,0.442-0.978,1.083-0.978c0.394,0,0.799,0.094,1.067,0.41
			c0.263,0.311,0.372,0.725,0.372,1.125c0,0.5-0.167,0.988-0.451,1.394l-0.831-0.442c0.226-0.257,0.41-0.562,0.41-0.915
			c0-0.242-0.12-0.499-0.399-0.499c-0.289,0-0.389,0.405-0.452,0.625c-0.184,0.647-0.352,1.073-1.121,1.073
			c-0.804,0-1.328-0.573-1.328-1.367c0-0.4,0.125-0.889,0.324-1.241L37.053,90.078z"/>
		<path fill="#BAA073" d="M37.053,86.372c-0.159,0.189-0.263,0.431-0.263,0.684c0,0.189,0.11,0.441,0.33,0.441
			c0.232,0,0.32-0.279,0.379-0.458l0.079-0.263c0.163-0.552,0.442-0.978,1.083-0.978c0.394,0,0.799,0.095,1.067,0.411
			c0.263,0.31,0.372,0.725,0.372,1.125c0,0.499-0.167,0.988-0.451,1.393l-0.831-0.441c0.226-0.258,0.41-0.563,0.41-0.915
			c0-0.242-0.12-0.5-0.399-0.5c-0.289,0-0.389,0.405-0.452,0.626c-0.184,0.646-0.352,1.072-1.121,1.072
			c-0.804,0-1.328-0.573-1.328-1.366c0-0.4,0.125-0.889,0.324-1.242L37.053,86.372z"/>
		<path fill="#BAA073" d="M39.996,81.68v1.149l-1.523,0.973v0.011h1.523v1.03h-3.965v-1.541c0-0.783,0.374-1.377,1.221-1.377
			c0.547,0,1.021,0.306,1.12,0.868L39.996,81.68z M37.809,83.812v-0.1c0-0.336-0.062-0.715-0.494-0.715
			c-0.43,0-0.494,0.379-0.494,0.715v0.1H37.809z"/>
	</g>
	<g>
		<g>
			<g>
				<polyline fill="#F7F5EE" points="58,189 62.403,189 60.325,183 58,183 58,189 				"/>
			</g>
			<g>
				<polyline fill="#DFD3BB" points="58,189 55.245,189 57.322,183 58,183 58,189 				"/>
			</g>
			<path fill="#F2EEE2" d="M58.102,183.745L57.264,189h3.032l-0.838-5.39"/>
			<g>
				<polyline fill="#F7F5EE" points="67,189 71.403,189 69.325,183 67,183 67,189 				"/>
			</g>
			<g>
				<polyline fill="#DFD3BB" points="67,189 64.245,189 66.322,183 67,183 67,189 				"/>
			</g>
			<path fill="#F2EEE2" d="M67.102,183.745L66.264,189h3.032l-0.838-5.39"/>
			<g>
				<polyline fill="#F7F5EE" points="88,189 92.403,189 90.325,183 88,183 88,189 				"/>
			</g>
			<g>
				<polyline fill="#DFD3BB" points="88,189 85.245,189 87.322,183 88,183 88,189 				"/>
			</g>
			<path fill="#F2EEE2" d="M88.102,183.745L87.264,189h3.032l-0.838-5.39"/>
			<g>
				<polyline fill="#F7F5EE" points="97,189 101.403,189 99.325,183 97,183 97,189 				"/>
			</g>
			<g>
				<polyline fill="#DFD3BB" points="97,189 94.245,189 96.322,183 97,183 97,189 				"/>
			</g>
			<path fill="#F2EEE2" d="M97.102,183.745L96.264,189h3.032l-0.838-5.39"/>
			<path fill="#F4F1EA" d="M77.749,94.352l-0.004,79.843l7.411,0.008l-0.302,10.168l19.486-0.043l-1.487-15.005l-8.506-47.072
				l-8.146-27.917L77.749,94.352z"/>
			<path fill="#F4F1EA" d="M50.655,184.328l19.486,0.043l-0.507-10.168l7.614-0.008l-0.002-79.843l-8.454-0.019l-8.147,27.917
				l-8.503,47.072L50.655,184.328z"/>
			<path fill="#F7F5EE" d="M77.471,181.167l7.615,0.008l0.841-79.869l-0.22-37.486h0.061l1.173-1.569l-0.006-34.853L81.272,15.49
				l-3.796-4.922L77.471,181.167z"/>
			<path fill="#DFD3BB" d="M77.302,10.568l-3.796,4.922l-5.661,11.907L67.839,62.25l1.172,1.569h0.061l-0.22,37.486l0.841,79.869
				l7.615-0.008L77.302,10.568z"/>
			<polygon fill="#F2EEE2" points="73.527,63.819 73.018,62.25 73.021,27.397 75.479,15.49 77.127,10.568 77.127,15.179 
				77.127,10.568 78.774,15.49 81.233,27.397 81.234,62.25 80.726,63.819 80.699,63.819 80.795,101.306 80.43,181.175 
				77.127,181.167 73.822,181.175 73.457,101.306 73.553,63.819 			"/>
			<path opacity="0.4" fill-rule="evenodd" clip-rule="evenodd" fill="#EB5E61" d="M73.798,295.406l-12.716-95.875l31.248-0.575
				L73.798,295.406z"/>
			<path fill-rule="evenodd" clip-rule="evenodd" fill="#F8AB0D" d="M76.04,255.539l-9.69-53.381l21.185,0.291L76.04,255.539z"/>
			<polygon fill-rule="evenodd" clip-rule="evenodd" fill="#F4F1EA" points="102.562,176.337 108.303,184.25 102.562,184.25 			"/>
			<polygon fill-rule="evenodd" clip-rule="evenodd" fill="#F4F1EA" points="52.741,176.337 47,184.25 52.741,184.25 			"/>
			<g>
				<path fill="#C52018" d="M76.569,59.421c0.388,0.379,0.909,0.584,1.451,0.584c0.588,0,1.103-0.2,1.497-0.636
					c0.374-0.411,0.583-0.937,0.583-1.487c0-0.321-0.077-0.569-0.184-0.911h-1.234c0.258,0.216,0.42,0.552,0.42,0.889
					c0,0.642-0.452,1.072-1.077,1.072c-0.616,0-1.099-0.426-1.099-1.057c0-0.145,0.026-0.288,0.076-0.421
					c-0.296-0.165-0.592-0.32-0.877-0.483c-0.125,0.305-0.198,0.609-0.198,0.941C75.928,58.47,76.169,59.032,76.569,59.421z"/>
				<path fill="#C52018" d="M77.053,53.784c-0.159,0.189-0.263,0.431-0.263,0.683c0,0.189,0.11,0.442,0.33,0.442
					c0.232,0,0.32-0.279,0.379-0.458l0.079-0.263c0.163-0.552,0.442-0.978,1.083-0.978c0.394,0,0.799,0.095,1.067,0.41
					c0.263,0.311,0.372,0.726,0.372,1.125c0,0.499-0.167,0.988-0.451,1.393l-0.831-0.442c0.226-0.256,0.41-0.562,0.41-0.914
					c0-0.243-0.12-0.5-0.399-0.5c-0.289,0-0.389,0.405-0.452,0.626c-0.184,0.646-0.352,1.073-1.121,1.073
					c-0.804,0-1.328-0.573-1.328-1.368c0-0.399,0.125-0.888,0.324-1.24L77.053,53.784z"/>
				<path fill="#C52018" d="M77.053,50.078c-0.159,0.189-0.263,0.431-0.263,0.684c0,0.189,0.11,0.442,0.33,0.442
					c0.232,0,0.32-0.279,0.379-0.457l0.079-0.264c0.163-0.552,0.442-0.978,1.083-0.978c0.394,0,0.799,0.094,1.067,0.41
					c0.263,0.311,0.372,0.725,0.372,1.125c0,0.5-0.167,0.988-0.451,1.394l-0.831-0.442c0.226-0.257,0.41-0.562,0.41-0.915
					c0-0.242-0.12-0.499-0.399-0.499c-0.289,0-0.389,0.405-0.452,0.625c-0.184,0.647-0.352,1.073-1.121,1.073
					c-0.804,0-1.328-0.573-1.328-1.367c0-0.4,0.125-0.889,0.324-1.241L77.053,50.078z"/>
				<path fill="#C52018" d="M77.053,46.372c-0.159,0.189-0.263,0.431-0.263,0.684c0,0.189,0.11,0.441,0.33,0.441
					c0.232,0,0.32-0.279,0.379-0.458l0.079-0.263c0.163-0.552,0.442-0.978,1.083-0.978c0.394,0,0.799,0.095,1.067,0.411
					c0.263,0.31,0.372,0.725,0.372,1.125c0,0.499-0.167,0.988-0.451,1.393l-0.831-0.441c0.226-0.258,0.41-0.563,0.41-0.915
					c0-0.242-0.12-0.5-0.399-0.5c-0.289,0-0.389,0.405-0.452,0.626c-0.184,0.646-0.352,1.072-1.121,1.072
					c-0.804,0-1.328-0.573-1.328-1.366c0-0.4,0.125-0.889,0.324-1.242L77.053,46.372z"/>
				<path fill="#C52018" d="M79.996,41.68v1.149l-1.523,0.973v0.011h1.523v1.03h-3.965v-1.541c0-0.783,0.374-1.377,1.221-1.377
					c0.547,0,1.021,0.306,1.12,0.868L79.996,41.68z M77.809,43.812v-0.1c0-0.336-0.062-0.715-0.494-0.715
					c-0.43,0-0.494,0.379-0.494,0.715v0.1H77.809z"/>
			</g>
		</g>
	</g>
</g>
</svg>
