<?xml version="1.0" encoding="UTF-8"?>
<!-- Generator: Adobe Illustrator 16.0.0, SVG Export Plug-In . SVG Version: 6.00 Build 0)  -->
<!DOCTYPE svg PUBLIC "-//W3C//DTD SVG 1.1//EN" "http://www.w3.org/Graphics/SVG/1.1/DTD/svg11.dtd">
<svg version="1.1" id="Layer_1" xmlns="http://www.w3.org/2000/svg" xmlns:xlink="http://www.w3.org/1999/xlink" x="0px" y="0px" width="618px" height="148px" viewBox="0 0 618 148" enable-background="new 0 0 618 148" xml:space="preserve">
<path fill="#F3DFBA" d="M21.042,23.056C7.707,36.761,0.481,55.104,0.481,74.185c0,20.75,7.04,38.907,22.419,52.798  c14.45,13.15,32.977,20.564,52.428,20.564c11.302,0,20.011-2.777,32.052-6.484V97.523c-7.595,9.078-19.451,14.819-31.308,14.819  c-22.604,0-37.793-15.934-37.793-37.978c0-21.675,15.009-38.718,37.234-38.718c5.115,0,10.141,0.962,14.829,2.73  c5.817-10.463,11.288-20.859,17.005-30.905C96.609,3.04,85.872,0.452,74.214,0.452C54.578,0.452,34.752,8.971,21.042,23.056z"/>
<path fill="#F3DFBA" d="M212.464,40.099c-6.67-5.556-15.194-9.264-24.083-9.264c-6.67,0-15.564,3.893-15.564,11.672  c0,8.149,9.818,11.302,16.119,13.336l9.263,2.778c19.451,5.74,34.456,15.559,34.456,38.163c0,13.895-3.333,28.159-14.45,37.607  c-10.932,9.264-25.567,13.155-39.646,13.155c-17.598,0-34.831-5.926-49.09-15.934l15.563-29.269  c9.079,7.964,19.821,14.449,32.232,14.449c8.519,0,17.598-4.257,17.598-14.079c0-10.188-14.265-13.711-22.044-15.934  c-22.789-6.485-37.793-12.412-37.793-39.458c0-28.345,20.195-46.871,48.17-46.871c14.08,0,31.308,4.446,43.719,11.486  L212.464,40.099z"/>
<path fill="#F3DFBA" d="M335.822,40.099c-6.67-5.556-15.193-9.264-24.082-9.264c-6.671,0-15.564,3.893-15.564,11.672  c0,8.149,9.818,11.302,16.119,13.336l9.263,2.778c19.451,5.74,34.456,15.559,34.456,38.163c0,13.895-3.333,28.159-14.45,37.607  c-10.933,9.264-25.567,13.155-39.646,13.155c-17.598,0-34.831-5.926-49.091-15.934l15.564-29.269  c9.079,7.964,19.821,14.449,32.232,14.449c8.519,0,17.598-4.257,17.598-14.079c0-10.188-14.266-13.711-22.045-15.934  c-22.789-6.485-37.793-12.412-37.793-39.458c0-28.345,20.196-46.871,48.171-46.871c14.08,0,31.308,4.446,43.719,11.486  L335.822,40.099z"/>
<path fill="#F3DFBA" d="M459.177,40.099c-6.67-5.556-15.194-9.264-24.083-9.264c-6.67,0-15.564,3.893-15.564,11.672  c0,8.149,9.818,11.302,16.119,13.336l9.264,2.778c19.451,5.74,34.455,15.559,34.455,38.163c0,13.895-3.332,28.159-14.449,37.607  c-10.933,9.264-25.567,13.155-39.647,13.155c-17.597,0-34.83-5.926-49.09-15.934l15.563-29.269  c9.078,7.964,19.821,14.449,32.232,14.449c8.52,0,17.598-4.257,17.598-14.079c0-10.188-14.265-13.711-22.044-15.934  c-22.789-6.485-37.794-12.412-37.794-39.458c0.005-28.345,20.195-46.871,48.171-46.871c14.08,0,31.308,4.446,43.719,11.486  L459.177,40.099z"/>
<path fill="#F3DFBA" d="M617.262,143.84h-40.463l-34.275-53.727h-0.37v53.727h-36.309V4.154h54.281  c27.601,0,48.536,13.155,48.536,42.979c0,19.267-10.743,35.939-30.564,39.457L617.262,143.84z M542.149,66.774h3.522  c11.856,0,25.191-2.223,25.191-17.412s-13.335-17.413-25.191-17.413h-3.522V66.774z"/>
</svg>