<svg xmlns="http://www.w3.org/2000/svg" viewBox="-31.2 1222.8 758 313.8"><path fill="#42403D" d="M607.1 1349.8c-2.1 2.1-2.4 5.4-.9 7.8l8.7-8.7c-2.4-1.6-5.7-1.3-7.8.9zm9.8 1.1l-8.7 8.7c2.4 1.5 5.7 1.2 7.8-.9 2.2-2.1 2.5-5.4.9-7.8z"/><path d="M434.8 1486.3l2.4 30.8 12.6 3.6 12.3-3.5 2.8-30.7-30.1-.2zm24.4 10.3l-8.8 3.6h8.1l-1.1 11.6-7.6 2.3-7.9-2.2-.5-5.9h3.7l.3 2.9 4 1 4.4-.8.5-5-13.1-.1-.5-3.5 8.9-3.8h-9.1l-.5-3.7 19 .1.2 3.5zm-13.5-14.3H443v-1.9h2.7v-2H441v5.7h4.7m2-1.8v1.9h4.5v-1.8l-1.5-1.9h1.5v-2l-4.6-.1v1.6l1.6 2.3m5 0v1.9h4.5v-1.8l-1.5-1.9h1.5v-2h-4.6v1.5l1.6 2.3" fill="#333"/><path fill="none" d="M46 1385.5c-2.2-3.4-5.4-6.2-9-7.8-3.6-1.6-7.8-2.3-11.8-1.7-4 .5-7.7 2.3-10.8 4.9-3.1 2.6-5.3 6.2-6.4 10-1.1 3.8-1.1 8.1 0 11.9 1.1 3.8 3.4 7.3 6.4 10 3.1 2.6 6.8 4.4 10.8 4.9 4 .7 8.2 0 11.8-1.7 3.6-1.6 6.8-4.4 9-7.8 2.2-3.4 3.3-7.3 3.4-11.4-.1-4-1.2-7.9-3.4-11.3z"/><path fill="none" d="M52.5 1381.4c-3-4.6-7.3-8.4-12.3-10.6-4.9-2.2-10.6-3.2-16-2.3-5.4.7-10.6 3.1-14.7 6.7-4.2 3.6-7.2 8.4-8.8 13.6-1.5 5.2-1.5 11 0 16.2 1.5 5.2 4.6 10 8.8 13.6 4.1 3.6 9.3 6 14.7 6.7 5.4.9 11.1 0 16-2.3 5-2.3 9.3-6 12.3-10.6s4.5-10 4.6-15.5c-.1-5.5-1.6-10.9-4.6-15.5zm-2 29.8c-2.7 4.2-6.7 7.7-11.3 9.8-4.5 2.1-9.7 2.9-14.7 2.1-5-.7-9.7-2.9-13.5-6.2-3.8-3.3-6.6-7.7-8.1-12.5-1.4-4.8-1.4-10.1 0-14.9 1.4-4.8 4.2-9.2 8.1-12.5 3.8-3.3 8.5-5.5 13.5-6.2 5-.8 10.2 0 14.7 2.1 4.6 2.1 8.5 5.5 11.3 9.8 2.8 4.2 4.1 9.2 4.2 14.3-.1 5-1.5 9.9-4.2 14.2z"/><path fill="#42403D" d="M136.4 1310.1v-4.3h-2.2v6.6h5.3v-2.2h-3.1m-17.6-2.2h1.9v4.3h2.2v-4.3h1.9v-2.2h-6v2.2zm12.2-2.2h-.2l-1.4 2.2-1.4-2.2h-2.3v6.6h2.1v-3.3l1.5 2.4 1.6-2.4v3.3h2.1v-6.6h-2zm-15.4 2.2h-2v-2.2h-2.2v6.6h2.2v-2.2h2v2.2h2.2v-6.6h-2.2v2.2zm-7.4 7.3l3.2 35.1 14 4 14-4 3.2-35.1h-34.4zm27.7 11.5h-16.5l.4 4.4h15.7l-1.2 13.2-8.8 2.5-8.8-2.5-.6-6.7h4.4l.3 3.4 4.8 1.4 4.7-1.4.5-5.6H116v.1l-1.2-13.1h21.7l-.6 4.3z"/><path fill="none" d="M473.4 1474.8l.5-.9m-153.6-112.3h.1m-.1 0h1"/><path fill="#12100B" d="M312.01 1303.828l-.488-.872 137.292-76.763.488.873z"/><path fill="#42403D" d="M678.7 1373.9v-.1l.1-.3.1-.3c0-.1 0-.2.1-.3l.3-1.4.3-1.4c0-.1 0-.2-.1-.2h-1.8c-.1 0-.2.1-.2.2l-.4 1.8-.4 1.8v.2c-.4 2-.3 3.9 2.1 4h3.8c.1 0 .2-.1.2-.2l.8-3.8.8-3.8c0-.1 0-.2-.1-.2h-1.7c-.1 0-.2.1-.2.2l-.6 2.8-.6 2.8c0 .1-.1.2-.2.2h-1.2c-1.5 0-1.4-.8-1.1-2zm-15.4-2.1h1.9c.1 0 .2-.1.2-.2l.2-.8.2-.8c0-.1 0-.2-.1-.2h-1.9c-.1 0-.2.1-.2.2l-.2.8-.2.8c0 .1 0 .2.1.2zm1.9.7c0-.1 0-.2-.1-.2h-1.9c-.1 0-.2.1-.2.2l-.3 1.2-.3 1.3v.2l-.3 1.2-.3 1.2c0 .1-.1.2-.1.3 0 0-.4 1.1-1 1h-.6c-.1 0-.2.1-.2.2l-.2.8-.2.8c0 .1 0 .2.1.2h1.6c1.5 0 2.3-.8 2.8-3.2l.6-2.7.6-2.5zm29.9.8l-.3 1.4v.2c0-.1.1-.2.1-.3l.2-1.3z"/><path fill="#42403D" d="M695.1 1373.3l.3-1.3c0-.1.1-.2.2-.2h4.5c.1 0 .2-.1.1-.2l-.1-.3-.1-.3v-.2c-.2-.6-.6-.9-1.6-.9h-4.5c-.1 0-.2.1-.2.2l-.1.3-.1.4c0 .1 0 .2-.1.3l-.7 3.2-.7 3.2v.1c0 .1 0 .2.1.2h1.8c.1 0 .2-.1.2-.2v-.2l.3-1.3.3-1.3v-.2l.4-1.3z"/><path fill="#42403D" d="M706 1368.8h-1.7c-.1 0-.2.1-.3.1l-3.2 4.7c-.1.1-.1.1-.1 0l-.2-1c0-.1-.1-.2-.2-.2h-2.1c-.1 0-.2.1-.1.2l.9 3.2v.3l-.4 1.6c0 .1 0 .2.1.2h2c.1 0 .2-.1.2-.2l.4-1.6c0-.1.1-.2.2-.3l5.2-6.9c.1-.1 0-.1-.1-.1h-.6zm-17.1 1c-3.3 0-4.1 2-4.6 4.1-.4 2.1-.4 4 3.1 4h3c.1 0 .2-.1.2-.2l.1-.7v-.1l.2-.8c0-.1 0-.2-.1-.2h-3.1c-1.1 0-1.5-.3-1.5-1.1 0-.1.1-.2.2-.2h4.8c.1 0 .2-.1.2-.1.9-2.8.7-4.7-2.5-4.7zm.8 3c0 .1-.1.2-.2.2h-2.6c-.1 0-.1-.1-.1-.1.2-.7.8-1.1 1.7-1.1 1-.1 1.3.4 1.2 1zm-14.1-.7c.3-1.8-.6-4.3-4-4.3s-4.8 2.4-5.4 5.1c-.6 2.7.2 5 3.5 5h5.2c.1 0 .2-.1.2-.2l.4-1.6c0-.1 0-.2-.1-.2h-.8c-.1 0-.1-.1-.1-.1 0-.1.9-2.4 1.1-3.7zm-2.5.7v.2l-.4 1.3-.4 1.3c0 .1-.1.2-.2.2h-2c-1.5 0-1.9-1.2-1.5-2.9.4-1.8 1.1-2.9 2.6-3 2-.2 2.4 1.2 1.9 2.9zm10.6-17.8c7.6 0 14.2 4.5 17.3 11h2.2c-3.2-7.6-10.7-12.9-19.4-12.9s-16.3 5.3-19.4 12.9h2.2c2.9-6.5 9.5-11 17.1-11zm0 38.3c-7.6 0-14.2-4.5-17.3-11h-2.2c3.2 7.6 10.7 12.9 19.4 12.9s16.3-5.4 19.4-12.9h-2.2c-2.9 6.5-9.5 11-17.1 11z"/><path fill="#42403D" d="M719.6 1379.6c.1-.9.2-1.9.3-2.8 2.3-.6 4.7-1.3 6.9-2.2 0-1.3-.1-2.6-.2-3.9-2.4-.8-4.8-1.4-7.2-1.9-.1-.9-.4-1.9-.6-2.8-.2-.9-.5-1.8-.8-2.7 2-1.4 3.9-2.9 5.7-4.5-.5-1.2-1-2.4-1.6-3.5-2.5.1-5 .4-7.4.8l-1.5-2.4c-.5-.8-1.1-1.5-1.7-2.3 1.3-2 2.5-4.1 3.6-6.3l-2.7-2.7c-2.3 1-4.5 2.2-6.6 3.4-.7-.6-1.5-1.1-2.3-1.7l-2.4-1.5c.5-2.4.9-4.7 1.1-7.2-1.2-.6-2.3-1.1-3.5-1.5-1.8 1.8-3.4 3.6-4.9 5.6-.9-.3-1.8-.5-2.8-.7-.9-.2-1.9-.4-2.8-.5-.4-2.4-.9-4.8-1.5-7.1-1.3-.1-2.6-.2-3.9-.2-1 2.3-1.8 4.6-2.5 7-.9.1-1.9.2-2.8.3-.9.1-1.9.3-2.8.5-1.2-2.1-2.5-4.1-4-6.1l-3.6 1.2c-.1 2.5-.1 5 .1 7.4-.9.4-1.7.8-2.5 1.3-.8.4-1.6 1-2.4 1.5-1.9-1.5-3.9-2.9-5.9-4.2-1 .8-2 1.6-3 2.5.8 2.4 1.7 4.6 2.8 6.9-.7.7-1.3 1.4-1.9 2.1-.6.7-1.2 1.5-1.7 2.3-2.3-.7-4.6-1.3-7-1.8-.7 1.1-1.3 2.2-1.9 3.4 1.6 1.9 3.3 3.7 5.1 5.4-.4.9-.7 1.8-1 2.7-.3.9-.6 1.8-.8 2.7-2.4.2-4.8.4-7.2.9-.2 1.3-.4 2.5-.5 3.8 2.2 1.2 4.4 2.3 6.7 3.2v2.8c0 .9.1 1.9.3 2.8-2.2 1-4.3 2.2-6.4 3.4.3 1.3.5 2.5.9 3.7 2.5.3 5 .5 7.4.5.3.9.7 1.8 1.1 2.6.4.9.8 1.7 1.3 2.6a48.8 48.8 0 0 0-4.7 5.5c.7 1.1 1.4 2.2 2.2 3.2 2.4-.6 4.8-1.3 7.1-2.2.6.7 1.3 1.4 1.9 2.1.7.7 1.4 1.3 2.1 1.9-.9 2.2-1.7 4.5-2.4 6.8 1 .8 2.1 1.5 3.2 2.2 2.1-1.4 4-2.9 5.8-4.6.8.4 1.7.9 2.6 1.2.9.4 1.8.7 2.7 1-.1 2.4 0 4.8.2 7.3 1.2.3 2.5.7 3.8.9 1.4-2 2.7-4.2 3.8-6.4.9.1 1.9.2 2.8.2.9.1 1.9 0 2.8 0 .8 2.2 1.7 4.5 2.8 6.7 1.3-.1 2.5-.3 3.8-.5.6-2.5 1-4.9 1.2-7.3.9-.2 1.8-.5 2.7-.8.9-.3 1.8-.6 2.7-1 1.6 1.8 3.3 3.6 5 5.2 1.2-.6 2.3-1.2 3.4-1.9-.3-2.5-.9-4.9-1.5-7.3.8-.5 1.5-1.1 2.2-1.7.7-.6 1.4-1.3 2.1-1.9 2.1 1.1 4.3 2.1 6.6 3 .9-1 1.7-1.9 2.5-3-1.2-2.2-2.6-4.2-4-6.2l1.5-2.4c.4-.8.9-1.7 1.3-2.6 2.4.3 4.8.4 7.2.5.5-1.2.9-2.4 1.2-3.7-1.9-1.6-3.9-3-6-4.3.1-.8.3-1.7.4-2.7zm-7.9-1c-.5 3.5-1.6 7-3.3 10.1-1.7 3.1-4 5.9-6.7 8.2-2.7 2.3-5.9 4.1-9.2 5.2-3.4 1.2-7 1.7-10.5 1.5-3.5-.1-7.1-.9-10.3-2.4-3.3-1.4-6.3-3.4-8.8-6-2.5-2.5-4.6-5.5-6-8.7-1.5-3.2-2.3-6.8-2.5-10.3-.2-3.5.3-7.1 1.4-10.5 1.1-3.4 2.9-6.6 5.1-9.3 2.3-2.8 5-5.1 8.1-6.8 3.1-1.7 6.5-2.9 10.1-3.4 3.5-.5 7.1-.4 10.6.4s6.8 2.2 9.8 4.2c3 2 5.5 4.5 7.6 7.5 2 2.9 3.5 6.2 4.3 9.7.6 3.4.8 7 .3 10.6zM481 1259.9c1.1-.3 2.3-.6 3.4-1.1 0-.6 0-1.3-.1-1.9-1.2-.4-2.3-.7-3.5-.9-.1-.5-.2-.9-.3-1.4-.1-.4-.2-.9-.4-1.3 1-.7 1.9-1.4 2.8-2.2-.2-.6-.5-1.2-.8-1.7-1.2.1-2.4.2-3.6.4-.2-.4-.5-.8-.8-1.2-.3-.4-.5-.8-.8-1.1.6-1 1.2-2 1.8-3.1-.4-.5-.9-.9-1.3-1.3-1.1.5-2.2 1.1-3.2 1.7-.4-.3-.7-.6-1.1-.8-.4-.3-.8-.5-1.2-.7.3-1.2.4-2.3.6-3.5-.6-.3-1.1-.5-1.7-.8-.9.9-1.7 1.8-2.4 2.7-.4-.1-.9-.3-1.3-.4-.5-.1-.9-.2-1.4-.3-.2-1.2-.4-2.3-.8-3.5-.6-.1-1.3-.1-1.9-.1-.5 1.1-.9 2.3-1.2 3.4-.5 0-.9.1-1.4.1-.5.1-.9.2-1.4.3-.6-1-1.2-2-2-3l-1.8.6c-.1 1.2 0 2.4.1 3.6l-1.2.6c-.4.2-.8.5-1.2.7-.9-.7-1.9-1.4-2.9-2.1l-1.5 1.2c.4 1.2.9 2.3 1.4 3.4-.3.3-.6.7-.9 1-.3.4-.6.7-.8 1.1-1.1-.4-2.3-.6-3.4-.9-.3.5-.6 1.1-.9 1.6.8.9 1.6 1.8 2.5 2.6-.2.4-.3.9-.5 1.3-.1.4-.3.9-.4 1.3-1.2.1-2.4.2-3.5.4-.1.6-.2 1.2-.3 1.9 1.1.6 2.2 1.1 3.3 1.6v1.4c0 .5.1.9.1 1.4-1.1.5-2.1 1.1-3.1 1.7.1.6.3 1.2.4 1.8 1.2.2 2.4.3 3.6.3.2.4.3.9.5 1.3l.6 1.2c-.8.8-1.6 1.7-2.3 2.7.3.5.7 1.1 1.1 1.6 1.2-.3 2.3-.6 3.5-1.1.3.4.6.7 1 1 .3.3.7.6 1 .9-.5 1.1-.8 2.2-1.2 3.4.5.4 1 .7 1.6 1.1 1-.7 2-1.4 2.8-2.2.4.2.8.4 1.3.6.4.2.9.4 1.3.5 0 1.2 0 2.4.1 3.6.6.2 1.2.3 1.8.4.7-1 1.3-2.1 1.8-3.1.5 0 .9.1 1.4.1h1.4c.4 1.1.9 2.2 1.4 3.3.6-.1 1.2-.2 1.9-.3.3-1.2.5-2.4.6-3.6.5-.1.9-.2 1.3-.4s.9-.3 1.3-.5c.8.9 1.6 1.8 2.5 2.6.6-.3 1.1-.6 1.6-.9-.2-1.2-.4-2.4-.7-3.5.4-.3.7-.6 1.1-.9.4-.3.7-.6 1-.9 1 .6 2.1 1 3.2 1.5.4-.5.8-.9 1.2-1.5-.6-1.1-1.2-2.1-2-3 .3-.4.5-.8.7-1.2l.6-1.2c1.2.1 2.3.2 3.5.2l.6-1.8c-.9-.8-1.9-1.5-2.9-2.1.1-.5.2-.9.2-1.4.1-.3.2-.8.2-1.2zm-4 .8c-.2 1.7-.8 3.4-1.6 4.9-.8 1.5-2 2.9-3.3 4-1.3 1.1-2.9 2-4.5 2.6-1.7.6-3.4.8-5.1.8-1.7-.1-3.5-.5-5.1-1.2-1.6-.7-3.1-1.7-4.3-2.9-1.2-1.2-2.2-2.7-3-4.3-.7-1.6-1.1-3.3-1.2-5.1-.1-1.7.1-3.5.7-5.1.5-1.7 1.4-3.2 2.5-4.6 1.1-1.4 2.5-2.5 4-3.3 1.5-.8 3.2-1.4 4.9-1.7 1.7-.3 3.5-.2 5.2.2 1.7.4 3.3 1.1 4.8 2.1 1.4 1 2.7 2.2 3.7 3.7 1 1.4 1.7 3 2.1 4.7.3 1.8.4 3.5.2 5.2zm-145.4 76.9c3.6-3.6 4.1-9.1 1.5-13.2l-14.7 14.7c4.1 2.6 9.7 2.1 13.2-1.5zm-16.6-1.9l14.7-14.7c-4.1-2.6-9.6-2.1-13.2 1.5-3.6 3.6-4.1 9.1-1.5 13.2zm-275.8 37.2c-4.5-2.1-9.7-2.9-14.7-2.1-5 .7-9.7 2.9-13.5 6.2-3.8 3.3-6.6 7.7-8.1 12.5-1.4 4.8-1.4 10.1 0 14.9 1.4 4.8 4.2 9.2 8.1 12.5 3.8 3.3 8.5 5.5 13.5 6.2 5 .8 10.2 0 14.7-2.1 4.6-2.1 8.5-5.5 11.3-9.8 2.8-4.2 4.1-9.2 4.2-14.3-.1-5.1-1.5-10-4.2-14.3-2.7-4.2-6.7-7.6-11.3-9.7zm6.8 35.4c-2.2 3.4-5.4 6.2-9 7.8-3.6 1.6-7.8 2.3-11.8 1.7-4-.5-7.7-2.3-10.8-4.9-3.1-2.6-5.3-6.2-6.4-10-1.1-3.8-1.1-8.1 0-11.9 1.1-3.8 3.4-7.3 6.4-10 3.1-2.6 6.8-4.4 10.8-4.9 4-.7 8.2 0 11.8 1.7 3.6 1.6 6.8 4.4 9 7.8 2.2 3.4 3.3 7.3 3.4 11.4-.1 4-1.2 7.9-3.4 11.3z"/><path fill="#42403D" d="M37.7 1396.3c2.1-.2 4.3.2 5.9.4-1.7-.7-4.4-.3-6.7-.5.7-2.7.1-6-1.5-7.3.4-1.1.1-2.6-.3-3.5-.8 0-1.4.2-2.2.5-.6.3-1.2.9-1.8 1-.6.1-1.4-.3-2.2-.3-1.9-.1-3.3.2-4.6.6-1.1-.7-2.2-1.4-3.9-1.5-.6.9-.7 2.7-.2 3.8-1.5 1.4-1.7 4.9-.9 7.1-2.3.1-4.7 0-6.4.7 1.2-.2 3.1-.5 4.5-.6.8-.1 2.1-.3 2.3.6-2.5.1-4.8.4-6.7 1.1 2.1-.5 4.3-.9 6.8-1.1 1.1 2 3.3 2.8 6 3.1-.5.4-.9 1-1.1 1.8-.6.2-1 .4-1.6.4-2.2 0-2.3-3.1-4.7-2.5.2.7.8.7 1.2 1.2.4.5.5 1.1.9 1.7.8 1.2 2.3 1.6 4.2 1.2-.1 1.2.3 2.3-.1 3.1-.3.6-.9.5-1 1.1.9.3 2.1 0 2.5-.9.6-1.4-.6-4.2.4-5-.2 1.8.4 3.9 0 5.3-.2.5-.6.7-.5 1.2 2.8.3 2.2-3.2 2.1-5.8 0-.3-.2-1 .3-1 .6 2.6-.7 7.1 2.5 6.7.1-.5-.4-.7-.6-1.3-.5-1.4-.1-3.7-.2-5.3.9 1 .1 3.3.5 4.7.2.9 1.9 1.7 2.6.9-.3-.4-.7-.4-1-.9-.6-1-.1-3.4-.3-4.9-.2-1.1-.7-1.3-1.1-1.9 2.8-.3 4.8-1.3 5.8-3.3 2.4 0 4.8.5 6.8.7-2-.6-4.4-.7-6.8-.9.1-.4.7-.3 1.1-.4zm573.9-57c-8.2 0-14.9 6.7-14.9 14.9s6.7 14.9 14.9 14.9 14.9-6.7 14.9-14.9-6.7-14.9-14.9-14.9zm0 28.5c-7.5 0-13.5-6.1-13.5-13.5 0-7.5 6.1-13.5 13.5-13.5 7.5 0 13.5 6.1 13.5 13.5s-6 13.5-13.5 13.5z"/><path fill="#42403D" d="M635.9 1366.6c.4-.8.8-1.6 1.1-2.5 2.3.2 4.7.2 7.1.1.3-1.2.7-2.5.9-3.8-2-1.4-4.1-2.6-6.2-3.7l.1-2.7-.1-2.7c2.1-.9 4.2-2 6.3-3.2-.2-1.3-.6-2.5-.9-3.8-2.4-.3-4.9-.4-7.2-.4-.3-.9-.8-1.7-1.1-2.5-.4-.8-.9-1.6-1.4-2.4 1.5-1.8 2.8-3.7 4-5.8-.7-1.1-1.7-2-2.5-2.9-2.3.8-4.5 1.9-6.5 3-.7-.6-1.4-1.1-2.2-1.7-.7-.5-1.6-1-2.3-1.4.5-2.3.8-4.6.9-7-1.2-.6-2.4-1-3.6-1.4-1.4 1.6-2.7 3.2-3.8 4.9l-8.2-5.9-.3-.6h-.5l-119.6-85.7c-6.6-7.3-16.1-11.8-26.6-11.8-19.8 0-35.9 16.1-35.9 35.9 0 19.8 16.1 35.9 35.9 35.9 19.8 0 35.9-16.1 35.9-35.9 0-8-2.6-15.3-7-21.3l115.8 83c-.6.1-1.2.2-1.9.3-.6 2.3-1 4.8-1.2 7.1-.9.2-1.7.5-2.6.8-.9.3-1.7.7-2.5 1.1-1.6-1.7-3.4-3.3-5.3-4.7-1.1.6-2.2 1.4-3.2 2.2.5 2.3 1.3 4.7 2.2 6.9-.7.6-1.3 1.3-1.9 2-.6.7-1.2 1.4-1.7 2.1-2.2-.8-4.5-1.3-6.8-1.8-.7 1.1-1.3 2.2-1.8 3.4 1.6 1.8 3.3 3.5 5.1 5.1-.3.8-.6 1.7-.8 2.6-.3.9-.4 1.8-.5 2.7-2.3.4-4.6.9-6.9 1.6-.1 1.3-.1 2.6 0 3.9 2.3.9 4.5 1.6 6.9 2.1.1.9.3 1.8.5 2.7.2.9.4 1.8.8 2.6-1.8 1.4-3.7 3-5.3 4.6.6 1.2 1.1 2.4 1.8 3.4 2.4-.3 4.8-.7 7.1-1.4.6.7 1.1 1.5 1.7 2.1.6.7 1.2 1.4 1.9 2-1 2.1-1.9 4.3-2.6 6.6 1 .8 2.1 1.6 3.2 2.2 2-1.4 3.9-2.8 5.6-4.5.8.4 1.6.8 2.5 1.1.9.3 1.7.6 2.6.8.1 1.4.2 2.9.4 4.3L481 1437.1c5.6-5.6 8-14 5.4-22-3.7-11.4-15.9-17.7-27.3-14-2.9.9-5.4 2.4-7.6 4.3l-11.3-8.1-2.6-8 5.2-6-3.2-2.7-6.7 7.8 2.2 6.9-2.1 3.4-17 17.2-10.6-5.9 2.7-.9-1.5-4.7-7.1 2.3-83.9-46.5c2.7.8 5.6 1.2 8.6 1.2 17 0 30.8-13.8 30.8-30.8s-13.8-30.8-30.8-30.8c-9.7 0-18.4 4.5-24 11.6l-134.6-24-.3-.3c-.1.1-.2.1-.3.2l-14.4-2.6c.4-2.3.7-4.6 1-7-1.6-.8-3.1-1.5-4.8-2.1-2.3 2.3-4.4 4.7-6.4 7.2l-3.7-.7c-.1 0-.2 0-.3-.1-1.3-.3-2.5-.5-3.8-.7-.5-3.2-1.2-6.4-2.1-9.6-1.7-.2-3.5-.2-5.2-.2-1.4 3.1-2.5 6.2-3.4 9.4-1.3.1-2.6.2-3.8.4-1.3.2-2.5.4-3.8.7-1.6-2.8-3.4-5.5-5.4-8.2-1.7.5-3.3 1-4.9 1.7-.2 3.4-.1 6.7.2 10-1.2.6-2.3 1.1-3.4 1.8-1.1.6-2.2 1.3-3.3 2-2.5-2-5.2-3.9-8-5.7-1.4 1.1-2.7 2.2-4 3.3 1.1 3.2 2.4 6.3 3.8 9.3-.9.9-1.7 1.9-2.6 2.9-.8 1-1.6 2-2.3 3.1-3.1-1-6.3-1.8-9.5-2.4-.9 1.5-1.8 3-2.5 4.6 2.2 2.6 4.5 5 6.9 7.3-.5 1.2-.9 2.4-1.3 3.6-.4 1.2-.8 2.5-1.1 3.7-3.3.2-6.5.6-9.8 1.2-.3 1.7-.6 3.4-.7 5.2 2.9 1.6 6 3.1 9.1 4.3 0 1.3 0 2.6.1 3.9.1 1.3.2 2.6.3 3.8-2.9 1.4-5.8 2.9-8.7 4.6.3 1.7.7 3.4 1.2 5.1 3.3.5 6.7.7 10 .7.4 1.2.9 2.4 1.4 3.6.5 1.2 1.1 2.3 1.7 3.5-2.2 2.3-4.4 4.8-6.4 7.4.9 1.5 1.9 2.9 3 4.3 3.3-.8 6.5-1.8 9.6-2.9.8 1 1.7 1.9 2.6 2.8.9.9 1.9 1.8 2.9 2.6-1.3 3-2.3 6.1-3.3 9.3 1.4 1 2.8 2 4.3 2.9 2.8-1.9 5.4-4 7.9-6.2 1.1.6 2.3 1.2 3.5 1.7 1.2.5 2.4 1 3.6 1.4-.1 3.3 0 6.5.3 9.8 1.7.5 3.4.9 5.1 1.2 1.9-2.8 3.6-5.7 5.1-8.6 1.3.1 2.6.3 3.8.3 1.3.1 2.6 0 3.9 0 1.1 3 2.4 6.1 3.8 9.1 1.7-.2 3.4-.4 5.2-.7.8-3.3 1.3-6.6 1.6-9.9l.1.5 8.4-1.6c1.8 2 3.7 3.9 5.6 5.7 1.6-.8 3.1-1.6 4.6-2.5-.2-1.7-.5-3.3-.9-5l143.7-27.7c2.7 3.7 6.2 6.8 10.2 9l-.1.2 88.9 49.3-6.6 2.1 1.5 4.7 1-.3.9 2.9 4.9-1.6 2.3 7.2c-3.5-.7-7.1-.5-10.7.7-11.4 3.7-17.7 15.9-14 27.3 2.4 7.4 8.4 12.7 15.5 14.4l-184.2.4v.3c-9.2.3-17.6 4.1-23.8 10.1l-43.2-13.5-55.8-51.4c.3-1.2.5-2.5.7-3.7l.1-.3-.3-.2c-2.7-1.7-5.4-3.2-8.2-4.5.1-1.3.2-2.6.2-3.9l.1-1.3-.1-1.2c-.1-1.3-.1-2.6-.2-3.9 2.8-1.3 5.5-2.8 8.2-4.5l.3-.2-.1-.3c-.7-4-1.9-8.3-3.8-13l-.1-.3h-.3c-3.2.1-6.3.3-9.3.6-.6-1.2-1.3-2.4-2-3.5-.2-.3-.4-.7-.6-1-.7-1.1-1.4-2.1-2.2-3.1-.3-.4-.6-.7-.8-1.1 1.6-2.5 3-5.2 4.4-8.2l.1-.3-.2-.2c-2.7-3-6-5.9-10.1-8.8l-.3-.2-.3.2c-2.5 1.7-5 3.5-7.5 5.6-1.4-.9-2.8-1.6-4.3-2.2l-.3-.2c-1.2-.6-2.4-1-3.6-1.5-.4-.1-.8-.3-1.3-.5 0-2.9-.3-5.9-.7-9.3v-.3l-.3-.1c-4-1.1-8.4-1.7-13.3-1.9h-.3l-.1.3c-1.2 2.8-2.4 5.7-3.3 8.7h-.2c-1.6.1-3.3.2-4.9.5-2 .3-3.6.6-5.1 1-1.9-2.8-3.8-5.3-5.6-7.5l-.2-.2-.3.1C5 1342 1 1343.8-2.4 1346l-.3.2.1.3c.5 3.4 1.2 6.3 1.9 9.1-.4.3-.7.6-1.1.8-1 .7-2.1 1.5-3 2.4l-.7.6c-1 .9-2.1 1.9-3.1 3-2.9-1.3-5.9-2.4-8.8-3.3l-.3-.1-.2.3c-3.2 4-5.5 7.7-7.3 11.4l-.1.3.2.2c2.2 2.4 4.3 4.6 6.6 6.6-.1.4-.3.8-.4 1.2-.5 1.2-.9 2.5-1.3 3.7-.1.6-.3 1.1-.4 1.7-.3 1.1-.6 2.2-.8 3.4-3 .5-6.1 1.2-9.1 2l-.3.1v.3c-.5 4.5-.5 9 0 13.4v.3l.3.1c3 .8 6.1 1.5 9.1 2 .2 1.1.5 2.3.8 3.4.1.6.3 1.1.4 1.7.3 1.3.8 2.5 1.3 3.7.1.4.3.8.4 1.2-2.2 2-4.4 4.2-6.5 6.6l-.2.2.1.3c1.7 3.6 4.1 7.3 7.3 11.3l.2.3.3-.1c2.9-.9 5.9-2 8.8-3.3 1 1.1 2 2.1 3.1 3l.6.6c.9.9 2 1.6 3 2.4.4.3.8.5 1.1.8-.8 2.8-1.4 5.7-1.9 9.1v.3l.3.2c3.5 2.2 7.5 4 12.3 5.6l.3.1.2-.2c1.9-2.2 3.8-4.7 5.6-7.5 1.5.4 3.1.7 5.1 1 1.7.3 3.3.4 5 .5h.2c.9 3 2 6 3.3 8.7l.1.3h.3c5-.2 9.3-.8 13.3-1.9l.3-.1v-.3c.5-3.4.7-6.4.7-9.3.4-.2.8-.3 1.3-.5 1.2-.4 2.4-.9 3.6-1.5l.3-.2c1.4-.7 2.9-1.4 4.3-2.2 2.5 2.1 5 3.9 7.5 5.6l.3.2.3-.2c2.7-1.9 5.1-3.8 7.1-5.8l72.4 22.7 33.5 30.8c-.5 2.5-.8 5.1-.8 7.7 0 19.8 16.1 35.9 35.9 35.9 2 0 4-.2 5.9-.5l231.9-.5c.7 0 1.4.1 2 .1 19.8 0 35.9-16.1 35.9-35.9 0-19.8-16.1-35.9-35.9-35.9-1.2 0-2.5.1-3.7.2l-42.6.1c.5-.1.9-.2 1.4-.4 11.2-3.6 17.5-15.6 14.1-26.8l11.3-12.3 18.3 10.1c5.4 6.9 14.9 10.1 23.7 7.3 2.3-.7 4.4-1.8 6.2-3.2l126.8-54c.1.6.2 1.1.3 1.7 1.3.2 2.6.5 3.9.5.9-1.7 1.6-3.3 2.3-4.9l4.9-2.1c.4-.1.8-.1 1.1-.2 1.2 2 2.5 4 4 5.9 1.2-.4 2.5-.8 3.6-1.4 0-2.5-.1-4.9-.5-7.2.8-.5 1.6-.9 2.3-1.4.2-.1.3-.2.5-.3l1.9-.8-.2-.5c2 1.2 4 2.3 6.2 3.3.9-.9 1.8-1.9 2.6-2.9-1.1-2.2-2.4-4.2-3.8-6.1.4-.8.9-1.6 1.4-2.4zm-140.2-107.9c0 18-14.6 32.6-32.6 32.6s-32.6-14.6-32.6-32.6 14.6-32.6 32.6-32.6 32.6 14.7 32.6 32.6zm-345.3 27.5l13.1 2.3c-2.4 1.2-4.8 2.4-7 3.8-1-.8-2.1-1.5-3.1-2.3-1.1-.7-2.2-1.4-3.3-2 0-.6.2-1.2.3-1.8zm-8.3 92.3c1-.4 2-.7 3-1.2.1.2.3.3.4.5l-3.4.7zm8.4-17.1c-3.7 3.1-7.9 5.5-12.5 7.1-4.6 1.6-9.4 2.3-14.2 2.1-4.8-.2-9.6-1.3-14-3.2-4.4-1.9-8.5-4.7-11.9-8.1-3.4-3.4-6.2-7.4-8.2-11.8-2-4.4-3.1-9.2-3.4-14-.3-4.8.4-9.6 1.9-14.2s3.9-8.9 6.9-12.6c3.1-3.7 6.8-6.9 11-9.2 4.2-2.4 8.8-4 13.6-4.7 4.8-.7 9.6-.5 14.3.6 4.7 1.1 9.2 3 13.2 5.7s7.5 6.1 10.2 10.1c2.7 4 4.7 8.4 5.9 13.1 1.1 4.7 1.4 9.6.8 14.3-.6 4.8-2.2 9.4-4.5 13.7-2.3 4.2-5.4 8-9.1 11.1zm4.9 14.5c-.3-1.3-.6-2.6-1-3.9 1-.7 2.1-1.5 3-2.4 1-.8 1.9-1.7 2.9-2.6 2.9 1.5 5.8 2.9 8.9 4.1 1.2-1.3 2.3-2.6 3.3-4-1.7-3-3.5-5.7-5.5-8.4.7-1.1 1.4-2.2 2-3.3.6-1.1 1.2-2.3 1.7-3.5 3.2.4 6.5.6 9.8.6.6-1.6 1.2-3.3 1.6-4.9-2.6-2.2-5.3-4.1-8.1-5.9.2-1.3.5-2.5.6-3.8.2-1.3.3-2.6.4-3.8 3.1-.8 6.3-1.8 9.4-3 0-1.7-.1-3.5-.2-5.2-3.2-1.1-6.4-1.9-9.7-2.5-.2-1.3-.5-2.5-.7-3.8-.3-1.2-.6-2.5-1.1-3.7 2.7-1.9 5.2-3.9 7.7-6.1-.6-1.6-1.3-3.2-2.1-4.8-3.4.2-6.7.5-10 1.1-.7-1.1-1.3-2.2-2.1-3.2-.7-1.1-1.5-2.1-2.3-3.1 1.8-2.7 3.4-5.5 4.9-8.5-.7-.8-1.4-1.5-2.2-2.2l132.7 23.7c-3.8 5.1-6.1 11.5-6.1 18.3 0 6.4 1.9 12.3 5.2 17.2l-143 27.6zm140.9-44.8c0-6.7 2.4-12.9 6.4-17.8l18.8 3.3c-6.4 1.2-11.3 6.9-11.3 13.7 0 6.6 4.7 12.2 10.9 13.6l-19.2 3.7c-3.6-4.6-5.6-10.3-5.6-16.5zm27.8-13.4c7 0 12.6 5.7 12.6 12.6 0 7-5.7 12.6-12.6 12.6s-12.6-5.7-12.6-12.6c0-6.9 5.6-12.6 12.6-12.6zm-21.7 30.8l21.9-4.2c7.6-.1 13.8-6.3 13.8-13.9 0-7.1-5.3-13-12.2-13.8v-.1l-22.4-4c5.1-5.7 12.5-9.3 20.7-9.3 15.4 0 27.9 12.5 27.9 27.9 0 15.4-12.5 27.9-27.9 27.9-8.8 0-16.7-4.1-21.8-10.5zM61.6 1445c-2.5-1.7-5-3.5-7.4-5.6l-.3-.2-.3.2c-1.4.9-3 1.7-4.5 2.4l-.4.2c-1.1.6-2.3 1-3.5 1.4-.5.2-1.1.4-1.6.6l-.3.1v.3c0 2.9-.2 5.8-.7 9.2-3.8 1-7.9 1.6-12.5 1.8-1.2-2.7-2.3-5.7-3.2-8.7l-.1-.3h-.9c-1.6-.1-3.2-.2-4.9-.5-2.1-.3-3.8-.6-5.3-1.1l-.3-.1-.2.3c-1.8 2.8-3.7 5.3-5.5 7.4-4.5-1.5-8.2-3.3-11.5-5.3.5-3.3 1.2-6.2 2-9l.1-.3-.3-.2c-.5-.4-.9-.7-1.4-1-1-.7-2-1.5-2.9-2.3l-.6-.6c-1.1-1-2.3-2-3.2-3.2l-.2-.3-.3.1c-2.9 1.3-5.8 2.4-8.7 3.3-2.9-3.7-5.2-7.2-6.8-10.6 2.2-2.4 4.3-4.5 6.5-6.5l.2-.2-.1-.3-.6-1.5c-.4-1.2-.9-2.4-1.2-3.6-.1-.6-.3-1.1-.4-1.7-.3-1.2-.6-2.4-.8-3.6v-.4l-.4-.1c-3-.5-6-1.1-9.1-2-.4-4.2-.4-8.4 0-12.6 3-.8 6.1-1.5 9.1-2l.4-.1v-.4c.1-1.2.5-2.4.8-3.6.2-.6.3-1.1.4-1.7.3-1.2.8-2.5 1.2-3.6l.6-1.5.1-.3-.2-.2c-2.2-2-4.3-4.1-6.5-6.5 1.7-3.4 3.9-6.9 6.8-10.6 2.9.9 5.8 2 8.7 3.3l.3.1.2-.3c1-1.1 2.1-2.2 3.2-3.2l.7-.6c.9-.8 1.9-1.6 2.9-2.3.5-.3.9-.7 1.4-1l.3-.2-.1-.3c-.8-2.8-1.4-5.7-2-9 3.3-2 7-3.7 11.5-5.3 1.8 2.2 3.7 4.7 5.5 7.4l.2.3.3-.1c1.5-.4 3.2-.8 5.3-1.1 1.6-.3 3.2-.4 4.8-.4h.9l.1-.3c.9-3 2-5.9 3.2-8.7 4.6.2 8.7.8 12.5 1.8.4 3.4.7 6.3.7 9.2v.3l.3.1c.5.2 1.1.4 1.6.6 1.2.4 2.4.8 3.5 1.4l.4.2c1.5.7 3 1.4 4.4 2.4l.3.2.3-.2c2.4-2 4.9-3.9 7.4-5.6 3.9 2.8 7 5.5 9.5 8.3-1.4 3-2.9 5.6-4.4 8.1l-.2.3.2.3c.3.5.7.9 1 1.4.7 1 1.5 2 2.2 3.1.2.3.4.7.6 1 .7 1.2 1.5 2.4 2 3.7l.1.3h.4c3-.4 6.1-.6 9.3-.7 1.7 4.4 2.9 8.4 3.5 12.1-2.6 1.6-5.4 3.1-8.1 4.4l-.3.1v.3l.3 4.2.1 1.2-.1 1.2c-.1 1.4-.1 2.8-.3 4.2v.3l.3.1c2.7 1.3 5.4 2.8 8.1 4.4-.2.9-.3 1.8-.6 2.8l-34.7-32c-2.8-3.3-6.3-6-10.2-7.7-5.1-2.3-11-3.2-16.3-2.3-5.4.7-10.7 3.1-15 6.8-4.2 3.6-7.3 8.5-8.9 13.9-1.6 5.3-1.6 11.2 0 16.5 1.6 5.3 4.8 10.3 8.9 13.9 3.9 3.4 8.8 5.7 13.8 6.6v.1l45.1 14.1c-1.7 1.9-3.8 3.6-6.2 5.3zm-11.8-66.5c.8 1 1.6 2 2.3 3.1 2.9 4.4 4.4 9.7 4.5 15.3-.1 5.6-1.6 10.9-4.5 15.3-2.9 4.5-7.2 8.3-12.1 10.4-5 2.3-10.6 3.1-15.8 2.2-5.2-.7-10.4-3-14.5-6.6-4-3.5-7.1-8.2-8.6-13.4-1.5-5.1-1.5-10.8 0-16 1.5-5.2 4.6-9.9 8.6-13.4 4.1-3.6 9.3-5.9 14.5-6.6 1.3-.2 2.7-.3 4.1-.3 4 0 8 .9 11.7 2.6 2.9 1.3 5.5 3.1 7.8 5.3l-.1.2 2.1 1.9zm18.9 60.7l-41.6-13h1.2c4.1 0 8.3-.9 12.1-2.7 5-2.3 9.4-6.1 12.5-10.8 3-4.6 4.6-10 4.7-15.8-.1-5.5-1.6-10.7-4.3-15.1L85 1411c-.7 2.7-1.5 5.4-2.7 8.4-3.1-.1-6.2-.3-9.3-.7h-.4l-.1.3c-.6 1.3-1.3 2.5-2 3.7-.2.3-.4.7-.6 1-.6 1.1-1.4 2.1-2.1 3-.3.5-.7.9-1 1.4l-.2.3.2.3c1.6 2.5 3 5.1 4.4 8.1-.8.8-1.6 1.6-2.5 2.4zm1.1.3c.8-.8 1.6-1.6 2.3-2.4l.2-.2-.1-.3c-1.4-3-2.9-5.7-4.4-8.2.3-.4.6-.7.8-1.1.8-1 1.5-2 2.2-3.1.2-.3.4-.7.6-1 .7-1.1 1.4-2.3 1.9-3.5 3.1.4 6.2.6 9.3.6h.3l.1-.3c1.2-2.9 2.1-5.7 2.8-8.3l54 49.7-70-21.9zm334.3-28.7l11.1 6.2-7.4 7.4-.6-.3-4.2-13 1.1-.3zm10.1 24.4l-.6.8-10.6 3.4 7.1-9.3c1.7 1.5 3.1 3.2 4.1 5.1zM188 1477.5l14.2 4.4c0 1.1 0 2.2.1 3.3l-1.2.6c-.4.2-.8.5-1.2.7-.9-.7-1.9-1.4-2.9-2.1l-1.5 1.2c.4 1.2.9 2.3 1.4 3.4-.3.3-.6.7-.9 1-.3.4-.6.7-.8 1.1-1.1-.4-2.3-.6-3.4-.9-.3.5-.6 1.1-.9 1.6.8.9 1.6 1.8 2.5 2.6-.2.4-.3.9-.5 1.3-.1.4-.3.9-.4 1.3-1.2.1-2.4.2-3.5.4-.1.6-.2 1.2-.3 1.9 1.1.6 2.2 1.1 3.3 1.6v1.4c0 .5.1.9.1 1.4-1 .5-2 1-2.9 1.5l-11-10.1c1.2-6.8 4.7-13 9.8-17.6zm19.8 10.1c1.7-.3 3.5-.2 5.2.2 1.7.4 3.3 1.1 4.8 2.1 1.4 1 2.7 2.2 3.7 3.7 1 1.4 1.7 3 2.1 4.7.4 1.7.5 3.5.3 5.2-.2 1.7-.8 3.4-1.6 4.9-.8 1.5-2 2.9-3.3 4-1.3 1.1-2.9 2-4.5 2.6-1.7.6-3.4.8-5.1.8-1.7-.1-3.5-.5-5.1-1.2s-3.1-1.7-4.3-2.9c-1.2-1.2-2.2-2.7-3-4.3-.7-1.6-1.1-3.3-1.2-5.1-.1-1.7.1-3.5.7-5.1.5-1.7 1.4-3.2 2.5-4.6 1.1-1.4 2.5-2.5 4-3.3 1.4-.9 3.1-1.5 4.8-1.7zm-2.6-4.7l2.5.8c-.2 0-.3 0-.5.1-.5.1-.9.2-1.4.3-.2-.5-.4-.9-.6-1.2zm-11.4 26.9l-2.4-2.2c.5 0 1 .1 1.5.1.2.4.3.9.5 1.3.1.3.2.5.4.8zm-50.3-46.3l40.8 12.8c-4.4 4.5-7.6 10.1-9.2 16.4l-31.6-29.2zM210 1534c-18 0-32.6-14.6-32.6-32.6 0-1.7.1-3.4.4-5l11.2 10.3c.1.2.1.4.2.7.2 0 .4 0 .6.1l3.6 3.3-1.8 2.1c.3.5.7 1.1 1.1 1.6 1.2-.3 2.3-.6 3.5-1.1.3.4.6.7 1 1 .3.3.7.6 1 .9-.5 1.1-.8 2.2-1.2 3.4.5.4 1 .7 1.6 1.1.9-.6 1.7-1.3 2.5-2l.4.3.3-.5c.3.2.6.3 1 .5s.9.4 1.3.5c0 1.2 0 2.4.1 3.6.6.2 1.2.3 1.8.4.7-1 1.3-2.1 1.8-3.1.5 0 .9.1 1.4.1h1.4c.4 1.1.9 2.2 1.4 3.3.6-.1 1.2-.2 1.9-.3.3-1.2.5-2.4.6-3.6.5-.1.9-.2 1.3-.4s.9-.3 1.3-.5c.8.9 1.6 1.8 2.5 2.6.6-.3 1.1-.6 1.6-.9-.2-1.2-.4-2.4-.7-3.5.4-.3.7-.6 1.1-.9.4-.3.7-.6 1-.9 1 .5 2.1 1 3.2 1.5l1.2-1.5c-.6-1.1-1.2-2.1-2-3 .3-.4.5-.8.7-1.2l.6-1.2c1.2.1 2.3.2 3.5.2l.6-1.8c-.9-.8-1.9-1.5-2.9-2.1.1-.5.2-.9.2-1.4.1-.5.1-.9.1-1.4 1.1-.3 2.3-.6 3.4-1.1 0-.6 0-1.3-.1-1.9-1.2-.4-2.3-.7-3.5-.9-.1-.5-.2-.9-.3-1.4-.1-.4-.2-.9-.4-1.3 1-.7 1.9-1.4 2.8-2.2-.2-.6-.5-1.2-.8-1.7-1.2.1-2.4.2-3.6.4-.2-.4-.5-.8-.8-1.2-.3-.4-.5-.8-.8-1.1.6-1 1.2-2 1.8-3.1-.4-.5-.9-.9-1.3-1.3-1.1.5-2.2 1.1-3.2 1.7-.4-.3-.7-.6-1.1-.8-.4-.3-.8-.5-1.2-.7.3-1.2.4-2.3.6-3.5-.6-.3-1.1-.5-1.7-.8-.9.9-1.7 1.8-2.4 2.7-.4-.1-.9-.3-1.3-.4-.5-.1-.9-.2-1.4-.3-.2-1.2-.4-2.3-.7-3.5-.6-.1-1.3-.1-1.9-.1-.4.9-.8 1.9-1.1 2.9l-4.4-1.4c-.2-.2-.3-.4-.5-.7-.3.1-.5.2-.8.3l-14.3-4.5c5.7-4.9 13.1-7.9 21.3-7.9 18 0 32.6 14.6 32.6 32.6-.1 18-14.7 32.6-32.7 32.6zm239.8-66.1c18 0 32.6 14.6 32.6 32.6s-14.6 32.6-32.6 32.6-32.6-14.6-32.6-32.6 14.7-32.6 32.6-32.6zm-9-2.2c-15.5 4-26.9 18.1-26.9 34.8 0 16.9 11.8 31.1 27.5 34.9l-221.3.5c14.9-4.4 25.8-18.2 25.8-34.5 0-17.4-12.4-31.9-28.8-35.2l223.7-.5zm-37-4.6c-9.5 3.1-19.8-2.2-22.9-11.7-3.1-9.5 2.2-19.8 11.7-22.9 4.5-1.4 9.1-1 13 .8l-8.7 11.4c-.1 0-.3 0-.4.1-2.8.9-4.3 3.9-3.4 6.6.9 2.8 3.9 4.3 6.6 3.4 1.9-.6 3.1-2.1 3.5-3.9l12.7-4.1c1.7 8.7-3.4 17.5-12.1 20.3zm12.7-29c-1.2-1.8-2.6-3.4-4.2-4.8l7.7-7.8 5.4 3-8.9 9.6zm9.5-10.3l-5.4-3 16.6-16.8 4.3 3.1-15.5 16.7zm5 2.8l14.9-16.3 2 1.4c-3.7 5.4-5 12.4-2.9 19 .6 1.8 1.4 3.4 2.3 4.9l-16.3-9zm40.2 14.7c-9.5 3.1-19.8-2.2-22.9-11.7-1.8-5.6-.7-11.4 2.4-15.9l10.4 7.5c-.8 1.3-1.1 2.9-.6 4.5.9 2.8 3.9 4.3 6.6 3.4 2.8-.9 4.3-3.9 3.4-6.6-.5-1.7-1.8-2.9-3.4-3.4l-12.9-9.2c1.7-1.3 3.5-2.4 5.7-3.1 9.5-3.1 19.8 2.2 22.9 11.7 3.2 9.5-2 19.7-11.6 22.8zm146.6-111.8c0 .1 0 .1 0 0-.9-.2-1.8-.3-2.7-.4-.9-.1-1.8-.1-2.7-.2-.4-1.5-.9-2.9-1.5-4.3l6.9 4.9zm-5.6 54c.1-.1.1-.3.2-.4h1l-1.2.4zM629 1363c-1.4 2.8-3.6 5.1-6.1 6.9-2.6 1.8-5.6 2.9-8.6 3.3-3.1.4-6.3 0-9.2-1.1-2.9-1.1-5.5-2.9-7.6-5.3-2.1-2.3-3.6-5.2-4.3-8.2-.8-3-.8-6.3 0-9.3.7-3 2.2-5.9 4.3-8.2 2.1-2.3 4.7-4.2 7.6-5.3 2.9-1.1 6.1-1.5 9.2-1.1 3.1.4 6.1 1.5 8.6 3.3 2.5 1.8 4.7 4.2 6.1 6.9 1.4 2.8 2.2 5.8 2.2 9s-.8 6.3-2.2 9.1zm-498.4-109.5h1.9v3.5h2.2v-3.5h1.9v9h-1.9v-3.6h-2.2v3.6h-1.9v-9zm7.6 0h4.6l.9 9h-1.9l-.2-2.1h-2.1l-.2 2.1h-1.9l.8-9zm1.4 4.9h1.8l-.3-3h-1.2l-.3 3zm4.7-4.9h1.9l1.8 3.3 1.8-3.3h1.9v9h-1.9v-5.9l-1.8 3.3-1.8-3.3v5.9h-1.9v-9zm8.6 9v-9h1.9v7.1h2.1v-.7h1.9v2.6h-5.9z"/><path d="M236.6 1438.1v-29.5h19.8v6.3h-13.5v4.9h13.5v18.2l-19.8.1zm6.3-6.4h7.2v-5.6h-7.2v5.6zm37.5-23.1v29.5h-19.8v-6.3H274v-5.3h-6.7v-6.3h6.7v-5.3h-13.5v-6.3h19.9zm4.8 0h6.3l6 10.8 6-10.8h6.3v29.5h-6.3V1419l-6 10.6-6-10.6v19.1h-6.3v-29.5zm95.7 74.9v-9h1.9v7.1h2.1v-.7h1.9v2.6h-5.9zm6.7-9.1h5.9v1.9h-4v1.6h2v1.9h-2v1.6h4v1.9h-5.9v-8.9zm6.7 0h5.8v1.9h-3.9v1.6h3.9v5.5h-5.8v-1.9h3.9v-1.7h-3.9v-5.4zm6.7 0h5.8v1.9H403v1.6h3.9v5.5H401v-1.9h3.9v-1.7H401v-5.4zm50.5-24.3h5.8v1.9h-3.9v1.6h3.9v5.5h-5.8v-1.9h3.9v-1.7h-3.9v-5.4zm7.1 0h4.6l.9 9h-1.9l-.2-2.1h-2.1l-.2 2.1h-1.9l.8-9zm1.4 5h1.8l-.3-3h-1.2l-.3 3zm4.6-5h5.8v1.9h-3.9v1.6h3.9v5.5h-5.8v-1.9h3.9v-1.7h-3.9v-5.4zm6.8 0h5.8v1.9h-3.9v1.6h3.9v5.5h-5.8v-1.9h3.9v-1.7h-3.9v-5.4zM214 1327.2h5.1v2.3h-1.6v-.7h-1.8v4.3h1.8v-.7h1.6v2.3H214v-7.5zm5.9 0h5.1v7.5h-5.1v-7.5zm1.6 1.6v4.3h1.8v-4.3h-1.8zm4.3-1.6h4.7v1.6h-3.1v1.6h2.3v1.6h-2.3v2.7h-1.6v-7.5zm5.3 0h4.7v1.6h-3.1v1.6h2.3v1.6h-2.3v2.7h-1.6v-7.5zm5.2 0h5v1.6H238v1.3h1.7v1.6H238v1.3h3.3v1.6h-5v-7.4zm5.7 0h5v1.6h-3.3v1.3h1.7v1.6h-1.7v1.3h3.3v1.6h-5v-7.4zm5.6 0h4.8v1.6h-3.2v1.3h3.2v4.6h-4.8v-1.6h3.2v-1.4h-3.2v-4.5zm5.6 0h5.1v2.3h-1.6v-.7h-1.8v4.3h1.8v-.7h1.6v2.3h-5.1v-7.5zm5.8 0h5.1v5h-1l1.4 2.5h-1.8l-1.2-2.5h-.8v2.5H259v-7.5zm1.7 1.6v1.8h1.8v-1.8h-1.8zm4.2-1.6h2.9v1.6h-.6v4.3h.6v1.6h-2.9v-1.6h.6v-4.3h-.6v-1.6zm3.7 0h5.1v5.3h-3.4v2.3h-1.6l-.1-7.6zm1.6 1.6v2h1.8v-2h-1.8zm3.9-1.6h5.1v1.6h-1.7v5.9h-1.6v-5.9h-1.7l-.1-1.6z" fill="#42403D"/><g fill="#42403D"><path d="M342.1 1513.1h9.5v3.1h-6.3v2.6h6.3v9h-9.5v-3.2h6.3v-2.7h-6.3v-8.8zm9.5 0h9.9v3.1h-3.4v11.6H355v-11.6h-3.4v-3.1z"/><path d="M365.5 1521.7l-2.9-5.5-1.7-3.2h3.5l2.6 5.5 2.6-5.5h3.5l-4.5 8.6v6.1h-3.1v-6zm7.9 6.1v-14.7h3.1v11.6h3.5v-1.2h3.1v4.3h-9.7zm10.4 0v-14.7h3.1v11.6h3.6v-11.6h3.1v14.7h-9.8zm11.5-14.7h9.5v3.1h-6.3v2.6h6.3v9h-9.5v-3.2h6.3v-2.7h-6.3v-8.8z"/></g><path d="M19.1 1324.4h-6v-2.6H15v.7h2.1v-7.1H19v9zm1.4-9h4.6l.9 9h-1.9l-.2-2.1h-2.1l-.2 2.1h-1.9l.8-9zm1.4 4.9h1.8l-.3-3h-1.2l-.3 3zm4.6-4.9h6.7v9h-6.7v-1.9h.9v-5.2h-.9v-1.9zm2.8 1.9v5.2h1.9v-5.2h-1.9zm4.9-1.9h5.9v1.9h-4v1.6h2v1.9h-2v1.6h4v1.9h-5.9v-8.9zm28.4 162.8h7l1.3 13.6H68l-.3-3.2h-3.2l-.3 3.2h-2.9l1.3-13.6zm2.1 7.5h2.7l-.4-4.6h-1.8l-.5 4.6zm9.9-7.5l3.8 8.1v-8.1h2.9v13.6h-2.9l-3.8-8.1v8.1h-2.9v-13.6h2.9zm8.3 0H92v2.9h-6.2v7.8h3.3v-2h-1.3v-2.5H92v7.4h-9.1v-13.6zm10.6 13.6v-13.6h2.9v10.7h3.3v-10.7h2.9v13.6h-9.1zm10.7 0v-13.6h2.9v10.7h3.2v-1.1h2.9v4h-9zm10.6-13.6h7l1.3 13.6h-2.9l-.3-3.2h-3.2l-.3 3.2h-2.9l1.3-13.6zm2.1 7.5h2.7l-.4-4.6h-1.8l-.5 4.6zm7-7.5h9.1v9h-1.8l2.5 4.6h-3.3l-2.2-4.5h-1.4v4.5h-2.9v-13.6zm3 2.9v3.3h3.3v-3.3h-3.3zm199.3-208.5l6.6-3.8 3.8 6.5-1.3.8 3.7 2.3-2.4 1.4-3.5-2.3-1 .6 1.9 3.2-2.1 1.2-5.7-9.9zm3.3.9l1.4 2.4 2.4-1.4-1.4-2.4-2.4 1.4zm4.5-5.4l6.5-3.7 1.2 2.1-4.4 2.5 1 1.8 2.2-1.3 1.2 2.1-2.2 1.3 1 1.8 4.4-2.5 1.2 2.1-6.5 3.7-5.6-9.9zm7.3-4.3l6.3-3.7 1.2 2.1-4.2 2.4 1 1.7 4.2-2.4 3.5 6-6.3 3.7-1.2-2.1 4.2-2.4-1-1.8-4.2 2.4-3.5-5.9zm7.3-4.3l6.6-3.8 4 6.9-4.5 2.6 1.7 2.9-2.1 1.2-5.7-9.8zm3.4.9l1.5 2.7 2.4-1.4-1.5-2.7-2.4 1.4zm4.3-5.3l6.6-3.8 5.7 9.8-6.6 3.8-5.7-9.8zm3.3.9l3.3 5.6 2.4-1.4-3.3-5.6-2.4 1.4zm6.5-6.6l6.2 4.3-3.4-5.9 2.1-1.2 5.7 9.8-2.1 1.2-6.2-4.3 3.4 5.9-2.1 1.2-4.5-7.7-1.2-2.1 2.1-1.2zm5.9-3.4l6.3-3.7 1.2 2.1-4.2 2.4 1 1.7 4.2-2.4 3.5 6-6.3 3.7-1.2-2.1 4.2-2.4-1-1.8-4.2 2.4-3.5-5.9zm7.3-4.2l3.8-2.2 1.2 2.1-.8.5 3.3 5.6.8-.5 1.2 2.1-3.8 2.2-1.2-2.1.8-.5-3.3-5.6-.8.5-1.2-2.1zm11.3 6.5l-5.5-7.1-1.5-2 2.1-1.2 5.5 7.2.6-.4-3.5-8.3 2.1-1.2 4.4 10.6-4.2 2.4zm.4-13.3l6.5-3.7 1.2 2.1-4.4 2.5 1 1.8 2.2-1.3 1.2 2.1-2.2 1.3 1 1.8 4.4-2.5 1.2 2.1-6.5 3.7-5.6-9.9zm-249.5 192.2l6.6 4.7-1.5 2.1-4.5-3.3-4 5.6 2.4 1.7 1-1.5-.9-.6 1.3-1.8 3 2.2-3.9 5.3-6.6-4.7 7.1-9.7zm.6 15.3l5.5-7.7 1.5-2.1 2.1 1.5-5.5 7.7 2.4 1.7 5.5-7.7 2.1 1.5-7.1 9.6-6.5-4.5zm7.6 5.5l5.5-7.7 1.5-2.1 2.1 1.5-5.5 7.7 2.3 1.7.6-.8 2.1 1.5-2.1 2.9-6.5-4.7zm14.3-4.5l6.6 4.7-5 6.8-4.5-3.3-2.1 2.9-2.1-1.5 7.1-9.6zm.6 3.6l-1.9 2.6 2.4 1.7 1.9-2.6-2.4-1.7zm251.8-119.7c-2.5 2.5-3.8 6-3.8 9.6 0 3.9 1.4 7.3 4.2 9.8 2.7 2.5 6.2 3.8 9.8 3.8 2.1 0 3.7-.6 6-1.3v-8.1c-1.4 1.7-3.7 2.8-5.9 2.8-4.3 0-7.2-3-7.2-7.2s2.9-7.3 7.1-7.3c.9 0 1.9.2 2.8.6 1-2 2.1-3.9 3.2-5.8-2.1-.8-4-1.4-6.2-1.4-3.7.2-7.4 1.7-10 4.5zm35.9 3.1c-1.3-1-2.9-1.7-4.5-1.7-1.3 0-2.9.7-2.9 2.2 0 1.5 1.9 2.1 3 2.5l1.7.6c3.7 1 6.5 2.9 6.5 7.2 0 2.5-.6 5.2-2.7 7.1-2.1 1.7-4.9 2.5-7.5 2.5-3.2 0-6.5-1-9.3-3l2.9-5.6c1.7 1.5 3.7 2.7 6 2.7 1.6 0 3.2-.8 3.2-2.7 0-1.9-2.7-2.5-4-3-4.3-1.3-7.2-2.3-7.2-7.4 0-5.3 3.8-8.8 9-8.8 2.7 0 5.9.8 8.2 2.1l-2.4 5.3zm23.1 0c-1.3-1-2.9-1.7-4.5-1.7-1.3 0-2.9.7-2.9 2.2 0 1.5 1.9 2.1 3 2.5l1.7.6c3.7 1 6.5 2.9 6.5 7.2 0 2.5-.6 5.2-2.7 7.1-2.1 1.7-4.9 2.5-7.5 2.5-3.2 0-6.5-1-9.3-3l2.9-5.6c1.7 1.5 3.7 2.7 6 2.7 1.6 0 3.2-.8 3.2-2.7 0-1.9-2.7-2.5-4-3-4.3-1.3-7.2-2.3-7.2-7.4 0-5.3 3.8-8.8 9-8.8 2.7 0 5.9.8 8.2 2.1l-2.4 5.3zm23.1 0c-1.3-1-2.9-1.7-4.5-1.7-1.3 0-2.9.7-2.9 2.2 0 1.5 1.9 2.1 3 2.5l1.7.6c3.7 1 6.5 2.9 6.5 7.2 0 2.5-.6 5.2-2.7 7.1-2.1 1.7-4.9 2.5-7.5 2.5-3.2 0-6.5-1-9.3-3l2.9-5.6c1.7 1.5 3.7 2.7 6 2.7 1.6 0 3.2-.8 3.2-2.7 0-1.9-2.7-2.5-4.2-3-4.3-1.3-7.2-2.3-7.2-7.4 0-5.3 3.8-8.8 9-8.8 2.7 0 5.9.8 8.2 2.1l-2.2 5.3zm29.7 19.5h-7.5l-6.4-10.1h-.1v10.1h-6.8v-26.3h10.2c5.2 0 9 2.5 9 8.1 0 3.7-2.1 6.7-5.7 7.4l7.3 10.8zm-14.1-14.6h.6c2.2 0 4.7-.5 4.7-3.2 0-2.9-2.5-3.2-4.7-3.2h-.6v6.4zm10.6 100.5l10.8-4.7 4.7 10.7-2.1.9 5.2 4-3.9 1.7-5-4.3-1.6.7 2.3 5.4-3.5 1.6-6.9-16zm5 2l1.7 3.9 3.9-1.7-1.7-3.9-3.9 1.7zm7.9-7.7l10.6-4.6 1.6 3.5-7.1 3.2 1.3 2.9 3.6-1.6 1.6 3.5-3.6 1.6 1.3 2.9 7.1-3.2 1.6 3.5-10.6 4.6-7.4-16.3zm13-5.7l8.2-3.7 8.7 15.5-3.5 1.6-1.9-3.6-3.7 1.7 1.3 3.9-3.5 1.6-5.6-17zm6.2 7.9l3.2-1.4-3-5.1-2.1.9 1.9 5.6zm4.6-12.6l10.8-4.7 2.2 5.1-3.5 1.6-.7-1.6-3.9 1.7 4.1 9.2 3.9-1.7-.7-1.6 3.5-1.6 2.2 5.1-10.8 4.7-7.1-16.2zm11.6-5.2l10.8-4.7 1.6 3.5-3.7 1.7 5.6 12.7-3.5 1.6-5.6-12.7-3.7 1.7-1.6-3.5.1-.3zm-308.6 68.7h5.4v1.7h-3.7v4.6h1.9v-1.2h-.8v-1.5h2.5v4.4h-5.4l.1-8zm6.7 0h5.4v5.3h-1.1l1.5 2.7H275l-1.3-2.6h-.9v2.6h-1.7v-8zm1.7 1.7v1.9h1.9v-1.9h-1.9zm5 6.3v-8h1.7v6.3h1.9v-6.3h1.7v8h-5.3zm8.3-8l2.3 4.8v-4.8h1.7v8h-1.7l-2.3-4.8v4.8h-1.7v-8h1.7zm4.9 0h5.4v1.7h-1.8v6.3h-1.8v-6.3H291v-1.7z" fill="#42403D"/></svg>