<svg width="210" height="136" viewBox="0 0 210 136" xmlns="http://www.w3.org/2000/svg"><title>cloud</title><g fill="none" fill-rule="evenodd"><path d="M54.194 43.048c-3.85 4.645-6.538 10.036-7.262 15.883a28.918 28.918 0 0 0-2.545-.12C29.264 58.81 17 71.04 16.935 86.15c-12.952 2.61-19.3 13.82-15.78 24.65 3.538 10.888 15.857 18.656 28.084 18.656 3.504 0 6.833-.64 9.804-1.81 4.36 2.96 9.553 4.774 15.147 5.065V43.05z" opacity=".3" fill="currentColor"/><path d="M155.1 86.214c-.064-15.107-12.37-27.336-27.546-27.336-.86 0-1.713.045-2.554.122-2.217-17.84-22.702-31.492-39.1-32.36-10.988.584-23.807 6.95-31.706 16.478v89.658c.52.027 1.04.06 1.566.06 4.36 0 8.495-.943 12.227-2.625a31.063 31.063 0 0 0 17.41 5.3c.17 0 .335-.01.502-.01.164.003.33.013.5.013 6.47 0 12.48-1.952 17.47-5.3a29.84 29.84 0 0 0 12.27 2.627c6.214 0 11.986-1.89 16.77-5.125 2.98 1.17 6.322 1.81 9.842 1.81 12.27 0 24.63-7.77 28.18-18.655 3.53-10.832-2.837-22.044-15.834-24.653z" opacity=".3" fill="#B89F74"/><path d="M192.434 59.88c-.065-15.108-12.372-27.336-27.547-27.336-.86 0-1.713.045-2.554.122-2.217-17.84-22.702-31.492-39.1-32.36v108.856c.167.003.333.013.502.013a31.273 31.273 0 0 0 17.47-5.3 29.855 29.855 0 0 0 12.27 2.626c6.215 0 11.987-1.89 16.77-5.12 2.982 1.17 6.323 1.81 9.844 1.81 12.265 0 24.63-7.77 28.18-18.656 3.53-10.83-2.84-22.04-15.84-24.65v-.002z" fill="#FDFCF9"/><path d="M165.28 59.88c-.04-15.108-7.517-27.336-16.736-27.336-.524 0-1.04.045-1.552.122-1.348-17.84-13.794-31.492-23.76-32.36v108.856c.103.003.205.013.307.013 3.93 0 7.58-1.954 10.61-5.3 2.276 1.683 4.798 2.626 7.456 2.626 3.776 0 7.283-1.89 10.19-5.12 1.812 1.17 3.842 1.81 5.98 1.81 7.455 0 14.966-7.77 17.123-18.656 2.145-10.83-1.725-22.04-9.62-24.65v-.002z" fill="#FAF9F6"/><path d="M54.268 59.88c.065-15.108 12.33-27.336 27.452-27.336.858 0 1.707.045 2.545.122 2.21-17.84 22.624-31.492 38.967-32.36v108.856c-.167.003-.333.013-.5.013a31.094 31.094 0 0 1-17.412-5.3 29.654 29.654 0 0 1-12.227 2.626 29.68 29.68 0 0 1-16.713-5.12c-2.97 1.17-6.3 1.81-9.81 1.81-12.226 0-24.545-7.77-28.083-18.656-3.518-10.83 2.83-22.04 15.78-24.65v-.002z" fill="#F1EDE1"/><path d="M81.328 59.88c.04-15.108 7.492-27.336 16.68-27.336.522 0 1.037.045 1.546.122 1.343-17.84 13.747-31.492 23.678-32.36v108.856c-.102.003-.203.013-.305.013-3.916 0-7.556-1.954-10.58-5.3-2.266 1.683-4.78 2.626-7.428 2.626-3.768 0-7.26-1.89-10.16-5.12-1.805 1.17-3.83 1.81-5.96 1.81-7.43 0-14.915-7.77-17.064-18.656-2.14-10.83 1.718-22.04 9.588-24.65l.002-.002z" fill="#F7F5EE"/></g></svg>