<svg xmlns="http://www.w3.org/2000/svg" viewBox="0 0 25.9 16.8"><g fill-rule="evenodd" clip-rule="evenodd"><path d="M4.2 2.1v3.5c.5-.6 1.2-.9 1.9-.9.4 0 .7.1 1 .2.3.1.5.3.7.5.2.2.3.4.3.7.1.3.1.7.1 1.3V11H6.6V7.7c0-.7 0-1.1-.1-1.3-.1-.1-.2-.3-.3-.4-.2-.1-.4-.1-.6-.1-.3 0-.5.1-.7.2-.3.1-.4.3-.5.6-.1.2-.2.6-.2 1.2v3.2H2.6v-9h1.6zm6.5 0v3.5c.5-.6 1.2-.9 1.9-.9.4 0 .7.1 1 .2.3.1.5.3.7.5.2.2.3.5.3.7.1.3.1.7.1 1.3V11H13V6.4c-.1-.2-.2-.3-.3-.4-.2-.1-.4-.2-.6-.2-.3 0-.5.1-.7.2-.2.1-.4.3-.5.6-.1.3-.1.7-.1 1.2V11H9.1V2h1.6zM2.6 13.8V12h.2v.8h.9V12h.2v1.8h-.2V13h-.9v.8m2.2-.4h.2c0 .1-.1.2-.2.3-.1.1-.2.1-.3.1-.2 0-.3-.1-.4-.2-.1-.1-.2-.3-.2-.5s.1-.4.2-.5c.1-.1.2-.2.4-.2s.3.1.4.2c.1.1.2.3.2.5v.1h-.9c0 .1 0 .3.1.3.1.1.1.1.2.1s.1 0 .2-.1c.1.1.1 0 .1-.1m-.6-.4H5c0-.1 0-.2-.1-.2-.1-.1-.1-.1-.3-.1-.1 0-.2 0-.2.1v.2zm1.9.7c-.1.1-.1.1-.2.1h-.2c-.1 0-.2 0-.3-.1-.1-.1-.1-.2-.1-.3v-.2c0-.1.1-.1.1-.1l.1-.1h.5v-.1c0-.1 0-.2-.1-.2-.1-.1-.1-.1-.2-.1s-.2 0-.2.1c0 0-.1.1-.1.2h-.2c0-.1 0-.2.1-.2 0-.1.1-.1.2-.1h.5c.1 0 .1.1.1.1s.1.1.1.2v.9c0 .1 0 .1.1.2h-.2v-.3m-.1-.5c-.1 0-.2.1-.3.1h-.2s-.1 0-.1.1v.1c0 .1 0 .1.1.1 0 0 .1.1.2.1s.1 0 .2-.1c.1 0 .1-.1.1-.2v-.2zm1.3.6v-.2c-.1.1-.2.2-.3.2-.1 0-.2 0-.3-.1l-.2-.2c0-.1-.1-.2-.1-.4 0-.1 0-.2.1-.4 0-.1.1-.2.2-.2.1-.1.2-.1.3-.1h.2c.1 0 .1.1.1.1V12h.2v1.8h-.2m-.6-.6c0 .2 0 .3.1.4.1.1.1.1.2.1s.2 0 .2-.1c.1-.1.1-.2.1-.4s0-.3-.1-.4c-.1-.1-.1-.1-.2-.1s-.2 0-.2.1c-.1.1-.1.2-.1.4zm1.2.6V12h.2v.8h.8V12h.2v1.8h-.2V13h-.8v.8m2.1 0v-.2c-.1.1-.2.2-.4.2h-.2c-.1 0-.1-.1-.1-.1s0-.1-.1-.2v-1h.2v.9c0 .1 0 .1.1.1h.2c.1 0 .1 0 .2-.1.1 0 .1-.1.1-.1v-1h.2v1.3h-.2zm.5 0v-1.3h.2v.2c.1-.1.2-.2.4-.2h.2c.1 0 .1.1.1.1s.1.1.1.2v1h-.2v-1s0-.1-.1-.1h-.1c-.1 0-.2 0-.2.1-.1.1-.1.2-.1.3v.7h-.3zm1.7-.2v.2h-.4l-.1-.1v-1.1H12v-.2h.1v-.3l.2-.1v.5h.2v.2h-.2v.9h.3zm1-.2h.2c0 .1-.1.2-.2.3-.1.1-.2.1-.3.1-.2 0-.3-.1-.4-.2-.1-.1-.2-.3-.2-.5s.1-.4.2-.5c.1-.1.2-.2.4-.2s.3.1.4.2c.1.1.2.3.2.5v.1H13c0 .1 0 .3.1.3.1.1.1.1.2.1s.1 0 .2-.1c.1.1.1 0 .1-.1M13 13h.7c0-.1 0-.2-.1-.2-.1-.1-.1-.1-.2-.1s-.2 0-.2.1c-.2 0-.2.1-.2.2zm1.1.8v-1.3h.2v.2c0-.1.1-.2.1-.2h.1c.1 0 .1 0 .2.1l-.1.2h-.2l-.1.1v1h-.2z"/><circle fill="#FFF" stroke="#FFF" stroke-width="1.02" stroke-linejoin="bevel" cx="20" cy="8.7" r="3.2"/><circle fill="#CA2721" cx="19.9" cy="8.6" r="3.9"/><path d="M18.3 10.1h-.8V7.2h.7v.4c.1-.2.2-.3.3-.4.1-.1.2-.1.3-.1.2 0 .3 0 .5.1l-.2.7c-.1-.1-.2-.1-.4-.1-.1 0-.2 0-.3.1-.1.1-.1.2-.2.3 0 .2-.1.5-.1 1v.9zm3.3 0v-.4c-.1.2-.2.3-.4.4-.2.1-.4.1-.5.1-.2 0-.4 0-.5-.1-.2-.1-.3-.2-.3-.4-.1-.2-.1-.4-.1-.6V7.2h.8v2c0 .1.1.2.2.2.1.1.2.1.3.1.1 0 .2 0 .4-.1.1-.1.2-.2.2-.3 0-.1.1-.4.1-.8V7.2h.8v2.9h-1z" fill="#FFF"/></g></svg>