<svg width="30" height="38" viewBox="0 0 30 38" xmlns="http://www.w3.org/2000/svg"><title>Group</title><g fill="#EEE5D7" fill-rule="evenodd"><path d="M4.484 35.283c1.29-3.406 2.62-6.823 4.18-10.12 3.55.05 7.12.31 10.65-.024 1.53-.15 2.21-1.695 2.016-2.97.006-.12.006-.243-.004-.367-.297-3.278-.73-6.542-1.284-9.786-.303-1.776-2.453-2.757-4.06-2.316a3.17 3.17 0 0 0-1.316.718 1.32 1.32 0 0 0-.312.287A57.79 57.79 0 0 1 7.942 17.7c-1.23 1.14-.408 2.74.82 3.17-.267.003-.534.003-.8.004-.89-.292-1.926-.063-2.467 1.023-1.84 3.694-3.35 7.57-4.812 11.426-.967 2.543 2.82 4.535 3.8 1.956zm5.548-14.42c.225-.087.447-.22.657-.414a57.99 57.99 0 0 0 3.462-3.5c.174 1.27.326 2.54.453 3.817-1.524.055-3.05.08-4.575.093l.002.003z"/><circle cx="15.724" cy="4.635" r="3.791"/><path d="M6.164 32.902a10.766 10.766 0 0 0 9.17 5.074c5.97 0 10.827-4.857 10.827-10.825 0-2.29-.716-4.465-2.026-6.29l.39-5.696 4.706-1.953a.78.78 0 0 0-.597-1.438l-5.15 2.14a.783.783 0 0 0-.48.664l-.32 4.734a.776.776 0 0 0-.79 1.285 9.213 9.213 0 0 1 2.714 6.556c0 5.11-4.16 9.27-9.27 9.27a9.227 9.227 0 0 1-7.855-4.342.774.774 0 0 0-1.07-.245.774.774 0 0 0-.246 1.07h-.002z"/></g></svg>