<svg width="30" height="38" viewBox="0 0 30 38" xmlns="http://www.w3.org/2000/svg"><title>Group</title><g fill="#EEE5D7" fill-rule="evenodd"><path d="M4.484 35.283c1.29-3.406 2.62-6.823 4.18-10.12 3.55.05 7.12.31 10.65-.024 1.53-.148 2.21-1.694 2.016-2.97.006-.12.006-.242-.004-.366-.297-3.278-.73-6.542-1.284-9.786-.303-1.776-2.453-2.757-4.06-2.316-.53.146-.965.396-1.316.717-.114.077-.222.17-.312.287-1.946 2.506-4.082 4.84-6.412 6.995-1.23 1.14-.408 2.74.82 3.17-.267.003-.534.003-.8.004-.89-.292-1.926-.063-2.467 1.023-1.84 3.694-3.35 7.57-4.812 11.426-.967 2.543 2.82 4.535 3.8 1.956zm5.548-14.42c.225-.087.447-.22.657-.414 1.206-1.118 2.36-2.286 3.463-3.498.174 1.27.326 2.54.453 3.816-1.524.055-3.05.08-4.575.093l.002.003z" id="Shape"/><circle cx="15.724" cy="4.635" r="3.791"/><path d="M6.164 32.902c1.996 3.18 5.423 5.074 9.17 5.074 5.97 0 10.827-4.857 10.827-10.825 0-2.29-.717-4.466-2.027-6.29l.39-5.697 4.706-1.953c.395-.166.585-.62.42-1.018-.165-.396-.62-.584-1.017-.42l-5.15 2.138c-.273.113-.457.37-.48.665l-.32 4.734c-.27-.09-.576-.03-.79.185-.305.304-.305.795 0 1.1 1.75 1.75 2.714 4.08 2.714 6.556 0 5.11-4.16 9.27-9.27 9.27-3.208 0-6.146-1.622-7.855-4.343-.228-.363-.707-.475-1.07-.245-.365.227-.475.71-.246 1.07h-.002z"/></g></svg>