<svg width="361" height="92" viewBox="0 0 361 92" xmlns="http://www.w3.org/2000/svg"><title>Наше призвание — вёрстка</title><g fill="#F0E3CB" fill-rule="evenodd"><path d="M357.157 48.093c-.42-4.57 1.75-11.515 1.75-11.515l-1.25-.443 1.115-4.22s-8.157-3.804-13.852.434c-3.894 2.895-7.49 7.603-9.59 11.366-1.84 3.297-2.434 5.868-2.434 5.868l-24.026.033-3.46-7.14-5.437-.733c8.185-4.773 15.228-5.507 15.228-5.507l3.47-4.385s-11.264.725-19.69 6.614l2.966-4.825-1.35-2.85-13.224 4.636-.756 3.68 4.105.095-6.91 9.943-26.49.24c.188-.366 3.637-6.77 5.494-10.042.59-1.036 1.436-3.972-1.28-3.932-2.036.03-8.42 1.42-10.148 2.05.36-.622.45-2.967-2.386-2.68-3.012.308-8.32 1.472-8.824 1.656l2.03-3.456-4.75-2.49-12.692 19.43-23.654.094c.425-.5 1.67-1.477 2.58-2.71-3.354.13-4.96.32-8.31-.314-.772 1.592-5.94 2.164-5.94 2.164s-1.478-2.58 1.12-6.446c4.485-6.68 9.058-5.944 9.058-5.944s-.303 1.607-1.167 3.64c2.788.276 5.673.61 8.535.626 1.312-3.237 1.564-6.444 1.564-6.444s-8.058-5.317-14.256-2.708c-13.665 5.753-13.868 18.098-13.868 18.098s-3.754.045-8.136.1l-.005.053-16.882.05 1.467-2.626 8.764-12.79s-3.52-1.586-5.19-1.553c-1.668.034-14.16 9.942-14.16 9.942l4.013-5.123-4.245-2.042s-4.996 6.095-10.75 14.29l-24.397.093 2.36-3.02-5.46-.404S93.52 56.66 99.873 43.72l14.405.165L115.62 40h-.003c.938-3-.635-6.336-.635-6.336s-6.373-4.375-12.54-1.69c-13.595 5.916-11.904 18.25-11.904 18.25s-7.367.17-13.507.317c-4.384.107-8.58.198-8.58.198l13.388-21.42-4.98-4.33 15.127-22.08S85.91.168 83.027.228c-2.882.056-24.444 17.16-24.444 17.16l6.926-8.843-8.837-3.526S43.193 21.46 30.527 40.884C15.317 64.215.45 91.242.45 91.242l13.93.24s11.36-21.816 28.71-45.495C62.313 19.75 74.944 12.964 74.944 12.964s-.348 1.242-1.415 2.935c-2.273 3.6-6.257 9.23-6.257 9.23l2.476 2.3s-1.64 2.66-4.567 6c-6.96 7.944-19.592 21.08-19.592 21.08l86.983-.26c-.556.828-1.112 1.666-1.667 2.516-8.812 13.515-17.424 29.172-17.424 29.172l7.196.138s6.58-12.638 16.63-26.356c11.137-15.2 18.455-19.13 18.455-19.13s-.202.72-.82 1.7c-1.314 2.085-3.623 5.347-3.623 5.347l-6.916 6.288 85.17.032 7.338-10.9c5.785-2.618 6.123-.543 6.015-.29-.46 1.07-7.214 11.21-7.214 11.21l6.768-.057s6.93-11.114 7.408-11.422c1.23-.794 2.428-.916 3.37-.813.22.025.43.048.617.105 1.367.417.745 1.382.745 1.382l-2.742 5.837-2.89 4.876 40.555-.08 4.812-7.824 5.836.347 3.256 7.81 41.38-.43 6.797-3.29.373 2.933 8.387-.704c0-.003-2.93-1.324-3.228-4.558zM109.134 36.768c1.018.426 1.075 1.312.414 3.068l-6.833-.02c3.106-3.896 5.402-3.474 6.42-3.048zm239.01 6.372c-2.056 2.76-6.766 4.997-6.766 4.997s-.198-2.905 2.788-6.48c2.975-3.56 7.24-6.03 7.24-6.03s-.72 4.093-3.263 7.513z"/><path d="M126.73 9.184h-2.83V6.036h-1.513v7.733h1.514v-3.24h2.83v3.237h1.514V6.035h-1.513v3.148zm10.495-3.205l-2.784 7.79h1.516l.585-1.714h2.377l.618 1.712h1.59l-2.784-7.79h-1.114zm-.3 4.86l.564-1.713.23-1.227h.055l.232 1.217.575 1.724h-1.657zm17.06 1.58h-1.823V6.034h-1.514v6.385h-1.823V6.035h-1.514v7.733h8.19V6.035h-1.515v6.385zm9.876-1.89h2.797V9.183h-2.795v-1.8h3.072v-1.35h-4.585v7.734h4.64V12.42h-3.127v-1.89zm18.1 3.24h1.512V7.38h2.708v6.386h1.513V6.035h-5.732v7.733zm16.913-7.376a2.834 2.834 0 0 0-1.044-.376 7.18 7.18 0 0 0-1.156-.095c-.37 0-.738.017-1.11.05-.372.033-.712.08-1.02.138v7.657h1.513v-2.664c.037.007.097.015.182.022a7.458 7.458 0 0 0 .513.02h.177a4.3 4.3 0 0 0 1.11-.143c.36-.094.676-.25.957-.462.28-.214.503-.488.674-.824.17-.335.254-.745.254-1.23 0-.54-.098-.975-.293-1.31a2.21 2.21 0 0 0-.757-.783zm-.68 2.766a1.053 1.053 0 0 1-.37.415c-.154.1-.33.168-.524.205a3.247 3.247 0 0 1-.59.055h-.14c-.063 0-.127 0-.193-.005a3.2 3.2 0 0 1-.188-.017 1.138 1.138 0 0 1-.133-.022V7.286c.08-.016.188-.028.32-.04.132-.01.272-.017.42-.017.19 0 .38.02.562.056.184.037.35.103.492.2.144.094.26.222.35.38.087.16.132.358.132.602 0 .288-.048.52-.14.696zm10.203 1.05l-.54 1.072h-.067l.11-1.038v-4.21h-1.515v7.734h1.138l2.884-4.253.52-1.04h.055l-.087 1.006v4.29h1.513V6.034h-1.127l-2.884 4.175zm14.107-.552v-.054c.45-.148.775-.384.978-.708.203-.324.304-.678.304-1.06 0-.384-.073-.7-.22-.946a1.698 1.698 0 0 0-.586-.59 2.495 2.495 0 0 0-.828-.31 4.99 4.99 0 0 0-.95-.09 5.68 5.68 0 0 0-1.333.16c-.195.05-.368.1-.52.15-.15.05-.267.1-.348.145l.385 1.28a3.74 3.74 0 0 1 .652-.253 3.15 3.15 0 0 1 .928-.132c.368 0 .664.065.89.193.224.13.337.37.337.725a.754.754 0 0 1-.276.613c-.184.15-.406.257-.663.316-.06.015-.136.027-.232.04a7.346 7.346 0 0 1-.585.026h-.51v1.18h.53c.047 0 .11.005.2.013.664.015 1.124.11 1.38.287.26.177.39.438.39.785 0 .207-.04.383-.12.53-.084.147-.19.267-.323.36-.132.092-.28.158-.447.198-.165.04-.33.06-.49.06-.436 0-.81-.04-1.128-.126a4.417 4.417 0 0 1-.73-.25l-.385 1.314c.213.11.52.207.917.288.397.082.84.123 1.325.123.376 0 .744-.046 1.105-.138.362-.092.68-.234.957-.425.275-.192.5-.437.668-.734.17-.3.254-.658.254-1.078 0-.53-.137-.954-.405-1.27-.27-.317-.645-.525-1.124-.62zm13.07.586a1.62 1.62 0 0 0-.52-.365 2.555 2.555 0 0 0-.63-.19v-.066c.25-.06.465-.15.642-.27.177-.124.32-.263.43-.42.112-.16.19-.334.238-.525a2.35 2.35 0 0 0 .072-.575c0-.383-.082-.7-.243-.95a1.686 1.686 0 0 0-.645-.586 3.018 3.018 0 0 0-.917-.293 6.54 6.54 0 0 0-1.055-.083c-.214 0-.43.003-.647.01a13.348 13.348 0 0 0-1.695.155v7.624c.192.044.404.077.636.098a13.724 13.724 0 0 0 1.314.068h.48a4.64 4.64 0 0 0 1.117-.134c.36-.088.684-.224.968-.408.283-.184.51-.42.68-.712.168-.292.253-.636.253-1.034 0-.3-.04-.563-.125-.784-.085-.222-.2-.41-.348-.564zm-3.513-3.006c.088-.014.212-.026.375-.032.162-.007.338-.01.53-.01.17 0 .33.013.486.043.157.026.295.08.416.15.122.074.22.17.293.295.073.125.11.28.11.47a.87.87 0 0 1-.305.69 2.036 2.036 0 0 1-.724.394c-.087.013-.2.024-.336.03-.136.008-.255.01-.358.01h-.486V7.24zm2.297 4.758c-.08.138-.188.254-.32.345-.133.093-.286.16-.46.204-.172.044-.35.066-.534.066-.074 0-.16-.003-.26-.007l-.287-.01a6.143 6.143 0 0 1-.26-.018.742.742 0 0 1-.177-.033v-2.11h.805c.19 0 .382.01.574.03.19.023.364.072.52.15.153.076.28.183.374.32.095.14.144.33.144.57 0 .19-.042.355-.123.494zm10.418-6.017l-2.785 7.79h1.514l.586-1.714h2.376l.618 1.712h1.59l-2.783-7.79h-1.114zm-.298 4.86l.563-1.713.232-1.227h.055l.232 1.217.572 1.724h-1.656zm14.726-1.657h-2.828V6.036h-1.514v7.733h1.516v-3.24h2.828v3.237h1.514V6.035h-1.514v3.148zm10.385 1.026l-.54 1.07h-.067l.11-1.037v-4.21h-1.512v7.734h1.14l2.882-4.253.52-1.04h.054l-.087 1.006v4.288h1.513V6.035h-1.126l-2.886 4.175zm12.385 2.21v-1.89h2.795V9.183h-2.795v-1.8h3.07v-1.35h-4.584v7.734h4.64V12.42h-3.128z"/></g></svg>
