<svg xmlns="http://www.w3.org/2000/svg" width="98.667" height="308" viewBox="0 0 98.667 308"><g opacity=".3" fill="#081D27"><path d="M13.333 203h4.256l-1.924-6h-2.333v6"/><path d="M13.333 203h-2.37l1.924-6h.446v6M13.608 198.1l-.775 4.9h2.806l-.776-5.006M22.333 203h3.585l-1.923-6h-1.662v6"/><path d="M22.333 203h-3.04l1.923-6h1.117v6M21.937 198.1l-.775 4.9h2.807l-.777-5.006M41.333 203h4.02l-1.923-6h-2.097v6"/><path d="M41.333 203H38.73l1.922-6h.68v6M41.373 198.1l-.776 4.9h2.807l-.775-5.006M49.333 203h4.35l-1.924-6h-2.427v6"/><path d="M49.333 203h-2.275l1.922-6h.353v6M49.702 198.1l-.776 4.9h2.806l-.775-5.006M31.792 115.333l-.004 73.894 6.858.007-.28 9.41 18.036-.04-1.377-13.886-7.87-43.565-7.54-25.837-7.823.017zM6.716 198.605l18.035.04-.468-9.41 7.047-.008-.003-73.894-7.824-.017-7.54 25.837-7.87 43.565-1.377 13.887z"/><path d="M31.534 195.68l7.048.007.778-73.918-.204-34.694h.057l1.086-1.453-.007-32.255-5.24-11.02-3.513-4.555-.006 157.887zM31.377 37.793l-3.513 4.555-5.24 11.02-.004 32.256 1.084 1.453h.056l-.204 34.693.778 73.918 7.048-.007-.005-157.887z"/><path d="M27.884 87.076l-.47-1.452.002-32.256 2.274-11.02 1.526-4.555v4.267-4.267l1.524 4.555 2.276 11.02v32.256l-.47 1.452h-.025l.09 34.693-.338 73.917-3.056-.007-3.06.007-.337-73.918.088-34.694"/><path opacity=".4" fill-rule="evenodd" clip-rule="evenodd" d="M28.135 301.407l-11.77-88.73 28.92-.533-17.15 89.263z"/><path fill-rule="evenodd" clip-rule="evenodd" d="M30.21 264.51l-8.97-49.404 19.607.27L30.21 264.51zM54.755 191.21l5.313 7.324h-5.313M8.647 191.21l-5.314 7.324h5.314"/><path d="M30.7 83.006c.358.35.84.54 1.343.54.544 0 1.02-.185 1.386-.588.345-.38.54-.867.54-1.376 0-.297-.072-.526-.17-.843h-1.144c.24.2.39.51.39.822 0 .594-.42.992-.998.992-.57 0-1.017-.394-1.017-.978 0-.134.025-.267.07-.39-.272-.152-.546-.296-.81-.447-.117.28-.184.563-.184.87 0 .515.223 1.036.594 1.396zM31.147 77.79c-.147.175-.243.398-.243.63 0 .176.102.41.306.41.215 0 .296-.258.35-.423l.074-.244c.15-.51.41-.905 1.002-.905.364 0 .74.088.988.38.243.287.344.67.344 1.04 0 .463-.155.916-.417 1.29l-.77-.41c.21-.236.38-.52.38-.845 0-.225-.11-.463-.37-.463-.267 0-.36.375-.417.58-.17.598-.326.993-1.038.993-.744 0-1.23-.53-1.23-1.266 0-.37.116-.822.3-1.148l.742.38zM31.147 74.358c-.147.175-.243.4-.243.633 0 .176.102.41.306.41.215 0 .296-.258.35-.423l.074-.244c.15-.51.41-.904 1.002-.904.364 0 .74.086.988.378.243.287.344.67.344 1.042 0 .462-.155.915-.417 1.29l-.77-.41c.21-.237.38-.52.38-.846 0-.224-.11-.46-.37-.46-.267 0-.36.374-.417.578-.17.6-.326.993-1.038.993-.744 0-1.23-.53-1.23-1.266 0-.37.116-.823.3-1.15l.742.378zM31.147 70.93c-.147.174-.243.398-.243.63 0 .176.102.41.306.41.215 0 .296-.258.35-.423l.074-.244c.15-.51.41-.905 1.002-.905.364 0 .74.088.988.38.243.287.344.67.344 1.042 0 .462-.155.914-.417 1.29l-.77-.41c.21-.238.38-.52.38-.846 0-.224-.11-.463-.37-.463-.267 0-.36.376-.417.58-.17.6-.326.993-1.038.993-.744 0-1.23-.53-1.23-1.264 0-.37.116-.824.3-1.15l.742.38zM33.87 66.586v1.063l-1.41.9v.01h1.41v.952h-3.668v-1.426c0-.725.346-1.275 1.13-1.275.505 0 .944.284 1.036.804l1.503-1.028zm-2.023 1.974v-.093c0-.31-.057-.662-.458-.662-.4 0-.46.35-.46.662v.093h.917z"/></g><path fill="#F7F5EE" d="M48.333 168h4.256l-1.924-6h-2.333v6"/><path fill="#DFD3BB" d="M48.333 168h-2.37l1.924-6h.446v6"/><path fill="#F2EEE2" d="M48.608 163.1l-.775 4.9h2.806l-.776-5.006"/><path fill="#F7F5EE" d="M57.333 168h3.585l-1.923-6h-1.662v6"/><path fill="#DFD3BB" d="M57.333 168h-3.04l1.923-6h1.117v6"/><path fill="#F2EEE2" d="M56.937 163.1l-.775 4.9h2.807l-.777-5.006"/><path fill="#F7F5EE" d="M76.333 168h4.02l-1.923-6h-2.097v6"/><path fill="#DFD3BB" d="M76.333 168H73.73l1.922-6h.68v6"/><path fill="#F2EEE2" d="M76.373 163.1l-.776 4.9h2.807l-.775-5.006"/><path fill="#F7F5EE" d="M84.333 168h4.35l-1.924-6h-2.427v6"/><path fill="#DFD3BB" d="M84.333 168h-2.275l1.922-6h.353v6"/><path fill="#F2EEE2" d="M84.702 163.1l-.776 4.9h2.806l-.775-5.006"/><path fill="#F4F1EA" d="M66.792 80.333l-.004 73.894 6.858.007-.28 9.41 18.036-.04-1.377-13.886-7.87-43.565-7.54-25.837-7.823.017zM41.716 163.605l18.035.04-.468-9.41 7.047-.008-.003-73.894-7.824-.017-7.54 25.837-7.87 43.565-1.377 13.887z"/><path fill="#F7F5EE" d="M66.534 160.68l7.048.007.778-73.918-.204-34.694h.057l1.086-1.453-.007-32.255-5.24-11.02-3.513-4.555-.006 157.887z"/><path fill="#DFD3BB" d="M66.377 2.793l-3.513 4.555-5.24 11.02-.004 32.256 1.084 1.453h.056l-.204 34.693.778 73.918 7.048-.007-.005-157.887z"/><path fill="#F2EEE2" d="M62.884 52.076l-.47-1.452.002-32.256 2.274-11.02 1.526-4.555V7.06 2.793l1.524 4.555 2.276 11.02v32.256l-.47 1.452h-.025l.09 34.693-.338 73.917-3.056-.007-3.06.007-.337-73.918.088-34.694"/><path opacity=".4" fill-rule="evenodd" clip-rule="evenodd" fill="#EB5E61" d="M63.135 266.407l-11.77-88.73 28.92-.533-17.15 89.263z"/><path fill-rule="evenodd" clip-rule="evenodd" fill="#F8AB0D" d="M65.21 229.51l-8.97-49.404 19.607.27L65.21 229.51z"/><path fill-rule="evenodd" clip-rule="evenodd" fill="#F4F1EA" d="M89.755 156.21l5.313 7.324h-5.313M43.647 156.21l-5.314 7.324h5.314"/><g fill="#C52018"><path d="M65.7 48.006c.358.35.84.54 1.343.54.544 0 1.02-.185 1.386-.588.345-.38.54-.867.54-1.376 0-.297-.072-.526-.17-.843h-1.144c.24.2.39.51.39.822 0 .594-.42.992-.998.992-.57 0-1.017-.394-1.017-.978 0-.134.025-.267.07-.39-.272-.152-.546-.296-.81-.447-.117.28-.184.563-.184.87 0 .515.223 1.036.594 1.396zM66.147 42.79c-.147.175-.243.398-.243.63 0 .176.102.41.306.41.215 0 .296-.258.35-.423l.074-.244c.15-.51.41-.905 1.002-.905.364 0 .74.088.988.38.243.287.344.67.344 1.04 0 .463-.155.916-.417 1.29l-.77-.41c.21-.236.38-.52.38-.845 0-.225-.11-.463-.37-.463-.267 0-.36.375-.417.58-.17.598-.326.993-1.038.993-.744 0-1.23-.53-1.23-1.266 0-.37.116-.822.3-1.148l.742.38zM66.147 39.358c-.147.175-.243.4-.243.633 0 .176.102.41.306.41.215 0 .296-.258.35-.423l.074-.244c.15-.51.41-.904 1.002-.904.364 0 .74.086.988.378.243.287.344.67.344 1.042 0 .462-.155.915-.417 1.29l-.77-.41c.21-.237.38-.52.38-.846 0-.224-.11-.46-.37-.46-.267 0-.36.374-.417.578-.17.6-.326.993-1.038.993-.744 0-1.23-.53-1.23-1.266 0-.37.116-.823.3-1.15l.742.378zM66.147 35.93c-.147.174-.243.398-.243.63 0 .176.102.41.306.41.215 0 .296-.258.35-.423l.074-.244c.15-.51.41-.905 1.002-.905.364 0 .74.088.988.38.243.287.344.67.344 1.042 0 .462-.155.914-.417 1.29l-.77-.41c.21-.238.38-.52.38-.846 0-.224-.11-.463-.37-.463-.267 0-.36.376-.417.58-.17.6-.326.993-1.038.993-.744 0-1.23-.53-1.23-1.264 0-.37.116-.824.3-1.15l.742.38zM68.87 31.586v1.063l-1.41.9v.01h1.41v.952h-3.668v-1.426c0-.725.346-1.275 1.13-1.275.505 0 .944.284 1.036.804l1.503-1.028zm-2.023 1.974v-.093c0-.31-.057-.662-.458-.662-.4 0-.46.35-.46.662v.093h.917z"/></g></svg>