<svg xmlns="http://www.w3.org/2000/svg" width="387.426" height="211.486" viewBox="0 0 387.426 211.486"><path opacity=".2" fill="#E7DDC7" d="M23.35 200.557s-.147.01-.22.013c-30.576 1.677-10.897-24.686 48.968-64.694 30.372-20.3 65.864-40.805 101.19-59.23l.2-.105-.2-.46-.22.115c-3.702 1.932-7.406 3.886-11.114 5.862-32.254 17.193-64.47 35.925-93.672 55.357-29.55 19.664-56.477 40.446-65.43 54.832-5.478 8.802-3.66 14.994 10.695 14.626.062 0 .188-.005.188-.005l9.615-6.31zM338.38 54.685s.406-.298.606-.447c26.14-19.287 39.6-33.35 42.77-41.666C386.828-.725 366.963.497 344.38 6.12c-17.405 4.332-37.92 11.46-59.33 19.99-.075.032-.23.093-.23.093l.262.656.258-.103C342.2 4.51 382.206-3.08 373.914 15.737c-3.943 8.947-18.568 22.51-40.077 38.347l-.335.246 4.88.355z"/><g opacity=".25" fill="#081D27"><path d="M235.824 54.35l.76.407-.73 1.372-.762-.407zM219.823 79.523l2.174-1.535 3.77-2.722 9.49-17.718c.285-.53.155-1.2-.377-1.484l-4.584-2.455 3.296-2.74-2.472-1.324-14.738 28.086M223.807 47.924l.758.407-.734 1.37-.758-.408z"/><path d="M216.514 77.64c-.024-.013-.05-.027-.074-.042l14.74-28.086-2.55-1.362-.452 4.26-4.583-2.454c-.53-.283-1.08.022-1.367.553l-9.486 17.718-.248 4.608-.074 2.66.13.07M232.7 52.652l.344.182-.725 1.372-.346-.182z"/><path d="M227.26 49.755l.348.184-.73 1.37-.347-.184z"/><path d="M217.74 78.343l.06.03 1.596-1.844 2.81-3.235-.02-.01 9.485-17.72c.286-.532.365-1.09.124-1.22l-2.076-1.11 2.518-3.156-1.117-.6-1.153-.618-1.232 3.847-2.076-1.112c-.24-.13-.627.266-.912.795L216.26 70.11l-.057-.03-1.135 4.134-.647 2.352.056.032"/><path d="M219.573 70.234c.126.392.4.714.76.905.39.208.804.26 1.222.11.395-.14.72-.415.917-.782.115-.213.15-.407.204-.67l-.823-.44c.093.234.08.518-.036.74-.227.428-.685.552-1.1.33-.41-.22-.58-.676-.354-1.094.05-.097.123-.183.2-.254-.14-.216-.28-.424-.412-.632-.19.156-.35.335-.467.554-.196.37-.236.83-.11 1.232zM221.923 66.622c-.172.068-.33.193-.42.36-.064.126-.08.334.067.413.154.082.312-.07.415-.17l.146-.146c.305-.31.643-.494 1.068-.265.266.14.498.347.565.654.064.298-.008.613-.153.88-.175.332-.464.598-.796.765l-.398-.59c.242-.09.473-.23.6-.46.088-.163.096-.377-.09-.477-.19-.105-.403.13-.522.253-.354.366-.616.59-1.127.317-.536-.288-.68-.855-.4-1.385.145-.266.403-.547.662-.71l.383.56zM223.26 64.122c-.17.07-.327.194-.418.36-.066.126-.08.334.065.415.154.08.31-.074.415-.173l.146-.146c.306-.31.643-.495 1.07-.267.263.142.5.35.563.656.066.3-.01.615-.15.88-.18.333-.465.598-.8.766l-.395-.59c.242-.09.475-.228.6-.463.087-.162.1-.375-.09-.476-.19-.102-.4.132-.524.255-.35.364-.612.587-1.123.313-.535-.285-.682-.854-.397-1.383.14-.265.4-.545.658-.71l.382.562zM224.6 61.622c-.173.07-.328.193-.417.362-.067.125-.085.333.063.412.154.083.312-.072.413-.17l.146-.147c.305-.31.643-.493 1.07-.268.264.142.498.35.564.654.063.3-.01.617-.15.883-.18.332-.466.597-.8.764l-.397-.59c.245-.09.475-.227.6-.46.086-.164.098-.376-.087-.477-.193-.102-.402.132-.522.256-.355.364-.62.588-1.13.316-.533-.29-.68-.857-.397-1.386.144-.266.4-.545.66-.708l.383.556zM228.248 59.514l-.407.766-1.36.104-.005.005 1.014.543-.367.686-2.64-1.414.55-1.025c.278-.52.738-.783 1.303-.478.362.194.57.566.437.974l1.475-.162zm-2.214.64l.034-.065c.12-.226.215-.5-.073-.654-.286-.155-.462.075-.583.298l-.036.07.658.35zM209.36 90.87l3.04-4.344-.747-.444-2.686 4.556"/><path d="M208.6 90.42l.367.218 2.686-4.556-.757-.45"/><path d="M208.024 90.64c.23-.39.73-.518 1.12-.287.387.23.516.734.285 1.125-.23.39-.73.52-1.12.288-.386-.23-.518-.735-.286-1.126z"/><path d="M209.06 90.446c.39.23.52.736.288 1.125-.017.03-.037.054-.057.078.055-.05.102-.105.14-.17.23-.39.1-.893-.286-1.124-.36-.215-.815-.116-1.063.21.26-.25.66-.31.98-.118zM219.727 90.813c2.667-4.526 1.175-10.367-3.336-13.047-4.51-2.678-10.33-1.183-12.994 3.344l16.33 9.703z"/><path d="M211.575 85.97l4.83-8.193-.015-.012c-4.51-2.678-10.33-1.183-12.995 3.344l8.18 4.86z"/><path d="M215.86 88.518c1.71-2.896 3.25-9.124.363-10.84-2.888-1.715-7.3 2.805-9.008 5.703l8.645 5.138zM197.347 43.07l20.546 10.904-7.283 13.722-20.546-10.905z"/><path d="M197.356 43.077l10.273 5.453-7.286 13.722-10.272-5.453zM234.96 62.144l20.547 10.904-7.283 13.723-20.546-10.903z"/><path d="M245.266 67.628l10.225 5.427-7.282 13.723-10.226-5.427z"/></g><path fill="#F6F4EC" d="M255.825 34.35l.76.407-.73 1.37-.76-.405zM239.823 59.523l2.174-1.535 3.77-2.722 9.49-17.718c.285-.53.155-1.2-.377-1.484l-4.584-2.455 3.296-2.74-2.472-1.324-14.738 28.086"/><g fill="#DFD2B9"><path d="M243.807 27.924l.758.408-.734 1.368-.758-.407z"/><path d="M236.514 57.64c-.024-.013-.05-.027-.074-.042l14.74-28.086-2.55-1.362-.452 4.26-4.583-2.454c-.53-.283-1.08.022-1.367.553l-9.486 17.718-.248 4.608-.074 2.66.13.07"/></g><path fill="#F1ECE0" d="M252.698 32.65l.345.183-.724 1.372-.346-.182zM247.26 29.754l.347.184-.73 1.372-.347-.185z"/><path fill="#F1ECE0" d="M237.74 58.343l.06.03 1.596-1.844 2.81-3.235-.02-.01 9.485-17.72c.286-.532.365-1.09.124-1.22l-2.076-1.11 2.518-3.156-1.117-.6-1.153-.618-1.232 3.847-2.076-1.112c-.24-.13-.627.266-.912.795L236.26 50.11l-.057-.03-1.135 4.134-.647 2.352.056.032"/><g fill="#C62A27"><path d="M239.573 50.234c.126.392.4.714.76.905.39.208.804.26 1.222.11.395-.14.72-.415.917-.782.115-.213.15-.407.204-.67l-.823-.44c.093.234.08.518-.036.74-.227.428-.685.552-1.1.33-.41-.22-.58-.676-.354-1.094.05-.097.123-.183.2-.254-.14-.216-.28-.424-.412-.632-.19.156-.35.335-.467.554-.196.37-.236.83-.11 1.232zM241.923 46.622c-.172.068-.33.193-.42.36-.064.126-.08.334.067.413.154.082.312-.07.415-.17l.146-.146c.305-.31.643-.494 1.068-.265.266.14.498.347.565.654.064.298-.008.613-.153.88-.175.332-.464.598-.796.765l-.398-.59c.242-.09.473-.23.6-.46.088-.163.096-.377-.09-.477-.19-.105-.403.13-.522.253-.354.366-.616.59-1.127.317-.536-.288-.68-.855-.4-1.385.145-.266.403-.547.662-.71l.383.56zM243.26 44.122c-.17.07-.327.194-.418.36-.066.126-.08.334.065.415.154.08.31-.074.415-.173l.146-.146c.306-.31.643-.495 1.07-.267.263.142.5.35.563.656.066.3-.01.615-.15.88-.18.333-.465.598-.8.766l-.395-.59c.242-.09.475-.228.6-.463.087-.162.1-.375-.09-.476-.19-.102-.4.132-.524.255-.35.364-.612.587-1.123.313-.535-.285-.682-.854-.397-1.383.14-.265.4-.545.658-.71l.382.562zM244.6 41.622c-.173.07-.328.193-.417.362-.067.125-.085.333.063.412.154.083.312-.072.413-.17l.146-.147c.305-.31.643-.493 1.07-.268.264.142.498.35.564.654.063.3-.01.617-.15.883-.18.332-.466.597-.8.764l-.397-.59c.245-.09.475-.227.6-.46.086-.164.098-.376-.087-.477-.193-.102-.402.132-.522.256-.355.364-.62.588-1.13.316-.533-.29-.68-.857-.397-1.386.144-.266.4-.545.66-.708l.383.556zM248.248 39.514l-.407.766-1.36.104-.005.005 1.014.543-.367.686-2.64-1.414.55-1.025c.278-.52.738-.783 1.303-.478.362.194.57.566.437.974l1.475-.162zm-2.214.64l.034-.065c.12-.226.215-.5-.073-.654-.286-.155-.462.075-.583.298l-.036.07.658.35z"/></g><path fill="#F6F4EC" d="M229.36 70.87l3.04-4.344-.747-.444-2.686 4.556"/><path fill="#F1ECE0" d="M228.6 70.42l.367.218 2.686-4.556-.757-.45"/><path fill="#F1ECE0" d="M228.024 70.64c.23-.39.73-.518 1.12-.287.387.23.516.734.285 1.125-.23.39-.73.52-1.12.288-.386-.23-.518-.735-.286-1.126z"/><path fill="#DFD2B9" d="M229.06 70.446c.39.23.52.736.288 1.125-.017.03-.037.054-.057.078.055-.05.102-.105.14-.17.23-.39.1-.893-.286-1.124-.36-.215-.815-.116-1.063.21.26-.25.66-.31.98-.118z"/><path fill="#F6F4EC" d="M239.727 70.813c2.667-4.526 1.175-10.367-3.336-13.047-4.51-2.678-10.33-1.183-12.994 3.344l16.33 9.703z"/><path fill="#DFD2B9" d="M231.575 65.97l4.83-8.193-.015-.012c-4.51-2.678-10.33-1.183-12.995 3.344l8.18 4.86z"/><path fill="#F1ECE0" d="M235.86 68.518c1.71-2.896 3.25-9.124.363-10.84-2.888-1.715-7.3 2.805-9.008 5.703l8.645 5.138z"/><path fill="#F6F4EC" d="M217.346 23.068l20.547 10.905-7.283 13.722-20.547-10.905z"/><path fill="#F1ECE0" d="M217.357 23.077l10.273 5.453-7.284 13.722-10.273-5.453zM254.96 42.143l20.546 10.904-7.283 13.723-20.546-10.904z"/><path fill="#F6F4EC" d="M265.266 47.63l10.225 5.426-7.282 13.723-10.225-5.428z"/></svg>