<svg xmlns="http://www.w3.org/2000/svg" width="387.426" height="211.486" viewBox="0 0 387.426 211.486"><path opacity=".2" fill="#E7DDC7" d="M23.35 200.557s-.147.01-.22.013c-30.576 1.677-10.897-24.686 48.968-64.694 30.372-20.3 65.864-40.805 101.19-59.23l.2-.105-.2-.46-.22.116a1457.07 1457.07 0 0 0-11.114 5.862c-32.254 17.193-64.47 35.925-93.672 55.357-29.55 19.664-56.477 40.446-65.43 54.832-5.478 8.802-3.66 14.994 10.695 14.626.062 0 .188-.005.188-.005l9.615-6.31zM338.38 54.685s.406-.298.606-.447c26.14-19.287 39.6-33.35 42.77-41.666C386.828-.725 366.963.497 344.38 6.12c-17.405 4.332-37.92 11.46-59.33 19.99-.075.032-.23.093-.23.093l.262.656.258-.104C342.2 4.51 382.206-3.08 373.914 15.736c-3.943 8.948-18.568 22.51-40.077 38.348l-.335.246 4.88.355z"/><g opacity=".25" fill="#081D27"><path d="M235.824 54.35l.76.407-.73 1.372-.762-.408zm-16 25.173l2.173-1.535 3.77-2.722 9.49-17.718c.285-.53.155-1.2-.377-1.484l-4.584-2.455 3.296-2.74-2.472-1.325-14.738 28.086m7.425-29.706l.758.407-.734 1.37-.757-.407z"/><path d="M216.514 77.64c-.024-.013-.05-.027-.074-.042l14.74-28.086-2.55-1.362-.452 4.26-4.583-2.454c-.53-.283-1.08.022-1.367.553l-9.486 17.717-.248 4.608-.074 2.66.13.07m20.15-22.913l.344.182-.725 1.372-.347-.182z"/><path d="M227.26 49.755l.348.184-.73 1.37-.347-.185z"/><path d="M217.74 78.343l.06.03 1.596-1.844 2.81-3.236-.02-.01 9.485-17.72c.287-.532.366-1.09.125-1.22l-2.076-1.11 2.517-3.156-1.117-.6-1.153-.618-1.232 3.847-2.076-1.112c-.24-.13-.628.266-.913.795l-9.487 17.72-.057-.03-1.135 4.134-.647 2.352.057.032"/><path d="M219.573 70.234c.126.392.4.714.76.905.39.207.804.26 1.222.11.395-.14.72-.416.917-.783.115-.213.15-.407.204-.67l-.823-.44a.913.913 0 0 1-.036.74c-.227.428-.685.552-1.1.33-.41-.22-.58-.676-.354-1.094a.94.94 0 0 1 .2-.254c-.14-.217-.28-.425-.412-.633-.19.156-.35.335-.466.554-.196.37-.236.83-.11 1.233zm2.35-3.612a.818.818 0 0 0-.42.36c-.064.126-.08.334.067.413.154.082.312-.07.415-.17l.146-.146c.306-.31.644-.495 1.07-.266.265.14.497.347.564.654.064.298-.008.613-.153.88a1.827 1.827 0 0 1-.795.765l-.398-.59c.242-.09.473-.23.6-.46.088-.163.096-.377-.09-.477-.19-.105-.403.13-.522.253-.354.365-.616.59-1.127.316-.536-.288-.68-.855-.4-1.385.145-.265.403-.546.662-.71l.383.56zm1.337-2.5a.84.84 0 0 0-.418.36c-.066.126-.08.334.065.415.154.08.31-.074.415-.173l.146-.146c.306-.31.643-.495 1.07-.267.263.143.5.35.563.657.067.3-.01.615-.15.88a1.85 1.85 0 0 1-.8.766l-.394-.59c.242-.09.475-.228.6-.463.087-.162.1-.375-.09-.476-.19-.102-.4.132-.524.255-.35.363-.612.586-1.123.312-.536-.285-.683-.854-.398-1.383.14-.266.4-.546.658-.71l.382.56zm1.34-2.5a.807.807 0 0 0-.417.362c-.067.125-.085.333.063.412.154.083.312-.072.413-.17l.145-.147c.305-.31.643-.494 1.07-.27.264.143.498.35.564.655.062.3-.01.617-.15.883a1.85 1.85 0 0 1-.8.764l-.398-.59c.245-.09.475-.227.6-.46.086-.164.098-.376-.087-.477-.193-.102-.402.132-.522.256-.355.365-.62.59-1.13.317-.533-.29-.68-.857-.397-1.386.144-.265.4-.544.66-.707l.383.556zm3.648-2.108l-.407.766-1.36.104-.004.005 1.014.542-.367.686-2.64-1.414.55-1.025c.278-.52.738-.784 1.303-.48.362.195.57.567.437.975l1.475-.162zm-2.214.64l.034-.065c.12-.227.215-.5-.073-.655-.286-.155-.462.075-.583.298l-.036.07.658.35zM209.36 90.87l3.04-4.344-.747-.444-2.686 4.556"/><path d="M208.6 90.42l.367.218 2.686-4.556-.757-.45"/><path d="M208.024 90.64a.815.815 0 0 1 1.12-.287c.387.23.516.734.285 1.125-.23.39-.73.52-1.12.288a.824.824 0 0 1-.287-1.126z"/><path d="M209.06 90.446c.39.23.52.736.288 1.125a.523.523 0 0 1-.057.08.718.718 0 0 0 .14-.17c.23-.39.1-.894-.285-1.125a.812.812 0 0 0-1.063.21c.26-.25.66-.31.98-.118zm10.667.367c2.667-4.526 1.175-10.367-3.336-13.047a9.463 9.463 0 0 0-12.993 3.344l16.33 9.703z"/><path d="M211.575 85.97l4.83-8.193-.015-.012c-4.51-2.678-10.33-1.183-12.995 3.344l8.18 4.86z"/><path d="M215.86 88.518c1.71-2.896 3.25-9.124.363-10.84-2.888-1.715-7.3 2.805-9.008 5.703l8.645 5.14zM197.347 43.07l20.546 10.904-7.283 13.722-20.546-10.905z"/><path d="M197.356 43.077l10.273 5.453-7.287 13.722L190.07 56.8zm37.604 19.067l20.547 10.904-7.283 13.723-20.546-10.902z"/><path d="M245.266 67.628l10.225 5.427-7.28 13.723-10.227-5.427z"/></g><path fill="#F6F4EC" d="M255.825 34.35l.76.407-.73 1.37-.76-.405zm-16.002 25.173l2.174-1.535 3.77-2.722 9.49-17.718c.285-.53.155-1.2-.377-1.484l-4.584-2.455 3.296-2.74-2.472-1.325-14.738 28.086"/><g fill="#DFD2B9"><path d="M243.807 27.924l.758.408-.734 1.368-.757-.407z"/><path d="M236.514 57.64c-.024-.013-.05-.027-.074-.042l14.74-28.086-2.55-1.362-.452 4.26-4.583-2.454c-.53-.283-1.08.022-1.367.553l-9.486 17.717-.248 4.608-.074 2.66.13.07"/></g><path fill="#F1ECE0" d="M252.698 32.65l.345.183-.724 1.372-.347-.182zm-5.438-2.896l.347.184-.73 1.372-.347-.185z"/><path fill="#F1ECE0" d="M237.74 58.343l.06.03 1.596-1.844 2.81-3.236-.02-.01 9.485-17.72c.287-.532.366-1.09.125-1.22l-2.076-1.11 2.517-3.156-1.117-.6-1.153-.618-1.232 3.847-2.076-1.112c-.24-.13-.628.266-.913.795l-9.487 17.72-.057-.03-1.135 4.134-.647 2.352.057.032"/><path d="M239.573 50.234c.126.392.4.714.76.905.39.207.804.26 1.222.11.395-.14.72-.416.917-.783.115-.213.15-.407.204-.67l-.823-.44a.913.913 0 0 1-.036.74c-.227.428-.685.552-1.1.33-.41-.22-.58-.676-.354-1.094a.94.94 0 0 1 .2-.254c-.14-.217-.28-.425-.412-.633-.19.156-.35.335-.466.554-.196.37-.236.83-.11 1.233zm2.35-3.612a.818.818 0 0 0-.42.36c-.064.126-.08.334.067.413.154.082.312-.07.415-.17l.146-.146c.306-.31.644-.495 1.07-.266.265.14.497.347.564.654.064.298-.008.613-.153.88a1.827 1.827 0 0 1-.795.765l-.398-.59c.242-.09.473-.23.6-.46.088-.163.096-.377-.09-.477-.19-.105-.403.13-.522.253-.354.365-.616.59-1.127.316-.536-.288-.68-.855-.4-1.385.145-.265.403-.546.662-.71l.383.56zm1.337-2.5a.84.84 0 0 0-.418.36c-.066.126-.08.334.065.415.154.08.31-.074.415-.173l.146-.146c.306-.31.643-.495 1.07-.267.263.143.5.35.563.657.067.3-.01.615-.15.88a1.85 1.85 0 0 1-.8.766l-.394-.59c.242-.09.475-.228.6-.463.087-.162.1-.375-.09-.476-.19-.102-.4.132-.524.255-.35.363-.612.586-1.123.312-.536-.285-.683-.854-.398-1.383.14-.266.4-.546.658-.71l.382.56zm1.34-2.5a.807.807 0 0 0-.417.362c-.067.125-.085.333.063.412.154.083.312-.072.413-.17l.145-.147c.305-.31.643-.494 1.07-.27.264.143.498.35.564.655.062.3-.01.617-.15.883a1.85 1.85 0 0 1-.8.764l-.398-.59c.245-.09.475-.227.6-.46.086-.164.098-.376-.087-.477-.193-.102-.402.132-.522.256-.355.365-.62.59-1.13.317-.533-.29-.68-.857-.397-1.386.144-.265.4-.544.66-.707l.383.556zm3.648-2.108l-.407.766-1.36.104-.004.005 1.014.542-.367.686-2.64-1.414.55-1.025c.278-.52.738-.784 1.303-.48.362.195.57.567.437.975l1.475-.162zm-2.214.64l.034-.065c.12-.227.215-.5-.073-.655-.286-.155-.462.075-.583.298l-.036.07.658.35z" fill="#C62A27"/><path fill="#F6F4EC" d="M229.36 70.87l3.04-4.344-.747-.444-2.686 4.556"/><path fill="#F1ECE0" d="M228.6 70.42l.367.218 2.686-4.556-.757-.45"/><path fill="#F1ECE0" d="M228.024 70.64a.815.815 0 0 1 1.12-.287c.387.23.516.734.285 1.125-.23.39-.73.52-1.12.288a.824.824 0 0 1-.287-1.126z"/><path fill="#DFD2B9" d="M229.06 70.446c.39.23.52.736.288 1.125a.523.523 0 0 1-.057.08.718.718 0 0 0 .14-.17c.23-.39.1-.894-.285-1.125a.812.812 0 0 0-1.063.21c.26-.25.66-.31.98-.118z"/><path fill="#F6F4EC" d="M239.727 70.813c2.667-4.526 1.175-10.367-3.336-13.047a9.463 9.463 0 0 0-12.993 3.344l16.33 9.703z"/><path fill="#DFD2B9" d="M231.575 65.97l4.83-8.193-.015-.012c-4.51-2.678-10.33-1.183-12.995 3.344l8.18 4.86z"/><path fill="#F1ECE0" d="M235.86 68.518c1.71-2.896 3.25-9.124.363-10.84-2.888-1.715-7.3 2.805-9.008 5.703l8.645 5.14z"/><path fill="#F6F4EC" d="M217.346 23.068l20.547 10.905-7.283 13.722-20.547-10.905z"/><path fill="#F1ECE0" d="M217.357 23.077l10.273 5.453-7.284 13.722-10.273-5.453zm37.603 19.066l20.546 10.904-7.283 13.723-20.546-10.904z"/><path fill="#F6F4EC" d="M265.266 47.63l10.225 5.426-7.28 13.723-10.226-5.43z"/></svg>