<svg xmlns="http://www.w3.org/2000/svg" viewBox="0 0 20 20"><g fill="#FFF"><path d="M11.6 12.3l-.6-.6c-.2-.2-.4-.4-.6-.5-.2-.2-.4-.3-.6-.5-.2-.1-.3-.3-.4-.5-.1-.2-.1-.4-.1-.6 0-.2.1-.5.2-.7.2-.2.3-.4.5-.6l.6-.6c.2-.2.4-.5.5-.9.1-.4.2-.8.2-1.3 0-.6-.1-1.1-.4-1.7-.1-.4-.4-.8-.9-1.1h1.3l1.3-.8H8.4c-.6 0-1.2.1-1.9.2-.9.2-1.6.7-2.2 1.4-.7.7-1 1.5-1 2.4 0 1 .3 1.8 1 2.4.7.6 1.5 1 2.5 1 .2 0 .4 0 .7-.1 0 .1 0 .1-.1.2 0 .1-.1.2-.1.2v.4c0 .4.2.9.6 1.5-.5 0-1 .1-1.5.1-.4.2-.9.3-1.4.4-.5.2-1 .4-1.4.7-.4.3-.7.7-.9 1.1-.2.5-.4.9-.4 1.3s.1.8.3 1.2c.2.4.4.7.7.9.3.2.7.4 1.1.6.4.2.8.3 1.2.3.4.1.8.1 1.2.1 1.7 0 3.1-.4 4.1-1.3.9-.8 1.4-1.7 1.4-2.8 0-.4-.1-.7-.2-1-.2-.3-.3-.6-.5-.8zM7.9 8.7c-.3 0-.7-.1-1-.3-.3-.1-.5-.3-.8-.6-.2-.3-.3-.6-.5-.9-.2-.3-.3-.7-.3-1-.1-.3-.1-.7-.1-1 0-.6.2-1.2.5-1.6.3-.5.7-.7 1.4-.7.4 0 .8.1 1.2.4.3.3.5.6.7 1 .2.4.4.8.5 1.3.1.4.2.9.2 1.2 0 .7-.1 1.2-.4 1.6-.3.4-.8.6-1.4.6zm2.7 7.4c-.2.3-.4.5-.7.7-.3.2-.6.3-1 .4-.3.1-.7.1-1.1.1-.4 0-.8-.1-1.2-.1-.4-.1-.8-.2-1.2-.4-.4-.2-.7-.5-.9-.8-.2-.3-.3-.7-.3-1.2 0-.4.1-.7.3-1 .2-.3.4-.6.7-.7.3-.2.6-.3 1-.5.4-.1.7-.2 1.1-.2.3 0 .7-.1 1-.1h.5s.1.1.3.2c.2.1.3.2.3.2.1 0 .2.1.3.2l.3.3c.1.1.2.1.3.3l.3.3c.1.1.1.2.2.3.1.1.1.2.2.3 0 .1.1.2.1.4v.4c-.3.2-.4.6-.5.9z"/><path d="M16 4.4V1.9h-1.2v2.5h-2.5v1.3h2.5v2.5H16V5.7h2.6V4.4z"/></g><g fill="currentColor"><path d="M11.1 12.3l-.6-.6c-.2-.2-.4-.4-.6-.5-.2-.2-.4-.3-.6-.5-.2-.1-.3-.3-.4-.5-.1-.2-.2-.4-.2-.6 0-.2.1-.5.2-.7.2-.2.3-.4.5-.6.3-.1.5-.3.7-.5.2-.2.4-.5.5-.9.1-.4.2-.8.2-1.3 0-.6-.1-1.1-.4-1.7-.1-.5-.5-.9-1-1.2h1.3l1.3-.8H7.8c-.6 0-1.2.1-1.8.2-.9.2-1.7.7-2.3 1.4-.6.7-1 1.5-1 2.4 0 1 .3 1.8 1 2.4.7.6 1.5 1 2.5 1 .2 0 .4 0 .7-.1 0 .1 0 .1-.1.2 0 .1-.1.2-.1.2v.4c0 .4.2.9.6 1.5-.5 0-1 .1-1.5.1-.5.1-1 .2-1.5.4s-1 .4-1.4.7c-.3.3-.7.7-.9 1.1-.2.5-.4.9-.4 1.3s.1.8.3 1.2c.2.4.4.6.8.9.3.2.7.4 1.1.6l1.2.3c.4.1.8.1 1.2.1 1.7 0 3.1-.4 4.1-1.3.9-.8 1.4-1.7 1.4-2.8 0-.4-.1-.7-.2-1-.1-.3-.3-.6-.4-.8zM7.3 8.7c-.3 0-.7-.1-1-.3-.3-.1-.5-.3-.7-.6L5 6.9c-.2-.3-.3-.7-.3-1-.1-.3-.1-.7-.1-1 0-.6.2-1.2.5-1.6.3-.4.8-.7 1.4-.7.4 0 .8.1 1.2.4.3.3.6.6.8 1 .2.4.4.8.5 1.3 0 .4.1.9.1 1.3 0 .7-.1 1.2-.4 1.6-.3.3-.8.5-1.4.5zm2.7 7.4c-.2.3-.4.5-.7.7-.3.2-.6.3-1 .4-.3.1-.7.1-1.1.1-.4 0-.8-.1-1.2-.1-.4-.1-.8-.2-1.2-.4-.4-.2-.7-.5-.9-.8-.2-.3-.3-.7-.3-1.2 0-.4.1-.7.3-1 .2-.3.4-.6.7-.7.3-.2.6-.3 1-.5.4-.1.7-.2 1.1-.2.3 0 .7-.1 1-.1h.5s.1.1.3.2c.2.1.3.2.3.2.1 0 .2.1.3.2-.1 0 0 .1.1.2s.2.1.3.3l.3.3c.1.1.1.2.2.3.1.1.1.2.2.3 0 .1.1.2.1.4v.4c0 .3-.1.7-.3 1z"/><path d="M15.5 4.4V1.9h-1.3v2.5h-2.5v1.3h2.5v2.5h1.3V5.7H18V4.4z"/></g></svg>