<svg xmlns="http://www.w3.org/2000/svg" viewBox="0 0 20 20"><path fill="#FFF" d="M18.8 4.7c-.6.3-1.3.5-2 .6.7-.4 1.3-1.1 1.5-1.9-.7.4-1.4.7-2.2.9-.6-.7-1.6-1.1-2.6-1.1-1.9 0-3.5 1.6-3.5 3.5 0 .3 0 .5.1.8-2.9-.3-5.5-1.7-7.2-3.8-.3.5-.5 1.1-.5 1.8 0 1.2.6 2.3 1.6 2.9-.6 0-1.2-.2-1.6-.4 0 1.7 1.2 3.1 2.8 3.4-.3.1-.6.1-.9.1-.2 0-.4 0-.7-.1.4 1.5 1.7 2.5 3.3 2.6-1.2.9-2.7 1.5-4.4 1.5h-.8C3.2 16.4 5.1 17 7 17c6.5 0 10-5.4 10-10v-.5c.7-.5 1.3-1.1 1.8-1.8z"/><path fill="currentColor" d="M18.4 4.2c-.6.3-1.3.5-2 .6.7-.4 1.3-1.1 1.5-1.9-.7.4-1.4.7-2.2.9-.7-.8-1.6-1.2-2.6-1.2-1.9 0-3.5 1.6-3.5 3.5 0 .3 0 .5.1.8-3-.1-5.5-1.5-7.3-3.7-.3.6-.5 1.2-.5 1.8 0 1.2.6 2.3 1.6 2.9-.6 0-1.1-.2-1.6-.4 0 1.7 1.2 3.1 2.8 3.4-.3.1-.6.1-.9.1-.2 0-.4 0-.7-.1.4 1.4 1.7 2.4 3.3 2.4C5.2 14.4 3.7 15 2.1 15h-.8c1.6 1 3.4 1.6 5.4 1.6 6.5 0 10-5.4 10-10v-.5c.6-.5 1.2-1.2 1.7-1.9z"/></svg>