<svg xmlns="http://www.w3.org/2000/svg" viewBox="0 0 20 20"><path fill="#FFF" d="M18.8 2.2v16.2H2.6V2.2h16.2zM14.6 12c0-.6-.2-1.1-.5-1.4-.3-.4-.8-.6-1.3-.7.4-.2.7-.4.9-.7.2-.4.3-.8.3-1.3 0-.4-.1-.7-.2-1-.2-.3-.4-.5-.7-.7-.3-.1-.6-.2-1-.2-.3 0-.8-.1-1.5-.1H7.5v8.8h3.6c.6 0 1.1-.1 1.5-.2.4-.1.8-.3 1.1-.6.3-.2.5-.5.7-.8.1-.3.2-.7.2-1.1zm-2.8-3.6c0-.1 0-.3-.1-.4-.1-.1-.2-.3-.3-.3-.1-.1-.3-.1-.5-.1H9.8v1.9h1c.2 0 .3 0 .5-.1s.3-.2.4-.3c0-.4.1-.5.1-.7zm.5 3.6c0-.3-.1-.5-.2-.6-.1-.2-.2-.4-.5-.4-.1-.1-.3-.1-.6-.1H9.8v2.2h1.3c.2 0 .4-.1.7-.2.2-.1.3-.2.4-.4.1-.1.1-.3.1-.5z"/><path fill="currentColor" d="M17.9 1.3v16.2H1.7V1.3h16.2zm-4.2 9.8c0-.6-.2-1.1-.5-1.4-.3-.4-.8-.6-1.3-.7.4-.2.7-.4.9-.7.2-.3.3-.7.3-1.1 0-.4-.1-.7-.2-1-.2-.3-.4-.5-.7-.7-.3-.2-.6-.3-.9-.3-.3-.1-.8-.2-1.5-.2H6.7v8.8h3.6c.6 0 1.1-.1 1.5-.2.4-.1.8-.3 1.1-.6.3-.2.5-.5.7-.8.1-.3.1-.6.1-1.1zm-2.8-3.6c0-.1 0-.3-.1-.4-.1-.1-.2-.3-.3-.3-.1-.1-.3-.1-.5-.1H8.9v1.9H10c.2 0 .3 0 .5-.1s.3-.2.4-.3v-.7zm.6 3.6c0-.3-.1-.5-.2-.6-.1-.2-.3-.3-.5-.3-.1-.2-.3-.2-.5-.2H8.9v2.2h1.3c.2 0 .4-.1.7-.2.2-.1.3-.2.4-.4.1-.1.2-.3.2-.5z"/></svg>