<?xml version="1.0" encoding="utf-8"?>
<!-- Generator: Adobe Illustrator 17.1.0, SVG Export Plug-In . SVG Version: 6.00 Build 0)  -->
<!DOCTYPE svg PUBLIC "-//W3C//DTD SVG 1.1//EN" "http://www.w3.org/Graphics/SVG/1.1/DTD/svg11.dtd">
<svg version="1.1" id="Слой_1" xmlns="http://www.w3.org/2000/svg" xmlns:xlink="http://www.w3.org/1999/xlink" x="0px" y="0px"
	 viewBox="0 0 20 20" enable-background="new 0 0 20 20" xml:space="preserve">
<g>
	<path fill="#FFFFFF" d="M11.6,12.3c-0.2-0.2-0.4-0.4-0.6-0.6c-0.2-0.2-0.4-0.4-0.6-0.5c-0.2-0.2-0.4-0.3-0.6-0.5
		c-0.2-0.1-0.3-0.3-0.4-0.5C9.3,10,9.3,9.8,9.3,9.6c0-0.2,0.1-0.5,0.2-0.7c0.2-0.2,0.3-0.4,0.5-0.6c0.2-0.2,0.4-0.4,0.6-0.6
		c0.2-0.2,0.4-0.5,0.5-0.9c0.1-0.4,0.2-0.8,0.2-1.3c0-0.6-0.1-1.1-0.4-1.7C10.8,3.4,10.5,3,10,2.7h1.3l1.3-0.8H8.4
		C7.8,1.9,7.2,2,6.5,2.1C5.6,2.3,4.9,2.8,4.3,3.5C3.6,4.2,3.3,5,3.3,5.9c0,1,0.3,1.8,1,2.4c0.7,0.6,1.5,1,2.5,1c0.2,0,0.4,0,0.7-0.1
		c0,0.1,0,0.1-0.1,0.2c0,0.1-0.1,0.2-0.1,0.2c0,0.1,0,0.1,0,0.2c0,0.1,0,0.2,0,0.2c0,0.4,0.2,0.9,0.6,1.5c-0.5,0-1,0.1-1.5,0.1
		C6,11.8,5.5,11.9,5,12c-0.5,0.2-1,0.4-1.4,0.7c-0.4,0.3-0.7,0.7-0.9,1.1c-0.2,0.5-0.4,0.9-0.4,1.3c0,0.4,0.1,0.8,0.3,1.2
		C2.8,16.7,3,17,3.3,17.2c0.3,0.2,0.7,0.4,1.1,0.6c0.4,0.2,0.8,0.3,1.2,0.3c0.4,0.1,0.8,0.1,1.2,0.1c1.7,0,3.1-0.4,4.1-1.3
		c0.9-0.8,1.4-1.7,1.4-2.8c0-0.4-0.1-0.7-0.2-1C11.9,12.8,11.8,12.5,11.6,12.3z M7.9,8.7c-0.3,0-0.7-0.1-1-0.3
		C6.6,8.3,6.4,8.1,6.1,7.8C5.9,7.5,5.8,7.2,5.6,6.9c-0.2-0.3-0.3-0.7-0.3-1c-0.1-0.3-0.1-0.7-0.1-1c0-0.6,0.2-1.2,0.5-1.6
		C6,2.8,6.4,2.6,7.1,2.6c0.4,0,0.8,0.1,1.2,0.4C8.6,3.3,8.8,3.6,9,4c0.2,0.4,0.4,0.8,0.5,1.3c0.1,0.4,0.2,0.9,0.2,1.2
		c0,0.7-0.1,1.2-0.4,1.6C9,8.5,8.5,8.7,7.9,8.7z M10.6,16.1c-0.2,0.3-0.4,0.5-0.7,0.7c-0.3,0.2-0.6,0.3-1,0.4
		c-0.3,0.1-0.7,0.1-1.1,0.1c-0.4,0-0.8-0.1-1.2-0.1c-0.4-0.1-0.8-0.2-1.2-0.4c-0.4-0.2-0.7-0.5-0.9-0.8c-0.2-0.3-0.3-0.7-0.3-1.2
		c0-0.4,0.1-0.7,0.3-1c0.2-0.3,0.4-0.6,0.7-0.7c0.3-0.2,0.6-0.3,1-0.5c0.4-0.1,0.7-0.2,1.1-0.2c0.3,0,0.7-0.1,1-0.1
		c0.2,0,0.4,0,0.5,0c0,0,0.1,0.1,0.3,0.2c0.2,0.1,0.3,0.2,0.3,0.2c0.1,0,0.2,0.1,0.3,0.2c0.1,0.1,0.2,0.2,0.3,0.3
		c0.1,0.1,0.2,0.1,0.3,0.3c0.1,0.1,0.2,0.2,0.3,0.3c0.1,0.1,0.1,0.2,0.2,0.3c0.1,0.1,0.1,0.2,0.2,0.3c0,0.1,0.1,0.2,0.1,0.4
		c0,0.1,0,0.3,0,0.4C10.8,15.4,10.7,15.8,10.6,16.1z"/>
	<polygon fill="#FFFFFF" points="16,4.4 16,1.9 14.8,1.9 14.8,4.4 12.3,4.4 12.3,5.7 14.8,5.7 14.8,8.2 16,8.2 16,5.7 18.6,5.7
		18.6,4.4 	"/>
</g>
<g>
	<path fill="currentColor" d="M11.1,12.3c-0.2-0.2-0.4-0.4-0.6-0.6c-0.2-0.2-0.4-0.4-0.6-0.5c-0.2-0.2-0.4-0.3-0.6-0.5
		c-0.2-0.1-0.3-0.3-0.4-0.5C8.8,10,8.7,9.8,8.7,9.6c0-0.2,0.1-0.5,0.2-0.7c0.2-0.2,0.3-0.4,0.5-0.6C9.7,8.2,9.9,8,10.1,7.8
		c0.2-0.2,0.4-0.5,0.5-0.9c0.1-0.4,0.2-0.8,0.2-1.3c0-0.6-0.1-1.1-0.4-1.7C10.3,3.4,9.9,3,9.4,2.7h1.3l1.3-0.8H7.8
		C7.2,1.9,6.6,2,6,2.1C5.1,2.3,4.3,2.8,3.7,3.5C3.1,4.2,2.7,5,2.7,5.9c0,1,0.3,1.8,1,2.4c0.7,0.6,1.5,1,2.5,1c0.2,0,0.4,0,0.7-0.1
		c0,0.1,0,0.1-0.1,0.2c0,0.1-0.1,0.2-0.1,0.2c0,0.1,0,0.1,0,0.2c0,0.1,0,0.2,0,0.2c0,0.4,0.2,0.9,0.6,1.5c-0.5,0-1,0.1-1.5,0.1
		c-0.5,0.1-1,0.2-1.5,0.4c-0.5,0.2-1,0.4-1.4,0.7C2.6,13,2.2,13.4,2,13.8c-0.2,0.5-0.4,0.9-0.4,1.3c0,0.4,0.1,0.8,0.3,1.2
		c0.2,0.4,0.4,0.6,0.8,0.9c0.3,0.2,0.7,0.4,1.1,0.6C4.2,17.9,4.6,18,5,18.1c0.4,0.1,0.8,0.1,1.2,0.1c1.7,0,3.1-0.4,4.1-1.3
		c0.9-0.8,1.4-1.7,1.4-2.8c0-0.4-0.1-0.7-0.2-1C11.4,12.8,11.2,12.5,11.1,12.3z M7.3,8.7c-0.3,0-0.7-0.1-1-0.3
		C6,8.3,5.8,8.1,5.6,7.8C5.4,7.5,5.2,7.2,5,6.9c-0.2-0.3-0.3-0.7-0.3-1c-0.1-0.3-0.1-0.7-0.1-1c0-0.6,0.2-1.2,0.5-1.6
		c0.3-0.4,0.8-0.7,1.4-0.7c0.4,0,0.8,0.1,1.2,0.4C8,3.3,8.3,3.6,8.5,4c0.2,0.4,0.4,0.8,0.5,1.3C9,5.7,9.1,6.2,9.1,6.6
		c0,0.7-0.1,1.2-0.4,1.6C8.4,8.5,7.9,8.7,7.3,8.7z M10,16.1c-0.2,0.3-0.4,0.5-0.7,0.7c-0.3,0.2-0.6,0.3-1,0.4
		c-0.3,0.1-0.7,0.1-1.1,0.1c-0.4,0-0.8-0.1-1.2-0.1c-0.4-0.1-0.8-0.2-1.2-0.4c-0.4-0.2-0.7-0.5-0.9-0.8c-0.2-0.3-0.3-0.7-0.3-1.2
		c0-0.4,0.1-0.7,0.3-1c0.2-0.3,0.4-0.6,0.7-0.7c0.3-0.2,0.6-0.3,1-0.5c0.4-0.1,0.7-0.2,1.1-0.2c0.3,0,0.7-0.1,1-0.1
		c0.2,0,0.4,0,0.5,0c0,0,0.1,0.1,0.3,0.2c0.2,0.1,0.3,0.2,0.3,0.2c0.1,0,0.2,0.1,0.3,0.2C9,12.9,9.1,13,9.2,13.1
		c0.1,0.1,0.2,0.1,0.3,0.3c0.1,0.1,0.2,0.2,0.3,0.3c0.1,0.1,0.1,0.2,0.2,0.3c0.1,0.1,0.1,0.2,0.2,0.3c0,0.1,0.1,0.2,0.1,0.4
		c0,0.1,0,0.3,0,0.4C10.3,15.4,10.2,15.8,10,16.1z"/>
	<polygon fill="currentColor" points="15.5,4.4 15.5,1.9 14.2,1.9 14.2,4.4 11.7,4.4 11.7,5.7 14.2,5.7 14.2,8.2 15.5,8.2 15.5,5.7
		18,5.7 18,4.4 	"/>
</g>
</svg>
