<?xml version="1.0" encoding="utf-8"?>
<!-- Generator: Adobe Illustrator 17.1.0, SVG Export Plug-In . SVG Version: 6.00 Build 0)  -->
<!DOCTYPE svg PUBLIC "-//W3C//DTD SVG 1.1//EN" "http://www.w3.org/Graphics/SVG/1.1/DTD/svg11.dtd">
<svg version="1.1" id="Слой_1" xmlns="http://www.w3.org/2000/svg" xmlns:xlink="http://www.w3.org/1999/xlink" x="0px" y="0px"
	 viewBox="0 0 20 20" enable-background="new 0 0 20 20" xml:space="preserve">
<path fill="#FFFFFF" d="M18.8,4.7c-0.6,0.3-1.3,0.5-2,0.6c0.7-0.4,1.3-1.1,1.5-1.9c-0.7,0.4-1.4,0.7-2.2,0.9
	c-0.6-0.7-1.6-1.1-2.6-1.1c-1.9,0-3.5,1.6-3.5,3.5c0,0.3,0,0.5,0.1,0.8C7.2,7.2,4.6,5.8,2.9,3.7C2.6,4.2,2.4,4.8,2.4,5.5
	c0,1.2,0.6,2.3,1.6,2.9C3.4,8.4,2.8,8.2,2.4,8v0c0,1.7,1.2,3.1,2.8,3.4c-0.3,0.1-0.6,0.1-0.9,0.1c-0.2,0-0.4,0-0.7-0.1
	C4,12.9,5.3,13.9,6.9,14c-1.2,0.9-2.7,1.5-4.4,1.5c-0.3,0-0.6,0-0.8,0C3.2,16.4,5.1,17,7,17c6.5,0,10-5.4,10-10l0-0.5
	C17.7,6,18.3,5.4,18.8,4.7z"/>
<path fill="currentColor" d="M18.4,4.2c-0.6,0.3-1.3,0.5-2,0.6c0.7-0.4,1.3-1.1,1.5-1.9c-0.7,0.4-1.4,0.7-2.2,0.9C15,3,14.1,2.6,13.1,2.6
	c-1.9,0-3.5,1.6-3.5,3.5c0,0.3,0,0.5,0.1,0.8C6.7,6.8,4.2,5.4,2.4,3.2C2.1,3.8,1.9,4.4,1.9,5c0,1.2,0.6,2.3,1.6,2.9
	c-0.6,0-1.1-0.2-1.6-0.4v0c0,1.7,1.2,3.1,2.8,3.4c-0.3,0.1-0.6,0.1-0.9,0.1c-0.2,0-0.4,0-0.7-0.1c0.4,1.4,1.7,2.4,3.3,2.4
	C5.2,14.4,3.7,15,2.1,15c-0.3,0-0.6,0-0.8,0c1.6,1,3.4,1.6,5.4,1.6c6.5,0,10-5.4,10-10l0-0.5C17.3,5.6,17.9,4.9,18.4,4.2z"/>
</svg>
