<?xml version="1.0" encoding="utf-8"?>
<!-- Generator: Adobe Illustrator 17.1.0, SVG Export Plug-In . SVG Version: 6.00 Build 0)  -->
<!DOCTYPE svg PUBLIC "-//W3C//DTD SVG 1.1//EN" "http://www.w3.org/Graphics/SVG/1.1/DTD/svg11.dtd">
<svg version="1.1" id="Слой_1" xmlns="http://www.w3.org/2000/svg" xmlns:xlink="http://www.w3.org/1999/xlink" x="0px" y="0px"
	 viewBox="0 0 20 20" enable-background="new 0 0 20 20" xml:space="preserve">
<path fill="#FFFFFF" d="M7.7,5.1c0-0.1,0-0.3,0-0.7c0-0.3,0.2-0.7,0.4-1c0.2-0.4,0.6-0.7,1.1-1C9.7,2.1,10.4,2,11.4,2H14v2.9h-2
	c-0.2,0-0.4,0.1-0.5,0.2c-0.2,0.1-0.2,0.3-0.2,0.4v1.8H14c0,0.4-0.1,0.7-0.1,1l-0.1,0.9c0,0.3-0.1,0.6-0.1,0.8h-2.4v8.1H7.7V10H5.9
	V7.3h1.8V5.1z"/>
<path fill="#3F2114" d="M7.2,4.7c0-0.1,0-0.3,0-0.7c0-0.3,0.2-0.7,0.4-1c0.2-0.4,0.6-0.7,1.1-1c0.5-0.3,1.2-0.4,2.2-0.4h2.7v2.9h-2
	c-0.2,0-0.4,0.1-0.5,0.2c-0.2,0.1-0.2,0.3-0.2,0.4v1.8h2.7c0,0.4-0.1,0.7-0.1,1l-0.1,0.9c0,0.3-0.1,0.6-0.1,0.8h-2.4v8.1H7.2V9.7
	H5.4V6.9h1.8V4.7z"/>
</svg>
