<svg width="77" height="76" viewBox="0 0 77 76" xmlns="http://www.w3.org/2000/svg"><g fill="none" fill-rule="evenodd"><path d="M38.562.466c20.852 0 37.754 16.903 37.754 37.754 0 20.85-16.903 37.754-37.754 37.754C17.712 75.974.808 59.072.808 38.22.808 17.37 17.71.467 38.562.467z" fill="#F2EBDA"/><path d="M34.36 34.08h-.982l-2.782 4.212-2.77-4.21h-.98l3.283 4.86-3.388 4.996h.982l2.884-4.347 2.89 4.35h.968l-3.385-4.997 3.278-4.86zm17.18 6.343c-.347-1.038-.81-1.91-1.385-2.617a5.6 5.6 0 0 0-2.076-1.6 6.203 6.203 0 0 0-2.553-.54l-1.255.26v-.088l1.298-1.254 5.536-10.337v-1.254H38.564v2.81h6.79l2.38-.3-1.688 1.815-5.017 9.688v1.254h2.593c1.672 0 2.977.494 3.914 1.48.937.987 1.405 2.556 1.405 4.703 0 .958-.13 1.837-.39 2.636-.26.796-.627 1.485-1.103 2.066a5.06 5.06 0 0 1-1.688 1.35c-.65.32-1.362.478-2.14.478-.925 0-1.738-.087-2.445-.26a7.086 7.086 0 0 1-1.88-.734l-.866 2.812c.664.317 1.44.562 2.337.735a15 15 0 0 0 2.854.26c1.153 0 2.24-.217 3.266-.65a7.693 7.693 0 0 0 2.682-1.88c.763-.822 1.368-1.838 1.815-3.05.447-1.21.67-2.595.67-4.15.004-1.385-.17-2.597-.516-3.634z" fill="#6B0000"/></g></svg>