<svg width="77" height="76" viewBox="0 0 77 76" xmlns="http://www.w3.org/2000/svg" width="77" height="76"><g fill="none" fill-rule="evenodd"><path d="M38.562.466c20.852 0 37.754 16.903 37.754 37.754 0 20.85-16.903 37.754-37.754 37.754C17.712 75.974.808 59.072.808 38.22.808 17.37 17.71.467 38.562.467z" id="Shape" fill="#F2EBDA"/><path d="M34.36 34.08h-.982l-2.782 4.212-2.77-4.21h-.98l3.283 4.86-3.387 4.996h.982l2.884-4.347 2.89 4.348h.968l-3.385-4.996 3.277-4.86zm17.18 6.343c-.347-1.038-.81-1.91-1.385-2.617-.577-.707-1.27-1.24-2.076-1.6-.807-.36-1.66-.54-2.552-.54l-1.255.26v-.088l1.298-1.254 5.536-10.337v-1.254H38.564v2.81h6.79l2.38-.3-1.688 1.815-5.017 9.688v1.254h2.594c1.672 0 2.977.494 3.914 1.48.937.987 1.405 2.556 1.405 4.703 0 .958-.13 1.837-.39 2.636-.26.797-.627 1.486-1.103 2.067-.476.58-1.038 1.03-1.687 1.35-.65.32-1.362.478-2.14.478-.925 0-1.738-.087-2.445-.26-.706-.173-1.334-.417-1.88-.734l-.866 2.812c.663.317 1.44.562 2.336.735.893.173 1.845.26 2.854.26 1.152 0 2.24-.217 3.265-.65 1.024-.43 1.918-1.058 2.682-1.88.763-.822 1.368-1.838 1.815-3.05.447-1.21.67-2.595.67-4.15.004-1.385-.17-2.597-.516-3.634z" fill="#6B0000"/></g></svg>
