<svg width="100" height="100" viewBox="0 0 100 100" xmlns="http://www.w3.org/2000/svg"><g fill="#000"><path d="M50.09.374C22.53.374.183 23.094.183 51.12c0 22.421 14.3 41.443 34.13 48.153 2.494.47 3.41-1.1 3.41-2.441 0-1.21-.047-5.208-.068-9.448-13.885 3.07-16.815-5.987-16.815-5.987-2.27-5.866-5.54-7.426-5.54-7.426-4.529-3.15.34-3.084.34-3.084 5.012.358 7.65 5.229 7.65 5.229 4.452 7.758 11.676 5.515 14.524 4.218.448-3.28 1.741-5.518 3.169-6.785-11.085-1.283-22.738-5.635-22.738-25.08 0-5.54 1.95-10.066 5.142-13.62-.518-1.278-2.227-6.44.483-13.43 0 0 4.191-1.364 13.728 5.202 3.981-1.124 8.25-1.688 12.492-1.708 4.241.02 8.514.584 12.503 1.708 9.525-6.566 13.71-5.202 13.71-5.202 2.717 6.99 1.008 12.152.49 13.43 3.2 3.554 5.136 8.08 5.136 13.62 0 19.492-11.675 23.783-22.789 25.04 1.79 1.574 3.386 4.662 3.386 9.397 0 6.79-.058 12.255-.058 13.926 0 1.35.898 2.933 3.428 2.434 19.819-6.717 34.1-25.732 34.1-48.146C99.997 23.093 77.653.374 50.09.374"/><path d="M19.085 73.234c-.11.253-.5.328-.855.155-.362-.165-.566-.51-.448-.762.107-.26.498-.332.86-.158.362.165.569.513.443.765M21.107 75.527c-.238.224-.704.12-1.02-.235-.326-.353-.387-.826-.146-1.054.246-.225.697-.12 1.024.234.327.358.39.828.142 1.055M23.074 78.45c-.305.216-.805.013-1.114-.438-.306-.451-.306-.993.006-1.21.31-.216.803-.021 1.116.427.305.458.305 1-.008 1.22M25.77 81.273c-.273.307-.856.224-1.282-.194-.437-.41-.558-.99-.284-1.297.277-.307.863-.22 1.293.194.433.409.565.994.273 1.297M29.49 82.913c-.121.397-.683.578-1.248.409-.564-.174-.934-.64-.82-1.041.118-.4.681-.589 1.25-.408.564.173.935.635.817 1.04M33.574 83.217c.014.418-.466.765-1.06.773-.596.013-1.078-.325-1.085-.737 0-.423.469-.766 1.065-.777.594-.011 1.08.325 1.08.74M37.374 82.559c.071.408-.34.828-.93.94-.58.107-1.116-.145-1.19-.55-.071-.419.348-.838.927-.946.59-.105 1.118.14 1.193.556"/></g></svg>