<svg width="100" height="100" viewBox="0 0 100 100" xmlns="http://www.w3.org/2000/svg"><g fill="none" fill-rule="evenodd"><path d="M50 0C22.385 0 0 22.381 0 50s22.384 50 50 50c27.617 0 50-22.381 50-50S77.618 0 50 0z" fill="#FFF"/><path d="M50 75.643c-13.49 0-24.435-10.946-24.435-24.44 0-11.26 7.616-20.735 17.98-23.573v7.1c-6.581 2.582-11.237 8.982-11.237 16.474C32.308 60.974 40.23 68.9 50 68.9c9.77 0 17.694-7.925 17.694-17.696 0-7.492-4.66-13.892-11.233-16.474v-7.1c10.356 2.838 17.975 12.312 17.975 23.574 0 13.493-10.942 24.44-24.436 24.44zm-3.509-21.351h7.021V19.464h-7.02v34.828zM50.001 0C22.384 0-.001 22.381-.001 50s22.385 50 50.002 50c27.616 0 50-22.381 50-50S77.617 0 50 0z" fill="#E01A22"/></g></svg>