<?xml version="1.0" encoding="utf-8"?>
<!-- Generator: Adobe Illustrator 17.1.0, SVG Export Plug-In . SVG Version: 6.00 Build 0)  -->
<!DOCTYPE svg PUBLIC "-//W3C//DTD SVG 1.0//EN" "http://www.w3.org/TR/2001/REC-SVG-20010904/DTD/svg10.dtd">
<svg version="1.0" id="Слой_1" xmlns="http://www.w3.org/2000/svg" xmlns:xlink="http://www.w3.org/1999/xlink" x="0px" y="0px"
	 viewBox="0 0 42 70" enable-background="new 0 0 42 70" xml:space="preserve">
<path fill="#F1E9DF" d="M0.7,42.4h5.1v5.1H0.7v6.1h5.1v8.9H13v-8.9h26v-6.1H13v-5.2h7.2c7.7,0,12.6-1.9,16.3-5.6
	c3.1-3,4.8-7.2,4.8-12.1c0-6.2-2.4-10.2-6.5-12.9C31.3,9.3,27,8.3,20.5,8.3H5.8v27.9H0.7V42.4z M33.8,24.9c0,3.2-0.9,5.7-3.1,8
	c-2.4,2.2-5.7,3.3-11.6,3.3h-6V14.5h7.1c4.6,0,7.3,0.6,9.7,2.2C32.5,18.5,33.8,21.1,33.8,24.9z"/>
</svg>
