<?xml version="1.0" encoding="utf-8"?>
<!-- Generator: Adobe Illustrator 15.0.0, SVG Export Plug-In . SVG Version: 6.00 Build 0)  -->
<!DOCTYPE svg PUBLIC "-//W3C//DTD SVG 1.1//EN" "http://www.w3.org/Graphics/SVG/1.1/DTD/svg11.dtd">
<svg version="1.1" id="Layer_1" xmlns="http://www.w3.org/2000/svg" xmlns:xlink="http://www.w3.org/1999/xlink" x="0px" y="0px"
	 width="101.5px" height="71px" viewBox="-3 0 101.5 71" enable-background="new -3 0 101.5 71" xml:space="preserve">
<g>
	<path fill="#F1EADF" d="M85.238,25.796h-25.93v5.616v14.903v20.49h33.024V32.431L85.238,25.796z M89.938,64.4
		c-2.128,0-26.108,0-28.231,0c0-1.089,0-9.585,0-18.086V31.412c0-1.69,0-2.86,0-3.219c2.119,0,21.721,0,22.59,0
		c0.573,0.542,5.006,4.687,5.643,5.278C89.938,34.447,89.938,62.216,89.938,64.4z"/>
</g>
<g>
	<path fill="#FFFFFF" d="M31.135,29.191c0.415-0.092,0.87-0.164,1.365-0.216c0.496-0.052,0.991-0.078,1.487-0.078
		c0.53,0,1.051,0.049,1.564,0.146c0.513,0.098,0.971,0.292,1.375,0.579c0.403,0.289,0.731,0.694,0.985,1.219s0.38,1.207,0.38,2.048
		c0,0.76-0.106,1.406-0.32,1.936c-0.213,0.53-0.499,0.962-0.855,1.296c-0.357,0.334-0.769,0.577-1.236,0.726
		c-0.467,0.15-0.948,0.225-1.443,0.225c-0.046,0-0.121,0-0.225,0s-0.213-0.002-0.329-0.008s-0.228-0.015-0.337-0.026
		c-0.109-0.012-0.188-0.023-0.233-0.035v4.166h-2.178V29.191z M33.313,35.051c0.069,0.023,0.199,0.043,0.389,0.061
		c0.19,0.017,0.32,0.026,0.389,0.026c0.253,0,0.496-0.035,0.726-0.104c0.23-0.069,0.435-0.187,0.614-0.354
		c0.178-0.167,0.32-0.398,0.423-0.691c0.104-0.294,0.156-0.666,0.156-1.115c0-0.38-0.049-0.703-0.147-0.968
		c-0.098-0.265-0.231-0.475-0.398-0.631s-0.36-0.268-0.579-0.337c-0.219-0.069-0.45-0.104-0.691-0.104
		c-0.357,0-0.651,0.029-0.882,0.086V35.051z"/>
	<path fill="#FFFFFF" d="M44.047,38.059c0-0.369-0.109-0.683-0.328-0.942c-0.22-0.259-0.493-0.504-0.821-0.735
		c-0.328-0.23-0.686-0.466-1.072-0.708c-0.386-0.242-0.743-0.524-1.071-0.847c-0.328-0.323-0.602-0.703-0.821-1.141
		c-0.219-0.438-0.329-0.974-0.329-1.607c0-0.588,0.089-1.086,0.268-1.495c0.178-0.409,0.423-0.743,0.735-1.002
		c0.311-0.259,0.68-0.45,1.105-0.57c0.427-0.121,0.882-0.182,1.366-0.182c0.587,0,1.135,0.058,1.642,0.173s0.928,0.271,1.262,0.467
		l-0.674,1.918c-0.196-0.138-0.487-0.265-0.873-0.38c-0.386-0.115-0.804-0.173-1.253-0.173s-0.795,0.092-1.037,0.277
		c-0.242,0.184-0.363,0.455-0.363,0.812c0,0.323,0.109,0.608,0.329,0.856c0.219,0.248,0.492,0.487,0.82,0.717
		c0.329,0.23,0.686,0.47,1.072,0.717c0.386,0.248,0.743,0.536,1.071,0.864c0.328,0.328,0.602,0.714,0.821,1.158
		c0.219,0.443,0.328,0.971,0.328,1.582s-0.09,1.141-0.268,1.59c-0.179,0.45-0.433,0.822-0.761,1.115
		c-0.328,0.294-0.724,0.516-1.185,0.666c-0.461,0.149-0.974,0.225-1.538,0.225c-0.715,0-1.34-0.069-1.875-0.207
		c-0.536-0.139-0.948-0.295-1.236-0.467l0.708-1.954c0.23,0.138,0.548,0.276,0.95,0.415c0.403,0.139,0.836,0.208,1.297,0.208
		C43.471,39.407,44.047,38.958,44.047,38.059z"/>
	<path fill="#FFFFFF" d="M47.832,29.071c0.208-0.035,0.441-0.061,0.7-0.078c0.26-0.017,0.524-0.034,0.795-0.052
		c0.271-0.017,0.533-0.029,0.787-0.035c0.253-0.005,0.478-0.008,0.674-0.008c0.956,0,1.755,0.146,2.394,0.44
		c0.64,0.294,1.152,0.709,1.539,1.245c0.386,0.536,0.659,1.178,0.82,1.927c0.162,0.749,0.242,1.584,0.242,2.506
		c0,0.841-0.077,1.645-0.233,2.411c-0.155,0.767-0.429,1.44-0.82,2.022c-0.393,0.582-0.923,1.046-1.591,1.392
		s-1.51,0.518-2.523,0.518c-0.149,0-0.352-0.006-0.604-0.017c-0.254-0.012-0.519-0.026-0.796-0.044
		c-0.276-0.017-0.541-0.033-0.795-0.051c-0.253-0.018-0.449-0.038-0.588-0.061V29.071z M51.013,30.903
		c-0.185,0-0.371,0.003-0.562,0.009s-0.337,0.02-0.44,0.043v8.331c0.034,0.012,0.095,0.021,0.181,0.026
		c0.087,0.006,0.179,0.011,0.277,0.017c0.098,0.006,0.189,0.012,0.276,0.017c0.086,0.006,0.146,0.009,0.182,0.009
		c0.519,0,0.944-0.121,1.278-0.363c0.335-0.242,0.597-0.564,0.787-0.968c0.189-0.403,0.322-0.867,0.397-1.391
		c0.074-0.524,0.112-1.075,0.112-1.651c0-0.53-0.032-1.042-0.095-1.538c-0.063-0.496-0.185-0.931-0.363-1.305
		s-0.433-0.674-0.761-0.899S51.531,30.903,51.013,30.903z"/>
</g>
<g>
	<path fill="#FFFFFF" d="M68.736,42.35h1.139v6.325h-1.139V42.35z"/>
	<path fill="#FFFFFF" d="M72.404,45.566l-0.415-1.111h-0.046l0.145,1.094v3.126h-1.075v-6.37h0.877l1.816,3.181l0.389,1.093h0.054
		l-0.145-1.075V42.35h1.075v6.37h-0.876L72.404,45.566z"/>
	<path fill="#FFFFFF" d="M76.118,42.35c0.108-0.018,0.23-0.031,0.366-0.041c0.136-0.008,0.274-0.018,0.416-0.026
		s0.278-0.015,0.411-0.019c0.132-0.003,0.25-0.004,0.353-0.004c0.5,0,0.917,0.076,1.251,0.23c0.334,0.153,0.603,0.37,0.805,0.65
		c0.201,0.279,0.345,0.615,0.429,1.008c0.084,0.391,0.127,0.828,0.127,1.31c0,0.439-0.041,0.86-0.122,1.261
		c-0.082,0.4-0.225,0.753-0.43,1.057c-0.205,0.305-0.481,0.547-0.831,0.728s-0.789,0.271-1.319,0.271
		c-0.078,0-0.184-0.003-0.316-0.009c-0.133-0.007-0.271-0.014-0.415-0.023c-0.145-0.009-0.283-0.018-0.416-0.026
		c-0.133-0.01-0.235-0.02-0.308-0.032V42.35z M77.781,43.308c-0.097,0-0.194,0.001-0.294,0.005c-0.1,0.002-0.176,0.01-0.23,0.021
		v4.355c0.019,0.007,0.05,0.011,0.095,0.014c0.046,0.004,0.094,0.007,0.145,0.01c0.052,0.003,0.1,0.006,0.145,0.009
		c0.046,0.003,0.077,0.004,0.096,0.004c0.271,0,0.493-0.062,0.668-0.189c0.175-0.126,0.312-0.295,0.411-0.506
		c0.1-0.211,0.169-0.453,0.208-0.728c0.039-0.273,0.059-0.562,0.059-0.862c0-0.277-0.017-0.546-0.05-0.805s-0.096-0.486-0.189-0.683
		c-0.094-0.195-0.226-0.352-0.397-0.469C78.273,43.366,78.052,43.308,77.781,43.308z"/>
	<path fill="#FFFFFF" d="M81.178,42.35c0.108-0.018,0.23-0.031,0.366-0.041c0.136-0.008,0.274-0.018,0.416-0.026
		s0.278-0.015,0.411-0.019c0.132-0.003,0.25-0.004,0.353-0.004c0.5,0,0.917,0.076,1.251,0.23c0.334,0.153,0.603,0.37,0.805,0.65
		c0.201,0.279,0.345,0.615,0.429,1.008c0.084,0.391,0.127,0.828,0.127,1.31c0,0.439-0.041,0.86-0.122,1.261
		c-0.082,0.4-0.225,0.753-0.43,1.057c-0.205,0.305-0.481,0.547-0.831,0.728s-0.789,0.271-1.319,0.271
		c-0.078,0-0.184-0.003-0.316-0.009c-0.133-0.007-0.271-0.014-0.415-0.023c-0.145-0.009-0.283-0.018-0.416-0.026
		c-0.133-0.01-0.235-0.02-0.308-0.032V42.35z M82.841,43.308c-0.097,0-0.194,0.001-0.294,0.005c-0.1,0.002-0.176,0.01-0.23,0.021
		v4.355c0.019,0.007,0.05,0.011,0.095,0.014c0.046,0.004,0.094,0.007,0.145,0.01c0.052,0.003,0.1,0.006,0.145,0.009
		c0.046,0.003,0.077,0.004,0.096,0.004c0.271,0,0.493-0.062,0.668-0.189c0.175-0.126,0.312-0.295,0.411-0.506
		c0.1-0.211,0.169-0.453,0.208-0.728c0.039-0.273,0.059-0.562,0.059-0.862c0-0.277-0.017-0.546-0.05-0.805s-0.096-0.486-0.189-0.683
		c-0.094-0.195-0.226-0.352-0.397-0.469C83.333,43.366,83.111,43.308,82.841,43.308z"/>
</g>
<g>
	<path fill="#FFFFFF" d="M14.022,43.279h-2.289l-0.569,2.22H9.431l2.816-9.78h1.373l2.83,9.78h-1.831L14.022,43.279z M12.108,41.865
		h1.609l-0.555-2.262l-0.222-1.526h-0.055l-0.236,1.54L12.108,41.865z"/>
	<path fill="#FFFFFF" d="M17.323,36.607c0-0.278,0.088-0.506,0.264-0.687c0.176-0.18,0.425-0.271,0.749-0.271
		s0.583,0.088,0.777,0.264c0.194,0.176,0.292,0.407,0.292,0.694s-0.097,0.513-0.292,0.68s-0.453,0.25-0.777,0.25
		s-0.573-0.085-0.749-0.257C17.411,37.109,17.323,36.885,17.323,36.607z M17.504,38.563h1.65v6.936h-1.65V38.563z"/>
</g>
<path fill="none" d="M59.431,7.185c-1.254,0-29.512,0-32.568,0c0,0.518,0,2.205,0,4.641V33.31c0,12.255,0,24.505,0,26.075
	c2.085,0,18.779,0,30.189,0V23.358h10.513c0-4.768,0-8.171,0.001-8.563C66.646,13.942,60.256,7.968,59.431,7.185z"/>
<path fill="#F1EADF" d="M26.863,59.385c0-1.569,0-13.819,0-26.075V11.826c0-2.436,0-4.123,0-4.641c3.056,0,31.314,0,32.568,0
	c0.825,0.783,7.216,6.757,8.135,7.609c-0.001,0.393-0.001,3.796-0.001,8.563h3.453V13.295L60.788,3.729H23.407v8.096v21.487v29.54
	h33.645v-3.468C45.642,59.385,28.948,59.385,26.863,59.385z"/>
<path fill="none" d="M4.949,23.423c0,0.359,0,1.529,0,3.219v14.902c0,8.501,0,16.997,0,18.086c1.174,0,9.027,0,16.176,0V23.423
	C14.931,23.423,6.314,23.423,4.949,23.423z"/>
<path fill="#F1EADF" d="M4.949,59.63c0-1.089,0-9.585,0-18.086V26.642c0-1.69,0-2.859,0-3.219c1.365,0,9.982,0,16.176,0v-2.397
	H2.552v5.616v14.903v20.49h18.573V59.63C13.976,59.63,6.123,59.63,4.949,59.63z"/>
</svg>
