<svg width="140" height="140" viewBox="0 0 140 140" xmlns="http://www.w3.org/2000/svg"><g fill="none"><path d="M70 140c38.66 0 70-31.34 70-70S108.66 0 70 0 0 31.34 0 70s31.34 70 70 70z" fill="#FFDC2E"/><path d="M47.158 103c-2.24 0-4.315-1.44-5.002-3.674l-7.928-25.794c-.84-2.736.718-5.64 3.474-6.476l12.12-3.67V41.871c0-2.686 2.202-4.871 4.908-4.871h46.363c2.705 0 4.907 2.185 4.907 4.871v27.6c0 2.686-2.202 4.871-4.907 4.871H93.21l2.678 8.712a5.12 5.12 0 0 1-.386 3.952 5.183 5.183 0 0 1-3.088 2.523L48.68 102.774a5.245 5.245 0 0 1-1.522.226zM39.28 82.985l4.84 15.746c.51 1.66 2.286 2.6 3.96 2.092L91.815 87.58c1.673-.507 2.618-2.27 2.108-3.93l-2.804-9.122h-6.324l.986 3.194c.08.259.053.538-.075.777a1.023 1.023 0 0 1-.606.497L48.466 90.138a1.029 1.029 0 0 1-1.283-.676l-1.17-3.79a1.013 1.013 0 0 1 .075-.778c.127-.238.345-.417.606-.496l32.453-9.872H67.066l-27.785 8.46zm8.997 3.064l.568 1.84 34.671-10.545-.568-1.842L48.278 86.05zm-11.599-11.53l2.003 6.516 21.378-6.509h-5.012a5.23 5.23 0 0 1-3.708-1.535 4.862 4.862 0 0 1-1.405-2.477L36.68 74.518zm13.143-9.001l-11.521 3.489a3.15 3.15 0 0 0-2.199 3.554l13.72-4.145v-2.898zm2.956 6.018c.511.476 1.198.768 1.951.768h46.364c1.573 0 2.853-1.27 2.853-2.832V41.87c0-1.562-1.28-2.832-2.853-2.832H54.73c-1.574 0-2.853 1.27-2.853 2.832v27.468c0 .854.344 1.63.901 2.197zm47.16-7.575h-7.19a1.023 1.023 0 0 1-1.028-1.02c0-.563.46-1.02 1.028-1.02h7.19c.567 0 1.027.457 1.027 1.02s-.46 1.02-1.028 1.02zm-12.212 0h-7.19a1.023 1.023 0 0 1-1.027-1.02c0-.563.46-1.02 1.027-1.02h7.19c.567 0 1.027.457 1.027 1.02s-.46 1.02-1.027 1.02zm-12.211 0h-7.19a1.023 1.023 0 0 1-1.028-1.02c0-.563.46-1.02 1.028-1.02h7.19c.567 0 1.027.457 1.027 1.02s-.46 1.02-1.027 1.02zm-12.212 0h-7.19a1.023 1.023 0 0 1-1.027-1.02c0-.563.46-1.02 1.027-1.02h7.19c.567 0 1.027.457 1.027 1.02s-.46 1.02-1.027 1.02zm-1.705-7.27h-3.78c-1.507 0-2.732-1.217-2.732-2.712v-3.073c0-1.495 1.225-2.711 2.732-2.711h3.78c1.507 0 2.732 1.216 2.732 2.711v3.073c0 1.495-1.226 2.712-2.732 2.712zm-3.78-6.457a.676.676 0 0 0-.678.672v3.073c0 .371.304.673.678.673h3.78a.676.676 0 0 0 .678-.673v-3.073a.676.676 0 0 0-.678-.672h-3.78z" fill="#000"/></g></svg>