<svg width="140" height="140" viewBox="0 0 140 140" xmlns="http://www.w3.org/2000/svg"><g fill="none"><circle fill="#FFDC2E" cx="70" cy="70" r="70"/><path d="M59.63 65.99a1.141 1.141 0 0 0-1.574-.403L44.672 73.65c-.348.21-.561.588-.561.998 0 .41.213.789.56.998l13.385 8.062a1.146 1.146 0 0 0 1.575-.404 1.17 1.17 0 0 0-.4-1.592l-11.726-7.064 11.727-7.064a1.17 1.17 0 0 0 .399-1.593zM80.37 83.305a1.145 1.145 0 0 0 1.574.403l13.384-8.062c.348-.21.561-.589.561-.998 0-.41-.213-.789-.56-.998l-13.385-8.063a1.141 1.141 0 0 0-1.575.404 1.17 1.17 0 0 0 .4 1.593l11.726 7.064-11.727 7.064a1.169 1.169 0 0 0-.399 1.593zM74.4 65.938L63.693 82.063a1.17 1.17 0 0 0 .313 1.612 1.144 1.144 0 0 0 1.594-.317l10.707-16.125a1.17 1.17 0 0 0-.313-1.612 1.141 1.141 0 0 0-1.594.317z" fill="#000"/><path d="M35.149 37.077c-.635 0-1.149.52-1.149 1.162v63.522c0 .641.514 1.162 1.149 1.162h69.702c.635 0 1.149-.52 1.149-1.162V89.366h-2.298V100.6H36.298V48.697h67.404v40.67H106V38.238c0-.641-.514-1.162-1.149-1.162H35.15zm1.149 2.324h42.51v6.972h-42.51v-6.972zm44.808 6.972v-6.972h22.596v6.972H81.106z" fill="#000"/><path d="M92.443 41.648c-.676 0-1.226.556-1.226 1.24 0 .683.55 1.239 1.226 1.239.675 0 1.225-.556 1.225-1.24 0-.683-.55-1.24-1.225-1.24zM86.162 41.648c-.676 0-1.226.556-1.226 1.24 0 .683.55 1.239 1.226 1.239.675 0 1.225-.556 1.225-1.24 0-.683-.55-1.24-1.225-1.24zM98.723 41.648c-.675 0-1.225.556-1.225 1.24 0 .683.55 1.239 1.225 1.239.676 0 1.226-.556 1.226-1.24 0-.683-.55-1.24-1.226-1.24z" fill="#000"/></g></svg>