<svg width="140" height="140" viewBox="0 0 140 140" xmlns="http://www.w3.org/2000/svg"><g fill="none"><circle fill="#FFDC2E" cx="70" cy="70" r="70"/><path d="M90.552 82.884a1.055 1.055 0 0 0-.128-.027l-8.793-1.313c-1.422-.915-1.556-3.185-1.559-5.644 2.777-2.848 4.509-6.857 4.509-11.291v-.36a9.954 9.954 0 0 0 3.381-7.491v-6.73c0-5.526-4.519-10.023-10.074-10.023H63.235a4.441 4.441 0 0 0-4.324 3.42c-3.869.466-6.877 3.753-6.877 7.725v5.608a9.953 9.953 0 0 0 3.382 7.492v.359c0 4.434 1.732 8.443 4.508 11.291-.002 2.459-.137 4.729-1.558 5.644l-8.793 1.313a1.061 1.061 0 0 0-.128.027c-1.934.54-3.58 1.732-4.759 3.45a9.525 9.525 0 0 0-1.669 5.333v4.345c0 1.811 1.624 3.285 3.62 3.285H93.36c1.996 0 3.62-1.474 3.62-3.285v-4.345c0-1.87-.593-3.763-1.669-5.332-1.179-1.719-2.824-2.912-4.758-3.45zM69.998 80.24c2.95 0 5.698-.945 7.996-2.566.102 1.92.501 4.048 2.07 5.331-.849 4.297-5.063 7.47-10.066 7.47-5.002 0-9.217-3.173-10.065-7.47 1.569-1.283 1.968-3.412 2.07-5.33 2.297 1.62 5.045 2.565 7.995 2.565zM57.53 63.865a1.052 1.052 0 0 0 0-.192v-5.794c0-1.894 1.549-3.434 3.452-3.434h19.162c.583 0 1.056-.471 1.056-1.052 0-.58-.473-1.051-1.056-1.051H60.98c-3.069 0-5.565 2.484-5.565 5.537v3.17a7.859 7.859 0 0 1-1.268-4.291V51.15c0-3.13 2.56-5.678 5.706-5.678.584 0 1.057-.47 1.057-1.051a2.322 2.322 0 0 1 2.324-2.313h14.653c4.39 0 7.96 3.553 7.96 7.92v6.73a7.86 7.86 0 0 1-1.267 4.29v-4.29c0-.58-.473-1.052-1.057-1.052-.583 0-1.057.471-1.057 1.052v7.85c0 7.46-5.593 13.53-12.469 13.53-6.875 0-12.469-6.07-12.469-13.53v-.743zm37.337 32.147c0 .64-.69 1.182-1.507 1.182H46.637c-.816 0-1.506-.541-1.506-1.182v-4.345c0-2.664 1.656-5.824 4.823-6.74l7.973-1.191c1.182 5.109 6.178 8.841 12.071 8.841s10.89-3.732 12.072-8.841l7.973 1.19c3.166.917 4.823 4.077 4.823 6.741v4.345z" fill="#000"/><path d="M40.692 87.11h-3.977c-.344 0-.602-.208-.602-.394v-2.81c0-1.58.972-3.448 2.829-3.999l5.752-.859c.025-.003.049-.009.073-.014l.032-.007c.04-.01.078-.022.115-.036l.027-.012c.03-.012.06-.026.09-.042l.014-.006.028-.016.023-.014c1.28-.727 1.723-2.043 1.876-3.329a9.257 9.257 0 0 0 4.726 1.301 9.205 9.205 0 0 0 4.118-.966c.523-.258.736-.89.476-1.41a1.06 1.06 0 0 0-1.417-.473c-1 .495-2.069.746-3.177.746-4.243 0-7.695-3.76-7.695-8.381v-4.485c0-1.021.835-1.852 1.86-1.852h2.72c.583 0 1.056-.47 1.056-1.051 0-.58-.473-1.051-1.057-1.051h-2.718c-2.191 0-3.974 1.773-3.974 3.954v.55a4.754 4.754 0 0 1-.14-1.145v-3.628c0-1.821 1.488-3.302 3.318-3.302.584 0 1.057-.471 1.057-1.052 0-.62.507-1.125 1.13-1.125h1.327c.584 0 1.057-.471 1.057-1.052 0-.58-.473-1.051-1.057-1.051h-1.326a3.249 3.249 0 0 0-3.093 2.252c-2.566.43-4.527 2.656-4.527 5.33v3.628c0 1.948.817 3.772 2.254 5.071v.009c0 2.981 1.172 5.674 3.048 7.585-.012 1.337-.115 2.536-.779 3.028l-5.6.836a1.061 1.061 0 0 0-.128.027c-2.91.811-4.431 3.652-4.431 6.04v2.811c0 1.377 1.218 2.497 2.715 2.497h3.977c.584 0 1.057-.471 1.057-1.052 0-.58-.473-1.051-1.057-1.051zM101.566 77.865a1.082 1.082 0 0 0-.129-.027l-5.6-.836c-.664-.492-.767-1.691-.778-3.028 1.875-1.911 3.047-4.604 3.047-7.585v-.009a6.807 6.807 0 0 0 2.255-5.072v-5.672c0-3.053-2.497-5.537-5.566-5.537h-3.381c-.584 0-1.057.47-1.057 1.051 0 .58.473 1.052 1.057 1.052h3.381c1.904 0 3.452 1.54 3.452 3.434v5.673c0 .391-.049.775-.14 1.146v-.552c0-2.18-1.783-3.954-3.974-3.954h-2.719c-.583 0-1.057.471-1.057 1.052 0 .58.474 1.051 1.057 1.051h2.719c1.026 0 1.86.83 1.86 1.851v4.485c0 4.622-3.452 8.382-7.694 8.382a7.104 7.104 0 0 1-3.177-.746 1.06 1.06 0 0 0-1.417.473c-.26.52-.047 1.151.476 1.41a9.257 9.257 0 0 0 8.844-.335c.152 1.286.596 2.602 1.876 3.329l.023.014.027.015.015.007c.03.016.059.03.09.042l.027.011c.037.015.075.027.114.037l.033.007.073.014 5.752.859c1.857.55 2.828 2.42 2.828 3.998v2.811c0 .186-.257.393-.602.393h-3.977c-.583 0-1.057.471-1.057 1.052 0 .58.474 1.051 1.057 1.051h3.977c1.498 0 2.716-1.12 2.716-2.496v-2.811c0-2.388-1.522-5.229-4.431-6.04z" fill="#000"/></g></svg>