<svg width="55" height="55" viewBox="0 0 55 55" xmlns="http://www.w3.org/2000/svg"><g fill="none"><circle fill="#FFDC2E" cx="27.5" cy="27.5" r="27.5"/><g fill="#333"><path d="M35.84 15.913l-2.64 2.612 4.039 4.077 2.084 2.065.443-.439 2.212-2.234-6.138-6.08zm0-.91a.395.395 0 0 0-.307.112l-3.206 3.172a.387.387 0 0 0 0 .552l4.358 4.316 2.348 2.37a.387.387 0 0 0 .551 0l.728-.735 2.524-2.497a.387.387 0 0 0 0-.551l-6.69-6.627a.394.394 0 0 0-.306-.113zM22.37 27.366a.77.77 0 0 0 .23.552l.279.275c.372.368.865.57 1.39.57.526 0 1.02-.202 1.392-.57l1.96-1.941a4.32 4.32 0 0 0 2.769.992h.002a4.33 4.33 0 0 0 3.063-1.26.387.387 0 0 0 0-.551.396.396 0 0 0-.556 0 3.544 3.544 0 0 1-2.508 1.031 3.534 3.534 0 0 1-2.504-1.027.396.396 0 0 0-.556 0l-2.227 2.205c-.445.442-1.223.442-1.669 0l-.278-.276 4.73-4.685c.441-.437.86-.437 1.391-.437.568 0 1.276 0 1.948-.665l1.113-1.103a.387.387 0 0 0 0-.551.396.396 0 0 0-.557 0l-1.113 1.102c-.441.437-.86.437-1.39.437-.57 0-1.277 0-1.948.666l-4.73 4.685a.77.77 0 0 0-.231.551zm13.777-8.024c.433 0 .787-.35.787-.78 0-.43-.354-.78-.787-.78a.784.784 0 0 0-.787.78c0 .43.353.78.787.78zm.902 5.57c-.64.634-.86 1.666-1.071 2.664-.188.885-.383 1.802-.857 2.271l-.557.551a.387.387 0 0 0 0 .551.394.394 0 0 0 .557 0l.557-.55c.639-.634.858-1.665 1.07-2.663.188-.886.384-1.802.857-2.272a.387.387 0 0 0 0-.551.396.396 0 0 0-.556 0zM25.757 39.15c-.22.114-.594.128-.93-.205-.338-.335-.335-.723-.226-.893a.387.387 0 0 0-.085-.514.395.395 0 0 0-.524.028.794.794 0 0 1-1.114 0 .776.776 0 0 1 0-1.102.385.385 0 0 0 0-.552.396.396 0 0 0-.556 0l-.278.276a.793.793 0 0 1-1.113 0 .776.776 0 0 1 0-1.102l.278-.276a.387.387 0 0 0 .034-.513.396.396 0 0 0-.509-.1c-.214.122-.59.108-.916-.214-.345-.342-.344-.721-.232-.88a.388.388 0 0 0-.1-.543.395.395 0 0 0-.548.1c-.318.456-.31 1.247.324 1.875.25.246.52.394.789.464-.09.198-.137.415-.137.638 0 .416.163.808.46 1.102.404.4.975.537 1.494.41.03.354.182.699.454.969.392.387.938.527 1.443.421.049.323.207.66.505.957.364.36.789.504 1.177.504.249 0 .482-.06.675-.16a.388.388 0 0 0 .166-.525.395.395 0 0 0-.531-.165z"/><path d="M19.965 17.509l2.64 2.613-.028.028a.387.387 0 0 0-.19.106l-4.318 4.36-1.875 1.857a.39.39 0 0 0-.082.118l-.07.072-.406-.401-2.255-2.278 6.584-6.475zm.168-.893c.047.019.092.047.13.085l3.177 3.145a.387.387 0 0 1 0 .552l-4.816 4.77-2.311 2.334a.387.387 0 0 1-.551 0l-.675-.682-2.564-2.538a.387.387 0 0 1 0-.551l7.158-7.041a.394.394 0 0 1 .452-.074zm-.513 4.286c.434 0 .787-.35.787-.78 0-.43-.353-.78-.787-.78a.784.784 0 0 0-.787.78c0 .43.353.78.787.78zm3.815 1.229l1.113 1.102a.394.394 0 0 0 .556 0 .387.387 0 0 0 0-.551l-1.112-1.102a.396.396 0 0 0-.557 0 .387.387 0 0 0 0 .55zm7.234 6.063a.396.396 0 0 0-.556 0 .387.387 0 0 0 0 .552l4.173 4.134a.775.775 0 0 1 0 1.102.794.794 0 0 1-1.113 0L29 29.848a.396.396 0 0 0-.557 0 .387.387 0 0 0 0 .551l5.287 5.237a.775.775 0 0 1 0 1.102.794.794 0 0 1-1.113 0l-5.008-4.96a.396.396 0 0 0-.557 0 .387.387 0 0 0 0 .55l4.452 4.41a.775.775 0 0 1 0 1.103.81.81 0 0 1-1.113 0l-.557-.552-3.616-3.582a.396.396 0 0 0-.557 0 .387.387 0 0 0 0 .551l3.617 3.583a.77.77 0 0 1 0 1.103.793.793 0 0 1-1.113 0l-6.692-6.624c-1.02-1.011-1.242-2.285-1.438-3.41-.164-.946-.32-1.84-.923-2.437a.396.396 0 0 0-.557 0 .387.387 0 0 0 0 .551c.427.423.556 1.162.705 2.019.204 1.177.46 2.642 1.656 3.828l6.693 6.624c.306.303.71.456 1.113.456a1.58 1.58 0 0 0 1.112-.456c.224-.222.372-.498.432-.8.577.276 1.328.16 1.794-.303.224-.222.372-.498.432-.8.585.279 1.31.177 1.794-.303a1.55 1.55 0 0 0 0-2.204l-.149-.148c.259-.069.503-.203.706-.403a1.551 1.551 0 0 0 0-2.205l-4.174-4.135z"/></g></g></svg>