<svg width="55" height="55" viewBox="0 0 55 55" xmlns="http://www.w3.org/2000/svg"><g fill="none"><path d="M27.5 55C42.688 55 55 42.688 55 27.5S42.688 0 27.5 0 0 12.312 0 27.5 12.312 55 27.5 55z" fill="#FFDC2E"/><path d="M13.79 18a.378.378 0 0 0-.365.391.38.38 0 0 0 .404.354H44.23V32.23c0 .205.173.372.385.372A.379.379 0 0 0 45 32.23V18.372a.379.379 0 0 0-.385-.372H13.79zm-1.75 1.675a.386.386 0 0 0-.315.218.364.364 0 0 0 .04.372c.08.109.214.167.352.154h30.381v13.467c0 .205.173.372.385.372a.379.379 0 0 0 .385-.372v-13.84a.379.379 0 0 0-.385-.371H12.117a.398.398 0 0 0-.078 0zm-1.655 1.655a.379.379 0 0 0-.385.372V36.62c0 .099.04.193.112.263.073.07.17.11.273.11h7.485c.05.01.103.01.153 0H33.59c.051.01.104.01.154 0h7.428c.102 0 .2-.04.272-.11a.366.366 0 0 0 .113-.263V21.702a.379.379 0 0 0-.385-.372H10.385zm.385.744h6.792v2.046c0 .205.172.372.384.372a.379.379 0 0 0 .385-.372v-2.046h14.95v14.174h-14.95v-5.097a.367.367 0 0 0-.144-.302.395.395 0 0 0-.337-.07.374.374 0 0 0-.288.372v5.097H10.77V22.074zm23.281 0h6.735v14.174h-6.735V22.074zM17.754 25.59c-1.237 0-1.405 1.027-1.405 2.12 0 .995.164 2.01 1.424 2.01 1.247 0 1.386-1.152 1.386-2.01 0-.74.008-2.12-1.405-2.12zm3.194 0c-1.237 0-1.404 1.027-1.404 2.12 0 .995.163 2.01 1.423 2.01 1.247 0 1.386-1.152 1.386-2.01 0-.74.008-2.12-1.405-2.12zm-7.33.074l-.405 2.14.52.036v-.018a.89.89 0 0 1 .75-.372c.494 0 .828.376.828.893 0 .5-.353.874-.828.874-.426 0-.732-.273-.77-.688v-.056h-.596v.056c.024.72.559 1.19 1.366 1.19.86 0 1.462-.592 1.462-1.432 0-.788-.558-1.34-1.346-1.34-.311 0-.537.073-.732.224l.193-.986h1.654v-.52h-2.097zm4.136.446c.344 0 .557.182.674.54.102.313.116.718.115 1.005v.036c0 .281-.015.676-.115.987-.116.356-.336.52-.674.52-.8 0-.789-.966-.789-1.488v-.037c0-.293-.006-.705.097-1.023.117-.362.348-.54.692-.54zm3.194 0c.344 0 .556.182.674.54.102.313.115.718.115 1.005v.036c0 .281-.015.676-.115.987-.117.356-.336.52-.674.52-.8 0-.789-.966-.789-1.488v-.037c0-.293-.006-.705.096-1.023.118-.362.348-.54.693-.54z" fill="#333"/></g></svg>