<svg width="55" height="55" viewBox="0 0 55 55" xmlns="http://www.w3.org/2000/svg"><g fill="none"><circle fill="#FFDC2E" cx="27.5" cy="27.5" r="27.5"/><path d="M45.947 13.07a.494.494 0 0 0-.517-.266l-2.641.407.407-2.64a.495.495 0 0 0-.839-.426l-3.066 3.066a.495.495 0 0 0-.139.274l-.485 3.149-1.755 1.755a12.953 12.953 0 0 0-8.868-3.476 12.96 12.96 0 0 0-9.226 3.818A12.96 12.96 0 0 0 15 27.957a12.96 12.96 0 0 0 3.818 9.225A12.96 12.96 0 0 0 28.043 41a12.96 12.96 0 0 0 9.226-3.818 12.96 12.96 0 0 0 3.818-9.225c0-2.774-.857-5.421-2.48-7.656a.495.495 0 1 0-.8.58 11.97 11.97 0 0 1 2.29 7.076c0 6.646-5.407 12.054-12.054 12.054-6.646 0-12.054-5.408-12.054-12.054 0-6.647 5.408-12.054 12.054-12.054a11.97 11.97 0 0 1 8.169 3.186L33.95 21.35a8.81 8.81 0 0 0-5.907-2.254c-4.885 0-8.86 3.975-8.86 8.86 0 4.886 3.975 8.861 8.86 8.861 4.886 0 8.86-3.975 8.86-8.86a8.85 8.85 0 0 0-1.289-4.608.495.495 0 1 0-.844.514 7.862 7.862 0 0 1 1.144 4.094c0 4.34-3.53 7.87-7.87 7.87s-7.872-3.53-7.872-7.87 3.531-7.871 7.871-7.871c1.935 0 3.768.695 5.207 1.965l-2.267 2.266a4.644 4.644 0 0 0-2.94-1.038 4.683 4.683 0 0 0-4.677 4.678 4.683 4.683 0 0 0 4.677 4.677 4.683 4.683 0 0 0 4.48-6.027.494.494 0 1 0-.947.285 3.692 3.692 0 0 1-3.533 4.753 3.692 3.692 0 0 1-3.688-3.688 3.692 3.692 0 0 1 3.688-3.688c.82 0 1.596.265 2.235.753l-2.585 2.585a.495.495 0 0 0 .7.7l8.874-8.874 2.1-2.1 3.147-.485a.495.495 0 0 0 .275-.139l3.066-3.066a.495.495 0 0 0 .092-.574zm-5.842.726l1.883-1.882-.255 1.654-1.883 1.882.255-1.654zm2.099 2.099l-1.654.255 1.882-1.883 1.654-.255-1.882 1.883z" fill="#333"/></g></svg>