<svg width="55" height="55" viewBox="0 0 55 55" xmlns="http://www.w3.org/2000/svg"><g fill="none"><circle fill="#FFDC2E" cx="27.5" cy="27.5" r="27.5"/><path d="M33.39 14.138c-.134-1.74-1.518-3.269-3.188-3.13l-2.142 6.505-5.339 6.797h-3.383v12.573c4.564 0 6.114 3.117 10.386 3.117h9.42c1.199 0 2.17-1.012 2.17-2.261 0-1.25-.971-2.262-2.17-2.262h-1.893v-.068h2.614c1.198 0 2.17-1.012 2.17-2.261 0-1.25-.972-2.261-2.17-2.261h-1.392v-.136h2.125c1.199 0 2.17-1.013 2.17-2.262s-.971-2.261-2.17-2.261h.234c1.198 0 2.17-1.013 2.17-2.261 0-1.25-.972-2.262-2.17-2.262H31.09c1.943-2.915 2.434-5.825 2.3-7.565v-.002zm7.209 12.088h-2.126H40.6zM19.338 39.591h-7.336V24.3h7.336v15.292z" stroke="#333"/></g></svg>