<svg width="55" height="55" viewBox="0 0 55 55" xmlns="http://www.w3.org/2000/svg"><g fill="none"><circle fill="#FFDC2E" cx="27.5" cy="27.5" r="27.5"/><g transform="translate(16 13)" fill="#333"><path d="M15.771 0H.24v29h22.52V7.05L15.771 0zm.281 1.65l5.073 5.117h-5.073V1.65zM1.198 28.033V.967h13.896v6.766h6.708v20.3H1.198z"/><path d="M5.03 8h4.312a.49.49 0 0 0 .479-.5.49.49 0 0 0-.48-.5H5.03a.49.49 0 0 0-.479.5c0 .277.215.5.48.5z"/><rect x="4.55" y="23" width="13.9" height="1" rx=".5"/><rect x="4.55" y="19" width="13.9" height="1" rx=".5"/><rect x="4.55" y="15" width="13.9" height="1" rx=".5"/><rect x="4.55" y="11" width="13.9" height="1" rx=".5"/></g></g></svg>