<svg xmlns="http://www.w3.org/2000/svg" width="236.363" height="237.662" viewBox="0 0 236.363 237.662"><path fill-rule="evenodd" clip-rule="evenodd" fill="#F2ECDE" d="M118.918 5.486c62.982 0 114.04 51.058 114.04 114.04s-51.058 114.04-114.04 114.04S4.878 182.51 4.878 119.527 55.937 5.486 118.92 5.486z"/><path fill="#4A4A4A" d="M96.74 89.52l-6.623-4.59 6.623-6.45V59.85l-28.98 4.073v18.63l6.626 4.59-6.625 6.448v18.63l28.98-4.072v-18.63zm-9.658 9.98l-9.66 1.358v-5.312l4.416-4.623.828-.115 4.416 3.38v5.313zm0-22.63l-4.416 4.623-.828.115-4.416-3.38v-5.66l9.66-1.356v5.658zm44.156-21.868l-28.978 4.073v48.297l28.978-4.072V55.002zm-10.004 39.7l-8.97 1.26v-28.29l8.97-1.26v28.29zm44.502-44.55l-28.98 4.073v48.3l28.98-4.074V50.154zm-10.004 39.7l-8.97 1.262v-28.29l8.97-1.26v28.29zM91.2 128.443l-10.612 1.49v14.342l3.73-.525v-4.146l6.882-.97v-10.192zm-3.73 7.33l-3.153.442v-3.154l3.154-.443v3.154zm9.257-8.107l-3.73.523v9.02l6.702-.94v1.93l-6.702.94v3.39l10.43-1.465v-14.34l-3.73.523v5.633l-2.972.417v-5.632zm19.058.45v-3.128l-10.43 1.465v14.34l10.43-1.465v-8.812l-6.7.94v-2.397l6.7-.942zm-3.728 6.052v2.555l-2.972.418v-2.555l2.972-.418zm15.826 3.46v-14.34l-8.63 1.212-1.33 10.876-1.225.172v3.65l4.198-.59 1.434-10.89 1.824-.26v10.692l3.73-.524zm11.888-12.622v-3.39l-9.958 1.4v14.34l9.96-1.4v-3.39l-6.23.877v-2.086l3.1-.436v-3.39l-3.1.437v-2.088l6.23-.875zm13.142 9.103v-14.34l-3.73.523-4.118 9.028v-8.447l-3.73.524v14.34l3.73-.523 4.12-9.026v8.447l3.728-.522zm-2.79-15.59v-2.737l-5.997.845v2.736l5.998-.84zm-86.267 50.788l-3.992.56v-6.536l-4.605.646v17.713l4.605-.647v-6.666l3.992-.562v6.666l4.605-.645v-17.71l-4.605.645v6.536zm6.99 10.19l13.202-1.854v-17.71l-13.203 1.854v17.71zm4.604-13.85l3.992-.56v8.693l-3.993.56v-8.693zm10.98 11.662l4.605-.646v-5.12l8.502-1.196v-12.592l-13.107 1.842v17.712zm4.605-13.852l3.896-.547v3.895l-3.895.55v-3.9zm18.936-.246l-3.605-6.416-4.604.646v17.713l4.605-.646v-10.854l3.606 6.354 3.608-7.367v10.854l4.605-.648v-17.71l-4.605.645-3.607 7.43zm10.596 9.3l13.203-1.854v-17.713l-13.204 1.855v17.713zm4.606-13.85l3.992-.562v8.695l-3.992.56v-8.694zm19.193.2l-3.898.547V152l-4.604.647v11.916l8.502-1.195v5.797l4.604-.646v-17.714l-4.605.648v7.406zm8.082-8.543l-2.19 18.02 4.51-.633.353-3.883 4.123-.577.354 3.78 4.51-.632-2.19-17.403-9.47 1.33zm3.123 8.932l.45-4.927 2.32-.326.45 4.8-3.22.452zm22.897-6.15v-6.438l-13.105 1.842v17.71l13.105-1.84v-6.44l-4.604.646v1.932l-3.898.55v-8.696l3.898-.55v1.935l4.604-.65z"/></svg>