<?xml version="1.0" encoding="utf-8"?>
<!-- Generator: Adobe Illustrator 15.0.0, SVG Export Plug-In . SVG Version: 6.00 Build 0)  -->
<!DOCTYPE svg PUBLIC "-//W3C//DTD SVG 1.1//EN" "http://www.w3.org/Graphics/SVG/1.1/DTD/svg11.dtd">
<svg version="1.1" id="Layer_1" xmlns="http://www.w3.org/2000/svg" xmlns:xlink="http://www.w3.org/1999/xlink" x="0px" y="0px"
	 width="236.363px" height="237.662px" viewBox="0 0 236.363 237.662" enable-background="new 0 0 236.363 237.662"
	 xml:space="preserve">
<path fill-rule="evenodd" clip-rule="evenodd" fill="#F2ECDE" d="M118.918,5.486c62.982,0,114.039,51.058,114.039,114.04
	S181.9,233.567,118.918,233.567S4.879,182.509,4.879,119.526S55.936,5.486,118.918,5.486z"/>
<g>
	<g>
		<path fill="#4A4A4A" d="M96.74,89.519l-6.623-4.588l6.623-6.451V59.851l-28.979,4.072v18.629l6.625,4.59l-6.625,6.449v18.63
			l28.979-4.073V89.519z M87.082,99.501l-9.66,1.357v-5.312l4.416-4.623l0.828-0.115l4.416,3.381V99.501z M87.082,76.87
			l-4.416,4.623l-0.828,0.115l-4.416-3.381v-5.658l9.66-1.357V76.87z M131.238,55.002l-28.978,4.073v48.297l28.978-4.072V55.002z
			 M121.234,94.701l-8.969,1.261V67.673l8.969-1.26V94.701z M165.736,50.153l-28.979,4.072v48.299l28.979-4.073V50.153z
			 M155.732,89.853l-8.969,1.261V62.825l8.969-1.262V89.853z M91.199,128.442l-10.611,1.49v14.342l3.729-0.525v-4.145l6.883-0.969
			V128.442z M87.471,135.771l-3.154,0.443v-3.154l3.154-0.443V135.771z M96.727,127.665l-3.729,0.523v9.021l6.701-0.941v1.93
			l-6.701,0.941v3.389l10.43-1.465v-14.34l-3.729,0.523v5.633l-2.973,0.418V127.665z M115.785,128.116v-3.129l-10.429,1.465v14.34
			l10.429-1.465v-8.812l-6.7,0.941v-2.398L115.785,128.116z M112.057,134.167v2.555l-2.972,0.418v-2.555L112.057,134.167z
			 M127.883,137.626v-14.34l-8.631,1.213l-1.328,10.877l-1.226,0.172v3.65l4.198-0.59l1.434-10.891l1.824-0.258v10.691
			L127.883,137.626z M139.771,125.005v-3.389l-9.959,1.398v14.342l9.959-1.4v-3.391l-6.23,0.877v-2.086l3.102-0.436v-3.391
			l-3.102,0.438v-2.088L139.771,125.005z M152.912,134.108v-14.34l-3.729,0.523l-4.119,9.027v-8.447l-3.729,0.523v14.34l3.729-0.523
			l4.119-9.027v8.447L152.912,134.108z M150.123,118.519v-2.738l-5.998,0.844v2.736L150.123,118.519z M63.855,169.306l-3.992,0.561
			v-6.537l-4.605,0.646v17.713l4.605-0.646v-6.666l3.992-0.562v6.666l4.605-0.646v-17.711l-4.605,0.646V169.306z M70.844,179.497
			l13.203-1.855v-17.711l-13.203,1.855V179.497z M75.449,165.647l3.993-0.561v8.693l-3.993,0.562V165.647z M86.43,177.308
			l4.605-0.646v-5.121l8.502-1.195v-12.592l-13.107,1.842V177.308z M91.035,163.456l3.896-0.547v3.896l-3.896,0.549V163.456z
			 M109.971,163.21l-3.606-6.416l-4.604,0.646v17.713l4.604-0.646v-10.854l3.606,6.354l3.607-7.367v10.854l4.605-0.648v-17.711
			l-4.605,0.646L109.971,163.21z M120.566,172.511l13.203-1.855v-17.713l-13.203,1.855V172.511z M125.172,158.659l3.992-0.561v8.695
			l-3.992,0.561V158.659z M144.365,158.86l-3.898,0.547v-7.406l-4.604,0.646v11.916l8.502-1.195v5.797l4.604-0.646v-17.713
			l-4.604,0.648V158.86z M152.447,150.317l-2.189,18.02l4.508-0.633l0.354-3.883l4.123-0.578l0.354,3.781l4.51-0.633l-2.191-17.404
			L152.447,150.317z M155.57,159.249l0.451-4.926l2.318-0.326l0.451,4.801L155.57,159.249z M178.467,153.101v-6.439l-13.105,1.842
			v17.711l13.105-1.842v-6.439l-4.604,0.646v1.932l-3.898,0.549v-8.695l3.898-0.549v1.934L178.467,153.101z"/>
	</g>
</g>
</svg>
