<?xml version="1.0" encoding="utf-8"?>
<!-- Generator: Adobe Illustrator 15.0.0, SVG Export Plug-In . SVG Version: 6.00 Build 0)  -->
<!DOCTYPE svg PUBLIC "-//W3C//DTD SVG 1.1//EN" "http://www.w3.org/Graphics/SVG/1.1/DTD/svg11.dtd">
<svg version="1.1" id="Layer_1" xmlns="http://www.w3.org/2000/svg" xmlns:xlink="http://www.w3.org/1999/xlink" x="0px" y="0px"
	 width="121.416px" height="120.098px" viewBox="390.584 120.098 121.416 120.098"
	 enable-background="new 390.584 120.098 121.416 120.098" xml:space="preserve">
<polygon fill="#081D27" points="428.602,201.438 420.868,211.211 422.561,212.356 429.492,202.041 "/>
<polygon fill="#081D27" points="430.325,202.604 429.492,202.041 422.561,212.356 424.274,213.516 "/>
<path fill="#081D27" d="M431.709,202.164c-0.595,0.883-1.789,1.116-2.67,0.521c-0.881-0.596-1.113-1.795-0.521-2.678
	c0.596-0.883,1.79-1.116,2.67-0.521C432.07,200.082,432.302,201.28,431.709,202.164z"/>
<path fill="#081D27" d="M429.245,202.476c-0.88-0.596-1.111-1.794-0.52-2.677c0.044-0.065,0.096-0.118,0.145-0.174
	c-0.131,0.11-0.25,0.233-0.352,0.381c-0.594,0.883-0.358,2.082,0.521,2.678c0.816,0.552,1.897,0.384,2.523-0.347
	C430.924,202.886,429.978,202.972,429.245,202.476z"/>
<path opacity="0.15" fill="#081D27" d="M416.658,206.843l-2.637-1.785c0,0,0,0,0,0l-8.75-5.924
	c-6.882,10.237-4.199,24.127,5.98,31.05v0c0.003,0.001,0.005,0.004,0.008,0.005c0.01,0.007,0.019,0.015,0.028,0.021
	c0.118,0.08,0.242,0.141,0.36,0.218c0.007,0.005,0.014,0.011,0.021,0.016c0.118,0.08,0.24,0.145,0.361,0.215
	c3.646,2.269,7.702,3.383,11.727,3.38c5.728-0.005,11.372-2.219,15.604-6.385c1.059-1.042,2.028-2.205,2.89-3.486L416.658,206.843z"
	/>
<polygon fill="none" points="414.099,245.631 434.748,245.631 415.851,240.196 "/>
<path fill="none" d="M440.542,245.631h0.353l-2.068-4.158c-5.857-0.171-11.483-1.257-16.736-3.135l-3.282,1.042L440.542,245.631z"/>
<path fill="none" d="M419.7,237.417c-0.873-0.36-1.736-0.739-2.586-1.142l-0.704,2.187L419.7,237.417z"/>
<path fill="#F1ECE0" d="M421.989,215.921l-6.324,19.63c0.48,0.246,0.961,0.492,1.449,0.724l2.221-6.895l12.616,4.147l-12.251,3.89
	c0.788,0.324,1.584,0.632,2.39,0.92l13.106-4.161l3.63,7.296c0.538,0.016,1.074,0.041,1.616,0.041c0.063,0,0.126-0.004,0.189-0.005
	l-12.729-25.588H421.989z M434.441,232.663l-13.232-4.351l8.618-4.928L434.441,232.663z M420.061,227.124l3.094-9.601h3.756
	l2.202,4.425L420.061,227.124z"/>
<polygon fill="#F6F4EC" points="443.602,186.438 435.868,196.211 437.561,197.356 444.492,187.041 "/>
<polygon fill="#F1ECE0" points="445.325,187.604 444.492,187.041 437.561,197.356 439.274,198.516 "/>
<path fill="#F1ECE0" d="M446.709,187.164c-0.595,0.883-1.789,1.116-2.67,0.521c-0.881-0.596-1.113-1.795-0.521-2.678
	c0.596-0.883,1.79-1.116,2.67-0.521C447.07,185.082,447.302,186.28,446.709,187.164z"/>
<path fill="#DFD2B9" d="M444.245,187.476c-0.88-0.596-1.111-1.794-0.52-2.677c0.044-0.065,0.096-0.118,0.145-0.174
	c-0.131,0.11-0.25,0.233-0.352,0.381c-0.594,0.883-0.358,2.082,0.521,2.678c0.816,0.552,1.897,0.384,2.523-0.347
	C445.924,187.886,444.978,187.972,444.245,187.476z"/>
<path fill="#F6F4EC" d="M419.271,185.135c-6.891,10.25-4.194,24.163,6.017,31.077c10.213,6.913,24.074,4.208,30.963-6.042
	L419.271,185.135z"/>
<path fill="#DFD2B9" d="M437.724,197.628l-12.472,18.557c0.013,0.008,0.025,0.017,0.038,0.027
	c10.211,6.913,24.072,4.208,30.961-6.042L437.724,197.628z"/>
<path fill="#F1ECE0" d="M428.021,191.058c-4.409,6.562-8.889,20.961-2.353,25.388c6.539,4.427,17.517-5.571,21.927-12.133
	L428.021,191.058z"/>
<g>
	<path fill="#C52018" d="M428.69,200.148c-0.334,0.078-0.622,0.287-0.807,0.577c-0.201,0.315-0.27,0.659-0.171,1.019
		c0.093,0.34,0.304,0.631,0.597,0.819c0.173,0.109,0.331,0.152,0.554,0.211l0.418-0.661c-0.203,0.065-0.438,0.036-0.618-0.079
		c-0.342-0.218-0.419-0.606-0.208-0.94c0.211-0.331,0.604-0.445,0.941-0.229c0.076,0.049,0.146,0.114,0.199,0.184
		c0.188-0.101,0.372-0.206,0.559-0.304c-0.121-0.17-0.26-0.313-0.438-0.426C429.418,200.127,429.035,200.065,428.69,200.148z"/>
	<path fill="#C52018" d="M431.545,202.326c-0.048-0.151-0.142-0.289-0.277-0.373c-0.1-0.065-0.271-0.092-0.349,0.026
		c-0.08,0.124,0.041,0.266,0.114,0.359l0.116,0.132c0.239,0.275,0.372,0.569,0.152,0.913c-0.133,0.21-0.321,0.395-0.582,0.431
		c-0.256,0.034-0.515-0.049-0.729-0.185c-0.27-0.17-0.474-0.426-0.591-0.716l0.518-0.295c0.062,0.208,0.16,0.412,0.35,0.533
		c0.132,0.082,0.312,0.106,0.404-0.045c0.102-0.155-0.083-0.345-0.181-0.456c-0.283-0.318-0.456-0.554-0.192-0.965
		c0.273-0.431,0.759-0.515,1.186-0.246c0.214,0.137,0.434,0.369,0.553,0.597L431.545,202.326z"/>
	<path fill="#C52018" d="M433.527,203.588c-0.045-0.149-0.141-0.287-0.274-0.374c-0.103-0.065-0.274-0.09-0.351,0.027
		c-0.078,0.125,0.042,0.266,0.115,0.358l0.113,0.132c0.242,0.275,0.374,0.569,0.156,0.911c-0.135,0.21-0.324,0.398-0.583,0.433
		c-0.256,0.036-0.516-0.049-0.73-0.185c-0.267-0.17-0.472-0.426-0.593-0.716l0.521-0.295c0.06,0.209,0.161,0.411,0.35,0.533
		c0.13,0.083,0.309,0.105,0.402-0.046c0.101-0.154-0.084-0.345-0.182-0.453c-0.282-0.319-0.453-0.555-0.191-0.967
		c0.272-0.43,0.759-0.516,1.185-0.245c0.214,0.136,0.436,0.37,0.554,0.596L433.527,203.588z"/>
	<path fill="#C52018" d="M435.513,204.852c-0.047-0.151-0.142-0.289-0.275-0.373c-0.103-0.065-0.274-0.092-0.35,0.026
		c-0.079,0.124,0.039,0.265,0.115,0.358l0.115,0.133c0.239,0.275,0.373,0.569,0.153,0.911c-0.135,0.21-0.323,0.396-0.585,0.432
		c-0.255,0.035-0.516-0.047-0.728-0.183c-0.268-0.17-0.472-0.426-0.593-0.716l0.52-0.295c0.062,0.208,0.16,0.412,0.351,0.531
		c0.13,0.083,0.309,0.106,0.403-0.044c0.099-0.154-0.085-0.345-0.182-0.455c-0.283-0.318-0.454-0.554-0.192-0.965
		c0.274-0.431,0.761-0.517,1.186-0.246c0.213,0.136,0.435,0.369,0.554,0.596L435.513,204.852z"/>
	<path fill="#C52018" d="M437.022,208.026l-0.614-0.391l-0.002-1.147l-0.006-0.004l-0.521,0.816l-0.552-0.351l1.351-2.122
		l0.825,0.524c0.42,0.269,0.609,0.67,0.321,1.124c-0.187,0.292-0.51,0.442-0.845,0.305L437.022,208.026z M436.627,206.128
		l0.053,0.034c0.18,0.115,0.402,0.211,0.552-0.021c0.146-0.23-0.035-0.394-0.214-0.509l-0.055-0.034L436.627,206.128z"/>
</g>
<circle fill="#DFD2B9" cx="424.854" cy="218.146" r="3.495"/>
<circle fill="#F6F4EC" cx="425.115" cy="217.612" r="3.495"/>
<path fill="#F5AB31" d="M484.59,187.382c0,0.889-0.036,1.77-0.09,2.646l1.847,0.002c0.053-0.876,0.086-1.758,0.086-2.647
	c0-24.538-19.887-44.512-44.389-44.667l-0.073,1.84C465.491,144.671,484.59,163.835,484.59,187.382z"/>
<path fill="#F5AB31" d="M439.891,151.944c20.823,0,37.768,16.942,37.768,37.766c0,0.889-0.043,1.768-0.104,2.642l1.848,0.002
	c0.059-0.875,0.099-1.754,0.099-2.644c0-21.84-17.77-39.608-39.608-39.608c-0.126,0-0.249,0.008-0.374,0.009l-0.073,1.844
	C439.593,151.953,439.74,151.944,439.891,151.944z"/>
<path fill="#F5AB31" d="M437.562,159.246c18.081,0,32.791,14.71,32.791,32.792c0,0.889-0.047,1.767-0.115,2.637l1.848,0.001
	c0.065-0.872,0.11-1.75,0.11-2.639c0-19.097-15.537-34.634-34.635-34.634c-0.191,0-0.38,0.012-0.569,0.015l-0.073,1.844
	C437.134,159.259,437.347,159.246,437.562,159.246z"/>
</svg>
