<svg xmlns="http://www.w3.org/2000/svg" width="121.416" height="120.098" viewBox="390.584 120.098 121.416 120.098"><path fill="#081D27" d="M428.602 201.438l-7.734 9.773 1.693 1.146 6.932-10.315z"/><path fill="#081D27" d="M430.325 202.604l-.833-.563-6.93 10.316 1.712 1.16z"/><path fill="#081D27" d="M431.71 202.164a1.92 1.92 0 0 1-2.67.52 1.935 1.935 0 0 1-.522-2.677 1.92 1.92 0 0 1 2.67-.52 1.933 1.933 0 0 1 .52 2.677z"/><path fill="#081D27" d="M429.245 202.476a1.935 1.935 0 0 1-.52-2.677c.044-.066.096-.12.145-.175-.13.11-.25.233-.352.38a1.935 1.935 0 0 0 .52 2.68 1.91 1.91 0 0 0 2.524-.348 1.91 1.91 0 0 1-2.317.14z"/><path opacity=".15" fill="#081D27" d="M416.658 206.843l-2.637-1.785-8.75-5.924c-6.88 10.237-4.198 24.127 5.98 31.05.004 0 .006.004.01.005.01.006.018.014.027.02.118.08.242.14.36.218l.02.016c.12.08.24.145.362.215 3.645 2.268 7.7 3.382 11.726 3.38a22.275 22.275 0 0 0 18.494-9.872l-25.592-17.325z"/><path fill="none" d="M414.1 245.63h20.648l-18.897-5.434zM440.542 245.63h.353l-2.068-4.157a54.346 54.346 0 0 1-16.736-3.135l-3.28 1.042 21.732 6.25zM419.7 237.417a54.79 54.79 0 0 1-2.586-1.142l-.704 2.187 3.29-1.045z"/><path fill="#F1ECE0" d="M421.99 215.92l-6.325 19.63c.48.247.96.493 1.45.725l2.22-6.895 12.616 4.147-12.25 3.89c.788.324 1.584.632 2.39.92l13.106-4.16 3.63 7.295c.538.016 1.074.04 1.616.04.063 0 .126-.003.19-.004L427.9 215.92h-5.913zm12.45 16.743l-13.23-4.35 8.617-4.93 4.614 9.28zm-14.38-5.54l3.095-9.6h3.756l2.203 4.425-9.052 5.176z"/><path fill="#F6F4EC" d="M443.602 186.438l-7.734 9.773 1.693 1.146 6.932-10.315z"/><path fill="#F1ECE0" d="M445.325 187.604l-.833-.563-6.93 10.316 1.712 1.16z"/><path fill="#F1ECE0" d="M446.71 187.164a1.92 1.92 0 0 1-2.67.52 1.935 1.935 0 0 1-.522-2.677 1.92 1.92 0 0 1 2.67-.52 1.933 1.933 0 0 1 .52 2.677z"/><path fill="#DFD2B9" d="M444.245 187.476a1.935 1.935 0 0 1-.52-2.677c.044-.066.096-.12.145-.175-.13.11-.25.233-.352.38a1.935 1.935 0 0 0 .52 2.68 1.91 1.91 0 0 0 2.524-.348 1.91 1.91 0 0 1-2.317.14z"/><path fill="#F6F4EC" d="M419.27 185.135c-6.89 10.25-4.193 24.163 6.018 31.077 10.213 6.913 24.074 4.208 30.963-6.042l-36.98-25.035z"/><path fill="#DFD2B9" d="M437.724 197.628l-12.472 18.557a.444.444 0 0 1 .038.027c10.21 6.913 24.072 4.208 30.96-6.042l-18.526-12.542z"/><path fill="#F1ECE0" d="M428.02 191.058c-4.408 6.562-8.888 20.96-2.352 25.388 6.54 4.427 17.517-5.57 21.927-12.133l-19.574-13.255z"/><g fill="#C52018"><path d="M428.69 200.148a1.315 1.315 0 0 0-.807.577c-.2.315-.27.66-.17 1.02.092.34.303.63.596.818.172.11.33.152.553.21l.418-.66a.747.747 0 0 1-.617-.08c-.342-.217-.42-.605-.208-.94.21-.33.604-.444.94-.228.077.05.147.114.2.184.188-.102.372-.207.56-.305a1.56 1.56 0 0 0-.44-.426 1.345 1.345 0 0 0-1.025-.172zM431.545 202.326a.676.676 0 0 0-.277-.373c-.1-.065-.27-.092-.35.026-.08.123.042.265.115.358l.116.132c.238.275.37.57.15.913-.132.21-.32.395-.58.43-.257.035-.516-.048-.73-.184a1.514 1.514 0 0 1-.59-.717l.517-.295c.062.208.16.412.35.533.132.083.312.107.404-.044.103-.155-.082-.345-.18-.456-.283-.318-.456-.554-.192-.965.273-.43.76-.515 1.186-.246.214.136.434.368.553.596l-.492.29zM433.527 203.588a.686.686 0 0 0-.274-.374c-.103-.065-.274-.09-.35.027-.08.126.04.267.114.36l.113.13c.242.276.374.57.156.912-.135.21-.324.398-.583.433-.256.036-.516-.05-.73-.185a1.56 1.56 0 0 1-.593-.716l.52-.295c.06.208.162.41.35.532.13.083.31.105.403-.046.1-.154-.084-.345-.182-.453-.28-.32-.452-.555-.19-.967.272-.43.76-.516 1.185-.245.214.137.436.37.554.597l-.493.29zM435.513 204.852a.677.677 0 0 0-.275-.373c-.103-.066-.274-.093-.35.025-.08.124.04.265.115.358l.115.133c.24.275.373.57.153.91-.134.21-.322.397-.584.433a1.098 1.098 0 0 1-.728-.184 1.554 1.554 0 0 1-.593-.716l.52-.295c.062.208.16.412.35.53.13.084.31.107.404-.043.098-.154-.086-.345-.183-.455-.283-.318-.454-.554-.192-.965.274-.43.76-.517 1.186-.246.214.136.436.37.555.596l-.492.29zM437.022 208.026l-.614-.39-.002-1.148-.006-.004-.52.816-.553-.35 1.35-2.123.826.524c.42.27.61.67.32 1.125-.186.292-.51.442-.844.305l.042 1.246zm-.395-1.898l.053.034c.18.115.402.21.552-.02.146-.23-.035-.395-.214-.51l-.055-.034-.336.53z"/></g><circle fill="#DFD2B9" cx="424.854" cy="218.146" r="3.495"/><circle fill="#F6F4EC" cx="425.115" cy="217.612" r="3.495"/><path fill="#F5AB31" d="M484.59 187.382c0 .89-.036 1.77-.09 2.646l1.847.002c.053-.876.086-1.758.086-2.647 0-24.538-19.887-44.512-44.39-44.667l-.072 1.84c23.52.115 42.62 19.28 42.62 42.826z"/><path fill="#F5AB31" d="M439.89 151.944c20.824 0 37.77 16.942 37.77 37.766 0 .89-.044 1.768-.105 2.642l1.848.002c.06-.875.1-1.754.1-2.644 0-21.84-17.77-39.608-39.61-39.608-.125 0-.248.008-.373.01l-.073 1.843c.146-.002.293-.01.444-.01z"/><path fill="#F5AB31" d="M437.562 159.246c18.08 0 32.79 14.71 32.79 32.792 0 .89-.046 1.767-.114 2.637h1.848c.065-.87.11-1.75.11-2.638 0-19.097-15.537-34.634-34.635-34.634-.19 0-.38.012-.568.015l-.073 1.844c.214-.003.427-.016.642-.016z"/></svg>