<?xml version="1.0" encoding="utf-8"?>
<!-- Generator: Adobe Illustrator 18.0.0, SVG Export Plug-In . SVG Version: 6.00 Build 0)  -->
<!DOCTYPE svg PUBLIC "-//W3C//DTD SVG 1.1//EN" "http://www.w3.org/Graphics/SVG/1.1/DTD/svg11.dtd">
<svg version="1.1" id="Capa_1" xmlns="http://www.w3.org/2000/svg" xmlns:xlink="http://www.w3.org/1999/xlink" x="0px" y="0px"
	 viewBox="0 0 203.2 393.6" enable-background="new 0 0 203.2 393.6" xml:space="preserve">
<g opacity="0.3" enable-background="new    ">
	<rect x="70.7" y="262.7" fill="#BAA073" width="5.9" height="0"/>
	<path fill="#BAA073" d="M115.3,262.7c18.5-41.1,60.6-94.5,66.2-136.5l0.5-9.9c-0.7-31.8-15.2-59.9-37.5-77.4l-3.3-2.3l0.1-0.1
		C127,26.2,109.8,20.1,91.4,20v0c0,0-0.1,0-0.1,0c0,0,0,0,0,0c0,0,0,0-0.1,0c-0.1,0-0.1,0-0.2,0c-0.1,0-0.1,0-0.2,0c0,0,0,0-0.1,0
		c0,0,0,0,0,0c0,0-0.1,0-0.1,0v0C72.1,20.1,55,26.2,40.7,36.4l0.1,0.1l-3.3,2.3C15.2,56.4,0.7,84.5,0,116.3l0.5,9.9
		c5.6,42,47.7,95.4,66.2,136.5h10.4c0,0,0,0,0,0.1h-0.5v29.7h-2.9l-3-29.7H69l3,29.7H44.7v101.1h90.1V292.5h-25.3l3.7-29.7h-1.7
		l-3.7,29.7h-3v-29.5c0-0.1,0-0.1,0.1-0.2h6.7l0,0h-6.7c0,0,0,0,0,0H115.3z M78.3,292.5v-29.8l12.7,0.1l12-0.1l0.1,29.7H78.3z"/>
</g>
<path fill="#FAF9F6" d="M90.3,242.7l3,29.7H65.9v101.1h90.1V272.5h-25.3l3.7-29.7 M97.9,272.5H95l-3-29.8h5.9V272.5z M124.4,242.7
	v29.8H99.6v-29.8 M132.8,242.7l-3.7,29.8h-3v-29.8"/>
<path fill="#F1EDE1" d="M112.4,0c-18.7,0-36,6.1-50.5,16.4l0.1,0.1l-3.3,2.3C36.5,36.4,21.9,64.5,21.3,96.3l0.5,9.9
	c5.6,42,47.7,95.4,66.2,136.5h24.7V0C112.6,0,112.5,0,112.4,0z"/>
<path fill="#F7F5EE" d="M112.5,0c-9.9,0-19,6.1-26.7,16.4l0.1,0.1l-1.8,2.3C72.4,36.4,64.7,64.5,64.3,96.3l0.2,9.9
	c2.9,42,25.2,95.4,35,136.5h13.1V0C112.6,0,112.6,0,112.5,0z"/>
<path fill="#FDFCF9" d="M112.1,0c18.7,0,36,6.1,50.5,16.4l-0.1,0.1l3.3,2.3c22.2,17.5,36.8,45.6,37.5,77.4l-0.5,9.9
	c-5.6,42-47.7,95.4-66.2,136.5h-24.7V0C111.9,0,112,0,112.1,0z"/>
<path fill="#FAF9F6" d="M112,0c9.9,0,19,6.1,26.7,16.4l-0.1,0.1l1.8,2.3c11.7,17.5,19.4,45.6,19.8,77.4l-0.2,9.9
	c-2.9,42-25.2,95.4-35,136.5h-13.1V0C111.9,0,111.9,0,112,0z"/>
</svg>
