<svg xmlns="http://www.w3.org/2000/svg" viewBox="0 0 203.2 393.6"><path fill="#BAA073" d="M115.3 262.7c18.5-41.1 60.6-94.5 66.2-136.5l.5-9.9c-.7-31.8-15.2-59.9-37.5-77.4l-3.3-2.3.1-.1C127 26.2 109.8 20.1 91.4 20h-.1-.5-.1-.1c-18.5.1-35.6 6.2-49.9 16.4l.1.1-3.3 2.3C15.2 56.4.7 84.5 0 116.3l.5 9.9c5.6 42 47.7 95.4 66.2 136.5h10.4v.1h-.5v29.7h-2.9l-3-29.7H69l3 29.7H44.7v101.1h90.1V292.5h-25.3l3.7-29.7h-1.7l-3.7 29.7h-3V263c0-.1 0-.1.1-.2h6.7-6.7 10.4zm-37 29.8v-29.8l12.7.1 12-.1.1 29.7H78.3z" opacity=".3"/><path fill="#FAF9F6" d="M90.3 242.7l3 29.7H65.9v101.1H156v-101h-25.3l3.7-29.7m-36.5 29.7H95l-3-29.8h5.9v29.8zm26.5-29.8v29.8H99.6v-29.8m33.2 0l-3.7 29.8h-3v-29.8"/><path fill="#F1EDE1" d="M112.4 0c-18.7 0-36 6.1-50.5 16.4l.1.1-3.3 2.3C36.5 36.4 21.9 64.5 21.3 96.3l.5 9.9c5.6 42 47.7 95.4 66.2 136.5h24.7V0h-.3z"/><path fill="#F7F5EE" d="M112.5 0c-9.9 0-19 6.1-26.7 16.4l.1.1-1.8 2.3C72.4 36.4 64.7 64.5 64.3 96.3l.2 9.9c2.9 42 25.2 95.4 35 136.5h13.1V0h-.1z"/><path fill="#FDFCF9" d="M112.1 0c18.7 0 36 6.1 50.5 16.4l-.1.1 3.3 2.3c22.2 17.5 36.8 45.6 37.5 77.4l-.5 9.9c-5.6 42-47.7 95.4-66.2 136.5h-24.7V0h.2z"/><path fill="#FAF9F6" d="M112 0c9.9 0 19 6.1 26.7 16.4l-.1.1 1.8 2.3c11.7 17.5 19.4 45.6 19.8 77.4l-.2 9.9c-2.9 42-25.2 95.4-35 136.5h-13.1V0h.1z"/></svg>