<?xml version="1.0" encoding="utf-8"?>
<!-- Generator: Adobe Illustrator 18.0.0, SVG Export Plug-In . SVG Version: 6.00 Build 0)  -->
<!DOCTYPE svg PUBLIC "-//W3C//DTD SVG 1.1//EN" "http://www.w3.org/Graphics/SVG/1.1/DTD/svg11.dtd">
<svg version="1.1" id="Слой_1" xmlns="http://www.w3.org/2000/svg" xmlns:xlink="http://www.w3.org/1999/xlink" x="0px" y="0px"
	 viewBox="0 0 329.4 114" enable-background="new 0 0 329.4 114" xml:space="preserve">
<g>
	<g>
		<path fill-rule="evenodd" clip-rule="evenodd" fill="#6B0600" d="M329.4,28.5h-330V29h330V28.5z M268.5,56.5L268.5,56.5
			l-21.8-20.3l0,0V36h-247v0.5h246.7l0,0l21.8,20.3l0,0V57h61.5v-0.5H268.5z M246.7,21.8L246.7,21.8l21.8-21.3l0,0h60.9V0h-61v0.4
			l-0.2-0.2l-21.8,21.3l0,0H-0.3V22h247V21.8z M268.5,85l-42.8-41.8l0,0V43h-226v0.5h225.7l0,0l42.8,41.8l0,0v0.2h61.5V85L268.5,85
			L268.5,85z M268.5,113.5l-63.5-63h0.1V50H-0.3v0.5h204.7l0,0l63.8,63.3l0,0v0.2h61.5v-0.5L268.5,113.5L268.5,113.5z M-0.3,84.5
			h61.5V84H-0.3V84.5z M-0.3,113h61.5v-0.5H-0.3V113z"/>
	</g>
</g>
</svg>
