<svg xmlns="http://www.w3.org/2000/svg" width="116" height="207" viewBox="0 0 116 207"><title>lamp</title><g fill="none" fill-rule="evenodd"><path d="M114.8 58c0-31.4-25.3-56.8-56.5-57.2h-.6C26.4 1.2 1.2 26.6 1.2 58c0 16.1 4.9 24.9 10.2 34 4.6 8.1 9.1 16.5 11.2 30.5 0 .3-1.3 28.7-1.3 28.7 0 2.1 1.1 5 2.1 6.8l6.8 8.9c1.1 1.8 2.1 4.6 2.1 6.8v7.5c0 2.1 1.8 3.9 3.9 3.9h3.9c.4.4 0 3.2 0 4.6 0 1.4.4 2.5.7 3.2-.4.7-.7 1.8-.7 2.8 0 2.5 1.4 4.6 3.2 4.6 0 0 5.3 1.1 5.3 1.4 0 2.5 1.4 4.6 3.2 4.6h12.4c1.8 0 3.2-2.1 3.2-4.6 0-.4 5.3-1.4 5.3-1.4 1.8 0 3.2-2.1 3.2-4.6 0-1.1-.4-2.1-.7-2.8.4-.7.7-1.8.7-3.2 0-1.4-.4-4.3 0-4.6h3.9c2.1 0 3.9-1.8 3.9-3.9v-7.5c0-2.1 1.1-5 2.1-6.8l6.8-8.9c1.1-1.8 2.1-4.6 2.1-6.8 0 0-1.3-28.3-1.3-28.7 2.1-14 6.7-22.5 11.2-30.5 5.3-9.1 10.2-17.9 10.2-34z" stroke="#6B0600" stroke-width=".7" stroke-miterlimit="0"/><path d="M105.4 54.3c0-24.1-23.1-43.7-47.2-44h-.6c-24.1.3-46.3 19.9-46.3 44 0 12.4 6.6 29.4 10.6 36.4 3.5 6.2 7 21 8.6 31.8 0 .3-1 31.3-1 31.3 0 1.6.8 3.8 1.6 5.2l5.2 6.8c.8 1.4 1.6 3.6 1.6 5.2v5.7c0 1.6 1.4 3 3 3h3c.3.3 0 2.5 0 3.6s.3 1.9.5 2.5c-.3.5-.5 1.4-.5 2.2 0 1.9 1.1 3.6 2.5 3.6 0 0 4.1.8 4.1 1.1 0 1.9 1.1 3.6 2.5 3.6h9.6c1.4 0 2.5-1.6 2.5-3.6 0-.3 4.1-1.1 4.1-1.1 1.4 0 2.5-1.6 2.5-3.6 0-.8-.3-1.6-.5-2.2.3-.5.5-1.4.5-2.5s-.3-3.3 0-3.6h3c1.6 0 3-1.4 3-3V171c0-1.6.8-3.8 1.6-5.2l5.2-6.8c.8-1.4 1.6-3.6 1.6-5.2 0 0-1-31-1-31.3 1.6-10.8 5.1-25.6 8.6-31.8 4.2-7 11.7-23.9 11.7-36.4z" fill="#F2EBDA"/></g></svg>