<?xml version="1.0" encoding="utf-8"?>
<!-- Generator: Adobe Illustrator 16.0.0, SVG Export Plug-In . SVG Version: 6.00 Build 0)  -->
<!DOCTYPE svg PUBLIC "-//W3C//DTD SVG 1.1//EN" "http://www.w3.org/Graphics/SVG/1.1/DTD/svg11.dtd">
<svg version="1.1" id="Layer_1" xmlns="http://www.w3.org/2000/svg" xmlns:xlink="http://www.w3.org/1999/xlink" x="0px" y="0px"
	 width="17px" height="45px" viewBox="0 0 17 45" enable-background="new 0 0 17 45" xml:space="preserve">
<g>
	<g>
		<path fill="#353635" d="M15.521,10.155c-0.835-0.805-1.968-1.208-3.399-1.208H4.875c-1.372,0-2.49,0.388-3.354,1.163
			c-0.865,0.775-1.297,1.79-1.297,3.042v11.361c0,0.596,0.238,1.014,0.715,1.252c0.478,0.238,0.939,0.238,1.387,0
			c0.448-0.238,0.671-0.656,0.671-1.252V13.6h0.895v29.252c0,1.253,0.611,1.879,1.834,1.879s1.834-0.626,1.834-1.879V25.498h1.879
			v17.354c0,1.253,0.611,1.879,1.834,1.879s1.834-0.626,1.834-1.879V13.6h0.895v10.824c0,0.656,0.225,1.133,0.672,1.432
			c0.445,0.298,0.908,0.298,1.387,0c0.477-0.299,0.715-0.775,0.715-1.432V13.241C16.772,11.989,16.355,10.96,15.521,10.155z
			 M8.409,7.875c1.044,0,1.923-0.373,2.64-1.119c0.716-0.745,1.072-1.64,1.072-2.684c0-1.043-0.356-1.938-1.072-2.684
			C10.332,0.642,9.453,0.27,8.409,0.27c-1.043,0-1.938,0.373-2.684,1.118C4.979,2.132,4.606,3.028,4.606,4.071
			c0,1.044,0.373,1.938,1.118,2.684C6.471,7.501,7.366,7.875,8.409,7.875z"/>
	</g>
</g>
</svg>
