<svg xmlns="http://www.w3.org/2000/svg" width="17" height="45" viewBox="0 0 17 45"><path fill="#353635" d="M15.52 10.155c-.834-.805-1.967-1.208-3.398-1.208H4.875c-1.372 0-2.49.388-3.354 1.163-.864.775-1.296 1.79-1.296 3.042v11.36c0 .597.238 1.015.715 1.253s.938.238 1.386 0c.448-.238.67-.656.67-1.252V13.6h.896v29.252c0 1.253.61 1.88 1.834 1.88s1.834-.627 1.834-1.88V25.498h1.88v17.354c0 1.253.61 1.88 1.833 1.88s1.834-.627 1.834-1.88V13.6h.895v10.824c0 .656.225 1.133.672 1.432.445.298.908.298 1.387 0 .478-.3.716-.775.716-1.432V13.24c-.004-1.25-.42-2.28-1.255-3.085zm-7.11-2.28c1.043 0 1.922-.373 2.64-1.12.715-.744 1.07-1.64 1.07-2.683s-.355-1.938-1.07-2.684C10.33.642 9.452.27 8.41.27c-1.044 0-1.94.373-2.685 1.118-.746.744-1.12 1.64-1.12 2.683 0 1.045.374 1.94 1.12 2.685.746.746 1.64 1.12 2.684 1.12z"/></svg>