<?xml version="1.0" encoding="utf-8"?>
<!-- Generator: Adobe Illustrator 18.0.0, SVG Export Plug-In . SVG Version: 6.00 Build 0)  -->
<!DOCTYPE svg PUBLIC "-//W3C//DTD SVG 1.1//EN" "http://www.w3.org/Graphics/SVG/1.1/DTD/svg11.dtd">
<svg version="1.1" id="Режим_изоляции"
	 xmlns="http://www.w3.org/2000/svg" xmlns:xlink="http://www.w3.org/1999/xlink" x="0px" y="0px" viewBox="0 0 110 111"
	 enable-background="new 0 0 110 111" xml:space="preserve">
<circle fill="none" stroke="#F1EADF" stroke-width="2" stroke-miterlimit="10" cx="55.2" cy="55.7" r="50.8"/>
<circle fill="#F1EADF" cx="38.1" cy="75.5" r="3.8"/>
<circle fill="#F1EADF" cx="93.8" cy="64.1" r="3.8"/>
<circle fill="#F1EADF" cx="46" cy="65.5" r="2.6"/>
<circle fill="#F1EADF" cx="68.4" cy="22.6" r="2.6"/>
<line fill="none" stroke="#FBAF2D" stroke-width="0.75" stroke-miterlimit="10" stroke-dasharray="3" x1="54.4" y1="5" x2="54.4" y2="105.5"/>
<line fill="none" stroke="#FBAF2D" stroke-width="0.75" stroke-miterlimit="10" stroke-dasharray="3" x1="4.5" y1="55.9" x2="105" y2="55.9"/>
<linearGradient id="SVGID_1_" gradientUnits="userSpaceOnUse" x1="79.523" y1="79.8575" x2="79.523" y2="5.706">
	<stop  offset="0" style="stop-color:#FBAF2D"/>
	<stop  offset="9.343886e-03" style="stop-color:#FBAF2D"/>
	<stop  offset="0.2809" style="stop-color:#FBAF2D"/>
	<stop  offset="1" style="stop-color:#E93E3A;stop-opacity:0.5"/>
</linearGradient>
<path opacity="0.7" fill="url(#SVGID_1_)" d="M104.6,55.8c0,8.6-2.2,16.8-6,23.9c0,0.1-0.1,0.2-0.1,0.2L54.5,55.8l0-50.1
	c0,0,0.1,0,0.1,0C82.2,5.7,104.6,28.2,104.6,55.8z"/>
<polygon fill="#FBAF2D" points="97.8,80.2 99,78 54.5,55.6 54.4,56 "/>
<circle fill="#FBAF2D" cx="54.7" cy="55.9" r="1.4"/>
</svg>
