<svg xmlns="http://www.w3.org/2000/svg" viewBox="0 0 110 111"><circle fill="none" stroke="#F1EADF" stroke-width="2" stroke-miterlimit="10" cx="55.2" cy="55.7" r="50.8"/><circle fill="#F1EADF" cx="38.1" cy="75.5" r="3.8"/><circle fill="#F1EADF" cx="93.8" cy="64.1" r="3.8"/><circle fill="#F1EADF" cx="46" cy="65.5" r="2.6"/><circle fill="#F1EADF" cx="68.4" cy="22.6" r="2.6"/><path fill="none" stroke="#FBAF2D" stroke-width=".75" stroke-miterlimit="10" stroke-dasharray="3" d="M54.4 5v100.5M4.5 55.9H105"/><linearGradient id="a" gradientUnits="userSpaceOnUse" x1="79.523" y1="79.858" x2="79.523" y2="5.706"><stop offset="0" stop-color="#fbaf2d"/><stop offset=".009" stop-color="#fbaf2d"/><stop offset=".281" stop-color="#fbaf2d"/><stop offset="1" stop-color="#e93e3a" stop-opacity=".5"/></linearGradient><path opacity=".7" fill="url(#a)" d="M104.6 55.8c0 8.6-2.2 16.8-6 23.9 0 .1-.1.2-.1.2l-44-24.1V5.7h.1c27.6 0 50 22.5 50 50.1z"/><path fill="#FBAF2D" d="M97.8 80.2L99 78 54.5 55.6l-.1.4z"/><circle fill="#FBAF2D" cx="54.7" cy="55.9" r="1.4"/></svg>