<svg xmlns="http://www.w3.org/2000/svg" viewBox="0 0 68.265602 244.26401" height="244.264" width="68.266"><defs><clipPath id="a"><path d="M0 183.198h51.2V0H0z"/></clipPath><clipPath id="b"><path d="M0 168.198h36.2V0H0z"/></clipPath><clipPath id="c"><path d="M8.315 56.954h18.452V0H8.315z"/></clipPath><clipPath id="d"><path d="M0 183.198h51.2V0H0z"/></clipPath><clipPath id="e"><path d="M23.315 71.954h18.452V15H23.315z"/></clipPath><clipPath id="f"><path d="M0 183.198h51.2V0H0z"/></clipPath></defs><g clip-path="url(#a)" transform="matrix(1.33333 0 0 -1.33333 0 244.264)"><g clip-path="url(#b)" opacity=".15"><path d="M6.38 62.788h2.716l-1.228 3.83H6.38z" fill="#081d27"/><path d="M6.38 62.788H4.87l1.226 3.83h.285z" fill="#081d27"/><path d="M6.556 65.914l-.494-3.126h1.79l-.495 3.194M12.123 62.788h2.287l-1.226 3.83h-1.06zM12.123 62.788h-1.94l1.227 3.83h.713z" fill="#081d27"/><path d="M11.87 65.914l-.495-3.126h1.792l-.496 3.194M24.246 62.788h2.564l-1.226 3.83h-1.338zM24.246 62.788h-1.662l1.226 3.83h.436z" fill="#081d27"/><path d="M24.27 65.914l-.494-3.126h1.79l-.494 3.194M29.35 62.788h2.775l-1.226 3.83h-1.55z" fill="#081d27"/><path d="M29.35 62.788H27.9l1.225 3.83h.226z" fill="#081d27"/><path d="M29.586 65.914l-.496-3.126h1.79l-.494 3.194" fill="#081d27"/><path d="M18.158 118.725l-.003-47.148 4.376-.005-.178-6.004 11.508.025-.88 8.86-5.02 27.797-4.81 16.486zM2.158 65.593l11.508-.025-.3 6.004 4.497.004-.002 47.15-4.99.01-4.813-16.486-5.02-27.797z" fill="#081d27"/><path d="M17.994 67.46l4.496-.006.496 47.164-.13 22.135h.036l.693.928-.003 20.58-3.344 7.032-2.24 2.906zM17.893 168.198l-2.24-2.906-3.344-7.032-.004-20.58.692-.927h.035l-.13-22.136.497-47.163 4.497.004z" fill="#081d27"/><path d="M15.664 136.753l-.3.926v20.58l1.452 7.032.975 2.906v-2.723 2.723l.973-2.906 1.452-7.032v-20.58l-.3-.927H19.9l.056-22.135-.216-47.164-1.95.005-1.95-.006-.217 47.164.057 22.135z" fill="#081d27"/><g clip-path="url(#c)" opacity=".4"><path d="M15.824 0l-7.51 56.615 18.452.34z" fill="#081d27"/></g><path d="M17.148 23.542l-5.722 31.522 12.51-.172zM32.81 70.31l3.39-4.673h-3.39zM3.39 70.31L0 65.638h3.39zM17.462 139.35c.228-.223.535-.344.855-.344.348 0 .653.118.885.375.22.244.345.554.345.88 0 .19-.045.335-.11.537h-.728a.7.7 0 0 0 .247-.525c0-.38-.266-.633-.636-.633-.363 0-.648.25-.648.623 0 .086.016.17.045.25-.174.096-.35.188-.52.284a1.452 1.452 0 0 1-.115-.555c0-.33.143-.662.38-.89M17.746 142.68a.636.636 0 0 1-.155-.404c0-.112.066-.262.197-.262.137 0 .188.165.224.27l.048.156c.095.326.26.578.638.578.233 0 .473-.057.63-.242.155-.184.22-.43.22-.665 0-.294-.1-.583-.267-.82l-.49.26c.132.15.24.33.24.54 0 .143-.07.295-.235.295-.17 0-.23-.24-.267-.37-.108-.382-.208-.634-.662-.634-.474 0-.784.34-.784.81 0 .235.073.523.19.73zM17.746 144.868a.635.635 0 0 1-.155-.404c0-.112.066-.26.197-.26.137 0 .188.164.224.27l.048.155c.095.325.26.575.638.575.233 0 .473-.055.63-.24.155-.184.22-.43.22-.666 0-.296-.1-.585-.267-.824l-.49.26c.132.153.24.333.24.54 0 .144-.07.295-.235.295-.17 0-.23-.238-.267-.368-.108-.382-.208-.634-.662-.634-.474 0-.784.338-.784.808 0 .236.073.524.19.733zM17.746 147.056a.632.632 0 0 1-.155-.403c0-.112.066-.26.197-.26.137 0 .188.164.224.27l.048.155c.095.326.26.577.638.577.233 0 .473-.056.63-.242.155-.183.22-.43.22-.665 0-.295-.1-.583-.267-.823l-.49.26c.132.153.24.333.24.54 0 .144-.07.297-.235.297-.17 0-.23-.24-.267-.37-.108-.382-.208-.633-.662-.633-.474 0-.784.337-.784.805 0 .236.073.525.19.733z" fill="#081d27"/><g><path d="M18.193 148.567v.06c0 .198-.036.422-.293.422-.253 0-.292-.225-.292-.423v-.06zm1.29 1.26v-.678l-.9-.576v-.006h.9v-.608h-2.34v.91c0 .462.22.813.72.813.323 0 .603-.18.662-.512z" fill="#081d27"/></g></g></g><path d="M28.508 140.547h3.62l-1.637-5.106H28.51z" fill="#f7f5ee"/><path d="M28.508 140.547h-2.016l1.636-5.106h.38z" fill="#dfd3bb"/><path d="M28.74 136.38l-.658 4.167h2.387l-.66-4.26" fill="#f2eee2"/><path d="M36.164 140.547h3.05l-1.635-5.106h-1.416z" fill="#f7f5ee"/><path d="M36.164 140.547h-2.587l1.636-5.106h.95z" fill="#dfd3bb"/><path d="M35.827 136.38l-.66 4.167h2.39l-.662-4.26" fill="#f2eee2"/><path d="M52.328 140.547h3.42l-1.636-5.106h-1.784z" fill="#f7f5ee"/><path d="M52.328 140.547h-2.216l1.635-5.106h.58z" fill="#dfd3bb"/><path d="M52.36 136.38l-.658 4.167h2.387l-.66-4.26" fill="#f2eee2"/><path d="M59.134 140.547h3.7l-1.636-5.106h-2.064z" fill="#f7f5ee"/><path d="M59.134 140.547h-1.936l1.635-5.106h.3z" fill="#dfd3bb"/><path d="M59.448 136.38l-.66 4.167h2.387l-.66-4.26" fill="#f2eee2"/><path d="M44.21 65.965l-.003 62.864 5.835.005-.24 8.006 15.345-.033-1.172-11.814L57.28 87.93l-6.414-21.98zM22.878 136.807l15.344.033-.4-8.005 5.996-.005-.003-62.866-6.656-.014-6.417 21.98-6.693 37.064z" fill="#f4f1ea"/><path d="M43.992 134.32l5.995.005.66-62.885-.172-29.513h.048l.924-1.238-.004-27.44-4.46-9.375L43.997 0z" fill="#f7f5ee"/><path d="M43.857 0L40.87 3.874l-4.46 9.376-.003 27.442.923 1.234h.047l-.172 29.515.66 62.885 5.997-.005z" fill="#dfd3bb"/><path d="M40.885 41.926l-.4-1.235.002-27.44 1.934-9.376L43.72 0v3.63V0l1.297 3.874 1.936 9.376.002 27.44-.402 1.236h-.02l.075 29.513-.288 62.885-2.6-.007-2.6.007-.29-62.886.077-29.514z" fill="#f2eee2"/><g clip-path="url(#d)" transform="matrix(1.33333 0 0 -1.33333 0 244.264)"><g clip-path="url(#e)" opacity=".4"><path d="M30.824 15l-7.51 56.615 18.452.34z" fill="#eb5e61"/></g></g><path d="M42.863 192.875l-7.63-42.03 16.68.23z" fill="#f8ab0d"/><path d="M63.746 130.515l4.52 6.232h-4.52zM24.52 130.515L20 136.747h4.52z" fill="#f4f1ea"/><g clip-path="url(#f)" transform="matrix(1.33333 0 0 -1.33333 0 244.264)"><path d="M32.462 154.35c.228-.223.535-.344.855-.344.348 0 .653.118.885.375.22.244.345.554.345.88 0 .19-.045.335-.11.537h-.728a.7.7 0 0 0 .247-.525c0-.38-.266-.633-.636-.633-.363 0-.648.25-.648.623 0 .086.016.17.045.25-.174.096-.35.188-.52.284a1.452 1.452 0 0 1-.115-.555c0-.33.143-.662.38-.89M32.746 157.68a.636.636 0 0 1-.155-.404c0-.112.066-.262.197-.262.137 0 .188.165.224.27l.048.156c.095.326.26.578.638.578.233 0 .473-.057.63-.242.155-.184.22-.43.22-.665 0-.294-.1-.583-.267-.82l-.49.26c.132.15.24.33.24.54 0 .143-.07.295-.235.295-.17 0-.23-.24-.267-.37-.108-.382-.208-.634-.662-.634-.474 0-.784.34-.784.81 0 .235.073.523.19.73zM32.746 159.868a.635.635 0 0 1-.155-.404c0-.112.066-.26.197-.26.137 0 .188.164.224.27l.048.155c.095.325.26.575.638.575.233 0 .473-.055.63-.24.155-.184.22-.43.22-.666 0-.296-.1-.585-.267-.824l-.49.26c.132.153.24.333.24.54 0 .144-.07.295-.235.295-.17 0-.23-.238-.267-.368-.108-.382-.208-.634-.662-.634-.474 0-.784.338-.784.808 0 .236.073.524.19.733zM32.746 162.056a.632.632 0 0 1-.155-.403c0-.112.066-.26.197-.26.137 0 .188.164.224.27l.048.155c.095.326.26.577.638.577.233 0 .473-.056.63-.242.155-.183.22-.43.22-.665 0-.295-.1-.583-.267-.823l-.49.26c.132.153.24.333.24.54 0 .144-.07.297-.235.297-.17 0-.23-.24-.267-.37-.108-.382-.208-.633-.662-.633-.474 0-.784.337-.784.805 0 .236.073.525.19.733zM33.193 163.567v.06c0 .198-.036.422-.293.422-.253 0-.292-.225-.292-.423v-.06zm1.29 1.26v-.678l-.9-.576v-.006h.9v-.608h-2.34v.91c0 .462.22.813.72.813.323 0 .603-.18.662-.512z" fill="#c52018"/></g></svg>