<?xml version="1.0" encoding="UTF-8" standalone="no"?>
<svg
   xmlns:dc="http://purl.org/dc/elements/1.1/"
   xmlns:cc="http://creativecommons.org/ns#"
   xmlns:rdf="http://www.w3.org/1999/02/22-rdf-syntax-ns#"
   xmlns:svg="http://www.w3.org/2000/svg"
   xmlns="http://www.w3.org/2000/svg"
   viewBox="0 0 68.265602 244.26401"
   height="244.26401"
   width="68.265602"
   xml:space="preserve"
   id="svg2"
   version="1.1"><metadata
     id="metadata8"><rdf:RDF><cc:Work
         rdf:about=""><dc:format>image/svg+xml</dc:format><dc:type
           rdf:resource="http://purl.org/dc/dcmitype/StillImage" /></cc:Work></rdf:RDF></metadata><defs
     id="defs6"><clipPath
       id="clipPath18"
       clipPathUnits="userSpaceOnUse"><path
         id="path16"
         d="M 0,183.198 H 51.199 V 0 H 0 Z" /></clipPath><clipPath
       id="clipPath26"
       clipPathUnits="userSpaceOnUse"><path
         id="path24"
         d="M 0,168.198 H 36.1992 V 0 H 0 Z" /></clipPath><clipPath
       id="clipPath30"
       clipPathUnits="userSpaceOnUse"><path
         id="path28"
         d="M 8.31543,56.9541 H 26.7666 V 0 H 8.31543 Z" /></clipPath><clipPath
       id="clipPath222"
       clipPathUnits="userSpaceOnUse"><path
         id="path220"
         d="M 0,183.198 H 51.199 V 0 H 0 Z" /></clipPath><clipPath
       id="clipPath230"
       clipPathUnits="userSpaceOnUse"><path
         id="path228"
         d="M 23.3154,71.9541 H 41.7666 V 15 H 23.3154 Z" /></clipPath><clipPath
       id="clipPath258"
       clipPathUnits="userSpaceOnUse"><path
         id="path256"
         d="M 0,183.198 H 51.199 V 0 H 0 Z" /></clipPath></defs><g
     transform="matrix(1.3333333,0,0,-1.3333333,0,244.264)"
     id="g10"><g
       id="g12"><g
         clip-path="url(#clipPath18)"
         id="g14"><g
           id="g20"><g
             id="g22" /><g
             id="g146"><g
               style="opacity:0.14999402"
               id="g144"
               clip-path="url(#clipPath26)"><g
                 id="g34"
                 transform="translate(6.3809,62.7881)"><path
                   id="path32"
                   style="fill:#081d27;fill-opacity:1;fill-rule:nonzero;stroke:none"
                   d="M 0,0 H 2.715 L 1.487,3.829 H 0 Z" /></g><g
                 id="g38"
                 transform="translate(6.3809,62.7881)"><path
                   id="path36"
                   style="fill:#081d27;fill-opacity:1;fill-rule:nonzero;stroke:none"
                   d="m 0,0 h -1.512 l 1.227,3.829 H 0 Z" /></g><g
                 id="g42"
                 transform="translate(6.5557,65.9141)"><path
                   id="path40"
                   style="fill:#081d27;fill-opacity:1;fill-rule:nonzero;stroke:none"
                   d="m 0,0 -0.494,-3.126 h 1.79 L 0.801,0.068" /></g><g
                 id="g46"
                 transform="translate(12.123,62.7881)"><path
                   id="path44"
                   style="fill:#081d27;fill-opacity:1;fill-rule:nonzero;stroke:none"
                   d="M 0,0 H 2.287 L 1.061,3.829 H 0 Z" /></g><g
                 id="g50"
                 transform="translate(12.123,62.7881)"><path
                   id="path48"
                   style="fill:#081d27;fill-opacity:1;fill-rule:nonzero;stroke:none"
                   d="m 0,0 h -1.94 l 1.227,3.829 H 0 Z" /></g><g
                 id="g54"
                 transform="translate(11.8701,65.9141)"><path
                   id="path52"
                   style="fill:#081d27;fill-opacity:1;fill-rule:nonzero;stroke:none"
                   d="M 0,0 -0.495,-3.126 H 1.297 L 0.801,0.068" /></g><g
                 id="g58"
                 transform="translate(24.2461,62.7881)"><path
                   id="path56"
                   style="fill:#081d27;fill-opacity:1;fill-rule:nonzero;stroke:none"
                   d="M 0,0 H 2.564 L 1.338,3.829 H 0 Z" /></g><g
                 id="g62"
                 transform="translate(24.2461,62.7881)"><path
                   id="path60"
                   style="fill:#081d27;fill-opacity:1;fill-rule:nonzero;stroke:none"
                   d="m 0,0 h -1.662 l 1.226,3.829 H 0 Z" /></g><g
                 id="g66"
                 transform="translate(24.2705,65.9141)"><path
                   id="path64"
                   style="fill:#081d27;fill-opacity:1;fill-rule:nonzero;stroke:none"
                   d="m 0,0 -0.494,-3.126 h 1.79 L 0.802,0.068" /></g><g
                 id="g70"
                 transform="translate(29.3506,62.7881)"><path
                   id="path68"
                   style="fill:#081d27;fill-opacity:1;fill-rule:nonzero;stroke:none"
                   d="M 0,0 H 2.774 L 1.548,3.829 H 0 Z" /></g><g
                 id="g74"
                 transform="translate(29.3506,62.7881)"><path
                   id="path72"
                   style="fill:#081d27;fill-opacity:1;fill-rule:nonzero;stroke:none"
                   d="m 0,0 h -1.452 l 1.226,3.829 H 0 Z" /></g><g
                 id="g78"
                 transform="translate(29.5859,65.9141)"><path
                   id="path76"
                   style="fill:#081d27;fill-opacity:1;fill-rule:nonzero;stroke:none"
                   d="M 0,0 -0.496,-3.126 H 1.295 L 0.8,0.068" /></g><g
                 id="g82"
                 transform="translate(18.1582,118.7246)"><path
                   id="path80"
                   style="fill:#081d27;fill-opacity:1;fill-rule:nonzero;stroke:none"
                   d="m 0,0 -0.003,-47.148 4.376,-0.005 -0.179,-6.004 11.508,0.025 -0.879,8.861 -5.022,27.796 -4.81,16.486 z" /></g><g
                 id="g86"
                 transform="translate(2.1582,65.5928)"><path
                   id="path84"
                   style="fill:#081d27;fill-opacity:1;fill-rule:nonzero;stroke:none"
                   d="m 0,0 11.508,-0.025 -0.3,6.004 4.497,0.004 -0.002,47.149 -4.992,0.011 L 5.899,36.657 0.879,8.86 Z" /></g><g
                 id="g90"
                 transform="translate(17.9941,67.459)"><path
                   id="path88"
                   style="fill:#081d27;fill-opacity:1;fill-rule:nonzero;stroke:none"
                   d="m 0,0 4.496,-0.005 0.496,47.164 -0.13,22.135 h 0.036 l 0.693,0.928 -0.003,20.58 -3.344,7.031 -2.241,2.906 z" /></g><g
                 id="g94"
                 transform="translate(17.8926,168.1982)"><path
                   id="path92"
                   style="fill:#081d27;fill-opacity:1;fill-rule:nonzero;stroke:none"
                   d="m 0,0 -2.241,-2.906 -3.343,-7.032 -0.003,-20.581 0.692,-0.926 h 0.035 l -0.129,-22.136 0.496,-47.163 4.497,0.004 z" /></g><g
                 id="g98"
                 transform="translate(15.6641,136.7534)"><path
                   id="path96"
                   style="fill:#081d27;fill-opacity:1;fill-rule:nonzero;stroke:none"
                   d="m 0,0 -0.3,0.926 0.001,20.581 1.451,7.032 0.975,2.906 v -2.723 2.723 L 3.099,28.539 4.551,21.507 4.552,0.926 4.251,0 H 4.235 L 4.292,-22.135 4.076,-69.299 2.127,-69.294 0.175,-69.299 -0.041,-22.135 0.016,0 Z" /></g><g
                 id="g110"><g
                   id="g100" /><g
                   id="g108"><g
                     style="opacity:0.39999402"
                     id="g106"
                     clip-path="url(#clipPath30)"><g
                       id="g104"
                       transform="translate(15.8242)"><path
                         id="path102"
                         style="fill:#081d27;fill-opacity:1;fill-rule:nonzero;stroke:none"
                         d="m 0,0 -7.509,56.615 18.451,0.339 z" /></g></g></g></g><g
                 id="g114"
                 transform="translate(17.1475,23.542)"><path
                   id="path112"
                   style="fill:#081d27;fill-opacity:1;fill-rule:nonzero;stroke:none"
                   d="M 0,0 -5.722,31.522 6.788,31.35 Z" /></g><g
                 id="g118"
                 transform="translate(32.8096,70.3115)"><path
                   id="path116"
                   style="fill:#081d27;fill-opacity:1;fill-rule:nonzero;stroke:none"
                   d="M 0,0 3.39,-4.674 H 0 Z" /></g><g
                 id="g122"
                 transform="translate(3.3906,70.3115)"><path
                   id="path120"
                   style="fill:#081d27;fill-opacity:1;fill-rule:nonzero;stroke:none"
                   d="M 0,0 -3.391,-4.674 H 0 Z" /></g><g
                 id="g126"
                 transform="translate(17.4619,139.3506)"><path
                   id="path124"
                   style="fill:#081d27;fill-opacity:1;fill-rule:nonzero;stroke:none"
                   d="m 0,0 c 0.228,-0.224 0.535,-0.345 0.855,-0.345 0.348,0 0.653,0.118 0.885,0.375 0.221,0.243 0.345,0.553 0.345,0.878 0,0.19 -0.045,0.336 -0.109,0.538 H 1.247 C 1.399,1.318 1.495,1.12 1.495,0.921 1.495,0.542 1.229,0.288 0.859,0.288 0.495,0.288 0.21,0.54 0.21,0.912 0.21,0.998 0.226,1.083 0.255,1.161 0.081,1.258 -0.094,1.35 -0.264,1.446 -0.337,1.266 -0.38,1.086 -0.38,0.891 -0.38,0.562 -0.237,0.229 0,0" /></g><g
                 id="g130"
                 transform="translate(17.7461,142.6792)"><path
                   id="path128"
                   style="fill:#081d27;fill-opacity:1;fill-rule:nonzero;stroke:none"
                   d="m 0,0 c -0.094,-0.112 -0.155,-0.255 -0.155,-0.403 0,-0.112 0.065,-0.262 0.196,-0.262 0.137,0 0.188,0.165 0.224,0.27 l 0.047,0.156 c 0.095,0.326 0.259,0.578 0.638,0.578 0.233,0 0.473,-0.057 0.631,-0.242 0.154,-0.184 0.22,-0.429 0.22,-0.665 0,-0.295 -0.1,-0.584 -0.268,-0.822 l -0.49,0.261 c 0.133,0.15 0.242,0.331 0.242,0.539 0,0.144 -0.07,0.296 -0.236,0.296 -0.171,0 -0.23,-0.24 -0.267,-0.371 -0.108,-0.381 -0.208,-0.633 -0.662,-0.633 -0.474,0 -0.784,0.338 -0.784,0.808 0,0.236 0.073,0.524 0.191,0.732 z" /></g><g
                 id="g134"
                 transform="translate(17.7461,144.8682)"><path
                   id="path132"
                   style="fill:#081d27;fill-opacity:1;fill-rule:nonzero;stroke:none"
                   d="m 0,0 c -0.094,-0.112 -0.155,-0.254 -0.155,-0.404 0,-0.112 0.065,-0.261 0.196,-0.261 0.137,0 0.188,0.165 0.224,0.27 l 0.047,0.156 c 0.095,0.326 0.259,0.576 0.638,0.576 0.233,0 0.473,-0.055 0.631,-0.241 0.154,-0.183 0.22,-0.429 0.22,-0.665 0,-0.295 -0.1,-0.584 -0.268,-0.823 l -0.49,0.261 c 0.133,0.152 0.242,0.332 0.242,0.54 0,0.143 -0.07,0.294 -0.236,0.294 -0.171,0 -0.23,-0.239 -0.267,-0.369 C 0.674,-1.048 0.574,-1.3 0.12,-1.3 c -0.474,0 -0.784,0.338 -0.784,0.808 0,0.236 0.073,0.524 0.191,0.733 z" /></g><g
                 id="g138"
                 transform="translate(17.7461,147.0557)"><path
                   id="path136"
                   style="fill:#081d27;fill-opacity:1;fill-rule:nonzero;stroke:none"
                   d="m 0,0 c -0.094,-0.111 -0.155,-0.254 -0.155,-0.403 0,-0.112 0.065,-0.261 0.196,-0.261 0.137,0 0.188,0.165 0.224,0.27 l 0.047,0.156 c 0.095,0.326 0.259,0.577 0.638,0.577 0.233,0 0.473,-0.056 0.631,-0.242 0.154,-0.183 0.22,-0.429 0.22,-0.665 0,-0.295 -0.1,-0.583 -0.268,-0.823 l -0.49,0.261 c 0.133,0.152 0.242,0.332 0.242,0.54 0,0.143 -0.07,0.296 -0.236,0.296 -0.171,0 -0.23,-0.24 -0.267,-0.371 -0.108,-0.381 -0.208,-0.632 -0.662,-0.632 -0.474,0 -0.784,0.338 -0.784,0.806 0,0.236 0.073,0.525 0.191,0.733 z" /></g><g
                 id="g142"
                 transform="translate(18.1934,148.5674)"><path
                   id="path140"
                   style="fill:#081d27;fill-opacity:1;fill-rule:nonzero;stroke:none"
                   d="m 0,0 v 0.06 c 0,0.198 -0.036,0.422 -0.293,0.422 -0.253,0 -0.292,-0.224 -0.292,-0.422 V 0 Z M 1.291,1.26 V 0.582 L 0.391,0.007 V 0.001 h 0.9 V -0.607 H -1.05 v 0.91 c 0,0.462 0.221,0.813 0.721,0.813 0.322,0 0.602,-0.18 0.661,-0.512 z" /></g></g></g></g></g></g><g
       transform="translate(21.3809,77.7881)"
       id="g148"><path
         id="path150"
         style="fill:#f7f5ee;fill-opacity:1;fill-rule:nonzero;stroke:none"
         d="M 0,0 H 2.715 L 1.487,3.829 H 0 Z" /></g><g
       transform="translate(21.3809,77.7881)"
       id="g152"><path
         id="path154"
         style="fill:#dfd3bb;fill-opacity:1;fill-rule:nonzero;stroke:none"
         d="m 0,0 h -1.512 l 1.227,3.829 H 0 Z" /></g><g
       transform="translate(21.5557,80.9141)"
       id="g156"><path
         id="path158"
         style="fill:#f2eee2;fill-opacity:1;fill-rule:nonzero;stroke:none"
         d="m 0,0 -0.494,-3.126 h 1.79 L 0.801,0.068" /></g><g
       transform="translate(27.123,77.7881)"
       id="g160"><path
         id="path162"
         style="fill:#f7f5ee;fill-opacity:1;fill-rule:nonzero;stroke:none"
         d="M 0,0 H 2.287 L 1.061,3.829 H 0 Z" /></g><g
       transform="translate(27.123,77.7881)"
       id="g164"><path
         id="path166"
         style="fill:#dfd3bb;fill-opacity:1;fill-rule:nonzero;stroke:none"
         d="m 0,0 h -1.94 l 1.227,3.829 H 0 Z" /></g><g
       transform="translate(26.8701,80.9141)"
       id="g168"><path
         id="path170"
         style="fill:#f2eee2;fill-opacity:1;fill-rule:nonzero;stroke:none"
         d="M 0,0 -0.495,-3.126 H 1.297 L 0.801,0.068" /></g><g
       transform="translate(39.2461,77.7881)"
       id="g172"><path
         id="path174"
         style="fill:#f7f5ee;fill-opacity:1;fill-rule:nonzero;stroke:none"
         d="M 0,0 H 2.564 L 1.338,3.829 H 0 Z" /></g><g
       transform="translate(39.2461,77.7881)"
       id="g176"><path
         id="path178"
         style="fill:#dfd3bb;fill-opacity:1;fill-rule:nonzero;stroke:none"
         d="m 0,0 h -1.662 l 1.226,3.829 H 0 Z" /></g><g
       transform="translate(39.2705,80.9141)"
       id="g180"><path
         id="path182"
         style="fill:#f2eee2;fill-opacity:1;fill-rule:nonzero;stroke:none"
         d="m 0,0 -0.494,-3.126 h 1.79 L 0.802,0.068" /></g><g
       transform="translate(44.3506,77.7881)"
       id="g184"><path
         id="path186"
         style="fill:#f7f5ee;fill-opacity:1;fill-rule:nonzero;stroke:none"
         d="M 0,0 H 2.774 L 1.548,3.829 H 0 Z" /></g><g
       transform="translate(44.3506,77.7881)"
       id="g188"><path
         id="path190"
         style="fill:#dfd3bb;fill-opacity:1;fill-rule:nonzero;stroke:none"
         d="m 0,0 h -1.452 l 1.226,3.829 H 0 Z" /></g><g
       transform="translate(44.5859,80.9141)"
       id="g192"><path
         id="path194"
         style="fill:#f2eee2;fill-opacity:1;fill-rule:nonzero;stroke:none"
         d="M 0,0 -0.496,-3.126 H 1.295 L 0.8,0.068" /></g><g
       transform="translate(33.1582,133.7246)"
       id="g196"><path
         id="path198"
         style="fill:#f4f1ea;fill-opacity:1;fill-rule:nonzero;stroke:none"
         d="m 0,0 -0.003,-47.148 4.376,-0.005 -0.179,-6.004 11.508,0.025 -0.879,8.861 -5.022,27.796 -4.81,16.486 z" /></g><g
       transform="translate(17.1582,80.5928)"
       id="g200"><path
         id="path202"
         style="fill:#f4f1ea;fill-opacity:1;fill-rule:nonzero;stroke:none"
         d="m 0,0 11.508,-0.025 -0.3,6.004 4.497,0.004 -0.002,47.149 -4.992,0.011 L 5.899,36.657 0.879,8.86 Z" /></g><g
       transform="translate(32.9941,82.459)"
       id="g204"><path
         id="path206"
         style="fill:#f7f5ee;fill-opacity:1;fill-rule:nonzero;stroke:none"
         d="m 0,0 4.496,-0.005 0.496,47.164 -0.13,22.135 h 0.036 l 0.693,0.928 -0.003,20.58 -3.344,7.031 -2.241,2.906 z" /></g><g
       transform="translate(32.8926,183.1982)"
       id="g208"><path
         id="path210"
         style="fill:#dfd3bb;fill-opacity:1;fill-rule:nonzero;stroke:none"
         d="m 0,0 -2.241,-2.906 -3.343,-7.032 -0.003,-20.581 0.692,-0.926 h 0.035 l -0.129,-22.136 0.496,-47.163 4.497,0.004 z" /></g><g
       transform="translate(30.6641,151.7534)"
       id="g212"><path
         id="path214"
         style="fill:#f2eee2;fill-opacity:1;fill-rule:nonzero;stroke:none"
         d="m 0,0 -0.3,0.926 0.001,20.581 1.451,7.032 0.975,2.906 v -2.723 2.723 L 3.099,28.539 4.551,21.507 4.552,0.926 4.251,0 H 4.235 L 4.292,-22.135 4.076,-69.299 2.127,-69.294 0.175,-69.299 -0.041,-22.135 0.016,0 Z" /></g><g
       id="g216"><g
         clip-path="url(#clipPath222)"
         id="g218"><g
           id="g224"><g
             id="g226" /><g
             id="g238"><g
               style="opacity:0.39999402"
               id="g236"
               clip-path="url(#clipPath230)"><g
                 id="g234"
                 transform="translate(30.8242,15)"><path
                   id="path232"
                   style="fill:#eb5e61;fill-opacity:1;fill-rule:nonzero;stroke:none"
                   d="m 0,0 -7.509,56.615 18.451,0.339 z" /></g></g></g></g></g></g><g
       transform="translate(32.1475,38.542)"
       id="g240"><path
         id="path242"
         style="fill:#f8ab0d;fill-opacity:1;fill-rule:nonzero;stroke:none"
         d="M 0,0 -5.722,31.522 6.788,31.35 Z" /></g><g
       transform="translate(47.8096,85.3115)"
       id="g244"><path
         id="path246"
         style="fill:#f4f1ea;fill-opacity:1;fill-rule:nonzero;stroke:none"
         d="M 0,0 3.39,-4.674 H 0 Z" /></g><g
       transform="translate(18.3906,85.3115)"
       id="g248"><path
         id="path250"
         style="fill:#f4f1ea;fill-opacity:1;fill-rule:nonzero;stroke:none"
         d="M 0,0 -3.391,-4.674 H 0 Z" /></g><g
       id="g252"><g
         clip-path="url(#clipPath258)"
         id="g254"><g
           transform="translate(32.4619,154.3506)"
           id="g260"><path
             id="path262"
             style="fill:#c52018;fill-opacity:1;fill-rule:nonzero;stroke:none"
             d="m 0,0 c 0.228,-0.224 0.535,-0.345 0.855,-0.345 0.348,0 0.653,0.118 0.885,0.375 0.221,0.243 0.345,0.553 0.345,0.878 0,0.19 -0.045,0.336 -0.109,0.538 H 1.247 C 1.399,1.318 1.495,1.12 1.495,0.921 1.495,0.542 1.229,0.288 0.859,0.288 0.495,0.288 0.21,0.54 0.21,0.912 0.21,0.998 0.226,1.083 0.255,1.161 0.081,1.258 -0.094,1.35 -0.264,1.446 -0.337,1.266 -0.38,1.086 -0.38,0.891 -0.38,0.562 -0.237,0.229 0,0" /></g><g
           transform="translate(32.7461,157.6792)"
           id="g264"><path
             id="path266"
             style="fill:#c52018;fill-opacity:1;fill-rule:nonzero;stroke:none"
             d="m 0,0 c -0.094,-0.112 -0.155,-0.255 -0.155,-0.403 0,-0.112 0.065,-0.262 0.196,-0.262 0.137,0 0.188,0.165 0.224,0.27 l 0.047,0.156 c 0.095,0.326 0.259,0.578 0.638,0.578 0.233,0 0.473,-0.057 0.631,-0.242 0.154,-0.184 0.22,-0.429 0.22,-0.665 0,-0.295 -0.1,-0.584 -0.268,-0.822 l -0.49,0.261 c 0.133,0.15 0.242,0.331 0.242,0.539 0,0.144 -0.07,0.296 -0.236,0.296 -0.171,0 -0.23,-0.24 -0.267,-0.371 -0.108,-0.381 -0.208,-0.633 -0.662,-0.633 -0.474,0 -0.784,0.338 -0.784,0.808 0,0.236 0.073,0.524 0.191,0.732 z" /></g><g
           transform="translate(32.7461,159.8682)"
           id="g268"><path
             id="path270"
             style="fill:#c52018;fill-opacity:1;fill-rule:nonzero;stroke:none"
             d="m 0,0 c -0.094,-0.112 -0.155,-0.254 -0.155,-0.404 0,-0.112 0.065,-0.261 0.196,-0.261 0.137,0 0.188,0.165 0.224,0.27 l 0.047,0.156 c 0.095,0.326 0.259,0.576 0.638,0.576 0.233,0 0.473,-0.055 0.631,-0.241 0.154,-0.183 0.22,-0.429 0.22,-0.665 0,-0.295 -0.1,-0.584 -0.268,-0.823 l -0.49,0.261 c 0.133,0.152 0.242,0.332 0.242,0.54 0,0.143 -0.07,0.294 -0.236,0.294 -0.171,0 -0.23,-0.239 -0.267,-0.369 C 0.674,-1.048 0.574,-1.3 0.12,-1.3 c -0.474,0 -0.784,0.338 -0.784,0.808 0,0.236 0.073,0.524 0.191,0.733 z" /></g><g
           transform="translate(32.7461,162.0557)"
           id="g272"><path
             id="path274"
             style="fill:#c52018;fill-opacity:1;fill-rule:nonzero;stroke:none"
             d="m 0,0 c -0.094,-0.111 -0.155,-0.254 -0.155,-0.403 0,-0.112 0.065,-0.261 0.196,-0.261 0.137,0 0.188,0.165 0.224,0.27 l 0.047,0.156 c 0.095,0.326 0.259,0.577 0.638,0.577 0.233,0 0.473,-0.056 0.631,-0.242 0.154,-0.183 0.22,-0.429 0.22,-0.665 0,-0.295 -0.1,-0.583 -0.268,-0.823 l -0.49,0.261 c 0.133,0.152 0.242,0.332 0.242,0.54 0,0.143 -0.07,0.296 -0.236,0.296 -0.171,0 -0.23,-0.24 -0.267,-0.371 -0.108,-0.381 -0.208,-0.632 -0.662,-0.632 -0.474,0 -0.784,0.338 -0.784,0.806 0,0.236 0.073,0.525 0.191,0.733 z" /></g><g
           transform="translate(33.1934,163.5674)"
           id="g276"><path
             id="path278"
             style="fill:#c52018;fill-opacity:1;fill-rule:nonzero;stroke:none"
             d="m 0,0 v 0.06 c 0,0.198 -0.036,0.422 -0.293,0.422 -0.253,0 -0.292,-0.224 -0.292,-0.422 V 0 Z M 1.291,1.26 V 0.582 L 0.391,0.007 V 0.001 h 0.9 V -0.607 H -1.05 v 0.91 c 0,0.462 0.221,0.813 0.721,0.813 0.322,0 0.602,-0.18 0.661,-0.512 z" /></g></g></g></g></svg>