<?xml version="1.0" encoding="utf-8"?>
<!-- Generator: Adobe Illustrator 15.0.0, SVG Export Plug-In . SVG Version: 6.00 Build 0)  -->
<!DOCTYPE svg PUBLIC "-//W3C//DTD SVG 1.1//EN" "http://www.w3.org/Graphics/SVG/1.1/DTD/svg11.dtd">
<svg version="1.1" id="Layer_1" xmlns="http://www.w3.org/2000/svg" xmlns:xlink="http://www.w3.org/1999/xlink" x="0px" y="0px"
	 width="85.5px" height="98.243px" viewBox="193.713 0 85.5 98.243" enable-background="new 193.713 0 85.5 98.243"
	 xml:space="preserve">
<g>
	<g opacity="0.15">
		
			<rect x="204.749" y="60.685" transform="matrix(-0.5454 -0.8382 0.8382 -0.5454 265.5796 267.1631)" fill="#081D27" width="0.976" height="1.758"/>
		<path fill="#081D27" d="M236.351,48.945"/>
		<path fill="#081D27" d="M234.362,46.239l-2.992,0.334l-5.224,0.637l-19.078,12.374c-0.574,0.369-0.812,1.104-0.438,1.676
			l3.201,4.936l-4.762,0.916l1.726,2.66l29.943-19.779"/>
		
			<rect x="213.135" y="73.608" transform="matrix(-0.5431 -0.8397 0.8397 -0.5431 267.0923 294.3128)" fill="#081D27" width="0.975" height="1.757"/>
		<path fill="#081D27" d="M236.613,49.911c0.017,0.027,0.034,0.055,0.05,0.083l-29.945,19.778l1.781,2.742l2.776-3.973l3.201,4.935
			c0.37,0.57,1.083,0.569,1.656,0.198L235.211,61.3l2.762-4.431l1.526-2.595l-0.09-0.14"/>
		<path fill="#081D27" d="M237.353,51.014"/>
		
			<rect x="207.331" y="64.283" transform="matrix(-0.547 -0.8371 0.8371 -0.547 266.5368 274.5499)" fill="#081D27" width="0.441" height="1.755"/>
		
			<rect x="211.136" y="70.12" transform="matrix(-0.546 -0.8378 0.8378 -0.546 267.2853 286.834)" fill="#081D27" width="0.444" height="1.758"/>
		<path fill="#081D27" d="M235.782,48.546l-0.042-0.062l-2.59,0.955l-4.55,1.671l0.014,0.022l-19.077,12.375
			c-0.573,0.373-0.956,0.883-0.787,1.142l1.45,2.234l-4.219,1.753l0.78,1.204l0.805,1.241l3.321-3.138l1.45,2.235
			c0.166,0.259,0.766,0.079,1.338-0.291l19.076-12.375l0.04,0.061l3.382-3.475l1.926-1.977l-0.037-0.062"/>
		<path fill="#081D27" d="M218.313,60.994c-0.09,0.457,0.005,0.924,0.257,1.311c0.273,0.421,0.655,0.697,1.15,0.779
			c0.469,0.075,0.941-0.019,1.337-0.275c0.229-0.148,0.371-0.32,0.568-0.553l-0.576-0.887c-0.036,0.285-0.202,0.559-0.439,0.714
			c-0.459,0.301-0.98,0.174-1.271-0.273c-0.285-0.441-0.203-0.985,0.248-1.277c0.104-0.068,0.222-0.114,0.338-0.142
			c-0.021-0.291-0.047-0.573-0.063-0.851c-0.275,0.05-0.529,0.141-0.766,0.293C218.698,60.093,218.407,60.527,218.313,60.994z"/>
		<path fill="#081D27" d="M222.614,58.698c-0.208-0.026-0.432,0.011-0.612,0.128c-0.134,0.09-0.265,0.287-0.16,0.444
			c0.108,0.166,0.347,0.102,0.505,0.059l0.225-0.065c0.47-0.141,0.904-0.139,1.202,0.321c0.186,0.284,0.304,0.615,0.202,0.957
			c-0.1,0.332-0.344,0.604-0.633,0.79c-0.355,0.233-0.786,0.339-1.207,0.323l-0.073-0.802c0.291,0.042,0.595,0.031,0.847-0.13
			c0.176-0.112,0.301-0.32,0.171-0.52c-0.132-0.208-0.471-0.091-0.656-0.034c-0.551,0.168-0.933,0.248-1.289-0.302
			c-0.374-0.578-0.208-1.22,0.36-1.59c0.287-0.186,0.697-0.322,1.042-0.342L222.614,58.698z"/>
		<path fill="#081D27" d="M225.305,56.95c-0.206-0.023-0.431,0.014-0.611,0.128c-0.136,0.089-0.262,0.287-0.162,0.447
			c0.109,0.164,0.349,0.097,0.506,0.056l0.224-0.065c0.472-0.14,0.907-0.14,1.206,0.32c0.183,0.283,0.305,0.618,0.201,0.957
			c-0.1,0.331-0.346,0.603-0.631,0.789c-0.359,0.233-0.787,0.338-1.21,0.323l-0.07-0.801c0.29,0.043,0.595,0.033,0.848-0.131
			c0.174-0.112,0.301-0.317,0.171-0.519c-0.134-0.206-0.47-0.088-0.659-0.035c-0.547,0.17-0.93,0.249-1.286-0.302
			c-0.375-0.574-0.209-1.219,0.362-1.587c0.284-0.186,0.693-0.322,1.04-0.345L225.305,56.95z"/>
		<path fill="#081D27" d="M227.997,55.206c-0.209-0.025-0.431,0.012-0.611,0.13c-0.135,0.087-0.266,0.283-0.162,0.442
			c0.108,0.167,0.349,0.1,0.503,0.057l0.227-0.064c0.471-0.14,0.905-0.137,1.207,0.32c0.183,0.283,0.301,0.619,0.201,0.956
			c-0.102,0.333-0.348,0.605-0.632,0.792c-0.359,0.232-0.787,0.339-1.21,0.322l-0.071-0.8c0.292,0.043,0.595,0.033,0.847-0.13
			c0.174-0.114,0.301-0.319,0.173-0.52c-0.135-0.205-0.471-0.089-0.657-0.031c-0.551,0.167-0.935,0.245-1.291-0.304
			c-0.372-0.577-0.207-1.22,0.362-1.59c0.287-0.185,0.694-0.322,1.04-0.341L227.997,55.206z"/>
		<path fill="#081D27" d="M232.764,55.11l-0.822,0.536l-1.405-0.64l-0.008,0.002l0.707,1.093l-0.737,0.479l-1.843-2.841l1.104-0.716
			c0.56-0.364,1.159-0.374,1.552,0.236c0.253,0.39,0.256,0.873-0.1,1.203L232.764,55.11z M230.221,54.534l0.069-0.046
			c0.242-0.157,0.485-0.378,0.284-0.687c-0.199-0.311-0.499-0.178-0.741-0.023l-0.073,0.049L230.221,54.534z"/>
		<polygon fill="#081D27" points="250.926,40.709 245.543,43.355 246.04,44.202 251.19,41.156 		"/>
		<polygon fill="#081D27" points="251.434,41.571 251.19,41.156 246.04,44.202 246.545,45.062 		"/>
		<path fill="#081D27" d="M252.125,41.668c-0.438,0.26-1.006,0.114-1.266-0.327c-0.259-0.441-0.111-1.01,0.33-1.271
			c0.44-0.262,1.007-0.115,1.268,0.326C252.714,40.836,252.568,41.407,252.125,41.668z"/>
		<path fill="#081D27" d="M250.992,41.295c-0.261-0.442-0.112-1.013,0.329-1.271c0.032-0.02,0.065-0.032,0.099-0.045
			c-0.08,0.02-0.157,0.049-0.23,0.092c-0.441,0.262-0.587,0.831-0.33,1.271c0.239,0.41,0.744,0.56,1.169,0.372
			C251.635,41.82,251.206,41.659,250.992,41.295z"/>
		<path fill="#081D27" d="M240.624,35.106c-5.114,3.028-6.825,9.63-3.821,14.75c3.008,5.118,9.59,6.814,14.703,3.785L240.624,35.106
			z"/>
		<path fill="#081D27" d="M246.057,44.354l-9.263,5.48c0.004,0.006,0.008,0.013,0.009,0.021c3.008,5.118,9.59,6.814,14.703,3.785
			L246.057,44.354z"/>
		<path fill="#081D27" d="M243.201,39.491c-3.274,1.936-8.203,7.266-6.28,10.542c1.924,3.277,8.764,1.207,12.04-0.73L243.201,39.491
			z"/>
		
			<rect x="223.726" y="70.022" transform="matrix(-0.5472 -0.837 0.837 -0.5472 300.5514 320.205)" fill="#081D27" width="26.317" height="17.576"/>
		
			<rect x="233.899" y="75.529" transform="matrix(-0.5471 -0.837 0.837 -0.5471 301.4763 331.7391)" fill="#081D27" width="13.158" height="17.576"/>
		
			<rect x="196.882" y="30.575" transform="matrix(-0.5472 -0.837 0.837 -0.5472 292.033 236.7048)" fill="#081D27" width="26.317" height="17.577"/>
		
			<rect x="199.872" y="25.051" transform="matrix(-0.5473 -0.837 0.837 -0.5473 291.0654 225.1258)" fill="#081D27" width="13.098" height="17.577"/>
	</g>
	<g>
		<g>
			
				<rect x="219.749" y="45.685" transform="matrix(-0.5454 -0.8382 0.8382 -0.5454 301.3334 256.5541)" fill="#F6F4EC" width="0.976" height="1.758"/>
			<path fill="#F6F4EC" d="M251.351,33.945"/>
			<path fill="#F6F4EC" d="M249.362,31.239l-2.992,0.334l-5.224,0.637l-19.078,12.374c-0.574,0.369-0.812,1.104-0.438,1.676
				l3.201,4.936l-4.762,0.916l1.726,2.66l29.943-19.779"/>
			<g>
				
					<rect x="228.135" y="58.608" transform="matrix(-0.5431 -0.8397 0.8397 -0.5431 302.8337 283.7617)" fill="#DFD2B9" width="0.975" height="1.757"/>
				<path fill="#DFD2B9" d="M251.613,34.911c0.017,0.027,0.034,0.055,0.05,0.083l-29.945,19.778l1.781,2.742l2.776-3.973
					l3.201,4.935c0.37,0.57,1.083,0.569,1.656,0.198L250.211,46.3l2.762-4.431l1.526-2.595l-0.09-0.14"/>
				<path fill="#DFD2B9" d="M252.353,36.014"/>
			</g>
			
				<rect x="222.331" y="49.283" transform="matrix(-0.547 -0.8371 0.8371 -0.547 302.2988 263.9017)" fill="#F1ECE0" width="0.441" height="1.755"/>
			
				<rect x="226.136" y="55.12" transform="matrix(-0.546 -0.8378 0.8378 -0.546 303.0422 276.21)" fill="#F1ECE0" width="0.444" height="1.758"/>
			<path fill="#F1ECE0" d="M250.782,33.546l-0.042-0.062l-2.59,0.955l-4.55,1.671l0.014,0.022l-19.077,12.375
				c-0.573,0.373-0.956,0.883-0.787,1.142l1.45,2.234l-4.219,1.753l0.78,1.204l0.805,1.241l3.321-3.138l1.45,2.235
				c0.166,0.259,0.766,0.079,1.338-0.291l19.076-12.375l0.04,0.061l3.382-3.475l1.926-1.977l-0.037-0.062"/>
			<g>
				<path fill="#C62A27" d="M233.313,45.994c-0.09,0.457,0.005,0.924,0.257,1.311c0.273,0.421,0.655,0.697,1.15,0.779
					c0.469,0.075,0.941-0.019,1.337-0.275c0.229-0.148,0.371-0.32,0.568-0.553l-0.576-0.887c-0.036,0.285-0.202,0.559-0.439,0.714
					c-0.459,0.301-0.98,0.174-1.271-0.273c-0.285-0.441-0.203-0.985,0.248-1.277c0.104-0.068,0.222-0.114,0.338-0.142
					c-0.021-0.291-0.047-0.573-0.063-0.851c-0.275,0.05-0.529,0.141-0.766,0.293C233.698,45.093,233.407,45.527,233.313,45.994z"/>
				<path fill="#C62A27" d="M237.614,43.698c-0.208-0.026-0.432,0.011-0.612,0.128c-0.134,0.09-0.265,0.287-0.16,0.444
					c0.108,0.166,0.347,0.102,0.505,0.059l0.225-0.065c0.47-0.141,0.904-0.139,1.202,0.321c0.186,0.284,0.304,0.615,0.202,0.957
					c-0.1,0.332-0.344,0.604-0.633,0.79c-0.355,0.233-0.786,0.339-1.207,0.323l-0.073-0.802c0.291,0.042,0.595,0.031,0.847-0.13
					c0.176-0.112,0.301-0.32,0.171-0.52c-0.132-0.208-0.471-0.091-0.656-0.034c-0.551,0.168-0.933,0.248-1.289-0.302
					c-0.374-0.578-0.208-1.22,0.36-1.59c0.287-0.186,0.697-0.322,1.042-0.342L237.614,43.698z"/>
				<path fill="#C62A27" d="M240.305,41.95c-0.206-0.023-0.431,0.014-0.611,0.128c-0.136,0.089-0.262,0.287-0.162,0.447
					c0.109,0.164,0.349,0.097,0.506,0.056l0.224-0.065c0.472-0.14,0.907-0.14,1.206,0.32c0.183,0.283,0.305,0.618,0.201,0.957
					c-0.1,0.331-0.346,0.603-0.631,0.789c-0.359,0.233-0.787,0.338-1.21,0.323l-0.07-0.801c0.29,0.043,0.595,0.033,0.848-0.131
					c0.174-0.112,0.301-0.317,0.171-0.519c-0.134-0.206-0.47-0.088-0.659-0.035c-0.547,0.17-0.93,0.249-1.286-0.302
					c-0.375-0.574-0.209-1.219,0.362-1.587c0.284-0.186,0.693-0.322,1.04-0.345L240.305,41.95z"/>
				<path fill="#C62A27" d="M242.997,40.206c-0.209-0.025-0.431,0.012-0.611,0.13c-0.135,0.087-0.266,0.283-0.162,0.442
					c0.108,0.167,0.349,0.1,0.503,0.057l0.227-0.064c0.471-0.14,0.905-0.137,1.207,0.32c0.183,0.283,0.301,0.619,0.201,0.956
					c-0.102,0.333-0.348,0.605-0.632,0.792c-0.359,0.232-0.787,0.339-1.21,0.322l-0.071-0.8c0.292,0.043,0.595,0.033,0.847-0.13
					c0.174-0.114,0.301-0.319,0.173-0.52c-0.135-0.205-0.471-0.089-0.657-0.031c-0.551,0.167-0.935,0.245-1.291-0.304
					c-0.372-0.577-0.207-1.22,0.362-1.59c0.287-0.185,0.694-0.322,1.04-0.341L242.997,40.206z"/>
				<path fill="#C62A27" d="M247.764,40.11l-0.822,0.536l-1.405-0.64l-0.008,0.002l0.707,1.093l-0.737,0.479l-1.843-2.841
					l1.104-0.716c0.56-0.364,1.159-0.374,1.552,0.236c0.253,0.39,0.256,0.873-0.1,1.203L247.764,40.11z M245.221,39.534l0.069-0.046
					c0.242-0.157,0.485-0.378,0.284-0.687c-0.199-0.311-0.499-0.178-0.741-0.023l-0.073,0.049L245.221,39.534z"/>
			</g>
			<polygon fill="#F6F4EC" points="265.926,25.709 260.543,28.355 261.04,29.202 266.19,26.156 			"/>
			<polygon fill="#F1ECE0" points="266.434,26.571 266.19,26.156 261.04,29.202 261.545,30.062 			"/>
			<path fill="#F1ECE0" d="M267.125,26.668c-0.438,0.26-1.006,0.114-1.266-0.327c-0.259-0.441-0.111-1.01,0.33-1.271
				c0.44-0.262,1.007-0.115,1.268,0.326C267.714,25.836,267.568,26.407,267.125,26.668z"/>
			<path fill="#DFD2B9" d="M265.992,26.295c-0.261-0.442-0.112-1.013,0.329-1.271c0.032-0.02,0.065-0.032,0.099-0.045
				c-0.08,0.02-0.157,0.049-0.23,0.092c-0.441,0.262-0.587,0.831-0.33,1.271c0.239,0.41,0.744,0.56,1.169,0.372
				C266.635,26.82,266.206,26.659,265.992,26.295z"/>
			<path fill="#F6F4EC" d="M255.624,20.106c-5.114,3.028-6.825,9.63-3.821,14.75c3.008,5.118,9.59,6.814,14.703,3.785
				L255.624,20.106z"/>
			<path fill="#DFD2B9" d="M261.057,29.354l-9.263,5.48c0.004,0.006,0.008,0.013,0.009,0.021c3.008,5.118,9.59,6.814,14.703,3.785
				L261.057,29.354z"/>
			<path fill="#F1ECE0" d="M258.201,24.491c-3.274,1.936-8.203,7.266-6.28,10.542c1.924,3.277,8.764,1.207,12.04-0.73
				L258.201,24.491z"/>
			
				<rect x="238.726" y="55.022" transform="matrix(-0.5472 -0.837 0.837 -0.5472 336.3146 309.5513)" fill="#F6F4EC" width="26.317" height="17.576"/>
			
				<rect x="248.899" y="60.529" transform="matrix(-0.5471 -0.837 0.837 -0.5471 337.2391 321.0876)" fill="#F1ECE0" width="13.158" height="17.576"/>
			
				<rect x="211.882" y="15.575" transform="matrix(-0.5472 -0.837 0.837 -0.5472 327.7961 226.0511)" fill="#F1ECE0" width="26.317" height="17.577"/>
			
				<rect x="214.872" y="10.051" transform="matrix(-0.5473 -0.837 0.837 -0.5473 326.8288 214.4713)" fill="#F6F4EC" width="13.098" height="17.577"/>
		</g>
	</g>
</g>
</svg>
