<svg xmlns="http://www.w3.org/2000/svg" width="85.5" height="98.243" viewBox="193.713 0 85.5 98.243"><g opacity=".15" fill="#081D27"><path d="M204.776 62.445l-.533-.818 1.474-.96.532.82z"/><path d="M234.362 46.24l-2.992.333-5.224.637-19.078 12.374c-.574.37-.812 1.104-.438 1.676l3.2 4.936-4.76.916 1.725 2.66 29.943-19.78M213.147 75.367l-.53-.82 1.476-.953.53.82z"/><path d="M236.613 49.91l.05.084-29.945 19.778 1.78 2.742 2.777-3.973 3.2 4.936c.37.57 1.084.57 1.657.198l19.08-12.374 2.76-4.43 1.527-2.596-.09-.14M206.938 65.83l-.24-.37 1.468-.96.24.37z"/><path d="M210.752 71.66l-.243-.373 1.472-.96.242.372z"/><path d="M235.782 48.546l-.042-.062-2.59.955-4.55 1.67.014.022-19.077 12.375c-.573.373-.956.883-.787 1.142l1.45 2.233-4.22 1.753.78 1.204.806 1.24 3.32-3.137 1.45 2.235c.167.26.767.08 1.34-.29L232.75 57.51l.04.06 3.383-3.474 1.926-1.977-.038-.06"/><path d="M218.313 60.994c-.09.457.005.924.257 1.31.273.422.655.698 1.15.78.47.075.94-.02 1.337-.275.23-.15.37-.32.568-.554l-.576-.887c-.037.284-.203.558-.44.713-.46.3-.98.174-1.27-.273-.286-.44-.204-.985.247-1.277.104-.068.222-.114.338-.142-.02-.29-.047-.572-.063-.85-.275.05-.53.14-.766.293-.398.26-.69.694-.783 1.16zM222.614 58.698a.922.922 0 0 0-.612.128c-.134.09-.265.287-.16.444.108.166.347.102.505.06l.225-.066c.47-.14.904-.14 1.202.32.186.285.304.616.202.958-.1.332-.344.604-.633.79-.355.233-.786.34-1.207.323l-.073-.802c.29.042.595.03.847-.13.176-.112.3-.32.17-.52-.13-.208-.47-.09-.655-.034-.55.167-.933.247-1.29-.303-.373-.578-.207-1.22.36-1.59a2.313 2.313 0 0 1 1.043-.342l.076.763zM225.305 56.95a.958.958 0 0 0-.61.128c-.137.09-.263.287-.163.447.11.164.35.097.506.056l.224-.064c.472-.14.907-.14 1.206.32.183.283.305.618.2.957-.1.33-.345.603-.63.79a2.09 2.09 0 0 1-1.21.322l-.07-.8c.29.042.595.032.848-.132.174-.112.3-.317.17-.52-.133-.205-.47-.087-.658-.034-.547.17-.93.248-1.286-.303-.375-.574-.21-1.22.362-1.587a2.326 2.326 0 0 1 1.04-.345l.07.765zM227.997 55.206a.92.92 0 0 0-.61.13c-.136.087-.267.283-.163.442.108.167.35.1.503.057l.227-.064c.47-.14.905-.136 1.207.32.184.284.302.62.202.957-.102.333-.348.605-.632.792a2.08 2.08 0 0 1-1.21.32l-.07-.8c.29.044.594.034.846-.13.174-.113.3-.318.173-.52-.136-.204-.472-.088-.658-.03-.55.167-.935.245-1.29-.304-.373-.577-.208-1.22.36-1.59a2.3 2.3 0 0 1 1.04-.34l.075.76zM232.764 55.11l-.822.536-1.405-.64-.008.002.706 1.093-.737.48-1.844-2.84 1.104-.717c.56-.364 1.16-.374 1.552.236.253.39.256.872-.1 1.202l1.552.648zm-2.543-.576l.07-.046c.242-.157.485-.378.284-.687-.2-.31-.5-.177-.74-.022l-.074.05.46.706zM250.926 40.71l-5.383 2.645.497.847 5.15-3.046z"/><path d="M251.434 41.57l-.244-.414-5.15 3.046.505.86z"/><path d="M252.125 41.668a.924.924 0 0 1-1.266-.327.93.93 0 0 1 .33-1.27.924.924 0 0 1 1.267.326.933.933 0 0 1-.332 1.272z"/><path d="M250.992 41.295a.928.928 0 0 1 .33-1.27c.03-.02.064-.033.098-.046a.858.858 0 0 0-.23.09.933.933 0 0 0-.33 1.272c.24.41.744.56 1.17.372a.923.923 0 0 1-1.038-.42zM240.624 35.106c-5.114 3.028-6.825 9.63-3.82 14.75 3.007 5.118 9.59 6.814 14.702 3.785l-10.882-18.534z"/><path d="M246.057 44.354l-9.263 5.48a.05.05 0 0 1 .01.02c3.007 5.12 9.59 6.815 14.702 3.786l-5.45-9.286z"/><path d="M243.2 39.49c-3.273 1.937-8.202 7.267-6.28 10.543 1.925 3.277 8.765 1.207 12.04-.73l-5.76-9.812zM236.737 94.63l-14.4-22.027 14.71-9.618 14.4 22.028z"/><path d="M236.728 94.644l-7.2-11.014 14.712-9.615 7.2 11.013zM209.89 55.184l-14.4-22.027 14.712-9.62 14.4 22.03z"/><path d="M202.643 44.123l-7.168-10.964 14.712-9.62 7.168 10.963z"/></g><path fill="#F6F4EC" d="M219.775 47.444l-.532-.818 1.474-.96.532.82z"/><path fill="#F6F4EC" d="M249.362 31.24l-2.992.333-5.224.637-19.078 12.374c-.574.37-.812 1.104-.438 1.676l3.2 4.936-4.76.916 1.725 2.66 29.943-19.78"/><g fill="#DFD2B9"><path d="M228.147 60.367l-.53-.82 1.476-.953.53.82z"/><path d="M251.613 34.91l.05.084-29.945 19.778 1.78 2.742 2.777-3.973 3.2 4.936c.37.57 1.084.57 1.657.198l19.08-12.374 2.76-4.43 1.527-2.596-.09-.14"/></g><path fill="#F1ECE0" d="M221.94 50.83l-.243-.37 1.47-.96.24.37zM225.75 56.658l-.24-.372 1.472-.96.242.372z"/><path fill="#F1ECE0" d="M250.782 33.546l-.042-.062-2.59.955-4.55 1.67.014.022-19.077 12.375c-.573.373-.956.883-.787 1.142l1.45 2.233-4.22 1.753.78 1.204.806 1.24 3.32-3.137 1.45 2.235c.167.26.767.08 1.34-.29L247.75 42.51l.04.06 3.383-3.474 1.926-1.977-.038-.06"/><g fill="#C62A27"><path d="M233.313 45.994c-.09.457.005.924.257 1.31.273.422.655.698 1.15.78.47.075.94-.02 1.337-.275.23-.15.37-.32.568-.554l-.576-.887c-.037.284-.203.558-.44.713-.46.3-.98.174-1.27-.273-.286-.44-.204-.985.247-1.277.104-.068.222-.114.338-.142-.02-.29-.047-.572-.063-.85-.275.05-.53.14-.766.293-.398.26-.69.694-.783 1.16zM237.614 43.698a.922.922 0 0 0-.612.128c-.134.09-.265.287-.16.444.108.166.347.102.505.06l.225-.066c.47-.14.904-.14 1.202.32.186.285.304.616.202.958-.1.332-.344.604-.633.79-.355.233-.786.34-1.207.323l-.073-.802c.29.042.595.03.847-.13.176-.112.3-.32.17-.52-.13-.208-.47-.09-.655-.034-.55.167-.933.247-1.29-.303-.373-.578-.207-1.22.36-1.59a2.313 2.313 0 0 1 1.043-.342l.076.763zM240.305 41.95a.958.958 0 0 0-.61.128c-.137.09-.263.287-.163.447.11.164.35.097.506.056l.224-.064c.472-.14.907-.14 1.206.32.183.283.305.618.2.957-.1.33-.345.603-.63.79a2.09 2.09 0 0 1-1.21.322l-.07-.8c.29.042.595.032.848-.132.174-.112.3-.317.17-.52-.133-.205-.47-.087-.658-.034-.547.17-.93.248-1.286-.303-.375-.574-.21-1.22.362-1.587a2.326 2.326 0 0 1 1.04-.345l.07.765zM242.997 40.206a.92.92 0 0 0-.61.13c-.136.087-.267.283-.163.442.108.167.35.1.503.057l.227-.064c.47-.14.905-.136 1.207.32.184.284.302.62.202.957-.102.333-.348.605-.632.792a2.08 2.08 0 0 1-1.21.32l-.07-.8c.29.044.594.034.846-.13.174-.113.3-.318.173-.52-.136-.204-.472-.088-.658-.03-.55.167-.935.245-1.29-.304-.373-.577-.208-1.22.36-1.59a2.3 2.3 0 0 1 1.04-.34l.075.76zM247.764 40.11l-.822.536-1.405-.64-.008.002.706 1.093-.737.48-1.844-2.84 1.104-.717c.56-.364 1.16-.374 1.552.236.253.39.256.872-.1 1.202l1.552.648zm-2.543-.576l.07-.046c.242-.157.485-.378.284-.687-.2-.31-.5-.177-.74-.022l-.074.05.46.706z"/></g><path fill="#F6F4EC" d="M265.926 25.71l-5.383 2.645.497.847 5.15-3.046z"/><path fill="#F1ECE0" d="M266.434 26.57l-.244-.414-5.15 3.046.505.86z"/><path fill="#F1ECE0" d="M267.125 26.668a.924.924 0 0 1-1.266-.327.93.93 0 0 1 .33-1.27.924.924 0 0 1 1.267.326.933.933 0 0 1-.332 1.272z"/><path fill="#DFD2B9" d="M265.992 26.295a.928.928 0 0 1 .33-1.27c.03-.02.064-.033.098-.046a.858.858 0 0 0-.23.09.933.933 0 0 0-.33 1.272c.24.41.744.56 1.17.372a.923.923 0 0 1-1.038-.42z"/><path fill="#F6F4EC" d="M255.624 20.106c-5.114 3.028-6.825 9.63-3.82 14.75 3.007 5.118 9.59 6.814 14.702 3.785l-10.882-18.534z"/><path fill="#DFD2B9" d="M261.057 29.354l-9.263 5.48a.05.05 0 0 1 .01.02c3.007 5.12 9.59 6.815 14.702 3.786l-5.45-9.286z"/><path fill="#F1ECE0" d="M258.2 24.49c-3.273 1.937-8.202 7.267-6.28 10.543 1.925 3.277 8.765 1.207 12.04-.73l-5.76-9.812z"/><path fill="#F6F4EC" d="M251.737 79.63l-14.4-22.028 14.71-9.617 14.4 22.027z"/><path fill="#F1ECE0" d="M251.73 79.644l-7.2-11.014 14.712-9.615 7.198 11.013zM224.89 40.183l-14.4-22.027 14.712-9.618 14.4 22.027z"/><path fill="#F6F4EC" d="M217.642 29.123l-7.168-10.964 14.71-9.62 7.17 10.963z"/></svg>