<?xml version="1.0" encoding="utf-8"?>
<!-- Generator: Adobe Illustrator 15.0.0, SVG Export Plug-In . SVG Version: 6.00 Build 0)  -->
<!DOCTYPE svg PUBLIC "-//W3C//DTD SVG 1.1//EN" "http://www.w3.org/Graphics/SVG/1.1/DTD/svg11.dtd">
<svg version="1.1" id="Layer_1" xmlns="http://www.w3.org/2000/svg" xmlns:xlink="http://www.w3.org/1999/xlink" x="0px" y="0px"
	 width="215.584px" height="64.285px" viewBox="0 0 215.584 64.285" enable-background="new 0 0 215.584 64.285"
	 xml:space="preserve">
<g>
	<g>
		<path fill="#4A4A4A" d="M3.24,59.765l5.85-0.822V37.491l6.63-0.932v21.451l5.851-0.822V29.888L3.24,32.464V59.765z M26.055,56.558
			l18.33-2.576V26.682l-18.33,2.575V56.558z M31.904,34.286l6.63-0.932v15.6l-6.63,0.932V34.286z M66.691,23.546L51.95,25.619
			l-2.886,21.855l-2.263,0.318v9.438l5.851-0.822v-3.588l10.451-1.469v3.588l5.851-0.822v-9.438l-2.263,0.318V23.546z
			 M60.842,45.819l-6.084,0.854l2.145-15.9l3.939-0.553V45.819z M90.209,20.242l-14.742,2.072L72.58,44.169l-2.262,0.318v9.438
			l5.85-0.822v-3.588l10.453-1.469v3.588l5.85-0.822v-9.438l-2.262,0.316V20.242z M84.358,42.515l-6.084,0.854l2.146-15.9
			l3.938-0.555V42.515z M95.59,46.786l17.94-2.521v-5.852l-12.09,1.699v-4.875l6.162-0.865v-5.85l-6.162,0.865v-4.875l12.09-1.699
			v-5.85l-17.94,2.521V46.786z M117.43,43.716l5.851-0.822v-8.189l12.479-1.754V13.839l-18.33,2.576V43.716z M123.28,21.444
			l6.63-0.932v7.409l-6.63,0.933V21.444z M168.949,9.175l-5.967,0.839l-5.109,11.326l-1.561,0.22V10.952l-5.85,0.821v10.608
			l-1.56,0.22l-5.109-9.891l-5.967,0.84l6.396,12.282l-6.785,15.071l6.24-0.877l5.226-11.576l1.56-0.219v10.842l5.85-0.822V27.41
			l1.561-0.22l5.227,10.108l6.239-0.877l-6.786-13.165L168.949,9.175z M191.686,5.98l-6.162,0.866l-5.109,11.326l-2.69,0.378V7.943
			l-5.851,0.821v27.299l5.851-0.822V24.4l2.69-0.378l5.227,10.108l6.436-0.904l-6.981-13.137L191.686,5.98z M209.431,3.486
			L195.43,5.455l-2.652,27.671l5.85-0.822l0.586-6.517l6.435-0.904l0.585,6.353l5.85-0.822L209.431,3.486z M199.72,19.867
			l0.858-9.286l3.705-0.521l0.857,9.045L199.72,19.867z"/>
	</g>
</g>
</svg>
