<svg xmlns="http://www.w3.org/2000/svg" width="215.584" height="64.285" viewBox="0 0 215.584 64.285"><path fill="#4A4A4A" d="M3.24 59.765l5.85-.822V37.49l6.63-.93v21.45l5.85-.822v-27.3L3.24 32.464v27.3zm22.815-3.207l18.33-2.576v-27.3l-18.33 2.575v27.3zm5.85-22.272l6.63-.932v15.6l-6.63.932v-15.6zm34.786-10.74L51.95 25.62l-2.886 21.854-2.263.318v9.438l5.852-.822V52.82l10.45-1.47v3.59l5.852-.823V44.68l-2.263.317v-21.45zM60.843 45.82l-6.084.853 2.145-15.9 3.94-.553v15.6zM90.21 20.24l-14.743 2.072L72.58 44.17l-2.262.317v9.438l5.85-.822v-3.588l10.453-1.47v3.59l5.85-.823v-9.438l-2.26.316V20.242zm-5.852 22.273l-6.084.854 2.146-15.9 3.938-.556v15.6zm11.232 4.27l17.94-2.52v-5.852l-12.09 1.7v-4.876l6.162-.865v-5.85l-6.162.865v-4.875l12.09-1.7v-5.85l-17.94 2.522v27.302zm21.84-3.07l5.85-.82v-8.19l12.48-1.754V13.84l-18.33 2.575v27.3zm5.85-22.27l6.63-.933v7.41l-6.63.932v-7.41zm45.67-12.27l-5.968.84-5.11 11.325-1.56.22V10.952l-5.85.82v10.61l-1.56.22-5.11-9.892-5.966.84 6.396 12.282-6.785 15.07 6.24-.876 5.226-11.576 1.56-.22v10.843l5.85-.822V27.41l1.56-.22 5.228 10.108 6.24-.877-6.786-13.164 6.395-14.08zm22.736-3.195l-6.162.866-5.11 11.326-2.69.378V7.943l-5.85.82v27.3l5.85-.822V24.4l2.69-.378 5.228 10.108 6.436-.904-6.98-13.137 6.588-14.11zm17.745-2.494l-14 1.97-2.652 27.67 5.85-.822.586-6.517 6.435-.904.584 6.353 5.85-.822-2.653-26.928zm-9.71 16.38l.858-9.285 3.705-.52.857 9.045-5.42.762z"/></svg>