<svg xmlns="http://www.w3.org/2000/svg" width="186.364" height="128.571" viewBox="0 0 186.364 128.571"><path fill="#F2EBDA" d="M33.422 49.308L45 47.68v3.976l6.48-.91V40.29l-2.507.354V16.882l-16.33 2.295-3.197 24.21-2.505.35v10.455l6.48-.91v-3.974zm4.708-24.422l4.363-.613v17.28l-6.74.947 2.377-17.614zm21.99 13.542l7.127-1.002.648 7.037 6.48-.91-2.938-29.828-15.51 2.18-2.937 30.652 6.48-.91.65-7.22zm1.51-16.844l4.105-.577.95 10.018-6.004.844.95-10.286zm35.64 12.27l-13.39 1.883v-5.4l6.825-.96V22.9l-6.826.958v-5.4l13.39-1.88v-6.48L77.4 12.89v30.24l19.87-2.793v-6.482zM131.53 5.282l-6.48.91v23.76l-5.4.76V6.95l-6.48.91v23.76l-5.398.76V8.62l-6.48.91v30.24l30.24-4.25V5.28zm24.537 7.654l-13.393 1.882V3.714l-6.48.91v30.24l19.873-2.793V12.935zm-6.48 13.57l-6.912.97v-6.178l6.912-.97v6.177zM38.838 85.113v-4.646l-1.114.156v-10.56l-7.257 1.02-1.42 10.76-1.114.156v4.646l2.88-.403v-1.767l5.146-.723v1.766l2.878-.406zm-3.993-4.086l-2.995.422 1.056-7.83 1.94-.27v7.678zm5.337 2.13l9.024-1.268V68.45l-9.024 1.268v13.44zm2.88-10.965l3.264-.458v7.68l-3.264.46v-7.682zm6.99 6.698v2.88l3.436-.48 1.306-10.744 2.035-.287v10.56l2.88-.405v-13.44l-7.43 1.043-1.19 10.728-1.04.145zm19.64-13.32l-7.968 1.12v13.44l2.88-.405v-10.56l5.088-.714v-2.88zm1.306 13.257l9.024-1.268V64.12l-9.024 1.268v13.44zm2.88-10.965l3.264-.458v7.68l-3.264.46V67.86zm17.184-1.11v-4.186l-9.024 1.27v13.44l9.024-1.27V71.82l-2.88.405v1.306l-3.264.46v-7.68l3.264-.46v1.306l2.88-.403zm10.847-5.71l-9.024 1.27v13.44l2.88-.406v-4.03l6.144-.865v-9.407zm-2.88 6.933l-3.265.46v-3.65l3.265-.457v3.647zm4.8 6.238l9.023-1.27v-13.44l-9.024 1.27v13.44zm2.88-10.964l3.264-.46v7.68l-3.264.46v-7.68zm16.588 8.227v-13.44l-2.88.405v5.95l-3.07.434v-5.952l-2.882.404v8.832l5.953-.836v4.607l2.878-.403zm8.16-1.146l2.88-.404v-13.44l-2.88.404v5.222l-3.264.46v-5.223l-2.88.403v13.44l2.88-.405V65.45l3.264-.458v5.34zm13.92-1.956v-13.44l-9.023 1.27V69.64l9.023-1.268zm-6.145-9.697l3.265-.46V65.9l-3.265.458v-7.68zm16.993-2.387v-2.88l-8.832 1.24v13.44l8.832-1.24v-2.88l-5.95.836v-2.4l3.032-.425V59.1l-3.033.427v-2.4l5.95-.837zM2.584 122.042l4.32-.607v-15.84l4.896-.688v15.84l4.32-.606V99.98l-13.536 1.902v20.16zm17.51-22.622l-1.957 20.436 4.32-.606.432-4.813 4.75-.667.433 4.69 4.32-.606-1.958-19.885-10.34 1.45zm3.17 10.644l.632-6.857 2.736-.384.634 6.68-4.003.56zm11.144 7.506l4.32-.607v-6.048l9.216-1.295V95.507L34.408 97.41v20.16zm4.32-16.447l4.896-.688v5.473l-4.896.688v-5.473zm10.598-1.49l4.608-.647v15.84l4.32-.607V98.376l4.608-.646v-4.32l-13.536 1.903v4.32zm24.768.033l-4.896.688V92.52l-4.32.607v20.16l4.32-.607v-8.007l4.896-.688v8.007l4.32-.607v-20.16l-4.32.607v7.834zm7.344 11.293l13.248-1.862v-4.32l-8.928 1.255v-3.6l4.55-.64v-4.32l-4.55.64v-3.6l8.928-1.255v-4.32L81.438 90.8v20.16zm15.84-2.226l4.32-.606v-6.05l9.215-1.294V86.67l-13.536 1.903v20.16zm4.32-16.446l4.896-.688v5.472l-4.896.688v-5.472zm12.095 14.138l13.536-1.902v-6.278l-4.32.607v1.958l-4.897.69V89.98l4.896-.688v1.96l4.32-.61v-6.277l-13.537 1.903v20.158zm15.264-17.984l4.608-.648v15.84l4.32-.607v-15.84l4.607-.647v-4.32l-13.536 1.902v4.32zm15.552 13.654l13.535-1.902V92.13l-2.505-1.663 2.505-2.368v-8.065l-13.536 1.902v20.16zm4.32-16.447l4.895-.69v2.275l-1.556 1.688-3.342.47V85.65zm0 7.774l3.34-.47 1.556 1.25v2.276l-4.896.688v-3.744zm12.24 6.345l13.534-1.904v-20.16L161.07 79.61v20.16zm4.32-16.45l4.895-.687v11.52l-4.896.688V83.32zm16.242 7.222l.432-13.885-4.35.612.434 13.762 3.484-.49zm-3.83 6.875l4.176-.586v-4.176l-4.176.587v4.177z"/></svg>