<?xml version="1.0" encoding="utf-8"?>
<!-- Generator: Adobe Illustrator 15.0.0, SVG Export Plug-In . SVG Version: 6.00 Build 0)  -->
<!DOCTYPE svg PUBLIC "-//W3C//DTD SVG 1.1//EN" "http://www.w3.org/Graphics/SVG/1.1/DTD/svg11.dtd">
<svg version="1.1" id="Layer_1" xmlns="http://www.w3.org/2000/svg" xmlns:xlink="http://www.w3.org/1999/xlink" x="0px" y="0px"
	 width="186.364px" height="128.571px" viewBox="0 0 186.364 128.571" enable-background="new 0 0 186.364 128.571"
	 xml:space="preserve">
<g>
	<g>
		<path fill="#F2EBDA" d="M33.422,49.308l11.577-1.627v3.975l6.48-0.911V40.291l-2.506,0.353V16.882l-16.33,2.295l-3.197,24.209
			l-2.505,0.352v10.454l6.48-0.91V49.308z M38.13,24.886l4.363-0.613v17.28L35.754,42.5L38.13,24.886z M60.119,38.428l7.128-1.002
			l0.648,7.037l6.48-0.911l-2.938-29.827l-15.509,2.179l-2.938,30.653l6.48-0.911L60.119,38.428z M61.631,21.584l4.104-0.577
			l0.951,10.018l-6.005,0.844L61.631,21.584z M97.271,33.855l-13.392,1.882v-5.399l6.826-0.96v-6.479l-6.826,0.959v-5.4
			l13.392-1.881v-6.48l-19.872,2.793v30.239l19.872-2.792V33.855z M131.528,5.281l-6.48,0.91v23.76l-5.4,0.759V6.95l-6.479,0.911
			v23.76l-5.399,0.759V8.619l-6.48,0.912V39.77l30.24-4.25V5.281z M156.065,12.934l-13.393,1.882V3.714l-6.479,0.91v30.24
			l19.872-2.793V12.934z M149.585,26.503l-6.912,0.971v-6.178l6.912-0.971V26.503z M38.838,85.114v-4.646l-1.114,0.156V70.063
			l-7.257,1.021l-1.421,10.759L27.933,82v4.646l2.88-0.403v-1.767l5.146-0.723v1.766L38.838,85.114z M34.845,81.028L31.85,81.45
			l1.056-7.829l1.939-0.272V81.028z M40.182,83.159l9.024-1.269V68.45l-9.024,1.268V83.159z M43.062,72.193l3.264-0.458v7.68
			l-3.264,0.459V72.193z M50.051,78.891v2.88l3.437-0.482l1.306-10.743l2.035-0.287v10.561l2.88-0.405V66.974l-7.43,1.044
			l-1.19,10.728L50.051,78.891z M69.692,65.571l-7.968,1.12V80.13l2.88-0.405v-10.56l5.088-0.714V65.571z M70.998,78.827
			l9.024-1.268v-13.44l-9.024,1.269V78.827z M73.878,67.862l3.264-0.458v7.68l-3.264,0.459V67.862z M91.062,66.753v-4.187
			l-9.024,1.269v13.44l9.024-1.268v-4.187l-2.88,0.405v1.306l-3.264,0.458v-7.68l3.264-0.458v1.305L91.062,66.753z M101.909,61.043
			l-9.023,1.268v13.44l2.88-0.405v-4.031l6.144-0.864V61.043z M99.03,67.975l-3.265,0.459v-3.648l3.265-0.458V67.975z
			 M103.829,74.213l9.024-1.269v-13.44l-9.024,1.268V74.213z M106.71,63.249l3.264-0.459v7.68l-3.264,0.459V63.249z M123.298,71.477
			v-13.44l-2.879,0.405v5.951l-3.072,0.433v-5.952l-2.881,0.404v8.832l5.953-0.836v4.607L123.298,71.477z M131.458,70.331
			l2.881-0.405V56.486l-2.881,0.404v5.222l-3.264,0.459v-5.222l-2.881,0.404v13.44l2.881-0.405v-5.337l3.264-0.459V70.331z
			 M145.378,68.374v-13.44l-9.023,1.269v13.439L145.378,68.374z M139.233,58.677l3.265-0.459v7.681l-3.265,0.459V58.677z
			 M156.226,56.29v-2.88l-8.832,1.241v13.44l8.832-1.241v-2.88l-5.951,0.836v-2.399l3.033-0.426v-2.881l-3.033,0.427v-2.4
			L156.226,56.29z M2.584,122.042l4.32-0.607v-15.84l4.896-0.688v15.841l4.32-0.607V99.98l-13.536,1.902V122.042z M20.095,99.42
			l-1.958,20.436l4.32-0.606l0.432-4.813l4.752-0.667l0.432,4.691l4.32-0.607l-1.958-19.885L20.095,99.42z M23.263,110.064
			l0.633-6.857l2.736-0.384l0.634,6.679L23.263,110.064z M34.408,117.57l4.32-0.607v-6.048l9.216-1.295V95.507L34.408,97.41V117.57z
			 M38.728,101.123l4.896-0.688v5.473l-4.896,0.688V101.123z M49.326,99.633l4.608-0.647v15.84l4.32-0.607V98.377l4.608-0.646v-4.32
			l-13.536,1.902V99.633z M74.094,99.666l-4.896,0.688V92.52l-4.32,0.607v20.16l4.32-0.607v-8.007l4.896-0.688v8.007l4.32-0.607
			v-20.16l-4.32,0.607V99.666z M81.438,110.959l13.248-1.861v-4.32l-8.928,1.255v-3.6l4.55-0.64v-4.32l-4.55,0.64v-3.601
			l8.928-1.254v-4.32L81.438,90.8V110.959z M97.277,108.734l4.32-0.606v-6.049l9.216-1.295V86.671l-13.536,1.902V108.734z
			 M101.598,92.288l4.896-0.688v5.472l-4.896,0.688V92.288z M113.693,106.426l13.536-1.902v-6.278l-4.32,0.607v1.958l-4.896,0.688
			V89.98l4.896-0.688v1.959l4.32-0.608v-6.278l-13.536,1.903V106.426z M128.957,88.442l4.608-0.648v15.84l4.32-0.607V87.187
			l4.607-0.647v-4.32l-13.536,1.902V88.442z M144.509,102.096l13.536-1.902v-8.064l-2.505-1.663l2.505-2.368v-8.064l-13.536,1.902
			V102.096z M148.829,85.649l4.896-0.688v2.274l-1.556,1.688l-3.341,0.47V85.649z M148.829,93.424l3.341-0.469l1.556,1.25v2.275
			l-4.896,0.688V93.424z M161.069,99.769l13.535-1.903V77.707l-13.535,1.901V99.769z M165.389,83.321l4.896-0.688v11.52
			l-4.896,0.688V83.321z M181.632,90.542l0.432-13.885l-4.349,0.612l0.433,13.763L181.632,90.542z M177.802,97.417l4.176-0.586
			v-4.177l-4.176,0.587V97.417z"/>
	</g>
</g>
</svg>
