<?xml version="1.0" encoding="utf-8"?>
<!-- Generator: Adobe Illustrator 15.0.0, SVG Export Plug-In . SVG Version: 6.00 Build 0)  -->
<!DOCTYPE svg PUBLIC "-//W3C//DTD SVG 1.1//EN" "http://www.w3.org/Graphics/SVG/1.1/DTD/svg11.dtd">
<svg version="1.1" id="Layer_1" xmlns="http://www.w3.org/2000/svg" xmlns:xlink="http://www.w3.org/1999/xlink" x="0px" y="0px"
	 width="298.09px" height="158.604px" viewBox="0 0 298.09 158.604" enable-background="new 0 0 298.09 158.604"
	 xml:space="preserve">
<rect x="172.336" y="110.898" fill="#7E9998" width="0.328" height="196.571"/>
<g>
	<g opacity="0.3">
		<g>
			<defs>
				<path id="SVGID_1_" d="M10.514,121.087c0,0-0.016,0.229-0.016,0.343c0,17.496,113.168,36.281,167.461,31.514
					c20.609-1.811,40.463-13.185,40.463-30.681c0-0.382-0.023-1.139-0.023-1.139L10.514,121.087z"/>
			</defs>
			<clipPath id="SVGID_2_">
				<use xlink:href="#SVGID_1_"  overflow="visible"/>
			</clipPath>
		</g>
		<g>
			<defs>
				<path id="SVGID_3_" d="M10.514,120.586c0,0-0.016,0.142-0.016,0.211c0,10.79,113.168,22.374,167.461,19.435
					c20.609-1.115,40.463-8.13,40.463-18.92c0-0.233-0.023-0.701-0.023-0.701L10.514,120.586z"/>
			</defs>
			<clipPath id="SVGID_4_">
				<use xlink:href="#SVGID_3_"  overflow="visible"/>
			</clipPath>
		</g>
		<g>
			<defs>
				<rect id="SVGID_5_" x="109.904" y="106.536" width="51.5" height="13.938"/>
			</defs>
			<clipPath id="SVGID_6_">
				<use xlink:href="#SVGID_5_"  overflow="visible"/>
			</clipPath>
		</g>
		<path fill="#061D27" d="M10.514,121.087c0,0-0.016,0.229-0.016,0.343c0,17.496,113.168,36.281,167.461,31.514
			c20.609-1.811,40.463-13.185,40.463-30.681c0-0.382-0.023-1.139-0.023-1.139L10.514,121.087z"/>
		<g>
			<defs>
				<path id="SVGID_7_" d="M10.514,121.087c0,0-0.016,0.229-0.016,0.343c0,17.496,113.168,36.281,167.461,31.514
					c20.609-1.811,40.463-13.185,40.463-30.681c0-0.382-0.023-1.139-0.023-1.139L10.514,121.087z"/>
			</defs>
			<clipPath id="SVGID_8_">
				<use xlink:href="#SVGID_7_"  overflow="visible"/>
			</clipPath>
			<polygon clip-path="url(#SVGID_8_)" fill="#061D27" points="6.622,129.586 8.999,129.586 47.999,122.694 6.622,122.694 			"/>
		</g>
		<path fill="#061D27" d="M218.398,120.657c0,0,0.021-0.758,0.021-1.139c0-17.497-19.852-28.871-40.461-30.682
			c-54.292-4.768-167.461,14.018-167.461,31.516c0,0.113,0.016,0.342,0.016,0.342L218.398,120.657z"/>
		<path fill="#061D27" d="M218.398,120.671c0,0,0.021-0.467,0.021-0.701c0-10.789-19.852-17.804-40.461-18.92
			c-54.292-2.94-167.462,8.644-167.462,19.434c0,0.07,0.016,0.211,0.016,0.211L218.398,120.671z"/>
		<path fill="#061D27" d="M19.649,113.02L4.622,96.615l14.32-6.463l29.473,14.46c0,0-8.517,1.489-16.516,3.827
			S19.649,113.02,19.649,113.02z"/>
		<path fill="#061D27" d="M31.899,133.733c7.999,2.338,16.516,3.827,16.516,3.827l-28.473,14.46l-14.32-6.462l14.027-16.405
			C19.649,129.153,23.9,131.396,31.899,133.733z"/>
		<path fill="#061D27" d="M10.514,120.586c0,0-0.016,0.142-0.016,0.211c0,10.79,113.168,22.374,167.461,19.435
			c20.609-1.115,40.463-8.13,40.463-18.92c0-0.233-0.023-0.701-0.023-0.701L10.514,120.586z"/>
		<path fill="#061D27" d="M47.999,118.694v4H24.405v-4H47.999z"/>
		<path fill="#061D27" d="M24.405,118.694v4H3.622v-4H24.405z"/>
		<g>
			<defs>
				<path id="SVGID_9_" d="M10.514,120.586c0,0-0.016,0.142-0.016,0.211c0,10.79,113.168,22.374,167.461,19.435
					c20.609-1.115,40.463-8.13,40.463-18.92c0-0.233-0.023-0.701-0.023-0.701L10.514,120.586z"/>
			</defs>
			<clipPath id="SVGID_10_">
				<use xlink:href="#SVGID_9_"  overflow="visible"/>
			</clipPath>
			<polygon clip-path="url(#SVGID_10_)" fill="#061D27" points="6.622,129.586 8.999,129.586 47.999,122.694 6.622,122.694 			"/>
		</g>
		<path fill="#061D27" d="M115.402,116.983c-0.916,0.939-1.409,2.197-1.409,3.505c0,1.423,0.481,2.668,1.536,3.619
			c0.99,0.901,2.261,1.41,3.595,1.41c0.772,0,1.371-0.19,2.196-0.443v-2.985c-0.521,0.623-1.334,1.018-2.146,1.018
			c-1.549,0-2.592-1.093-2.592-2.604c0-1.485,1.027-2.653,2.553-2.653c0.352,0,0.695,0.064,1.018,0.188
			c0.398-0.718,0.773-1.431,1.166-2.119c-0.735-0.305-1.473-0.48-2.271-0.48C117.7,115.434,116.342,116.018,115.402,116.983z"/>
		<path fill="#061D27" d="M128.523,118.151c-0.457-0.381-1.041-0.635-1.649-0.635c-0.457,0-1.065,0.268-1.065,0.8
			c0,0.56,0.672,0.773,1.104,0.914l0.635,0.19c1.334,0.394,2.363,1.066,2.363,2.616c0,0.952-0.229,1.931-0.99,2.578
			c-0.75,0.635-1.754,0.901-2.719,0.901c-1.205,0-2.389-0.407-3.365-1.093l1.064-2.007c0.623,0.546,1.358,0.991,2.211,0.991
			c0.584,0,1.207-0.292,1.207-0.966c0-0.697-0.979-0.938-1.512-1.092c-1.562-0.443-2.593-0.852-2.593-2.705
			c0-1.942,1.386-3.213,3.304-3.213c0.965,0,2.146,0.305,2.998,0.787L128.523,118.151z"/>
		<path fill="#061D27" d="M136.98,118.151c-0.459-0.381-1.043-0.635-1.651-0.635c-0.457,0-1.065,0.268-1.065,0.8
			c0,0.56,0.674,0.773,1.104,0.914l0.635,0.19c1.334,0.394,2.36,1.066,2.36,2.616c0,0.952-0.229,1.931-0.989,2.578
			c-0.748,0.635-1.752,0.901-2.72,0.901c-1.204,0-2.387-0.407-3.362-1.093l1.065-2.007c0.621,0.546,1.357,0.991,2.209,0.991
			c0.584,0,1.207-0.292,1.207-0.966c0-0.697-0.979-0.938-1.512-1.092c-1.562-0.443-2.592-0.852-2.592-2.705
			c0-1.942,1.385-3.213,3.303-3.213c0.965,0,2.146,0.305,2.997,0.787L136.98,118.151z"/>
		<path fill="#061D27" d="M145.438,118.151c-0.457-0.381-1.041-0.635-1.651-0.635c-0.457,0-1.065,0.268-1.065,0.8
			c0,0.56,0.674,0.773,1.104,0.914l0.635,0.19c1.334,0.394,2.36,1.066,2.36,2.616c0,0.952-0.229,1.931-0.989,2.578
			c-0.748,0.635-1.752,0.901-2.718,0.901c-1.206,0-2.389-0.407-3.364-1.093l1.065-2.007c0.621,0.546,1.357,0.991,2.209,0.991
			c0.584,0,1.207-0.292,1.207-0.966c0-0.697-0.979-0.938-1.512-1.092c-1.562-0.443-2.592-0.852-2.592-2.705
			c0-1.942,1.387-3.213,3.305-3.213c0.965,0,2.146,0.305,2.994,0.787L145.438,118.151z"/>
		<path fill="#061D27" d="M156.273,125.263h-2.774l-2.351-3.684h-0.024v3.684h-2.488v-9.575h3.722c1.893,0,3.328,0.9,3.328,2.945
			c0,1.321-0.736,2.465-2.097,2.705L156.273,125.263z M151.124,119.98h0.242c0.812,0,1.727-0.151,1.727-1.192
			c0-1.042-0.913-1.194-1.727-1.194h-0.242V119.98z"/>
		<g>
			<defs>
				<rect id="SVGID_11_" x="109.904" y="106.536" width="51.5" height="13.938"/>
			</defs>
			<clipPath id="SVGID_12_">
				<use xlink:href="#SVGID_11_"  overflow="visible"/>
			</clipPath>
			<path clip-path="url(#SVGID_12_)" fill="#061D27" d="M115.402,116.983c-0.916,0.939-1.409,2.197-1.409,3.505
				c0,1.423,0.481,2.668,1.536,3.619c0.99,0.901,2.261,1.41,3.595,1.41c0.772,0,1.371-0.19,2.196-0.443v-2.985
				c-0.521,0.623-1.334,1.018-2.146,1.018c-1.549,0-2.592-1.093-2.592-2.604c0-1.485,1.027-2.653,2.553-2.653
				c0.352,0,0.695,0.064,1.018,0.188c0.398-0.718,0.773-1.431,1.166-2.119c-0.735-0.305-1.473-0.48-2.271-0.48
				C117.7,115.434,116.342,116.018,115.402,116.983z"/>
			<path clip-path="url(#SVGID_12_)" fill="#061D27" d="M128.523,118.151c-0.457-0.381-1.041-0.635-1.649-0.635
				c-0.457,0-1.065,0.268-1.065,0.8c0,0.56,0.672,0.773,1.104,0.914l0.635,0.19c1.334,0.394,2.363,1.066,2.363,2.616
				c0,0.952-0.229,1.931-0.99,2.578c-0.75,0.635-1.754,0.901-2.719,0.901c-1.205,0-2.389-0.407-3.365-1.093l1.064-2.007
				c0.623,0.546,1.358,0.991,2.211,0.991c0.584,0,1.207-0.292,1.207-0.966c0-0.697-0.979-0.938-1.512-1.092
				c-1.562-0.443-2.593-0.852-2.593-2.705c0-1.942,1.386-3.213,3.304-3.213c0.965,0,2.146,0.305,2.998,0.787L128.523,118.151z"/>
			<path clip-path="url(#SVGID_12_)" fill="#061D27" d="M136.98,118.151c-0.459-0.381-1.043-0.635-1.651-0.635
				c-0.457,0-1.065,0.268-1.065,0.8c0,0.56,0.674,0.773,1.104,0.914l0.635,0.19c1.334,0.394,2.36,1.066,2.36,2.616
				c0,0.952-0.229,1.931-0.989,2.578c-0.748,0.635-1.752,0.901-2.72,0.901c-1.204,0-2.387-0.407-3.362-1.093l1.065-2.007
				c0.621,0.546,1.357,0.991,2.209,0.991c0.584,0,1.207-0.292,1.207-0.966c0-0.697-0.979-0.938-1.512-1.092
				c-1.562-0.443-2.592-0.852-2.592-2.705c0-1.942,1.385-3.213,3.303-3.213c0.965,0,2.146,0.305,2.997,0.787L136.98,118.151z"/>
			<path clip-path="url(#SVGID_12_)" fill="#061D27" d="M145.438,118.151c-0.457-0.381-1.041-0.635-1.651-0.635
				c-0.457,0-1.065,0.268-1.065,0.8c0,0.56,0.674,0.773,1.104,0.914l0.635,0.19c1.334,0.394,2.36,1.066,2.36,2.616
				c0,0.952-0.229,1.931-0.989,2.578c-0.748,0.635-1.752,0.901-2.718,0.901c-1.206,0-2.389-0.407-3.364-1.093l1.065-2.007
				c0.621,0.546,1.357,0.991,2.209,0.991c0.584,0,1.207-0.292,1.207-0.966c0-0.697-0.979-0.938-1.512-1.092
				c-1.562-0.443-2.592-0.852-2.592-2.705c0-1.942,1.387-3.213,3.305-3.213c0.965,0,2.146,0.305,2.994,0.787L145.438,118.151z"/>
			<path clip-path="url(#SVGID_12_)" fill="#061D27" d="M156.273,125.263h-2.774l-2.351-3.684h-0.024v3.684h-2.488v-9.575h3.722
				c1.893,0,3.328,0.9,3.328,2.945c0,1.321-0.736,2.465-2.097,2.705L156.273,125.263z M151.124,119.98h0.242
				c0.812,0,1.727-0.151,1.727-1.192c0-1.042-0.913-1.194-1.727-1.194h-0.242V119.98z"/>
		</g>
		<g>
			<defs>
				<path id="SVGID_13_" d="M10.514,121.087c0,0-0.016,0.229-0.016,0.343c0,17.496,113.168,36.281,167.461,31.514
					c20.609-1.811,40.463-13.185,40.463-30.681c0-0.382-0.023-1.139-0.023-1.139L10.514,121.087z"/>
			</defs>
			<clipPath id="SVGID_14_">
				<use xlink:href="#SVGID_13_"  overflow="visible"/>
			</clipPath>
		</g>
		<g>
			<defs>
				<path id="SVGID_15_" d="M10.514,120.586c0,0-0.016,0.142-0.016,0.211c0,10.79,113.168,22.374,167.461,19.435
					c20.609-1.115,40.463-8.13,40.463-18.92c0-0.233-0.023-0.701-0.023-0.701L10.514,120.586z"/>
			</defs>
			<clipPath id="SVGID_16_">
				<use xlink:href="#SVGID_15_"  overflow="visible"/>
			</clipPath>
		</g>
		<g>
			<defs>
				<rect id="SVGID_17_" x="109.904" y="106.536" width="51.5" height="13.938"/>
			</defs>
			<clipPath id="SVGID_18_">
				<use xlink:href="#SVGID_17_"  overflow="visible"/>
			</clipPath>
		</g>
	</g>
	<g>
		<g>
			<g>
				<g>
					<g>
						<defs>
							<path id="SVGID_19_" d="M50.514,81.087c0,0-0.016,0.229-0.016,0.343c0,17.496,113.168,36.281,167.461,31.514
								c20.609-1.811,40.463-13.185,40.463-30.681c0-0.382-0.023-1.139-0.023-1.139L50.514,81.087z"/>
						</defs>
						<clipPath id="SVGID_20_">
							<use xlink:href="#SVGID_19_"  overflow="visible"/>
						</clipPath>
					</g>
				</g>
			</g>
			<g>
				<g>
					<g>
						<defs>
							<path id="SVGID_21_" d="M50.514,80.586c0,0-0.016,0.142-0.016,0.211c0,10.79,113.168,22.374,167.461,19.435
								c20.609-1.115,40.463-8.13,40.463-18.92c0-0.233-0.023-0.701-0.023-0.701L50.514,80.586z"/>
						</defs>
						<clipPath id="SVGID_22_">
							<use xlink:href="#SVGID_21_"  overflow="visible"/>
						</clipPath>
					</g>
				</g>
			</g>
			<g>
				<g>
					<defs>
						<rect id="SVGID_23_" x="149.904" y="66.536" width="51.5" height="13.938"/>
					</defs>
					<clipPath id="SVGID_24_">
						<use xlink:href="#SVGID_23_"  overflow="visible"/>
					</clipPath>
				</g>
			</g>
		</g>
		<g>
			<path fill="#EFE8D9" d="M50.514,81.087c0,0-0.016,0.229-0.016,0.343c0,17.496,113.168,36.281,167.461,31.514
				c20.609-1.811,40.463-13.185,40.463-30.681c0-0.382-0.023-1.139-0.023-1.139L50.514,81.087z"/>
			<g>
				<g>
					<g>
						<defs>
							<path id="SVGID_25_" d="M50.514,81.087c0,0-0.016,0.229-0.016,0.343c0,17.496,113.168,36.281,167.461,31.514
								c20.609-1.811,40.463-13.185,40.463-30.681c0-0.382-0.023-1.139-0.023-1.139L50.514,81.087z"/>
						</defs>
						<clipPath id="SVGID_26_">
							<use xlink:href="#SVGID_25_"  overflow="visible"/>
						</clipPath>
						<polygon clip-path="url(#SVGID_26_)" fill="#F0ECE5" points="46.622,89.586 48.999,89.586 87.999,82.694 46.622,82.694 						
							"/>
					</g>
				</g>
			</g>
			<path fill="#FCFBF6" d="M258.398,80.657c0,0,0.021-0.758,0.021-1.139c0-17.497-19.852-28.871-40.461-30.682
				C163.667,44.07,50.498,62.855,50.498,80.353c0,0.113,0.016,0.342,0.016,0.342L258.398,80.657z"/>
			<path fill="#F8F6EF" d="M258.398,80.671c0,0,0.021-0.467,0.021-0.701c0-10.789-19.852-17.804-40.461-18.92
				c-54.292-2.94-167.462,8.644-167.462,19.434c0,0.07,0.016,0.211,0.016,0.211L258.398,80.671z"/>
			<path fill="#F8F7F1" d="M59.649,73.02L44.622,56.615l14.32-6.463l29.473,14.46c0,0-8.517,1.489-16.516,3.827
				S59.649,73.02,59.649,73.02z"/>
			<path fill="#F8F7F1" d="M71.899,93.733c7.999,2.338,16.516,3.827,16.516,3.827l-28.473,14.46l-14.32-6.462l14.027-16.405
				C59.649,89.153,63.9,91.396,71.899,93.733z"/>
			<path fill="#F6F4E8" d="M50.514,80.586c0,0-0.016,0.142-0.016,0.211c0,10.79,113.168,22.374,167.461,19.435
				c20.609-1.115,40.463-8.13,40.463-18.92c0-0.233-0.023-0.701-0.023-0.701L50.514,80.586z"/>
			<path fill="#FCFBF7" d="M87.999,78.694v4H64.405v-4H87.999z"/>
			<path fill="#F8F5EE" d="M64.405,78.694v4H43.622v-4H64.405z"/>
			<g>
				<g>
					<g>
						<defs>
							<path id="SVGID_27_" d="M50.514,80.586c0,0-0.016,0.142-0.016,0.211c0,10.79,113.168,22.374,167.461,19.435
								c20.609-1.115,40.463-8.13,40.463-18.92c0-0.233-0.023-0.701-0.023-0.701L50.514,80.586z"/>
						</defs>
						<clipPath id="SVGID_28_">
							<use xlink:href="#SVGID_27_"  overflow="visible"/>
						</clipPath>
						<polygon clip-path="url(#SVGID_28_)" fill="#F3EFE5" points="46.622,89.586 48.999,89.586 87.999,82.694 46.622,82.694 						
							"/>
					</g>
				</g>
			</g>
			<path fill="#C62119" d="M155.402,76.983c-0.916,0.939-1.409,2.197-1.409,3.505c0,1.423,0.481,2.668,1.536,3.619
				c0.99,0.901,2.261,1.41,3.595,1.41c0.772,0,1.371-0.19,2.196-0.443v-2.985c-0.521,0.623-1.334,1.018-2.146,1.018
				c-1.549,0-2.592-1.093-2.592-2.604c0-1.485,1.027-2.653,2.553-2.653c0.352,0,0.695,0.064,1.018,0.188
				c0.398-0.718,0.773-1.431,1.166-2.119c-0.735-0.305-1.473-0.48-2.271-0.48C157.7,75.434,156.342,76.018,155.402,76.983z"/>
			<path fill="#C62119" d="M168.523,78.151c-0.457-0.381-1.041-0.635-1.649-0.635c-0.457,0-1.065,0.268-1.065,0.8
				c0,0.56,0.672,0.773,1.104,0.914l0.635,0.19c1.334,0.394,2.363,1.066,2.363,2.616c0,0.952-0.229,1.931-0.99,2.578
				c-0.75,0.635-1.754,0.901-2.719,0.901c-1.205,0-2.389-0.407-3.365-1.093l1.064-2.007c0.623,0.546,1.358,0.991,2.211,0.991
				c0.584,0,1.207-0.292,1.207-0.966c0-0.697-0.979-0.938-1.512-1.092c-1.562-0.443-2.593-0.852-2.593-2.705
				c0-1.942,1.386-3.213,3.304-3.213c0.965,0,2.146,0.305,2.998,0.787L168.523,78.151z"/>
			<path fill="#C62119" d="M176.98,78.151c-0.459-0.381-1.043-0.635-1.651-0.635c-0.457,0-1.065,0.268-1.065,0.8
				c0,0.56,0.674,0.773,1.104,0.914l0.635,0.19c1.334,0.394,2.36,1.066,2.36,2.616c0,0.952-0.229,1.931-0.989,2.578
				c-0.748,0.635-1.752,0.901-2.72,0.901c-1.204,0-2.387-0.407-3.362-1.093l1.065-2.007c0.621,0.546,1.357,0.991,2.209,0.991
				c0.584,0,1.207-0.292,1.207-0.966c0-0.697-0.979-0.938-1.512-1.092c-1.562-0.443-2.592-0.852-2.592-2.705
				c0-1.942,1.385-3.213,3.303-3.213c0.965,0,2.146,0.305,2.997,0.787L176.98,78.151z"/>
			<path fill="#C62119" d="M185.438,78.151c-0.457-0.381-1.041-0.635-1.651-0.635c-0.457,0-1.065,0.268-1.065,0.8
				c0,0.56,0.674,0.773,1.104,0.914l0.635,0.19c1.334,0.394,2.36,1.066,2.36,2.616c0,0.952-0.229,1.931-0.989,2.578
				c-0.748,0.635-1.752,0.901-2.718,0.901c-1.206,0-2.389-0.407-3.364-1.093l1.065-2.007c0.621,0.546,1.357,0.991,2.209,0.991
				c0.584,0,1.207-0.292,1.207-0.966c0-0.697-0.979-0.938-1.512-1.092c-1.562-0.443-2.592-0.852-2.592-2.705
				c0-1.942,1.387-3.213,3.305-3.213c0.965,0,2.146,0.305,2.994,0.787L185.438,78.151z"/>
			<path fill="#C62119" d="M196.273,85.263h-2.774l-2.351-3.684h-0.024v3.684h-2.488v-9.575h3.722c1.893,0,3.328,0.9,3.328,2.945
				c0,1.321-0.736,2.465-2.097,2.705L196.273,85.263z M191.124,79.98h0.242c0.812,0,1.727-0.151,1.727-1.192
				c0-1.042-0.913-1.194-1.727-1.194h-0.242V79.98z"/>
			<g>
				<g>
					<defs>
						<rect id="SVGID_29_" x="149.904" y="66.536" width="51.5" height="13.938"/>
					</defs>
					<clipPath id="SVGID_30_">
						<use xlink:href="#SVGID_29_"  overflow="visible"/>
					</clipPath>
					<g clip-path="url(#SVGID_30_)">
						<path fill="#D12D2C" d="M155.402,76.983c-0.916,0.939-1.409,2.197-1.409,3.505c0,1.423,0.481,2.668,1.536,3.619
							c0.99,0.901,2.261,1.41,3.595,1.41c0.772,0,1.371-0.19,2.196-0.443v-2.985c-0.521,0.623-1.334,1.018-2.146,1.018
							c-1.549,0-2.592-1.093-2.592-2.604c0-1.485,1.027-2.653,2.553-2.653c0.352,0,0.695,0.064,1.018,0.188
							c0.398-0.718,0.773-1.431,1.166-2.119c-0.735-0.305-1.473-0.48-2.271-0.48C157.7,75.434,156.342,76.018,155.402,76.983z"/>
						<path fill="#D12D2C" d="M168.523,78.151c-0.457-0.381-1.041-0.635-1.649-0.635c-0.457,0-1.065,0.268-1.065,0.8
							c0,0.56,0.672,0.773,1.104,0.914l0.635,0.19c1.334,0.394,2.363,1.066,2.363,2.616c0,0.952-0.229,1.931-0.99,2.578
							c-0.75,0.635-1.754,0.901-2.719,0.901c-1.205,0-2.389-0.407-3.365-1.093l1.064-2.007c0.623,0.546,1.358,0.991,2.211,0.991
							c0.584,0,1.207-0.292,1.207-0.966c0-0.697-0.979-0.938-1.512-1.092c-1.562-0.443-2.593-0.852-2.593-2.705
							c0-1.942,1.386-3.213,3.304-3.213c0.965,0,2.146,0.305,2.998,0.787L168.523,78.151z"/>
						<path fill="#D12D2C" d="M176.98,78.151c-0.459-0.381-1.043-0.635-1.651-0.635c-0.457,0-1.065,0.268-1.065,0.8
							c0,0.56,0.674,0.773,1.104,0.914l0.635,0.19c1.334,0.394,2.36,1.066,2.36,2.616c0,0.952-0.229,1.931-0.989,2.578
							c-0.748,0.635-1.752,0.901-2.72,0.901c-1.204,0-2.387-0.407-3.362-1.093l1.065-2.007c0.621,0.546,1.357,0.991,2.209,0.991
							c0.584,0,1.207-0.292,1.207-0.966c0-0.697-0.979-0.938-1.512-1.092c-1.562-0.443-2.592-0.852-2.592-2.705
							c0-1.942,1.385-3.213,3.303-3.213c0.965,0,2.146,0.305,2.997,0.787L176.98,78.151z"/>
						<path fill="#D12D2C" d="M185.438,78.151c-0.457-0.381-1.041-0.635-1.651-0.635c-0.457,0-1.065,0.268-1.065,0.8
							c0,0.56,0.674,0.773,1.104,0.914l0.635,0.19c1.334,0.394,2.36,1.066,2.36,2.616c0,0.952-0.229,1.931-0.989,2.578
							c-0.748,0.635-1.752,0.901-2.718,0.901c-1.206,0-2.389-0.407-3.364-1.093l1.065-2.007c0.621,0.546,1.357,0.991,2.209,0.991
							c0.584,0,1.207-0.292,1.207-0.966c0-0.697-0.979-0.938-1.512-1.092c-1.562-0.443-2.592-0.852-2.592-2.705
							c0-1.942,1.387-3.213,3.305-3.213c0.965,0,2.146,0.305,2.994,0.787L185.438,78.151z"/>
						<path fill="#D12D2C" d="M196.273,85.263h-2.774l-2.351-3.684h-0.024v3.684h-2.488v-9.575h3.722c1.893,0,3.328,0.9,3.328,2.945
							c0,1.321-0.736,2.465-2.097,2.705L196.273,85.263z M191.124,79.98h0.242c0.812,0,1.727-0.151,1.727-1.192
							c0-1.042-0.913-1.194-1.727-1.194h-0.242V79.98z"/>
					</g>
				</g>
			</g>
		</g>
		<g>
			<g>
				<g>
					<g>
						<defs>
							<path id="SVGID_31_" d="M50.514,81.087c0,0-0.016,0.229-0.016,0.343c0,17.496,113.168,36.281,167.461,31.514
								c20.609-1.811,40.463-13.185,40.463-30.681c0-0.382-0.023-1.139-0.023-1.139L50.514,81.087z"/>
						</defs>
						<clipPath id="SVGID_32_">
							<use xlink:href="#SVGID_31_"  overflow="visible"/>
						</clipPath>
					</g>
				</g>
			</g>
			<g>
				<g>
					<g>
						<defs>
							<path id="SVGID_33_" d="M50.514,80.586c0,0-0.016,0.142-0.016,0.211c0,10.79,113.168,22.374,167.461,19.435
								c20.609-1.115,40.463-8.13,40.463-18.92c0-0.233-0.023-0.701-0.023-0.701L50.514,80.586z"/>
						</defs>
						<clipPath id="SVGID_34_">
							<use xlink:href="#SVGID_33_"  overflow="visible"/>
						</clipPath>
					</g>
				</g>
			</g>
			<g>
				<g>
					<defs>
						<rect id="SVGID_35_" x="149.904" y="66.536" width="51.5" height="13.938"/>
					</defs>
					<clipPath id="SVGID_36_">
						<use xlink:href="#SVGID_35_"  overflow="visible"/>
					</clipPath>
				</g>
			</g>
		</g>
	</g>
</g>
</svg>
