<?xml version="1.0" encoding="utf-8"?>
<!-- Generator: Adobe Illustrator 17.1.0, SVG Export Plug-In . SVG Version: 6.00 Build 0)  -->
<!DOCTYPE svg PUBLIC "-//W3C//DTD SVG 1.0//EN" "http://www.w3.org/TR/2001/REC-SVG-20010904/DTD/svg10.dtd">
<svg version="1.0" id="Слой_1" xmlns="http://www.w3.org/2000/svg" xmlns:xlink="http://www.w3.org/1999/xlink" x="0px" y="0px"
	 viewBox="0 0 212 139" enable-background="new 0 0 212 139" xml:space="preserve">
<path opacity="0.3" fill="#B89F74" enable-background="new    " d="M156.5,88c-0.1-15.1-12.4-27.3-27.5-27.3c-0.9,0-1.7,0-2.6,0.1
	c-2.2-17.8-22.7-31.5-39.1-32.4c-11,0.6-23.8,6.9-31.7,16.5v-0.1c-3.9,4.6-6.5,10-7.3,15.9c-0.8-0.1-1.7-0.1-2.5-0.1
	c-15.1,0-27.4,12.2-27.5,27.3C5.4,90.5-1,101.7,2.5,112.6c3.5,10.9,15.9,18.7,28.1,18.7c3.5,0,6.8-0.6,9.8-1.8
	c4.4,3,9.6,4.8,15.1,5.1v0.1c0.5,0,1,0.1,1.6,0.1c4.4,0,8.5-0.9,12.2-2.6c5,3.3,11,5.3,17.4,5.3c0.2,0,0.3,0,0.5,0
	c0.2,0,0.3,0,0.5,0c6.5,0,12.5-2,17.5-5.3c3.7,1.7,7.9,2.6,12.3,2.6c6.2,0,12-1.9,16.8-5.1c3,1.2,6.3,1.8,9.8,1.8
	c12.3,0,24.6-7.8,28.2-18.7C175.8,101.8,169.5,90.6,156.5,88z"/>
<path fill="#FDFDFA" d="M193.8,61.7c-0.1-15.1-12.4-27.3-27.5-27.3c-0.9,0-1.7,0-2.6,0.1C161.5,16.6,141,3,124.6,2.1v108.9
	c0.2,0,0.3,0,0.5,0c6.5,0,12.5-2,17.5-5.3c3.7,1.7,7.9,2.6,12.3,2.6c6.2,0,12-1.9,16.8-5.1c3,1.2,6.3,1.8,9.8,1.8
	c12.3,0,24.6-7.8,28.2-18.7C213.2,75.5,206.8,64.3,193.8,61.7z"/>
<path fill="#FAF9F6" d="M166.7,61.7c0-15.1-7.5-27.3-16.7-27.3c-0.5,0-1,0-1.6,0.1C147,16.6,134.6,3,124.6,2.1v108.9
	c0.1,0,0.2,0,0.3,0c3.9,0,7.6-2,10.6-5.3c2.3,1.7,4.8,2.6,7.5,2.6c3.8,0,7.3-1.9,10.2-5.1c1.8,1.2,3.8,1.8,6,1.8
	c7.5,0,15-7.8,17.1-18.7C178.4,75.5,174.6,64.3,166.7,61.7z"/>
<path fill="#F0ECE0" d="M55.6,61.7C55.7,46.5,68,34.3,83.1,34.3c0.9,0,1.7,0,2.5,0.1c2.2-17.8,22.6-31.5,39-32.4v108.9
	c-0.2,0-0.3,0-0.5,0c-6.4,0-12.4-2-17.4-5.3c-3.7,1.7-7.9,2.6-12.2,2.6c-6.2,0-11.9-1.9-16.7-5.1c-3,1.2-6.3,1.8-9.8,1.8
	c-12.2,0-24.5-7.8-28.1-18.7C36.3,75.5,42.7,64.3,55.6,61.7z"/>
<path fill="#F7F5ED" d="M82.7,61.7c0-15.1,7.5-27.3,16.7-27.3c0.5,0,1,0,1.5,0.1c1.3-17.8,13.7-31.5,23.7-32.4v108.9
	c-0.1,0-0.2,0-0.3,0c-3.9,0-7.6-2-10.6-5.3c-2.3,1.7-4.8,2.6-7.4,2.6c-3.8,0-7.3-1.9-10.2-5.1c-1.8,1.2-3.8,1.8-6,1.8
	c-7.4,0-14.9-7.8-17.1-18.7C71,75.5,74.8,64.3,82.7,61.7z"/>
</svg>
