<svg version="1" xmlns="http://www.w3.org/2000/svg" viewBox="0 0 212 139"><path opacity=".3" fill="#B89F74" d="M156.5 88c-.1-15.1-12.4-27.3-27.5-27.3-.9 0-1.7 0-2.6.1-2.2-17.8-22.7-31.5-39.1-32.4-11 .6-23.8 6.9-31.7 16.5v-.1c-3.9 4.6-6.5 10-7.3 15.9-.8-.1-1.7-.1-2.5-.1-15.1 0-27.4 12.2-27.5 27.3C5.4 90.5-1 101.7 2.5 112.6c3.5 10.9 15.9 18.7 28.1 18.7 3.5 0 6.8-.6 9.8-1.8 4.4 3 9.6 4.8 15.1 5.1v.1c.5 0 1 .1 1.6.1 4.4 0 8.5-.9 12.2-2.6 5 3.3 11 5.3 17.4 5.3h1c6.5 0 12.5-2 17.5-5.3 3.7 1.7 7.9 2.6 12.3 2.6 6.2 0 12-1.9 16.8-5.1 3 1.2 6.3 1.8 9.8 1.8 12.3 0 24.6-7.8 28.2-18.7 3.5-11-2.8-22.2-15.8-24.8z"/><path fill="#FDFDFA" d="M193.8 61.7c-.1-15.1-12.4-27.3-27.5-27.3-.9 0-1.7 0-2.6.1C161.5 16.6 141 3 124.6 2.1V111h.5c6.5 0 12.5-2 17.5-5.3 3.7 1.7 7.9 2.6 12.3 2.6 6.2 0 12-1.9 16.8-5.1 3 1.2 6.3 1.8 9.8 1.8 12.3 0 24.6-7.8 28.2-18.7 3.5-10.8-2.9-22-15.9-24.6z"/><path fill="#FAF9F6" d="M166.7 61.7c0-15.1-7.5-27.3-16.7-27.3-.5 0-1 0-1.6.1C147 16.6 134.6 3 124.6 2.1V111h.3c3.9 0 7.6-2 10.6-5.3 2.3 1.7 4.8 2.6 7.5 2.6 3.8 0 7.3-1.9 10.2-5.1 1.8 1.2 3.8 1.8 6 1.8 7.5 0 15-7.8 17.1-18.7 2.1-10.8-1.7-22-9.6-24.6z"/><path fill="#F0ECE0" d="M55.6 61.7c.1-15.2 12.4-27.4 27.5-27.4.9 0 1.7 0 2.5.1 2.2-17.8 22.6-31.5 39-32.4v108.9h-.5c-6.4 0-12.4-2-17.4-5.3-3.7 1.7-7.9 2.6-12.2 2.6-6.2 0-11.9-1.9-16.7-5.1-3 1.2-6.3 1.8-9.8 1.8-12.2 0-24.5-7.8-28.1-18.7-3.6-10.7 2.8-21.9 15.7-24.5z"/><path fill="#F7F5ED" d="M82.7 61.7c0-15.1 7.5-27.3 16.7-27.3.5 0 1 0 1.5.1 1.3-17.8 13.7-31.5 23.7-32.4V111h-.3c-3.9 0-7.6-2-10.6-5.3-2.3 1.7-4.8 2.6-7.4 2.6-3.8 0-7.3-1.9-10.2-5.1-1.8 1.2-3.8 1.8-6 1.8-7.4 0-14.9-7.8-17.1-18.7-2-10.8 1.8-22 9.7-24.6z"/></svg>