<svg xmlns="http://www.w3.org/2000/svg" viewBox="1.7 -1.7 25.6 29.1"><g fill="#333"><path d="M19.8 9.3c1.6.4 3.3-.1 4.4-1.4l2.2-2.6c1.5-1.8 1.3-4.6-.5-6.1-1.9-1.5-4.7-1.2-6.2.6l-2.2 2.6c-1.1 1.3-1.3 3.1-.6 4.5l-1.3 1.5 2.5 2.9 1.7-2zm-.2-2.7c-.8-.6-.9-1.8-.2-2.6l2.2-2.6c.7-.8 1.8-.9 2.6-.2.8.6.9 1.8.3 2.6l-2.2 2.6c-.7.8-1.9.9-2.7.2zM11 14l-6.7 8c-1.4 1.6-1.1 4 .5 5.3L13.5 17 11 14z"/><path d="M24.4 27.4c1.6-1.4 1.8-3.8.5-5.4L12.2 7c.6-1.5.5-3.2-.6-4.5L9.4-.2C7.9-2 5.1-2.3 3.3-.7 1.5.8 1.2 3.6 2.8 5.4L4.9 8C6 9.3 7.7 9.8 9.3 9.4l15.1 18zm-8.6-14.6c0 .7-.6 1.3-1.3 1.3-.7 0-1.3-.6-1.3-1.3 0-.7.6-1.3 1.3-1.3.7 0 1.3.6 1.3 1.3zm-9-6.4L4.6 3.8c-.6-.8-.5-2 .3-2.6.8-.7 2-.6 2.6.2L9.7 4c.7.8.6 2-.2 2.6-.8.7-2 .6-2.7-.2z"/></g></svg>