<?xml version="1.0" encoding="utf-8"?>
<!-- Generator: Adobe Illustrator 18.0.0, SVG Export Plug-In . SVG Version: 6.00 Build 0)  -->
<!DOCTYPE svg PUBLIC "-//W3C//DTD SVG 1.1//EN" "http://www.w3.org/Graphics/SVG/1.1/DTD/svg11.dtd">
<svg version="1.1" id="Режим_изоляции"
	 xmlns="http://www.w3.org/2000/svg" xmlns:xlink="http://www.w3.org/1999/xlink" x="0px" y="0px" viewBox="23.4 3.7 47.6 59.1"
	 enable-background="new 23.4 3.7 47.6 59.1" xml:space="preserve">
<g id="Layer_1">
	<path fill="#333333" d="M26.9,59.4c0-1.6,0-13.8,0-26.1V11.8c0-2.4,0-4.1,0-4.6c3.1,0,31.3,0,32.6,0c0.8,0.8,7.2,6.8,8.1,7.6
		c0,0.4,0,42.8,0,47.6H71V13.3L60.8,3.7H23.4v8.1v21.5v29.5h47.6v-3.5C59.6,59.4,28.9,59.4,26.9,59.4z"/>
	<polygon fill="#333333" points="51.7,28.1 53.3,28.1 51.5,36.1 49.2,24.9 45.4,24.9 42.7,36.1 40.7,24.9 36.7,24.9 40.7,42.9 
		44.5,42.9 47.2,32.2 49.6,42.9 53.2,42.9 57.7,24.9 51.7,24.9 51.7,28.1 	"/>
</g>
</svg>
