<svg xmlns="http://www.w3.org/2000/svg" width="618" height="91" viewBox="0 0 618 91"><path fill="#01283E" d="M617.98 91.35l-.02-13.663-3.97 2.45-17.103.035.03-8.393 1.412-2.843-2.814.013-.003-5.545 1.807-1.483-3.024-.05-.748-4.448-1.707 4.404-2.3.11 1.784 1.437-.003 5.55-3.23-.067 3.138 2.76.075 8.53-3.436.032-4.378-3.395-.64-17.26 4.914-5.48-5.368-.166-.39-5.272 4.414-5.016-6.093.18-.82-11.15-2.032 10.875-6.118.628 4.498 2.818-.13 7.238-5.688.303 5.938 7.058-2.146 8.853-3.413-.252-13.522-17.217-11.366 8.912-.285 21.853-4.378.32-1.688-13.373-4.827-.406-.748 5.368-4.114-2.396.07-24.008-25.38-.037-.06 32.19-12.52.67-.025-11.216-14.272 10.446-1.604-11.17-12.557 8.748.467-1.576-.5-41.538-3.475-.12-.527 35.917-5.48-.557-.103-28.165-2.43-.267.028 28.48-5.593 1.13-.052 5.517-1.753.126-5.155-23.957 2.197-.396.096-3.56-2.275-.052-.44-6.954 2.724-.456-.096-3.334-2.497-.8 2.42-12.593 2.242-5.48-3.18-.733L437.595.768l-1.43 19.536-3.466.94 2.877 4.307-.636 13.97-2.55.388.25 2.04 2.81.605-.496 6.85-2.332-.025.224 2.432 2.164 1.543-.276 5.153-4.766 21.192-9.944-.69-4.946-11.608 7.73-13.42-1.49-9.857-14.64 2.137-5.226-5.06 1.043 8.73-9.273 12.47 16.408 7.894-2.955 9.712-7.86-.63.206-6.187-17.647-1.224-.992-32.755-14.985-.24-1.115 19.52-6.188 3.597.025 16.883-7.196.474-1.79-11.48 3.256-.403-.44-3.868-3.066-1.043-.95-11.265 2.5.404.085-3.612-2.697-.766-1.086-9.902-3.834-.25-.48 10.9-2.863-.05.888 2.188 2.284.482-1.43 12.352-2.758.344.438 3.273 2.326 1.06-2.93 11.47-4.17.215-2.93-26.438 2.765.25-.354-5.437-3.748-.95-1.578-10.383 3.3-.37.105-4.378-4.335-.336-1.153-7.257 2.153-4.264-8.842.628 2.038 2.905-.52 8.87-3.923 1.687 3.835 5.136-5.438 11.04.77 4.585 2.204-.208.195 13.73-.462-.32-13.332-.035-8.56-32.35-9.573-.397.604 4.8-9.91 27.438-6.14.983.012 6.428 6.936-.42.74 3.878-6.5 4.618-6.193-1.198-4.34-37.672 3.335-1.205-.86-6.032-33.68.36.293 4.82 4.335 1.457.51 8.03-15.492 17.565-2.963-.517.673-6.093-6.757-10.126-5.066-.11.628 2.472-11.42-.018.45-2.44-9.128-.067-.264 2.478-11.086.367-.317-2.93-5.284-.146.093 1.584-1.68.13-7.566 5.835-.28 16.227 5.192-.19-.32 5.87-5.955-.14-17.635-18.15-9.367.413-.25 3.8-17.394 15.306-4.818-.62-.56-9.437-12.46 3.6.248-25.207 30.532.525.32 1.8 7.506.276-.2-2.723-39.888-9.925-22.674 9.265-.19 2.163 4.61-.415 4.054-1.396 2.3-1.26 6.106-.057.21 26.406-12.57.61-.488 2.267-6.304.065L69.4 79.81l-3.435-.584.216-10.437 5.26.114.043-7.013-40.56-.028-.01-12.55-13.97-.015.032 12.594-8.538.063-.02 11.143 2.847.015-.056 14.018L.04 87.26l-.022 4.074 617.963.016z"/></svg>