<?xml version="1.0" encoding="UTF-8"?>
<!-- Generator: Adobe Illustrator 16.0.0, SVG Export Plug-In . SVG Version: 6.00 Build 0)  -->
<!DOCTYPE svg PUBLIC "-//W3C//DTD SVG 1.1//EN" "http://www.w3.org/Graphics/SVG/1.1/DTD/svg11.dtd">
<svg version="1.1" id="Layer_1" xmlns="http://www.w3.org/2000/svg" xmlns:xlink="http://www.w3.org/1999/xlink" x="0px" y="0px" width="618px" height="91px" viewBox="0 0 618 91" enable-background="new 0 0 618 91" xml:space="preserve">
<path fill="#01283E" d="M617.981,91.35l-0.02-13.663l-3.972,2.451l-17.102,0.034l0.029-8.393l1.413-2.842l-2.813,0.013l-0.003-5.545  l1.807-1.483l-3.024-0.051l-0.748-4.447l-1.707,4.404l-2.302,0.109l1.785,1.438l-0.003,5.551l-3.23-0.068l3.137,2.759l0.075,8.53  l-3.436,0.033l-4.378-3.395l-0.638-17.261l4.913-5.48l-5.368-0.165l-0.389-5.271l4.413-5.016l-6.093,0.181l-0.819-11.151  l-2.033,10.875l-6.118,0.628l4.498,2.818l-0.13,7.238l-5.688,0.302l5.938,7.058l-2.146,8.852l-3.412-0.252l-13.522-17.218  l-11.366,8.912l-0.284,21.853l-4.378,0.32l-1.688-13.373l-4.826-0.406l-0.748,5.369l-4.114-2.396l0.069-24.008l-25.38-0.037  l-0.06,32.189l-12.521,0.671l-0.024-11.216l-14.272,10.445l-1.604-11.17l-12.556,8.748l0.467-1.576l-0.501-41.538l-3.474-0.121  l-0.527,35.918l-5.479-0.557l-0.104-28.165l-2.431-0.267l0.029,28.481l-5.593,1.13l-0.052,5.516l-1.753,0.126l-5.155-23.958  l2.197-0.396l0.096-3.56l-2.275-0.052l-0.44-6.954l2.724-0.457l-0.096-3.334l-2.497-0.801l2.422-12.592l2.241-5.48l-3.18-0.733  l-2.167-18.686l-1.43,19.536l-3.466,0.939l2.878,4.308l-0.636,13.97l-2.551,0.387l0.25,2.041l2.81,0.604l-0.496,6.85l-2.332-0.025  l0.224,2.432l2.164,1.543l-0.276,5.153l-4.766,21.192l-9.944-0.689l-4.946-11.609l7.73-13.419l-1.49-9.858l-14.641,2.137  l-5.225-5.06l1.043,8.73l-9.273,12.47l16.408,7.894l-2.955,9.712l-7.859-0.629l0.205-6.188l-17.648-1.223l-0.992-32.755  l-14.986-0.242l-1.115,19.522l-6.188,3.596l0.025,16.883l-7.196,0.474l-1.791-11.479l3.256-0.404l-0.439-3.869l-3.067-1.043  l-0.949-11.264l2.498,0.404l0.086-3.611l-2.697-0.766l-1.086-9.902l-3.834-0.251l-0.481,10.902l-2.862-0.052l0.888,2.189  l2.284,0.482l-1.431,12.352l-2.757,0.344l0.439,3.273l2.326,1.061l-2.93,11.47l-4.17,0.215l-2.93-26.438l2.765,0.25l-0.353-5.437  l-3.748-0.949l-1.578-10.384l3.301-0.371l0.104-4.377l-4.335-0.335l-1.153-7.257l2.153-4.264l-8.842,0.628l2.038,2.904l-0.521,8.869  l-3.922,1.688l3.835,5.136l-5.438,11.039l0.769,4.586l2.205-0.208l0.195,13.729l-0.461-0.32l-13.332-0.034l-8.56-32.351  l-9.573-0.396l0.604,4.799l-9.911,27.439l-6.138,0.982l0.011,6.428l6.937-0.422l0.74,3.879l-6.499,4.618l-6.194-1.198l-4.339-37.672  l3.334-1.205l-0.861-6.033l-33.678,0.361l0.292,4.819l4.334,1.457l0.51,8.031L220.473,69.05l-2.963-0.517l0.673-6.093l-6.757-10.126  l-5.066-0.111l0.628,2.473l-11.419-0.018l0.448-2.439l-9.127-0.068l-0.264,2.477l-11.086,0.367l-0.317-2.93l-5.284-0.146  l0.094,1.585l-1.68,0.131l-7.566,5.834l-0.279,16.228l5.191-0.19l-0.32,5.869l-5.954-0.138L141.79,63.088l-9.367,0.412l-0.251,3.801  l-17.393,15.305l-4.817-0.621l-0.561-9.436L96.943,76.15l0.247-25.207l30.532,0.525l0.32,1.801l7.506,0.275l-0.199-2.723  L95.46,40.895L72.786,50.16l-0.191,2.163l4.61-0.415l4.055-1.396l2.299-1.259l6.107-0.058l0.211,26.406l-12.572,0.609l-0.487,2.267  l-6.304,0.065l-1.115,1.268l-3.434-0.584l0.216-10.437l5.259,0.115l0.043-7.013l-40.559-0.029l-0.01-12.551l-13.971-0.014  l0.032,12.594l-8.538,0.062l-0.02,11.143l2.847,0.015l-0.056,14.017L0.04,87.26l-0.022,4.074L617.981,91.35z"/>
</svg>