<svg xmlns="http://www.w3.org/2000/svg" viewBox="40 951.5 728.5 84.7"><path fill="#F4E0BE" d="M346.2 985.9h-.2.2zM169.1 970.3c.8 0 1.5-.7 1.5-1.5s-.6-1.5-1.5-1.5c-.8 0-1.5.7-1.5 1.5.2.9.9 1.5 1.5 1.5zM673.5 971.8c1.2.1 2.4-.8 2.5-1.8.1-1.1-.8-2.1-2-2.3s-2.4.8-2.5 1.8c-.3 1.2.7 2.2 2 2.3zM174.7 970.7c.8 0 1.5-.7 1.5-1.5.1-.8-.6-1.5-1.5-1.5-.8 0-1.5.7-1.5 1.5.2.8.8 1.5 1.5 1.5z"/><path fill="#F4E0BE" d="M715.2 983.7c-2.3-1.2.2-3.8 1.1-5.4.8-1.2 1.6-2.5 2.5-3.6l4.1-.5 1-3.3-2.5.3c.5-.5.8-1.1 1.2-1.6 2.8-3.7 5.7-7.3 8.9-10.8 0 0-2-.1-2.1-.1-.5 0-1.8-.1-2.1.1-3.7 4.2-7.3 8.6-10.6 13.1l-3.4.5-1.8 3.2 3-.3c-.1.2-.3.5-.5.8-1.1 1.8-2.3 3.5-3.3 5.4-.7 1.2-.5 1.7.8 2.5.5.3 1.1.6 1.7.8h-19.6c.2-.1 1.8-1.1 3-1.8 1.5-.8 5.2-8.7 5.2-8.7s-2.3-1-3.4-1-9.1 6.3-9.1 6.3l2.6-3.3-2.7-1.2s-2.4 3.4-7.3 9.7l-14.9.1c0-1.5 1.8-4.4 3.5-6.4l2.6-2.8-.7-1.8-9 1.8-.8 2.1 2.7.3s-2.1 3.3-2.6 3.7c-1 1.2-1.2 2.1-1 2.9l-18.4.2c1.5-.1 1.5-.5 1.5-1 .1-.6 4.8-7 4.8-7s.5-1.1.3-1.9c-.1-.9-.9-1.4-.9-1.4h-5.7V972h-2.4l-2.7 4.4h6.4l-3.8 5.9s-.8 1.5-.3 2.6h-17.1c.2-.3 1.1-.9 1.7-1.8-2.1.1-3.2.1-5.4-.1-.5 1-3.7 1.5-3.7 1.5s-.9-2.4.7-4.7c2.8-4.3 5.9-3.7 5.9-3.7s-.1 1-.8 2.3c1.8.1 3.7.5 5.4.5.8-2 1-4.1 1-4.1s-5.2-3.4-9.2-1.8c-8.8 3.6-9 12.2-9 12.2h-19c3.9-1 8.7-3.2 5.2-7.2-3-3.4-9.7-6.2-10.1-11-.3-3.4 2.6-6.1 5.2-7.5 1.4-.8 3.3-1.5 4.7-1.7 3.8-.8 4.1 1.8 4.1 1.8l3.8-1.1c-.5-3.2-8.9-2.9-14.5-.8-5.1 1.9-12.3 6.6-8.1 12.6 2.5 3.7 7.4 5.4 9.7 9.3 1.5 2.5-2.8 4.5-4.5 5.1-3.9 1.2-11.4-.9-11.4-.9l-1.5 1.5c-9.5 0-15.5.1-15.5.1-.5-.5-.8-1.1-.8-2-.2-3 1.1-7.5 1.1-7.5l-.8-.2.8-2.8s-5.4-2.5-9.1.2c-2.6 1.9-5 5-6.4 7.4-1.1 2.1-1.6 3.8-1.6 3.8s0 .6-.1.8h-18.8l10.1-12.2-3.9-.2s-1.5-.5-1.9 0c-4.4 3.9-6.4 9-6.4 9s.8-2.9 1.4-4.4c.5-1.5.9-2.8 1.5-4.3.1-.5-1.5-.7-1.6-.7-.9-.1-1.7-.2-2.4-.1h-.5c-.5.1-1.6 9.1-2.3 12.9h-15.9c-.5-.5-.8-1.1-.8-2-.2-3 1.1-7.5 1.1-7.5l-.8-.6.8-2.8s-5.4-2.5-9.1.2c-2.6 1.9-5 5-6.4 7.4-1.1 2.1-1.6 3.8-1.6 3.8s-.1.2-.1.5l-16.9.1c.5-.8 8.8-15.8 15.8-26.1l-5 .1h-15.2l-1.7 3.4s10-.1 13.8-.1c-5.7 9.1-12.8 21.8-13.5 22.7h-30.6s2.9 12.4 18.1 12.3c2.5 0 11.4-1.9 16.9-9.6h25.2c2.1 0 5.4-2.8 5.4-2.8s.5 2.8 1.5 2.8h51.1c2.1 0 5.4-2.8 5.4-2.8s.5 2.8 1.5 2.8l125-.2c-.5.5-.7 1.1-1.1 1.6-4.7 7.3-9.7 15.7-10.9 17.9l3.5.5c.8-1.4 5.7-8.7 11.6-16.6 1-1.4 1.9-2.6 2.8-3.7h37l.9-2.4h-6.9c-.7.4-1.5 0-2.1-.3zM436 987h23.6c-6.7 10.7-21.1 5.7-23.6 0zm57.3-6.9c-1.5 1.8-4.4 3.3-4.4 3.3s-.1-1.9 1.8-4.3c2-2.4 4.7-3.9 4.7-3.9s-.4 2.6-2.1 4.9zm58.1 0c-1.5 1.8-4.5 3.3-4.5 3.3s-.1-1.9 1.8-4.3c2-2.4 4.7-3.9 4.7-3.9s-.3 2.6-2 4.9zm137.1 4.5h-1c4.4-4.7 7.7-6.9 7.7-6.9s-.1.5-.5 1.1c-.8 1.4-2.8 3.4-2.8 3.4l-3.4 2.4zM343.9 983.1c-.2-3 1.1-7.7 1.1-7.7l-.8-.2.8-2.8s-5.4-2.5-9.1.2c-2.6 1.9-5 5.1-6.4 7.5-1.1 2.1-1.6 3.8-1.6 3.8l-18-.2-2.4-4.7-3.6-.5c5.4-3.2 10-3.6 10-3.6l2.4-2.9s-7.4.5-12.9 4.4l2-3.2-.8-1.8-8.7 3-.5 2.5 2.7.1-4.5 6.5-19.7.1c.1-.2 2.4-4.5 3.6-6.6.5-.7.9-2.7-.8-2.6-1.4 0-5.5.9-6.6 1.5.2-.5.3-2-1.6-1.8-2 .1-5.4 1-5.7 1.1l1.4-2.4-3.2-1.7-8.3 12.8-17.2.1c.2-.3 1.1-1 1.7-1.8-2.3.1-3.3.1-5.4-.1-.5 1.1-3.8 1.5-3.8 1.5s-1-1.7.8-4.2c2.9-4.4 6.1-3.8 6.1-3.8s-.1 1.1-.8 2.4c1.8.1 3.7.5 5.6.5.8-2.1 1.1-4.2 1.1-4.2s-5.4-3.5-9.5-1.8c-9 3.7-9.1 11.9-9.1 11.9s-2.5 0-5.4.1v.1l-12.6.1 1-1.7 5.7-8.4s-2.4-1.1-3.4-1.1c-1.1 0-9.3 6.5-9.3 6.5l2.7-3.4-2.8-1.4s-3.3 4.1-7 9.5l-18.4.1 1.6-2-3.6-.2s-9.5 6.4-5.2-2.1l9.5.1.8-2.6c.6-2-.5-4.2-.5-4.2s-4.2-2.9-8.2-1.1c-9 3.8-7.9 11.9-7.9 11.9s-10 .1-14.2.1c-2.9.1-5.7.1-5.7.1l8.9-14.2-3.3-2.8 9.9-14.8s-4.1-1.8-6-1.8c-1.9.1-16.1 11.3-16.1 11.3l4.5-5.7-5.7-2.4s-8.9 10.8-17.2 23.6c-10 15.4-19.8 33.2-19.8 33.2l9.1.1s7.5-14.4 18.9-30c12.6-17.2 21.1-21.7 21.1-21.7s-.1.8-.9 1.9c-1.5 2.4-4.2 6.1-4.2 6.1l1.7 1.5s-1.1 1.8-3 3.9c-4.6 5.2-14.4 13.8-14.4 13.8l64.9-.1c1.1.5.8 1.1.3 1.7-5 7.7-9.8 16.2-11.1 18.6-.1.2.1.7.5.7l3.7.1c.1 0 .3-.1.5-.2.8-1.5 4.8-9 10.8-17.1 7.3-10 12.3-12.6 12.3-12.6s-.1.5-.5 1.1c-.8 1.5-2.4 3.5-2.4 3.5l-4.4 3.9h59.2l4.6-6.9c3.8-1.7 4.1-.3 3.9-.1-.3.8-4.6 7.1-4.6 7.1l4.5-.1s4.4-7 4.7-7.2c.8-.5 1.6-.6 2.3-.5.1 0 .2 0 .5.1.9.2.5.9.5.9l-1.8 3.8-1.8 2.9 28.9-.1 2.8-5.2 3.8.1 2.1 5.1h29.5l4.5-2.1.2 1.9 5.4-.5c-1.1.3-2.6-.6-2.7-2.5zm-173.3-7.8c.7.2.8.8.2 2h-4.5c2.2-2.5 3.6-2.3 4.3-2zm167.2 4.5c-1.5 1.8-4.5 3.3-4.5 3.3s-.1-1.9 1.8-4.3c2-2.4 4.7-3.9 4.7-3.9s-.2 2.7-2 4.9zM397.7 981.3c1.1-3 4.7-7.3 4.7-7.3s-3.2-.5-4.3.1c-1.4.6-8.6 7.8-9.8 8-1.2.3 7.8-10 7.8-10l-4.8.1-8.8 11.7h-11.9c-.6 1-1 1.7-1.7 2.7h16.8l8.8-6.3c-.1.1-.3.6-2.3 3.4-1.9 2.9 1.6 2.8 1.6 2.8l18.2-.1c.5-.9.9-1.6 1.5-2.5l-14.8.1c-.1 0-2 0-1-2.7z"/><path fill="#74898F" d="M768.5 1033.8H547.2v.2h221.3v-.2zm-728.5 0v.2h220.8v-.2H40z"/><g fill="#F4E0BE"><path d="M280.4 1030.3h3v1.1h-1.9v4.1h-1.1v-5.2zM292.4 1030.3h1.1v5.2h-1.1v-3l-1.5 3h-1.1V1030.3h1.1v3l1.5-3zM300 1035.4v-5.2h3.5v1.1h-2.4v.9h2.4v3.2H300zm1.1-1.1h1.2v-1h-1.2v1zM311.1 1033.3v2H310V1030.1h1.1v2h.6l1-2h1.1l-1.2 2.5 1.4 2.7h-1.2l-1-2h-.7zM320.1 1030.3h2.7l.5 5.2h-1.1l-.1-1.2h-1.2l-.1 1.2h-1.1l.4-5.2zm.8 2.8h1l-.1-1.7h-.7l-.2 1.7zM333 1030.3v5.2h-1.1v-1.7h-.6l-.8 1.7h-1.2l.9-1.7h-.7v-3.5h3.5zm-1.1 1h-1.2v1.2h1.2v-1.2zM347.4 1034.8v-3.9h1.9v-.8h1.1v.8h1.9v3.9h-1.9v.9h-1.1v-.9h-1.9zm1-1h.9v-1.9h-.9v1.9zm1.9-1.9v1.9h.9v-1.9h-.9zM358.8 1030.3h3.5v3.6h-2.4v1.6h-1.1v-5.2zm1.1 1v1.4h1.2v-1.4h-1.2zM368.7 1030.3h3.5v5.2h-3.5v-5.2zm1.1 1v2.9h1.2v-2.9h-1.2zM378.7 1030.3h1.1v2h1.2v-2h1.1v5.2H381v-2h-1.2v2h-1.1V1030.3zM388.4 1030.3h3.5v1.1h-1.1v4.1h-1.1v-4.1h-1.2v-1.1zM398.2 1030.3h3.4v1.1h-2.3v.9h1.1v1.1h-1.1v.9h2.3v1.1h-3.4v-5.1zM408 1030.3h1.1v2h1.2v-2h1.1v5.2h-1.1v-2h-1.2v2H408V1030.3zM418.5 1030.3h2.8v4.1h.5v1.8h-1.1v-.7h-2v.7h-1.1v-1.8h.5l.4-4.1zm.6 4h1.1v-2.9h-.8l-.3 2.9zM435.9 1030.3h3.5v3.6H437v1.6h-1.1v-5.2zm1.1 1v1.4h1.2v-1.4H437zM445.9 1030.3h2.7l.5 5.2H448l-.1-1.2h-1.2l-.1 1.2h-1.1l.4-5.2zm.8 2.8h1l-.1-1.7h-.7l-.2 1.7zM455.3 1030.3h3.4v1.1l-1.2 1.5 1.2 1.5v1.1h-3.4v-1.1h2l-1.2-1.5 1.2-1.5h-2v-1.1zM464.9 1030.3h3.5v3.6H466v1.6h-1.1v-5.2zm1.2 1v1.4h1.2v-1.4h-1.2zM475 1030.3h2.7l.5 5.2H477l-.1-1.2h-1.1l-.1 1.2h-1.1l.4-5.2zm.7 2.8h1l-.1-1.7h-.6l-.3 1.7zM484.4 1035.4v-5.2h3.5v1.1h-2.4v.9h2.4v3.2h-3.5zm1.1-1.1h1.2v-1h-1.2v1zM494.3 1030.3h3.5v5.2h-3.5v-5.2zm1.2 1v2.9h1.2v-2.9h-1.2zM504 1030.3h3.5v1.1h-1.1v4.1h-1.1v-4.1h-1.1v-1.1h-.2zM514.8 1033.3v2h-1.1V1030.1h1.1v2h.6l1-2h1.1l-1.2 2.5 1.4 2.7h-1.4l-1-2h-.5zM523.8 1030.3h2.7l.5 5.2h-1.1l-.1-1.2h-1.2l-.1 1.2h-1.1l.4-5.2zm.8 2.8h1l-.1-1.7h-.7l-.2 1.7z"/></g></svg>