<?xml version="1.0" encoding="utf-8"?>
<!-- Generator: Adobe Illustrator 18.0.0, SVG Export Plug-In . SVG Version: 6.00 Build 0)  -->
<!DOCTYPE svg PUBLIC "-//W3C//DTD SVG 1.1//EN" "http://www.w3.org/Graphics/SVG/1.1/DTD/svg11.dtd">
<svg version="1.1" id="Слой_1" xmlns="http://www.w3.org/2000/svg" xmlns:xlink="http://www.w3.org/1999/xlink" x="0px" y="0px"
	 viewBox="40 951.5 728.5 84.7" enable-background="new 40 951.5 728.5 84.7" xml:space="preserve">
<path fill="#F4E0BE" d="M346.2,985.9H346H346.2z"/>
<path fill="#F4E0BE" d="M169.1,970.3c0.8,0,1.5-0.7,1.5-1.5c0-0.8-0.6-1.5-1.5-1.5c-0.8,0-1.5,0.7-1.5,1.5
	C167.8,969.7,168.5,970.3,169.1,970.3z"/>
<path fill="#F4E0BE" d="M673.5,971.8c1.2,0.1,2.4-0.8,2.5-1.8c0.1-1.1-0.8-2.1-2-2.3s-2.4,0.8-2.5,1.8
	C671.2,970.7,672.2,971.7,673.5,971.8z"/>
<path fill="#F4E0BE" d="M174.7,970.7c0.8,0,1.5-0.7,1.5-1.5c0.1-0.8-0.6-1.5-1.5-1.5c-0.8,0-1.5,0.7-1.5,1.5
	C173.4,970,174,970.7,174.7,970.7z"/>
<path fill="#F4E0BE" d="M715.2,983.7c-2.3-1.2,0.2-3.8,1.1-5.4c0.8-1.2,1.6-2.5,2.5-3.6l4.1-0.5l1-3.3l-2.5,0.3
	c0.5-0.5,0.8-1.1,1.2-1.6c2.8-3.7,5.7-7.3,8.9-10.8c0,0-2-0.1-2.1-0.1c-0.5,0-1.8-0.1-2.1,0.1c-3.7,4.2-7.3,8.6-10.6,13.1l-3.4,0.5
	l-1.8,3.2l3-0.3c-0.1,0.2-0.3,0.5-0.5,0.8c-1.1,1.8-2.3,3.5-3.3,5.4c-0.7,1.2-0.5,1.7,0.8,2.5c0.5,0.3,1.1,0.6,1.7,0.8h-18.8h-0.8
	c0.2-0.1,1.8-1.1,3-1.8c1.5-0.8,5.2-8.7,5.2-8.7s-2.3-1-3.4-1s-9.1,6.3-9.1,6.3l2.6-3.3l-2.7-1.2c0,0-2.4,3.4-7.3,9.7l-14.9,0.1
	c0-1.5,1.8-4.4,3.5-6.4l2.6-2.8l-0.7-1.8l-9,1.8l-0.8,2.1l2.7,0.3c0,0-2.1,3.3-2.6,3.7c-1,1.2-1.2,2.1-1,2.9l-18.4,0.2
	c1.5-0.1,1.5-0.5,1.5-1c0.1-0.6,4.8-7,4.8-7s0.5-1.1,0.3-1.9c-0.1-0.9-0.9-1.4-0.9-1.4h-5.7V972h-2.4l-2.7,4.4h6.4l-3.8,5.9
	c0,0-0.8,1.5-0.3,2.6h-17.1c0.2-0.3,1.1-0.9,1.7-1.8c-2.1,0.1-3.2,0.1-5.4-0.1c-0.5,1-3.7,1.5-3.7,1.5s-0.9-2.4,0.7-4.7
	c2.8-4.3,5.9-3.7,5.9-3.7s-0.1,1-0.8,2.3c1.8,0.1,3.7,0.5,5.4,0.5c0.8-2,1-4.1,1-4.1s-5.2-3.4-9.2-1.8c-8.8,3.6-9,12.2-9,12.2
	s-9.7,0-19,0c3.9-1,8.7-3.2,5.2-7.2c-3-3.4-9.7-6.2-10.1-11c-0.3-3.4,2.6-6.1,5.2-7.5c1.4-0.8,3.3-1.5,4.7-1.7
	c3.8-0.8,4.1,1.8,4.1,1.8l3.8-1.1c-0.5-3.2-8.9-2.9-14.5-0.8c-5.1,1.9-12.3,6.6-8.1,12.6c2.5,3.7,7.4,5.4,9.7,9.3
	c1.5,2.5-2.8,4.5-4.5,5.1c-3.9,1.2-11.4-0.9-11.4-0.9s-0.8,0.8-1.5,1.5c-9.5,0-15.5,0.1-15.5,0.1c-0.5-0.5-0.8-1.1-0.8-2
	c-0.2-3,1.1-7.5,1.1-7.5l-0.8-0.2l0.8-2.8c0,0-5.4-2.5-9.1,0.2c-2.6,1.9-5,5-6.4,7.4c-1.1,2.1-1.6,3.8-1.6,3.8s0,0.6-0.1,0.8h-18.8
	l10.1-12.2l-3.9-0.2c0,0-1.5-0.5-1.9,0c-4.4,3.9-6.4,9-6.4,9s0.8-2.9,1.4-4.4c0.5-1.5,0.9-2.8,1.5-4.3c0.1-0.5-1.5-0.7-1.6-0.7
	c-0.9-0.1-1.7-0.2-2.4-0.1c-0.2,0-0.5,0-0.5,0c-0.5,0.1-1.6,9.1-2.3,12.9h-15.9c-0.5-0.5-0.8-1.1-0.8-2c-0.2-3,1.1-7.5,1.1-7.5
	L500,975l0.8-2.8c0,0-5.4-2.5-9.1,0.2c-2.6,1.9-5,5-6.4,7.4c-1.1,2.1-1.6,3.8-1.6,3.8s-0.1,0.2-0.1,0.5l-16.9,0.1
	c0.5-0.8,8.8-15.8,15.8-26.1l-5,0.1h-15.2l-1.7,3.4c0,0,10-0.1,13.8-0.1c-5.7,9.1-12.8,21.8-13.5,22.7h-30.6c0,0,2.9,12.4,18.1,12.3
	c2.5,0,11.4-1.9,16.9-9.6l25.2,0c2.1,0,5.4-2.8,5.4-2.8s0.5,2.8,1.5,2.8h51.1c2.1,0,5.4-2.8,5.4-2.8s0.5,2.8,1.5,2.8
	c0.2,0,125-0.2,125-0.2c-0.5,0.5-0.7,1.1-1.1,1.6c-4.7,7.3-9.7,15.7-10.9,17.9l3.5,0.5c0.8-1.4,5.7-8.7,11.6-16.6
	c1-1.4,1.9-2.6,2.8-3.7h2.9h34.1c0.3-0.8,0.6-1.6,0.9-2.4h-6.9C716.6,984.4,715.8,984,715.2,983.7z M436,987h23.6
	C452.9,997.7,438.5,992.7,436,987z M493.3,980.1c-1.5,1.8-4.4,3.3-4.4,3.3s-0.1-1.9,1.8-4.3c2-2.4,4.7-3.9,4.7-3.9
	S495,977.8,493.3,980.1z M551.4,980.1c-1.5,1.8-4.5,3.3-4.5,3.3s-0.1-1.9,1.8-4.3c2-2.4,4.7-3.9,4.7-3.9S553.1,977.8,551.4,980.1z
	 M688.5,984.6h-1c4.4-4.7,7.7-6.9,7.7-6.9s-0.1,0.5-0.5,1.1c-0.8,1.4-2.8,3.4-2.8,3.4L688.5,984.6z"/>
<path fill="#F4E0BE" d="M343.9,983.1c-0.2-3,1.1-7.7,1.1-7.7l-0.8-0.2l0.8-2.8c0,0-5.4-2.5-9.1,0.2c-2.6,1.9-5,5.1-6.4,7.5
	c-1.1,2.1-1.6,3.8-1.6,3.8l-18-0.2l-2.4-4.7l-3.6-0.5c5.4-3.2,10-3.6,10-3.6l2.4-2.9c0,0-7.4,0.5-12.9,4.4l2-3.2l-0.8-1.8l-8.7,3
	l-0.5,2.5l2.7,0.1l-4.5,6.5l-19.7,0.1c0.1-0.2,2.4-4.5,3.6-6.6c0.5-0.7,0.9-2.7-0.8-2.6c-1.4,0-5.5,0.9-6.6,1.5
	c0.2-0.5,0.3-2-1.6-1.8c-2,0.1-5.4,1-5.7,1.1l1.4-2.4l-3.2-1.7l-8.3,12.8l-17.2,0.1c0.2-0.3,1.1-1,1.7-1.8c-2.3,0.1-3.3,0.1-5.4-0.1
	c-0.5,1.1-3.8,1.5-3.8,1.5s-1-1.7,0.8-4.2c2.9-4.4,6.1-3.8,6.1-3.8s-0.1,1.1-0.8,2.4c1.8,0.1,3.7,0.5,5.6,0.5
	c0.8-2.1,1.1-4.2,1.1-4.2s-5.4-3.5-9.5-1.8c-9,3.7-9.1,11.9-9.1,11.9s-2.5,0-5.4,0.1c0,0,0,0,0,0.1l-12.6,0.1l1-1.7l5.7-8.4
	c0,0-2.4-1.1-3.4-1.1c-1.1,0-9.3,6.5-9.3,6.5l2.7-3.4l-2.8-1.4c0,0-3.3,4.1-7,9.5l-18.4,0.1l1.6-2l-3.6-0.2c0,0-9.5,6.4-5.2-2.1
	l9.5,0.1l0.8-2.6c0.6-2-0.5-4.2-0.5-4.2s-4.2-2.9-8.2-1.1c-9,3.8-7.9,11.9-7.9,11.9s-10,0.1-14.2,0.1c-2.9,0.1-5.7,0.1-5.7,0.1
	l8.9-14.2l-3.3-2.8l9.9-14.8c0,0-4.1-1.8-6-1.8c-1.9,0.1-16.1,11.3-16.1,11.3l4.5-5.7l-5.7-2.4c0,0-8.9,10.8-17.2,23.6
	c-10,15.4-19.8,33.2-19.8,33.2l9.1,0.1c0,0,7.5-14.4,18.9-30c12.6-17.2,21.1-21.7,21.1-21.7s-0.1,0.8-0.9,1.9
	c-1.5,2.4-4.2,6.1-4.2,6.1l1.7,1.5c0,0-1.1,1.8-3,3.9c-4.6,5.2-14.4,13.8-14.4,13.8l64.9-0.1c1.1,0.5,0.8,1.1,0.3,1.7
	c-5,7.7-9.8,16.2-11.1,18.6c-0.1,0.2,0.1,0.7,0.5,0.7l3.7,0.1c0.1,0,0.3-0.1,0.5-0.2c0.8-1.5,4.8-9,10.8-17.1
	c7.3-10,12.3-12.6,12.3-12.6s-0.1,0.5-0.5,1.1c-0.8,1.5-2.4,3.5-2.4,3.5l-4.4,3.9h59.2l4.6-6.9c3.8-1.7,4.1-0.3,3.9-0.1
	c-0.3,0.8-4.6,7.1-4.6,7.1l4.5-0.1c0,0,4.4-7,4.7-7.2c0.8-0.5,1.6-0.6,2.3-0.5c0.1,0,0.2,0,0.5,0.1c0.9,0.2,0.5,0.9,0.5,0.9
	l-1.8,3.8l-1.8,2.9l28.9-0.1l2.8-5.2l3.8,0.1l2.1,5.1h29.5l4.5-2.1l0.2,1.9l5.4-0.5C345.5,985.9,344,985,343.9,983.1z M170.6,975.3
	c0.7,0.2,0.8,0.8,0.2,2h-4.5C168.5,974.8,169.9,975,170.6,975.3z M337.8,979.8c-1.5,1.8-4.5,3.3-4.5,3.3s-0.1-1.9,1.8-4.3
	c2-2.4,4.7-3.9,4.7-3.9S339.6,977.6,337.8,979.8z"/>
<path fill="#F4E0BE" d="M397.7,981.3c1.1-3,4.7-7.3,4.7-7.3s-3.2-0.5-4.3,0.1c-1.4,0.6-8.6,7.8-9.8,8c-1.2,0.3,7.8-10,7.8-10
	l-4.8,0.1l-8.8,11.7h-11.9c-0.6,1-1,1.7-1.7,2.7h16.8l8.8-6.3c-0.1,0.1-0.3,0.6-2.3,3.4c-1.9,2.9,1.6,2.8,1.6,2.8l18.2-0.1
	c0.5-0.9,0.9-1.6,1.5-2.5l-14.8,0.1C398.6,984,396.7,984,397.7,981.3z"/>
<g>
	<g>
		<path fill="#74898F" d="M768.5,1033.8H547.2v0.2h221.3V1033.8z M40,1033.8v0.2h220.8v-0.2H40z"/>
	</g>
</g>
<g>
	<path fill="#F4E0BE" d="M280.4,1030.3h3v1.1h-1.9v4.1h-1.1V1030.3L280.4,1030.3z"/>
	<path fill="#F4E0BE" d="M292.4,1030.3h1.1v5.2h-1.1v-3l-1.5,3h-1.1v-4.1v-1.1h1.1v3L292.4,1030.3z"/>
	<path fill="#F4E0BE" d="M300,1035.4v-5.2h3.5v1.1h-2.4v0.9h2.4v3.2H300z M301.1,1034.3h1.2v-1h-1.2V1034.3z"/>
	<path fill="#F4E0BE" d="M311.1,1033.3v2H310v-4.1v-1.1h1.1v2h0.6l1-2h1.1l-1.2,2.5l1.4,2.7h-1.2l-1-2L311.1,1033.3L311.1,1033.3z"
		/>
	<path fill="#F4E0BE" d="M320.1,1030.3h2.7l0.5,5.2h-1.1l-0.1-1.2h-1.2l-0.1,1.2h-1.1L320.1,1030.3z M320.9,1033.1h1l-0.1-1.7h-0.7
		L320.9,1033.1z"/>
	<path fill="#F4E0BE" d="M333,1030.3v5.2h-1.1v-1.7h-0.6l-0.8,1.7h-1.2l0.9-1.7h-0.7v-3.5H333z M331.9,1031.3h-1.2v1.2h1.2V1031.3z"
		/>
	<path fill="#F4E0BE" d="M347.4,1034.8v-3.9h1.9v-0.8h1.1v0.8h1.9v3.9h-1.9v0.9h-1.1v-0.9H347.4z M348.4,1033.8h0.9v-1.9h-0.9
		V1033.8z M350.3,1031.9v1.9h0.9v-1.9H350.3z"/>
	<path fill="#F4E0BE" d="M358.8,1030.3h3.5v3.6h-2.4v1.6h-1.1V1030.3z M359.9,1031.3v1.4h1.2v-1.4H359.9z"/>
	<path fill="#F4E0BE" d="M368.7,1030.3h3.5v5.2h-3.5V1030.3z M369.8,1031.3v2.9h1.2v-2.9H369.8z"/>
	<path fill="#F4E0BE" d="M378.7,1030.3h1.1v2h1.2v-2h1.1v5.2h-1.1v-2h-1.2v2h-1.1v-4.1V1030.3z"/>
	<path fill="#F4E0BE" d="M388.4,1030.3h3.5v1.1h-1.1v4.1h-1.1v-4.1h-1.2V1030.3z"/>
	<path fill="#F4E0BE" d="M398.2,1030.3h3.4v1.1h-2.3v0.9h1.1v1.1h-1.1v0.9h2.3v1.1h-3.4V1030.3z"/>
	<path fill="#F4E0BE" d="M408,1030.3h1.1v2h1.2v-2h1.1v5.2h-1.1v-2h-1.2v2H408v-4.1V1030.3z"/>
	<path fill="#F4E0BE" d="M418.5,1030.3h2.8v4.1h0.5v1.8h-1.1v-0.7h-2v0.7h-1.1v-1.8h0.5L418.5,1030.3z M419.1,1034.3h1.1v-2.9h-0.8
		L419.1,1034.3z"/>
	<path fill="#F4E0BE" d="M435.9,1030.3h3.5v3.6H437v1.6h-1.1V1030.3z M437,1031.3v1.4h1.2v-1.4H437z"/>
	<path fill="#F4E0BE" d="M445.9,1030.3h2.7l0.5,5.2h-1.1l-0.1-1.2h-1.2l-0.1,1.2h-1.1L445.9,1030.3z M446.7,1033.1h1l-0.1-1.7h-0.7
		L446.7,1033.1z"/>
	<path fill="#F4E0BE" d="M455.3,1030.3h3.4v1.1l-1.2,1.5l1.2,1.5v1.1h-3.4v-1.1h2l-1.2-1.5l1.2-1.5h-2V1030.3z"/>
	<path fill="#F4E0BE" d="M464.9,1030.3h3.5v3.6h-2.4v1.6h-1.1V1030.3z M466.1,1031.3v1.4h1.2v-1.4H466.1z"/>
	<path fill="#F4E0BE" d="M475,1030.3h2.7l0.5,5.2H477l-0.1-1.2h-1.1l-0.1,1.2h-1.1L475,1030.3z M475.7,1033.1h1l-0.1-1.7H476
		L475.7,1033.1z"/>
	<path fill="#F4E0BE" d="M484.4,1035.4v-5.2h3.5v1.1h-2.4v0.9h2.4v3.2H484.4z M485.5,1034.3h1.2v-1h-1.2V1034.3z"/>
	<path fill="#F4E0BE" d="M494.3,1030.3h3.5v5.2h-3.5V1030.3z M495.5,1031.3v2.9h1.2v-2.9H495.5z"/>
	<path fill="#F4E0BE" d="M504,1030.3h3.5v1.1h-1.1v4.1h-1.1v-4.1h-1.1v-1.1H504z"/>
	<path fill="#F4E0BE" d="M514.8,1033.3v2h-1.1v-4.1v-1.1h1.1v2h0.6l1-2h1.1l-1.2,2.5l1.4,2.7h-1.4l-1-2L514.8,1033.3L514.8,1033.3z"
		/>
	<path fill="#F4E0BE" d="M523.8,1030.3h2.7l0.5,5.2h-1.1l-0.1-1.2h-1.2l-0.1,1.2h-1.1L523.8,1030.3z M524.6,1033.1h1l-0.1-1.7h-0.7
		L524.6,1033.1z"/>
</g>
</svg>
