<svg xmlns="http://www.w3.org/2000/svg" width="539" height="537" viewBox="0 0 539 537"><path fill-rule="evenodd" clip-rule="evenodd" fill="#F2ECDE" d="M269.76 3.22c146.084 0 264.508 118.425 264.508 264.508S415.844 532.234 269.76 532.234c-146.08 0-264.506-118.424-264.506-264.507S123.677 3.22 269.76 3.22z"/><path fill-rule="evenodd" clip-rule="evenodd" fill="#333" d="M396.77 173.875l-7.442-22.39-8.756-15.325-13.174-18.763-17.842-15.726-12.95-9.213-14.687-7.963-32.27-8.85-23.538.425-17.83 2.42-15.774 6.297-22.415 10.848-11.887 11.39-9.265 7.715-9.227 10.975-7.703 14.072-6.062 12.49-2.87 8.483-3.262 10.363-.638 4.95 3.143 3.558 4.656-6.58 2.28-9.58 3.58-10.067 3.782-7.527 3.744-9.475 9.985-13.517 8.307-8.2 7.834-7.35 9.205-6.248 9.37-5.826 10.633-4.56 9.947-3.3 9.89-1.735 12.666-3.12 9.854-.4s8.886.506 10.753.046c1.865-.46 16.293 2.08 16.293 2.08l11.7 3.13 12.654 6.404 9.594 6.014 6.382 6.145 7.253 5.047 5.33 6.143 11.167 13.684 8.482 11.426 5.965 16.186 3.793 15.972 1.798 23.35-.07 14.07-2.98 11.438.048 13.447 6.19 1.678 6.334-20.417 1.63-21.292-3.6-22.818zm-4.38 73.278l-2.47-3.863-.934 2.6 2.79 5.328.39 6.805-.226 6.676-1.653 10.596-2.422 10.23-2.99 4.906-6.806-5.683-.91-10.658.742-11.285 2.304-7.502-2.103-1.997-2.41 9.617-3.45 10.255-3.78 10.02-2.908 5.33.12 7.443-.166 8.98-.226 9.476.697 9.83-.295 6.427-48.998 19.768-1.336 2.09 8.19-1.24 8.968-.933 8.73-2.977 8.647-2.754 8.826-.235 5.15-2.918 3.57-2.162 6.747.474 7.053.565 6.098 1.003-2.352-4.69-6.96-3.438.793-8.625-.888-23.158 1.088-2.67 7.303.105 4.064-5.34 3.39-13.27 1.714-12.383-.59-10.21-2.502-10.54zM64.685 267.63l13.47-10.703 8.258-7.114 3.57-5.057 3.59-3.984 4.833-4.487 6.794-4.987 8.354-6.522 4.654-3.202 4.75-4.396 5.542-4.75 4.703-4.358 6.77-6.523 5.104-3.697 7.29-5.696 4.135-1.736 3.628 1.003 4.218-3.13 11.06-6.083 10.893-9.44 5.21-3.085 7.6-5.08 4.916-2.964 4.395-2.872 4.49 1.265-.46 4.41-1.1 4.286 1.046-.77-.386 1.243-3.77 4.395-2.824 2.705-3.36 3.11.03-2.414-.38-2.825-2.434-.694-.46 5.328.443 2.828-.82.61-3.842 4.15-4.984 3.934-6.077 5.482-5.28 3.935-5.448 4.02-5.34 5.113-5.306 2.766-4.136 2.02-3.354 1.464 1.68 1.985-3.44 1.68-6.07 4.228-5.08 4.22-6.738 5.458-2.386 4.76-4.68 5.518 4.16-1.418 3.91-2.08-2.977 4.574-2 4.465-4.454 4.986-2.54 3.43-3.935 3.317-5.15 3.344-6.015 1.478-6.77.46-5.317.107-5.495-.685-2.258-2.035 1.478 4.207 5.257 1.347 5.897.06 7.75-.32 10.007-3.238 13.222-6.345 6.7-12.29 3.85-8.2 2.764-5.99 5.022-3.426 1.725-1.1 2.8-2.86 2.813-.446 5.116-.91-.58-3.593 2.67-1.642 2.375-.27 3.96-2.85 9.43-8.212 7.937-7.833 7.398-6.357 8.437-8.52 5.577-5.233 6.604-8.128 6.51-6.44 2.494-7.114-2.127-4.086-2.905.21-3.12 1.572-2.208 2.104-.347.33-.14-.6-2.458-2.27-4.785 1.596-10.47 6.25-10.81 5.33-12.16 7.052-14.048 9.713L150 191.16l-10.943 6.852-6.9 7.812-8.933 6.818-8.153 5.943-9.145 8.943-8.684 6.995-8.495 7.74-7.076 4.608-12.81 8.79-10.22 8.224-7.893 7.065 8.957 1.772 4.978-5.098zM215.78 165.464l.922-3.474-1.022-4.41 2.878-1.002 3.142-.626.897 2.14-1.17 2.93-1.488 3.154-2.6 2.232-2.354.26-.568-.203 1.36-1.002zm17.69 148.367l-2.783-2.34-2.286.15 3.68 3.387 1.24 5.955.71 5.574-1.906 5.158-3.173 3.998-3.633 3.234-4.812.975-6.194-.195-4.926-.8 3.492 2.696 3.942.594 4.645-.688 3.97-.507 2.375.265 3.154 1.712 2.04-.656-2.844-1.32-1.427-1.38 2.854-1.206 1.78-3.147 1.88-3.67 1.692-5.06-.904-7.194-2.56-5.53zm92.327-30.28l6.536-4.55 5.7-4.693 7.272-7.138 6.51-7.318 6.918-7.245 5.892-7.663 3.834-7.79 2.23-3.07 2.87-.61.4 3.85-1.327 6.13-.07 5.83-1.042 4.89 3.667-4.068 1.013-5.665 1.34-7.06.71-7.253.277-13.434-1.68-12.99-2.666-13.952-4.002-8.556-3.39-8.3-5.304-7.636-4.954-3.58-.66 2.886 3.247 6.06 2.254 2.49 2.8 5.693 2.18 5.402 2.643 5.06 1.66 6.517 1.02 5.06-2.103 1.25-2.78-4.41-3.106-8.025-4.48-6.237-9.25-7.998-7.197-7.854-7.527-5.932-7.544-5.047-6.28-2.27-3.794.23-12.91-6.41-4.543-4.432-8.956-1.892-10.86-.518-15.526.68-10.728 1.284-8.25 1.914-2.475 2.483-1.956 2.815-2.643 2.424 6.757.343 8.224-2.4 6.355-1.227 9.69-.672 11.07.366 6.734.968 8.637.733 9.51 2.413 8.73 5.317 10.388 3.283 7.327 5.14 5.232 4.762 6.735 5.623 7.085 9.155 4.614 7.012 5.373 9.088 3.757 8.223 1.767 8.34-.88 9.57-3.672 6.223-4.56 8.76-3.983 6.6-5.41 6.757-4.118 4.71-5.013 4.46-5.538 4.04-1.182-1.295 1.455-6.104 1.828-9.62 1.077-7.52.688-6.225.384-7.657.618-5.09.56-5.168.71-6.232.39-3.41-2.638.234-1 2.035.078 3.607-1.035 5.444.135 5.09-.645 3.255s-.694 3.916-.694 4.56-.532 5.325-.532 5.325l-1.233 7.443-1.503 5.31-.863 3.523-1.24 5.83-1.02 2.942-1.605 4.274-1.857 3.715-1.767 3.636-4.473 3.063-3.663 2.28-5.73 2.66-6.67 2.396-4.893 2.12-7.136 1.94-5.623 1.094-5.43-.363-6.4.178-8.304-1.1-5.637-.94-6.5-1.632-5.787-2.39-4.586-1.347-4.12-2.148-3.77-2.162-2.283-2.942-3.184-16.724-2.87-14.76-4.028-14.612-2.53-12.76-1.234-8.7 3.34-8.776 4.6-13.165 2.618-2.594 4.764-.433 4.097 1.993 5.43 2.693 6.174 1.75s3.98 1.716 4.6 1.716c.626 0 2.775 2.39 2.775 2.39l2.274 3.382 3.692 3.607.496 10.63-.24 7.13-.787 4.7-3.254 3.333-4.41 2.594-4.195 3.176-2.984 1.504-.957 1.78-4.558 2.906-3.013 1.32-6.993 3.388-1.51 4.46 2.48 5.004 2.857 3.26 4.665 4.027 2.253 1.298 2.942.12 2.963 2.894 3.97 3.284 4.31 3.212 4.422 3.353 7.897 3.048 8.67.396 5.474.234 3.82-1.013.265-1.1-3.348-.49-4.566.426-5.642-1.254-4.296.106-2.5-2.643 2.175-1.334 5.104.03 4.31-.06 4.525-.162 4.345-.204 5.388-1.503 1.986-.608 3.863-.4-.163 1.588-3.212 2.196-2.19.846 1.865.792 5.622-1.56 4.39-3.432 3.57-2.595 3.645-2.44 3.41-4.224 2.027-3.004 1.724-3.375-2.05-1.7-3.745 1.374-4.876 2.126-4.59.914-5.344 1.09-6.01.27H286l-6.557-.036-4.408.092-4.02-.787-5.332.064-3.14 1.79 3.026.313 3.68.724 4.62-.028.602 1.033 6.02.25 5.734-.05 6.678-.584 5.523-.452 6.4.53 3.254-.098-2.31 2.637-3.36 2.29-3.197 1.014-3.22.505-3.8 1.368-4.607.08-6.764 1.31-5.842-.12-5.217-1.1-4.707-1.43-3.35.163-3.386-1.297-2.758-2.163-1.284-3.056.44-1.184 2.863-.063 3.186-.007.282-2.246-4.04-.192-6.516-.48-4.267-1.632-4.374-1.445-3.39-1.086-2.346-2 2.523-3.253 5.17-3.78 4.67-3.04 5.013-1.364 4.31-1.475 2.624-.04 1.885 1.81.253 1.756 1.908 1.604 1.993 1.115 4.338.347 2.186-.82.965 1.672 2.75.59 3.963.715 3.227-1.21 1.36-1.69 2.895-.086 3.595-.44 2.807-1.332 1.29-2.027 2.142-1.595 1.834-2.126.418-2.324-1.765-1.708-2.898-3.013-2.29-.116.44 2.376 2.557 1.675.078 1.892-.97 1.014-2.085-.43-1.752-.972-1.183-2.197-1.298-1.226-1.347.32-1.574 1.332-2.036 1.155-4.537.54-5.36-.135-4.323-1.583-.057-4.43-.17-4.955.276-31.156-6.186-3.865-5.48-2.673-8.336-3.06-3.56-2.31 6.614.026 9.03-.497 8.976-.15s11.528-.14 12.436-.22 11.79.4 11.79.4l9.563.87 8.434 1.065-1.743 2.162-6.975 2-8.266 2.515-5.367 2.625-1.78 3.254-.98 5.75.407 5.196 3.664 2.106 2.715-2.75 2.015-2.29 1.714.993-.503 1.227 1.598 1.582 2.205-1.22.242-2.623 2.006.51 1.49 1.46.094 2.056 2.41 1.035 4.02.54 3.282-.894 1.59-2.31-.605-2.12 2.185-.767 3.312.582 2.742 1.276 3.757.752 2.106-.453-3.462-3.297-4.01-1.333-4.574-.297-3.73-.028-5.784.042-3.524-.142-2.106-.646 2.908-1.227 4.188-.037 3.453-.105 3.297-.205-.76-1.247-4.195.248-5.728-.02-2.907.616-3.105.9-1.56-.71 1.667-1.543 3.38-.446 4.31-1.31 5.295-1.666 3.666-.894 3.305-.895 3.978-.73 2.893-.885-3.397-1.83-1.3-1.155 1.46-1.113 2.313.914 2.793 1.66 2.05 4.72 1.51 4.058.807 4.644 1.574 3.73 1.008 3.565 2.623-1.404-.403-5.354-1.1-4.445-2.494-5.395-2.657-6.97-2.872-3.623-3.11-1.496-7.877-1.112-7.25-3.09-10.097-1.1-9.43-1.255-7.514-.278-8.57.752-6.282-.376-8.194.95-9.14.284-8.25.404-8.642 1.936-5.58 1.694-4.778 4.367-2.97 6.26-2.58 7.09-2.1 5.375-1.433 4.805-1.87 6.097.772 8.217.674 9.04 1.61 6.983 1.602 7.408.114 8.708 1.75 13.83-2.126 3.41-7.846-6.527-8.225-9.267-13.35-15.533-2.844 1.02 6.146 15.918 3.416-.596 2.693 2.58 4.963 4.716 4.594 4.863 4.16 3.46 7.8 6.998 6.18 3.855 3.404 1.604 7.955 4.352 5.827 3.493 8.253 2.014 9.493 1.58 7.813 1.815 8.586-.48 8.14-.41 7.647-1.68 9.267-1.717 7.096-2.972 5.184-.693 6.798-2.926 4.552-2.533zM210.57 296.78l-8.588-4.535-8.484-6.688-6.665-7.586-5.884-8.708-5.53-8.247-3.877-9.262-4.158-8.696-5.058 8.08 2.043 8.177 5.15 9.407 3.914 11.59 1.535 14.004-1.075 17.107-1.668 16.28-2.86 7.22-18.75 4.598-12.17.945-13.812.812-15.727-.153-11.367-1.407-9.014-1.063-5.08 1.03-1.48 1.323 2.542 1.262 3.557.558 5.94 1.948 6.605.238 7.35.167 7.372.58 13.317-.51 11.58 1.158 11.885.604 10.314-.994 7.585-1.758 3.048-1.16 4.348-1.417.33 2.933 3-4.468.65-8.507 1.007-13.033.307-13.694.4-13.562.485-6.18 5.044.993 6.274 4.243 7.23 6.072 4.136 2.316 5.01 1.785-.72-3.793zm100.696-48.99l2.994 1.225 3.758.948 2.454 1.995L322.21 254l2.108 2.658.983 2.88-1.104-4.936-.567-5.477-.497-2.064-5.006-.822-3.19-.3-4.342-1.605-2.73-1.683-2.02 1.16 1.232 2.623 4.192 1.358zm.567-33.593l3.357-.488 1.072-1.125-3.26-.725-3.235-.08-2.792-.647-2.365-.142-2.162-.876-.984.956 1.516 1.64 2.146.407 3.277.903 3.43.178zm-85.43-95.27c.58-.277.98-.32 1.35-.323l-.613-2.42c-.348-.055-1.076.07-2 .51-2.633 1.258-4.518 4.6-2.082 9.703 1.84 3.858 4.84 5.905 8.316 4.246.905-.432 1.58-.926 1.876-1.29l-1.315-2.086a5.122 5.122 0 0 1-1.17.806c-1.608.766-3.438.085-4.982-3.15-1.6-3.356-.87-5.284.62-5.995zm20.212-6.148c.808-.162 1.49-.05 1.957.13l-.037-2.56c-.466-.178-1.436-.256-2.418-.06-3.057.614-4.234 2.895-3.76 5.252.266 1.33 1.34 2.727 3.594 3.546 1.41.56 2.17.95 2.384 2.02.192.96-.344 1.796-1.675 2.063-.81.162-1.883.127-2.538-.083l.08 2.55c.56.183 1.756.26 2.936.024 2.86-.572 4.492-2.74 3.953-5.424-.31-1.55-1.307-2.895-3.51-3.68-1.763-.645-2.29-1.016-2.466-1.89-.16-.783.28-1.643 1.503-1.89zm23.292 8.02c-.822 0-1.87-.242-2.47-.573l-.418 2.516c.51.286 1.67.595 2.87.592 2.914-.006 4.94-1.813 4.93-4.55-.004-1.58-.72-3.094-2.726-4.292-1.604-.975-2.05-1.44-2.053-2.332 0-.8.6-1.56 1.846-1.562.823-.002 1.47.24 1.893.508l.462-2.517c-.423-.266-1.36-.53-2.36-.53-3.115.008-4.715 2.015-4.71 4.42.004 1.357.786 2.935 2.838 4.177 1.27.82 1.94 1.353 1.943 2.444.002.98-.686 1.695-2.045 1.697zm23.19 1.448c-.816-.11-1.822-.493-2.372-.904l-.757 2.44c.47.354 1.575.817 2.768.977 2.892.39 5.14-1.127 5.505-3.843.214-1.567-.29-3.163-2.116-4.622-1.458-1.183-1.837-1.706-1.72-2.59.107-.793.805-1.463 2.04-1.297.817.11 1.424.438 1.81.76l.798-2.432c-.382-.32-1.273-.71-2.27-.843-3.087-.417-4.943 1.356-5.265 3.74-.182 1.346.38 3.017 2.246 4.525 1.147.987 1.74 1.606 1.593 2.687-.13.973-.91 1.587-2.256 1.406zm31.278-1.588c.377-1.235.392-2.278-.242-3.333-.663-1.11-1.978-1.765-3.51-2.23a17.34 17.34 0 0 0-3.132-.65l-4.3 14.145 2.79.85 1.744-5.73.426.127c.916.278 1.207.925.925 2.77-.273 1.664-.394 3.21-.325 3.673l2.917.886c-.094-.61.06-2.495.27-4.178.197-1.64-.02-2.684-.88-3.387l.015-.04c1.65-.22 2.838-1.37 3.303-2.904zm-5.487 1.054l-.51-.154 1.302-4.282c.17-.018.45.045.707.123 1.223.418 1.453 1.42 1.078 2.656-.382 1.255-1.362 2.028-2.577 1.658zM90.43 296.096l6.58-3.367 5.272-4.525 1.5-3.828 1.642-3.593 7.468-5.6 5.73-2.09 6.735-1.986 6.415-1.88 4.8-2.657 8.896-4.976 5.966-5.695 6.936-7.23 3.498-7.966 4.205-3.14 5.707-6.004 7.138-3.46 5.777-4.986 5.235-4.23 3.307-5.175 4.396-5.32.64-5.09-2.388-3.096-2.623-.85-1.938-.107 1.595 2.162.19 2.02-.39 3.19-.96 2.35-1.855 3.723-2.458 3-3.31 2.85-4.892 4.11-5.246 1.43-5.035 3.06-3.875 1.642-5.54 2.328-2.08 4.655.97 1.547 2.764-1.323-2.504 5.116-3.296 3.97-3.014 3.7-1.948 4.053-3.014 3.51-2.458 2.73-4.69 3.39-4.726 2.67-8.39 2.837-11.425 2.716-10.176 3.65-8.496 7.01-8.79 6.993-6.547 4.205-10.99.31-8.352-.45-6.853-1.596-6.156-1.926-.437 1.962 9.77 2.718 4.172.625 4.668.142 2.03 1.69-.98 1.746-3.933.084-3.97-.53-4.29-1.738-5.705-.992.945 2.505 7.135 2.61 3.747 1.23 7.455.153 5.944-.76 6.678-2.375 7.825-1.86zm69.498-96.687l5.14-3.153 6.44-4.15 6.628-4.558 8.874-5.554 5.66-4.136.06-2.398-5.082 3.39-6.263 3.51-8.34 4.522-6.83 4.513-6.628 4.185-5.282 3.593 2.493 2.006 3.13-1.774zm167.66 8.84l-2.64.01-2.827.93-.89.26-.712.21 3.704.31 2.987-.47.382-1.25zm-79.74-9.652l-3.05 1.817-1.79-.125-2.393.558-3.35.505-2.073-.28-3.173-.133-2.874 1.48-1.09.69 2.145 2.19 3.803-.718 2.127.105 2.43-.408.575 2.268 2.11 2.855 5.157-.88 3.04-1.488.56-1.267.3-1.896 3.704-.53 3.226-.988-2.136-2.187-1.4-2.987-2.65-.816-3.73-.7-4.91.24-3.32.035.654 1.39 2.942.38 3.518.08 4.387.985s-.467-.028-1.014-.064l-1.726-.11zm2.09 11.528l-1.542.603-2.88.727-2.826.23-2.72-.292.973 1.257 2.624.716 4.537.097 4.83-.053 3.394-.372.824-1.835-3.456-.727-3.758-.354zm31.047 73.988l-5.46.587-3.482-.607-1.586 1.16 2.277 1.844 2.995.61 2.435.7 5.308-.035 3.714-.754 1.265-2.738-2.79-.417-4.68-.354z"/></svg>