<?xml version="1.0" encoding="utf-8"?>
<!-- Generator: Adobe Illustrator 18.0.0, SVG Export Plug-In . SVG Version: 6.00 Build 0)  -->
<!DOCTYPE svg PUBLIC "-//W3C//DTD SVG 1.1//EN" "http://www.w3.org/Graphics/SVG/1.1/DTD/svg11.dtd">
<svg version="1.1" id="Режим_изоляции"
	 xmlns="http://www.w3.org/2000/svg" xmlns:xlink="http://www.w3.org/1999/xlink" x="0px" y="0px" viewBox="23.4 3.7 47.6 59.1"
	 enable-background="new 23.4 3.7 47.6 59.1" xml:space="preserve">
<g id="Layer_1">
	<g>
		<path fill="#323232" d="M35.1,29.2c0.4-0.1,0.9-0.2,1.4-0.2c0.5-0.1,1-0.1,1.5-0.1c0.5,0,1.1,0,1.6,0.1c0.5,0.1,1,0.3,1.4,0.6
			c0.4,0.3,0.7,0.7,1,1.2s0.4,1.2,0.4,2c0,0.8-0.1,1.4-0.3,1.9c-0.2,0.5-0.5,1-0.9,1.3c-0.4,0.3-0.8,0.6-1.2,0.7
			c-0.5,0.2-0.9,0.2-1.4,0.2c0,0-0.1,0-0.2,0s-0.2,0-0.3,0s-0.2,0-0.3,0c-0.1,0-0.2,0-0.2,0v4.2h-2.2V29.2z M37.3,35.1
			c0.1,0,0.2,0,0.4,0.1c0.2,0,0.3,0,0.4,0c0.3,0,0.5,0,0.7-0.1c0.2-0.1,0.4-0.2,0.6-0.4c0.2-0.2,0.3-0.4,0.4-0.7
			c0.1-0.3,0.2-0.7,0.2-1.1c0-0.4,0-0.7-0.1-1c-0.1-0.3-0.2-0.5-0.4-0.6s-0.4-0.3-0.6-0.3c-0.2-0.1-0.5-0.1-0.7-0.1
			c-0.4,0-0.7,0-0.9,0.1V35.1z"/>
		<path fill="#323232" d="M48,38.1c0-0.4-0.1-0.7-0.3-0.9c-0.2-0.3-0.5-0.5-0.8-0.7c-0.3-0.2-0.7-0.5-1.1-0.7
			c-0.4-0.2-0.7-0.5-1.1-0.8s-0.6-0.7-0.8-1.1c-0.2-0.4-0.3-1-0.3-1.6c0-0.6,0.1-1.1,0.3-1.5c0.2-0.4,0.4-0.7,0.7-1
			c0.3-0.3,0.7-0.5,1.1-0.6c0.4-0.1,0.9-0.2,1.4-0.2c0.6,0,1.1,0.1,1.6,0.2s0.9,0.3,1.3,0.5l-0.7,1.9c-0.2-0.1-0.5-0.3-0.9-0.4
			s-0.8-0.2-1.3-0.2s-0.8,0.1-1,0.3c-0.2,0.2-0.4,0.5-0.4,0.8c0,0.3,0.1,0.6,0.3,0.9c0.2,0.2,0.5,0.5,0.8,0.7
			c0.3,0.2,0.7,0.5,1.1,0.7c0.4,0.2,0.7,0.5,1.1,0.9s0.6,0.7,0.8,1.2c0.2,0.4,0.3,1,0.3,1.6S50.1,39,50,39.4
			c-0.2,0.5-0.4,0.8-0.8,1.1c-0.3,0.3-0.7,0.5-1.2,0.7c-0.5,0.1-1,0.2-1.5,0.2c-0.7,0-1.3-0.1-1.9-0.2c-0.5-0.1-0.9-0.3-1.2-0.5
			l0.7-2c0.2,0.1,0.5,0.3,1,0.4c0.4,0.1,0.8,0.2,1.3,0.2C47.5,39.4,48,39,48,38.1z"/>
		<path fill="#323232" d="M51.8,29.1c0.2,0,0.4-0.1,0.7-0.1c0.3,0,0.5,0,0.8-0.1c0.3,0,0.5,0,0.8,0c0.3,0,0.5,0,0.7,0
			c1,0,1.8,0.1,2.4,0.4c0.6,0.3,1.2,0.7,1.5,1.2c0.4,0.5,0.7,1.2,0.8,1.9c0.2,0.7,0.2,1.6,0.2,2.5c0,0.8-0.1,1.6-0.2,2.4
			c-0.2,0.8-0.4,1.4-0.8,2c-0.4,0.6-0.9,1-1.6,1.4s-1.5,0.5-2.5,0.5c-0.1,0-0.4,0-0.6,0c-0.3,0-0.5,0-0.8,0c-0.3,0-0.5,0-0.8-0.1
			c-0.3,0-0.4,0-0.6-0.1L51.8,29.1L51.8,29.1z M55,30.9c-0.2,0-0.4,0-0.6,0s-0.3,0-0.4,0v8.3c0,0,0.1,0,0.2,0c0.1,0,0.2,0,0.3,0
			c0.1,0,0.2,0,0.3,0c0.1,0,0.1,0,0.2,0c0.5,0,0.9-0.1,1.3-0.4c0.3-0.2,0.6-0.6,0.8-1c0.2-0.4,0.3-0.9,0.4-1.4
			c0.1-0.5,0.1-1.1,0.1-1.7c0-0.5,0-1-0.1-1.5s-0.2-0.9-0.4-1.3s-0.4-0.7-0.8-0.9S55.5,30.9,55,30.9z"/>
	</g>
	<path fill="#333333" d="M26.9,59.4c0-1.6,0-13.8,0-26.1V11.8c0-2.4,0-4.1,0-4.6c3.1,0,31.3,0,32.6,0c0.8,0.8,7.2,6.8,8.1,7.6
		c0,0.4,0,42.8,0,47.6H71V13.3L60.8,3.7H23.4v8.1v21.5v29.5h47.6v-3.5C59.6,59.4,28.9,59.4,26.9,59.4z"/>
</g>
</svg>
