<svg viewBox="0 0 52 65" xmlns="http://www.w3.org/2000/svg" xmlns:xlink="http://www.w3.org/1999/xlink"><path d="M3.823 60.928V3.902h35.614c.874.874 7.865 7.429 8.849 8.303v48.64c-14.363.083-42.469.083-44.463.083zM40.857.078H0v64.564h52V10.566L40.857.08z" fill="currentColor" /><path d="M42.978 29.964c.004-.015.009-.03.011-.045a.61.61 0 0 0-.005-.201c-.003-.016-.01-.03-.015-.046-.01-.033-.016-.066-.03-.097-.01-.02-.026-.037-.037-.056-.007-.01-.007-.021-.015-.031l-4.42-6.26a.57.57 0 0 0-.237-.186.587.587 0 0 0-.303-.312l-5.45-2.385a.586.586 0 0 0-.234-.049H20.752c-.081 0-.16.017-.234.05l-5.451 2.384a.589.589 0 0 0-.302.311.576.576 0 0 0-.238.187l-4.42 6.26c-.007.01-.007.021-.014.031-.012.02-.027.036-.036.056-.015.031-.022.065-.031.097-.004.016-.011.03-.014.046a.594.594 0 0 0-.006.201c.003.016.008.03.012.045a.61.61 0 0 0 .085.202c.008.013.013.027.023.04l15.91 20.269c.005.006.013.008.017.014.051.06.11.108.178.143.01.006.022.01.033.014a.58.58 0 0 0 .234.054.58.58 0 0 0 .234-.054c.011-.005.023-.008.033-.014a.592.592 0 0 0 .178-.143c.005-.006.013-.008.017-.014l15.91-20.27c.01-.011.015-.026.024-.039a.658.658 0 0 0 .084-.203zm-22.104-8.476h11.247l4.225 1.848-4.252 2.325H20.901l-4.251-2.325 4.224-1.848zm-1.6 14.904h14.448L26.498 48.92l-7.224-12.53zm.023-1.192l2.063-8.347h10.293l2.395 8.347h-14.75zm-7.646-5.846l3.767-5.336 4.781 2.615-2.003 8.108-6.514-5.369c-.009-.008-.021-.011-.031-.018zm6.013 6.487a.59.59 0 0 0 .075.255l4.106 7.121-8.741-11.135 4.56 3.759zm13.487 7.376l4.106-7.12a.6.6 0 0 0 .075-.256l4.56-3.76-8.741 11.136zm3.927-8.706l-2.264-7.888 4.763-2.605 3.768 5.336c-.01.007-.023.01-.033.018l-6.234 5.139z" fill="currentColor"/></svg>
