<svg xmlns="http://www.w3.org/2000/svg" viewBox="0 0 306.5 130.5" width="306.5" height="130.5"><path fill="#F2EBDA" d="M12.1 108.7l7.5.4v-4.7l-2.4-.1v1.5l-2.7-.1v-8.5l2.7.1v1.5l2.4.1v-4.7l-7.5-.2v14.7zm22.6-14.2H32l-2.2 5.8h-1.1v-5.9l-2.5-.1v15.1l2.5.1v-6h1.1l2.2 6.2 2.8.1-3-8 2.9-7.3zm1.5 15.4l8 .4V94.8l-8-.2v15.3zM38.7 98l2.9.1v8.8l-2.9-.1V98zm7.7 12.4l8.2.4v-4.9l-2.6-.1v1.5l-3-.1v-8.9l3 .1v1.5l2.6.1v-4.9l-8.2-.2v15.5zm15.6-9.2l-2.6-5.9-2.7-.1V111l2.7.1v-10.2l2.6 5.8 2.6-5.6v10.3l2.7.1V95.6l-2.7-.1-2.6 5.7zm10.5 4v-9.6l-2.8-.1v16l2.8.1 3.7-9.4v9.6l2.8.1V95.7l-2.8-.1-3.7 9.6zm14.6-1.9l-3-.1V96l-2.8-.1v10.7l5.9.3v5.6l2.9.1V96.2l-2.9-.1-.1 7.2zm5.4 9.4l9 .4v-3.6l-6.1-.3v-2.9l3.1.1v-3.5l-3.1-.1v-2.9l6.1.2v-3.6l-9-.3v16.5zm11.3.6l9.5.5v-5.2l-3-.1v1.6l-3.4-.2v-9.5l3.4.1v1.6l3 .1V97l-9.5-.3v16.6zm22.5-16l-3.3-.1-2.7 6.5-1.4-.1V97l-3.1-.1v16.9l3.1.2v-6.7l1.4.1 2.8 6.9 3.4.2-3.7-9 3.5-8.2zm1.8 17.1l10 .5V97.6l-10-.3v17.1zm3.2-13.3l3.6.1v9.9l-3.6-.2v-9.8zm12.9 7.1V97.8l-3.3-.1v17.4l3.3.2 4.4-10.2v10.5l3.3.2.1-17.6-3.3-.1-4.5 10.1zm5-14.9l-5.5-.1v3.1l5.5.2v-3.2zm11.9 22.8l10.8.5V111l-3.5-.1v1.7l-3.9-.2v-10.2l3.9.1v1.7l3.5.1v-5.6l-10.8-.3v17.9zm25.6-17l-3.8-.1-3.1 7-1.6-.1v-7l-3.5-.1v3.9l-.1 14.2 3.5.2v-7.2l1.6.1 3.1 7.4 3.9.2-4.2-9.6 4.2-8.9zm2.1 18.3l11.4.6.1-18.5-11.4-.3-.1 18.2zm3.7-14.2l4.1.1v10.5l-4.1-.2v-10.4zm11 14.9l3.7.2v-5.6l8.1.3.1-13.2-11.8-.4-.1 18.7zm3.8-14.4l4.3.1v5.1l-4.3-.2v-5zm11.2 15.2l12.2.6.1-19.1-12.2-.4-.1 18.9zm3.9-14.7l4.4.1-.1 10.9-4.4-.2.1-10.8zm11.7 15.5l12.6.6v-6l-4-.2v1.9l-4.5-.2.1-11 4.5.2v1.9l4 .1v-6.1l-12.6-.4-.1 19.2zm14.9-14.6l4.4.1-.1 15.4 4.1.2.1-15.4 4.4.2v-4.2l-13-.4.1 4.1zm19.9-3.6l-4.2-.1v4.2l-.1 15.5 13.1.6.1-12.7-8.9-.3v-7.2zm4.5 11.7v4.1l-4.5-.2V113l4.5.2zm15.3-11.1v7.9l-2.9-.1v-7.8l-4.4-.1-.1 20.1 4.4.2v-8l2.9.1v8l13.1.6.1-20.5-13.1-.4zm8.5 16.3l-4.5-.2.1-11.6 4.5.2-.1 11.6zM30.7 20.9l-9.6.6V16l-5.4.4v5.4l-9.1.6v31l9.1-.1v6.1h5.4v-6.1l9.6-.1V20.9zM15.9 46l-4.1.1V29.3l4.1-.2V46zm9.2-.2l-4.2.1V28.8l4.2-.2v17.2zm11.3 11.7h5.8V46.2l12.7-.3V19l-18.4 1.2v37.3zm5.7-29.6l6.7-.3v10.3l-6.7.2V27.9zm18.8 29.5l19.9-.1v-40l-19.9 1.3v38.8zm6.3-30.8l7.2-.4v22.6l-7.2.2V26.6zm42.1 30.5V15.5l-7 .5v16l-7.8.3V16.4l-6.7.4v40.4h6.7V41l7.8-.2v16.4l7-.1zm5.7-33l7.8-.4V57h7.5V23.3l8.1-.4v-9.3L115 15.1v9zm54.4 23l-16.9.3v-7.9l8.5-.2v-9.6l-8.5.4v-7.9l16.9-.9v-9.7l-24.8 1.6v43.7l24.8-.1v-9.7zm16.6-8.8l10-.3v18.6l9.1-.1V9.3l-9.1.6V28l-10 .4V10.5l-8.6.6v45.6l8.6-.1V38.3zm58.8-31.6l-24.7 1.6-4.7 37.9-3.6.1v16.5h9.4v-6.3l17.4-.1v6.5h10.1V45.6l-3.9.1v-39zm-10 39.2l-10.1.2 3.5-27.8 6.6-.3v27.9z"/></svg>