<svg xmlns="http://www.w3.org/2000/svg" width="463" height="154" viewBox="0 0 463 154"><path fill="#F0E3CB" d="M410.2 85.1c-.4-4.6 1.7-11.5 1.7-11.5l-1.2-.4 1.1-4.2s-8.2-3.8-13.9.4c-3.9 2.9-7.5 7.6-9.6 11.4-1.8 3.3-2.4 5.9-2.4 5.9h-24l-3.5-7.1-5.4-.7c8.2-4.8 15.2-5.5 15.2-5.5l3.5-4.4s-11.3.7-19.7 6.6l3-4.8-1.3-2.8-13.2 4.6-.8 3.7 4.1.1-6.9 9.9-26.5.2c.2-.4 3.6-6.8 5.5-10 .6-1 1.4-4-1.3-3.9-2 0-8.4 1.4-10.1 2.1.4-.6.5-3-2.4-2.7-3 .3-8.3 1.5-8.8 1.7l2-3.5-4.8-2.5-12.7 19.4-23.7-.1c.4-.5 1.7-1.5 2.6-2.7-3.4.1-5 .3-8.3-.3-.8 1.6-5.9 2.2-5.9 2.2s-1.5-2.6 1.1-6.4c4.5-6.7 9.1-5.9 9.1-5.9s-.3 1.6-1.2 3.6c2.8.3 5.7.6 8.5.6 1.3-3.2 1.6-6.4 1.6-6.4s-8.1-5.3-14.3-2.7c-13.7 5.6-13.9 18-13.9 18s-3.8 0-8.1.1v.1l-16.9.1 1.5-2.6 8.8-12.8s-3.5-1.6-5.2-1.6c-1.7 0-14.2 9.9-14.2 9.9l4-5.1-4.2-2s-5 6.1-10.7 14.3l-24.4.1 2.4-3-5.5-.4s-14.3 9.7-7.9-3.2l14.4.2 1.3-3.9c.9-3-.6-6.3-.6-6.3s-6.4-4.4-12.5-1.7c-13.6 5.9-11.9 18.2-11.9 18.2s-7.4.2-13.5.3c-4.4.1-8.6.2-8.6.2L135 66.5l-5-4.3 15-22.3s-6.1-2.7-9-2.7c-2.9.1-24.4 17.2-24.4 17.2l6.9-8.8-8.8-3.5S96.2 58.5 83.6 78c-15.2 23.3-30.1 50.4-30.1 50.4l13.9.2s11.4-21.8 28.7-45.5c19.2-26.2 31.9-33 31.9-33s-.3 1.2-1.4 2.9c-2.3 3.6-6.3 9.2-6.3 9.2l2.5 2.3s-1.6 2.7-4.6 6c-7 7.9-19.6 21.1-19.6 21.1l87-.3c-.6.8-1.1 1.7-1.7 2.5-8.8 13.5-17.4 29.2-17.4 29.2l7.2.1s6.6-12.6 16.6-26.4c11.1-15.2 18.5-19.1 18.5-19.1s-.2.7-.8 1.7c-1.3 2.1-3.6 5.3-3.6 5.3l-6.9 6.3h85.2L290 80c5.8-2.6 6.1-.5 6-.3-.5 1.1-7.2 11.2-7.2 11.2l6.8-.1s6.9-11.1 7.4-11.4c1.2-.8 2.4-.9 3.4-.8.2 0 .4 0 .6.1 1.4.4.7 1.4.7 1.4l-2.7 5.8-2.9 4.9 40.6-.1 4.8-7.8 5.8.3 3.3 7.8 41.4-.4 6.8-3.3.4 2.9 8.4-.7c-.2.1-3.1-1.2-3.4-4.4zM162.1 73.8c1 .4 1.1 1.3.4 3.1h-6.8c3.1-4 5.4-3.6 6.4-3.1zm239 6.3c-2.1 2.8-6.8 5-6.8 5s-.2-2.9 2.8-6.5 7.2-6 7.2-6-.6 4.1-3.2 7.5z"/><path fill="#F0E3CB" d="M168.3 62.4c-1.2 0-2.1 1-2.1 2.1 0 1.2 1 2.1 2.1 2.1 1.2 0 2.1-1 2.1-2.1.1-1.2-.9-2.1-2.1-2.1zm-8.5-.6c-1.2 0-2.1 1-2.1 2.1 0 1.2 1 2.1 2.1 2.1 1.2 0 2.1-1 2.1-2.1s-.9-2.1-2.1-2.1z"/></svg>