<?xml version="1.0" encoding="utf-8"?>
<!-- Generator: Adobe Illustrator 18.0.0, SVG Export Plug-In . SVG Version: 6.00 Build 0)  -->
<!DOCTYPE svg PUBLIC "-//W3C//DTD SVG 1.1//EN" "http://www.w3.org/Graphics/SVG/1.1/DTD/svg11.dtd">
<svg version="1.1" id="Layer_1" xmlns="http://www.w3.org/2000/svg" xmlns:xlink="http://www.w3.org/1999/xlink" x="0px" y="0px"
width="463px" height="154px" viewBox="0 0 463 154" enable-background="new 0 0 463 154" xml:space="preserve">
<path fill="#F0E3CB" d="M410.2,85.1c-0.4-4.6,1.7-11.5,1.7-11.5l-1.2-0.4l1.1-4.2c0,0-8.2-3.8-13.9,0.4c-3.9,2.9-7.5,7.6-9.6,11.4
	c-1.8,3.3-2.4,5.9-2.4,5.9l-24,0l-3.5-7.1l-5.4-0.7c8.2-4.8,15.2-5.5,15.2-5.5l3.5-4.4c0,0-11.3,0.7-19.7,6.6l3-4.8l-1.3-2.8
	l-13.2,4.6l-0.8,3.7l4.1,0.1l-6.9,9.9l-26.5,0.2c0.2-0.4,3.6-6.8,5.5-10c0.6-1,1.4-4-1.3-3.9c-2,0-8.4,1.4-10.1,2.1
	c0.4-0.6,0.5-3-2.4-2.7c-3,0.3-8.3,1.5-8.8,1.7l2-3.5l-4.8-2.5l-12.7,19.4L254.1,87c0.4-0.5,1.7-1.5,2.6-2.7c-3.4,0.1-5,0.3-8.3-0.3
	c-0.8,1.6-5.9,2.2-5.9,2.2s-1.5-2.6,1.1-6.4c4.5-6.7,9.1-5.9,9.1-5.9s-0.3,1.6-1.2,3.6c2.8,0.3,5.7,0.6,8.5,0.6
	c1.3-3.2,1.6-6.4,1.6-6.4s-8.1-5.3-14.3-2.7C233.6,74.6,233.4,87,233.4,87s-3.8,0-8.1,0.1c0,0,0,0,0,0.1l-16.9,0.1l1.5-2.6l8.8-12.8
	c0,0-3.5-1.6-5.2-1.6c-1.7,0-14.2,9.9-14.2,9.9l4-5.1l-4.2-2c0,0-5,6.1-10.7,14.3l-24.4,0.1l2.4-3l-5.5-0.4c0,0-14.3,9.7-7.9-3.2
	l14.4,0.2l1.3-3.9h0c0.9-3-0.6-6.3-0.6-6.3s-6.4-4.4-12.5-1.7c-13.6,5.9-11.9,18.2-11.9,18.2s-7.4,0.2-13.5,0.3
	c-4.4,0.1-8.6,0.2-8.6,0.2l13.4-21.4l-5-4.3L145,39.9c0,0-6.1-2.7-9-2.7c-2.9,0.1-24.4,17.2-24.4,17.2l6.9-8.8l-8.8-3.5
	c0,0-13.5,16.4-26.1,35.9c-15.2,23.3-30.1,50.4-30.1,50.4l13.9,0.2c0,0,11.4-21.8,28.7-45.5c19.2-26.2,31.9-33,31.9-33
	s-0.3,1.2-1.4,2.9c-2.3,3.6-6.3,9.2-6.3,9.2l2.5,2.3c0,0-1.6,2.7-4.6,6c-7,7.9-19.6,21.1-19.6,21.1l87-0.3c-0.6,0.8-1.1,1.7-1.7,2.5
	c-8.8,13.5-17.4,29.2-17.4,29.2l7.2,0.1c0,0,6.6-12.6,16.6-26.4c11.1-15.2,18.5-19.1,18.5-19.1s-0.2,0.7-0.8,1.7
	c-1.3,2.1-3.6,5.3-3.6,5.3l-6.9,6.3l85.2,0l7.3-10.9c5.8-2.6,6.1-0.5,6-0.3c-0.5,1.1-7.2,11.2-7.2,11.2l6.8-0.1
	c0,0,6.9-11.1,7.4-11.4c1.2-0.8,2.4-0.9,3.4-0.8c0.2,0,0.4,0,0.6,0.1c1.4,0.4,0.7,1.4,0.7,1.4l-2.7,5.8l-2.9,4.9l40.6-0.1l4.8-7.8
	l5.8,0.3l3.3,7.8l41.4-0.4l6.8-3.3l0.4,2.9l8.4-0.7C413.4,89.6,410.5,88.3,410.2,85.1z M162.1,73.8c1,0.4,1.1,1.3,0.4,3.1l-6.8,0
	C158.8,72.9,161.1,73.3,162.1,73.8z M401.1,80.1c-2.1,2.8-6.8,5-6.8,5s-0.2-2.9,2.8-6.5c3-3.6,7.2-6,7.2-6S403.7,76.7,401.1,80.1z"
	/>
<g>
	<g>
		<path fill="#F0E3CB" d="M168.3,62.4c-1.2,0-2.1,1-2.1,2.1c0,1.2,1,2.1,2.1,2.1c1.2,0,2.1-1,2.1-2.1
			C170.5,63.3,169.5,62.4,168.3,62.4z M159.8,61.8c-1.2,0-2.1,1-2.1,2.1c0,1.2,1,2.1,2.1,2.1c1.2,0,2.1-1,2.1-2.1
			C161.9,62.8,161,61.8,159.8,61.8z"/>
	</g>
</g>
</svg>
