<?xml version="1.0" encoding="utf-8"?>
<!-- Generator: Adobe Illustrator 18.0.0, SVG Export Plug-In . SVG Version: 6.00 Build 0)  -->
<!DOCTYPE svg PUBLIC "-//W3C//DTD SVG 1.1//EN" "http://www.w3.org/Graphics/SVG/1.1/DTD/svg11.dtd">
<svg version="1.1"
	 id="Слой_1" sodipodi:docname="work.svg" inkscape:version="0.91 r13725" xmlns:cc="http://creativecommons.org/ns#" xmlns:dc="http://purl.org/dc/elements/1.1/" xmlns:inkscape="http://www.inkscape.org/namespaces/inkscape" xmlns:sodipodi="http://sodipodi.sourceforge.net/DTD/sodipodi-0.dtd" xmlns:rdf="http://www.w3.org/1999/02/22-rdf-syntax-ns#" xmlns:svg="http://www.w3.org/2000/svg"
	 xmlns="http://www.w3.org/2000/svg" xmlns:xlink="http://www.w3.org/1999/xlink" x="0px" y="0px" viewBox="0 0 200 200"
	 enable-background="new 0 0 200 200" xml:space="preserve">
<sodipodi:namedview  inkscape:current-layer="Слой_1" inkscape:window-maximized="0" inkscape:window-y="0" inkscape:window-x="0" fit-margin-bottom="0" fit-margin-right="0" inkscape:window-height="851" inkscape:window-width="1766" inkscape:pageshadow="2" inkscape:pageopacity="0" fit-margin-top="0" showgrid="false" borderopacity="1" objecttolerance="10" inkscape:cy="102.2" pagecolor="#ffffff" inkscape:cx="94.7" inkscape:zoom="1.0825688" fit-margin-left="0" gridtolerance="10" bordercolor="#666666" id="namedview99" guidetolerance="10">
	</sodipodi:namedview>
<path id="path5" inkscape:connector-curvature="0" fill="#333333" d="M10.3,83.2L187.5,58v2.3L10.3,85.4V83.2z"/>
<path id="path7" inkscape:connector-curvature="0" fill="#333333" d="M10.4,102.8v10.7l11.6-1.7v4.2l-11.6,1.7v5.6l17-2.5v-26
	l-5.5,0.8v10.7l-6,0.9V96.5l-5.6,0.7L10.4,102.8L10.4,102.8z"/>
<path id="path9" inkscape:connector-curvature="0" fill="#333333" d="M30.8,114.9l-2.1,0.3v9.1l5.5-0.8v-3.4l9.8-1.5v3.4l5.5-0.8
	v-9.1l-2.1,0.3V91.9L33.6,94C33.6,93.9,30.8,114.9,30.8,114.9z M38.1,98.8l3.7-0.5v15l-5.7,0.8L38.1,98.8z"/>
<path id="path11" inkscape:connector-curvature="0" fill="#333333" d="M49.8,117.6l5.5-0.8l0.6-6.3l6-0.9l0.6,6.1l5.5-0.8l-2.5-25.8
	l-13,2L49.8,117.6z M57.1,96.2l3.4-0.5l0.8,8.7l-5.1,0.8L57.1,96.2z"/>
<path id="path13" inkscape:connector-curvature="0" fill="#333333" d="M69.8,109.2l-2,0.3v5.6l6.6-1l2.5-20.9l3.9-0.6v20.6l5.5-0.8
	V86.3l-14.1,2.1L69.8,109.2z"/>
<path id="path15" inkscape:connector-curvature="0" fill="#333333" d="M89.2,112.1l16.8-2.5V104l-11.4,1.7v-4.6l5.8-0.9v-5.6
	l-5.8,0.9v-4.7l11.4-1.7v-5.6L89.2,86V112.1L89.2,112.1z"/>
<path id="path17" inkscape:connector-curvature="0" fill="#333333" d="M108.3,88.8v20.6l5.5-0.8V98.3l6.2-0.9v10.3l5.5-0.8V80.7
	l-5.5,0.8v10.1l-6.2,0.9V82.4l-5.5,0.8V88.8z"/>
<path id="path19" inkscape:connector-curvature="0" fill="#333333" d="M128.4,85.9v20.6l5.5-0.8V95.4l6.2-0.9v10.3l5.5-0.8V77.8
	l-5.5,0.8v10.1l-6.2,0.9V79.5l-5.5,0.8V85.9z"/>
<path id="path21" inkscape:connector-curvature="0" fill="#333333" d="M147.4,103.6l5.5-0.8l0.6-6.3l6-0.9l0.6,6.1l5.5-0.8L163,75.2
	l-13.1,2L147.4,103.6L147.4,103.6z M154.5,82.2l3.4-0.5l0.8,8.7l-5.1,0.8L154.5,82.2z"/>
<path id="path23" inkscape:connector-curvature="0" fill="#333333" d="M167.2,74.7v17.4l3.4-0.5l-4.7,9.4l6.2-0.9l4.1-9.2l2.5-0.4
	v8.6l5.5-0.8v-26L167.2,74.7L167.2,74.7z M178.8,85l-6.2,0.9v-6.4l6.2-0.9V85z"/>
<path id="path25" inkscape:connector-curvature="0" fill="#333333" d="M10.4,169.5l5.5-0.8v-7.8l11.8-1.7v-18.3l-17.2,2.5
	L10.4,169.5L10.4,169.5z M22.2,147.3v7.1l-6.2,0.9v-7.1L22.2,147.3z"/>
<path id="path27" inkscape:connector-curvature="0" fill="#333333" d="M28.4,167l5.5-0.8l0.6-6.3l6-0.9l0.6,6.1l5.5-0.8l-2.5-25.8
	l-13.1,2L28.4,167z M35.7,145.4l3.4-0.5l0.8,8.7l-5.1,0.8C34.9,154.3,35.7,145.4,35.7,145.4z"/>
<path id="path29" inkscape:connector-curvature="0" fill="#333333" d="M65.3,161.7v-16.1l-11.8,1.7V143l11.8-1.7v-5.6l-17.2,2.5
	v26.1L65.3,161.7z M53.5,152.8l6.2-0.9v4.9l-6.2,0.9V152.8z"/>
<path id="path31" inkscape:connector-curvature="0" fill="#333333" d="M68.2,161.2l17.2-2.5v-26.2L68.2,135V161.2z M79.9,139v14.9
	l-6.2,0.9v-14.9L79.9,139z"/>
<path id="path33" inkscape:connector-curvature="0" fill="#333333" d="M86.5,138.1l5.8-0.9v20.6l5.5-0.8v-20.6l5.8-0.9V130
	l-17.2,2.5L86.5,138.1L86.5,138.1z"/>
<path id="path35" inkscape:connector-curvature="0" fill="#333333" d="M104,156.1l5.5-0.8l0.6-6.3l6-0.9l0.6,6.1l5.5-0.8l-2.5-25.8
	l-13.1,2C106.7,129.6,104,156.1,104,156.1z M111.4,134.5l3.4-0.5l0.8,8.7l-5.1,0.8L111.4,134.5z"/>
<path id="path95" inkscape:connector-curvature="0" fill="#333333" d="M10.3,183.8l177.2-25.2v0.6L10.3,184.3V183.8z"/>
<path id="path97" inkscape:connector-curvature="0" fill="#333333" d="M50.8,31.6c-0.6,0.1-1.1,0.1-1.6-0.2
	c-0.5-0.4-1.7-0.1-3.8-0.8c-2.2-0.7-4.5-0.2-5.9,0.2c-1.5,0.4-2.8-0.5-4-1.3c-1.1-0.7-2.4-0.3-3.3-0.4c-1.1-0.1-1.3-1.9-1.3-1.9
	c0.9,0.3,1.3-0.6,1.8-0.7c0.5-0.2,0.8-0.5,1.4-0.7c0.6-0.2,0.5-0.8,0.5-1.1c0.1-0.3-0.2-0.9-0.2-0.9s-0.5-0.7-0.6-1.1s-0.8-1-1-1.3
	s-0.9-0.1-1.2-0.8c-0.4-0.8-1.1-0.1-1.7-0.1c-0.7,0-1,0.2-1.7,0.4c-0.7,0.2-1.3,1.6-1.4,2.9s0.4,2.6,0.4,2.6l0.1,1.2
	c0,0-0.2-0.3-1-1.1c-0.8-0.9-1.2-2.2-2-3.2c-0.9-1.2-0.8-1.7-1.1-3.8c-0.3-2.3-1.3-3.5-1.5-4.2s0.4-1.2,0.4-1.9c0-0.6-0.1-1-0.5-1.3
	s-1.1-1.6-1.1-1.6v-1c0,0,4.6,0.4,4.1-4.2c-0.1-5-6.7-5.3-6.7-5.3s5.7,1.5,5.7,5.4s-3.7,3.3-3.7,3.3L19.7,11H19c0,0-0.2-0.5,0.2-1
	S19,9.3,19,8.9c0-0.4-0.2-0.8-0.5-1.2C18.2,7.4,17.9,7,17.9,7l-0.1-1.3l0.8-0.6l-0.1-2.5l-1.9,0.3l-1,1.3l0.2,2.3L17,6.3v1.2
	c0,0-0.7,0.6-1,1.2c-0.3,0.7,0,1.6,0.1,2.3c0.1,0.6,0.8,1.7,1,2.3S16.8,18,17,20.2c0,0.2,0,0.5,0.1,0.7c-0.6-0.5-1.5-0.6-2.5-0.2
	c-1.2,0.4-1.5,1-1.7,3.6s0.8,3.3,0.8,3.3s-0.1,0.4-0.3,2.2C13,31.4,12,31.4,11,32c-1.1,0.6-0.7,2.4,0.1,5s3,8.1,3,8.1
	s-0.1,0.7-0.3,1.3C13.6,47,13.7,48,13.7,48s-0.8,0.6-1.3,1c-0.6,0.3-0.8,1.1-0.6,1.5s0.4,1,0.4,1.6c-0.1,0.6,0.8,1.3,1.2,1.6
	s0.5,0.9,0.5,0.9s-0.2,1.4-0.3,2.1c-0.1,0.7,0.3,0.8,0.4,2c0.2,1.3,0.9,9.2,0.9,10.3s-0.2,1-0.7,1.6c-0.3,0.3-0.6,0.8-0.8,1.1
	c-1.3,0.2-2.2,0.5-2.7,0.6v7.5l34.6-4.9V70l-2-0.1c0,0,0,0,0-0.1c0.1-0.6-0.7-0.2-1.3-0.5c-0.6-0.4-1.2-1.6-1.6-3.2
	c-0.4-1.8-0.9-4.7-0.9-4.7s0.9-0.2,1.6-0.4c0.7-0.2-0.1-0.7-0.1-0.7s1.1-0.9,1.3-2.2C42.6,56.9,41,57,41,57s1.7-1.3,1.8-2.2
	c0.2-0.9-0.7-0.6-1.4-1s-0.2-1.3-0.6-2.6C40.4,49.7,38.1,51,38,50c-0.1-1.1-1.5-1.9-1.5-1.9s-0.5-0.4-0.3-1.5s-1.8-1.9-1.7-3.1
	c0.2-1.5-2.3-3.2-2.3-3.2s0-0.6,0-2.2s1-3.2,1-3.2s2.7-0.5,3.8-0.6c1.2-0.2,0.8,0.3,2.2,0.2c1.5,0,2.6-0.4,4.5-0.8
	c1.8-0.5,3.7-0.1,4.6-0.1s0.9,1.4,1.2,1.5c0.3,0,1.2,0.2,1.8-0.5s0.7-1.1,0.8-2.1C52.5,31.4,51.5,31.5,50.8,31.6z M17.5,28.1
	L16.7,26l1-2.3c0.1,0.4,0.1,0.8,0.1,1C17.7,25.9,17.5,28.1,17.5,28.1z M23,18.6c0.2,1.1,0.1,3.2,0.1,3.2s-0.3-2.4-0.5-3.1
	c-0.1-0.8-1-2.6-1-2.6S22.8,17.5,23,18.6z M20.9,68.8c-0.4,0.4-0.8,1.1-1.2,1.5c-0.4,0.1-0.9,0.2-1.4,0.2v-2.2l0.8-3.9
	c0,0,1,1.6,1.5,2.4C21.2,67.5,21.5,68,20.9,68.8z M23.1,37.7c0.7,1.3,0.8,2,0.7,2.5s0.1,1.1,0.1,1.1s-0.7,0-1.1,0.3
	s-0.7,0.9-0.9,0.9c-0.2,0-0.5-0.3-0.9-1.3c-0.4-1.1-0.7-2.5-0.4-5.2c0.3-2.8,0.5-4.6,0.7-5.7s-0.3-2.1-0.4-3.2
	c-0.1-1.3-0.1-4.2-0.1-4.2s0.4,1.5,0.8,2.2c0.4,0.8,0.5,1.9,1.2,3.1c0.7,1.3,1.1,2.5,1.3,3.1c0.2,0.8,0.3,1.5,0.3,1.5
	s-0.8,0.4-1.7,2.4C22.4,35.5,22.5,36.5,23.1,37.7z M35.7,61.3c0.8,0.4,1.9,3,2,3.9c0.2,1-0.2,0.5-0.4,1.4c-0.3,0.9,1,1.7,1.6,2.4
	c0.3,0.3,0.4,0.5,0.6,0.7l-4.6-0.3l-3.3,0.8L27.7,70c0-0.2-0.1-0.5-0.2-0.8c-0.3-0.6-0.8-1.3-1.5-2.1c-0.7-0.8-1.8-3.8-1.8-3.8
	s1.2,0.1,1.9,0.3c0.8,0.2,1.5-0.3,1.9-0.4c0.5-0.1,1.3-0.8,1.4-1.3s0.3-0.8,0.7-1.2c0.4-0.4,0.9-0.1,1.8,0.3
	C33,61.3,35,60.8,35.7,61.3z M44.6,31.3c-1.7-0.2-3.9-0.3-4.9-0.1c0,0,1.7-0.8,3.5-0.6c1.8,0.2,2.6,0.6,3.3,0.7
	c0.6,0,1.8,0.2,1.8,0.2S46.2,31.5,44.6,31.3z"/>
<path fill="#333333" d="M10.3,200l1.6-0.2V194l1.8-0.3v5.8l1.6-0.2V192l-4.9,0.7v7.3H10.3z"/>
<path fill="#333333" d="M16.4,199.1l4.9-0.7V191l-4.9,0.7V199.1z M19.7,192.9v4.2l-1.8,0.3v-4.3L19.7,192.9z"/>
<path fill="#333333" d="M22.4,196.8l-0.6,0.1v1.6l1.9-0.3l0.7-5.9l1.1-0.2v5.8l1.6-0.2v-7.4l-4.1,0.6L22.4,196.8z"/>
<path fill="#333333" d="M28.1,191.7v5.8l1.6-0.2v-2.9l1.8-0.3v2.9l1.6-0.2v-7.4l-1.6,0.2v2.8l-1.8,0.3v-2.8l-1.6,0.2
	C28.1,190.1,28.1,191.7,28.1,191.7z"/>
<path fill="#333333" d="M33.8,196.7l1.6-0.2l0.2-1.8l1.8-0.2l0.2,1.7l1.6-0.2l-0.7-7.3l-3.7,0.5L33.8,196.7z M35.9,190.6l1-0.1
	l0.2,2.5l-1.5,0.2L35.9,190.6z"/>
<path fill="#333333" d="M39.8,188.5v4.9l1-0.1l-1.4,2.6l1.8-0.3l1.2-2.5l0.8-0.1v2.5l1.6-0.2v-7.4L39.8,188.5z M43.1,191.4l-1.8,0.3
	v-1.8l1.8-0.3V191.4z"/>
<path fill="#333333" d="M48.5,194.6l4.9-0.7v-2.3l-1.6,0.2v0.7l-1.8,0.3v-4.2l1.8-0.3v0.7l1.6-0.2v-2.3l-4.9,0.7V194.6z"/>
<path fill="#333333" d="M54.1,188l1.7-0.2v5.8l1.6-0.2v-5.8l1.7-0.2v-1.6l-4.9,0.7L54.1,188L54.1,188z"/>
<path fill="#333333" d="M59.8,193l1.6-0.2v-2.3l3.3-0.5v-5.2l-4.9,0.7C59.8,185.5,59.8,193,59.8,193z M63.1,186.8v2l-1.8,0.3v-2
	L63.1,186.8z"/>
<path fill="#333333" d="M65.2,192.3l1.6-0.2l0.2-1.8l1.8-0.2l0.2,1.7l1.6-0.2l-0.7-7.3l-3.7,0.5L65.2,192.3z M67.4,186.2l1-0.1
	l0.2,2.5l-1.5,0.2L67.4,186.2z"/>
<path fill="#333333" d="M71.3,189.8l-0.6,0.1v2.5l1.6-0.2v-1l2.8-0.4v1l1.6-0.2v-2.5l-0.6,0.1v-5.8l-4,0.6L71.3,189.8z M73.4,185.4
	l1.1-0.2v4.2l-1.7,0.2L73.4,185.4z"/>
<path fill="#333333" d="M77.1,190.6l1.6-0.2l0.2-1.8l1.8-0.2l0.2,1.7l1.6-0.2l-0.7-7.3l-3.7,0.5L77.1,190.6z M79.1,184.5l1-0.1
	l0.2,2.5l-1.5,0.2L79.1,184.5z"/>
<path fill="#333333" d="M82.9,184v5.8l1.6-0.2v-2.9l1.8-0.3v2.9l1.6-0.2v-7.4l-1.6,0.2v2.8l-1.8,0.3v-2.8l-1.6,0.2V184z"/>
<path fill="#333333" d="M90.6,185.8v-4.4l-1.6,0.2v1.6v5.8l1.6-0.2l2.1-4.7v4.4l1.6-0.2v-7.4l-1.6,0.2L90.6,185.8z"/>
<path fill="#333333" d="M179.3,173.3v-4.4l-1.6,0.2v1.6v5.8l1.6-0.2l2.1-4.7v4.4l1.6-0.2v-7.4l-1.6,0.2L179.3,173.3z"/>
<path fill="#333333" d="M97,184.9v-4.4l-1.6,0.2v1.6v5.8l1.6-0.2l2.1-4.7v4.4l1.6-0.2V180l-1.6,0.2L97,184.9z M96.7,179.9l2.6-0.4
	v-1.3l-2.6,0.4V179.9z"/>
<path fill="#333333" d="M101.7,188.2l1.5-1.3v-1.6l-1.5,0.2V188.2z"/>
<path fill="#333333" d="M111.9,185.7v-4.5l-3.3,0.5v-1.3l3.3-0.5v-1.6L107,179v7.4L111.9,185.7z M108.4,183.2l1.8-0.3v1.4l-1.8,0.3
	V183.2z"/>
<path fill="#333333" d="M112.9,185.6l4.9-0.7v-7.4l-4.9,0.7V185.6z M116.3,179.3v4.2l-1.8,0.3v-4.2L116.3,179.3z"/>
<path fill="#333333" d="M118.9,183.1l-0.6,0.1v1.6l1.9-0.3l0.7-5.9l1.1-0.2v5.8l1.6-0.2v-7.4l-4.1,0.6L118.9,183.1z"/>
<path fill="#333333" d="M126.3,180.7v-4.4l-1.6,0.2v1.6v5.8l1.6-0.2l2.1-4.7v4.4l1.6-0.2v-7.4l-1.6,0.2L126.3,180.7z"/>
<path fill="#333333" d="M135.4,179.4V175l-1.6,0.2v1.6v5.8l1.6-0.2l2.1-4.7v4.4l1.6-0.2v-7.4l-1.6,0.2L135.4,179.4z"/>
<path fill="#333333" d="M142.8,181.4l4.9-0.7v-7.4l-4.9,0.7V181.4z M146.2,175.1v4.2l-1.8,0.3v-4.2L146.2,175.1z"/>
<path fill="#333333" d="M148.3,174.8l1.7-0.2v5.8l1.6-0.2v-5.8l1.7-0.2v-1.7l-4.9,0.7v1.6H148.3z"/>
<path fill="#333333" d="M153.9,174v3.2l3.2-0.5v2.5l1.6-0.2v-7.4l-1.6,0.2v3.2l-1.7,0.2V172l-1.6,0.2v1.8H153.9z"/>
<path fill="#333333" d="M159.5,179l1.6-0.2l0.2-1.8l1.8-0.2l0.2,1.7l1.6-0.2l-0.7-7.3l-3.7,0.5L159.5,179z M161.7,172.9l1-0.1
	l0.2,2.5l-1.5,0.2L161.7,172.9z"/>
<path fill="#333333" d="M171.8,171.5v5.8l1.6-0.2v-2.9l1.8-0.3v2.9l1.6-0.2v-7.4l-1.6,0.2v2.8l-1.8,0.3v-2.8l-1.6,0.2V171.5z"/>
<path fill="#333333" d="M183.8,168.2v4.9l1-0.1l-1.4,2.6l1.8-0.3l1.2-2.5l0.8-0.1v2.5l1.6-0.2v-7.4L183.8,168.2z M187.2,171.2
	l-1.8,0.3v-1.9l1.8-0.3V171.2z"/>
<path fill="#333333" d="M165.9,170.6v4.9l1-0.1l-1.4,2.6l1.8-0.3l1.2-2.5l0.8-0.1v2.5l1.6-0.2V170L165.9,170.6z M169.3,173.6
	l-1.8,0.3v-1.9l1.8-0.3V173.6z"/>
</svg>
