<svg xmlns="http://www.w3.org/2000/svg" viewBox="0 0 200 200"><path fill="#333" d="M10.3 83.2L187.5 58v2.3L10.3 85.4v-2.2zM10.4 102.8v10.7l11.6-1.7v4.2l-11.6 1.7v5.6l17-2.5v-26l-5.5.8v10.7l-6 .9V96.5l-5.6.7.1 5.6zM30.8 114.9l-2.1.3v9.1l5.5-.8v-3.4l9.8-1.5v3.4l5.5-.8v-9.1l-2.1.3V91.9L33.6 94c0-.1-2.8 20.9-2.8 20.9zm7.3-16.1l3.7-.5v15l-5.7.8 2-15.3zM49.8 117.6l5.5-.8.6-6.3 6-.9.6 6.1 5.5-.8-2.5-25.8-13 2-2.7 26.5zm7.3-21.4l3.4-.5.8 8.7-5.1.8.9-9z"/><path fill="#333" d="M69.8 109.2l-2 .3v5.6l6.6-1 2.5-20.9 3.9-.6v20.6l5.5-.8V86.3l-14.1 2.1-2.4 20.8zM89.2 112.1l16.8-2.5V104l-11.4 1.7v-4.6l5.8-.9v-5.6l-5.8.9v-4.7l11.4-1.7v-5.6L89.2 86v26.1zM108.3 88.8v20.6l5.5-.8V98.3l6.2-.9v10.3l5.5-.8V80.7l-5.5.8v10.1l-6.2.9V82.4l-5.5.8v5.6zM128.4 85.9v20.6l5.5-.8V95.4l6.2-.9v10.3l5.5-.8V77.8l-5.5.8v10.1l-6.2.9V79.5l-5.5.8v5.6zM147.4 103.6l5.5-.8.6-6.3 6-.9.6 6.1 5.5-.8-2.6-25.7-13.1 2-2.5 26.4zm7.1-21.4l3.4-.5.8 8.7-5.1.8.9-9zM167.2 74.7v17.4l3.4-.5-4.7 9.4 6.2-.9 4.1-9.2 2.5-.4v8.6l5.5-.8v-26l-17 2.4zM178.8 85l-6.2.9v-6.4l6.2-.9V85zM10.4 169.5l5.5-.8v-7.8l11.8-1.7v-18.3l-17.2 2.5-.1 26.1zm11.8-22.2v7.1l-6.2.9v-7.1l6.2-.9zM28.4 167l5.5-.8.6-6.3 6-.9.6 6.1 5.5-.8-2.5-25.8-13.1 2-2.6 26.5zm7.3-21.6l3.4-.5.8 8.7-5.1.8c.1-.1.9-9 .9-9zM65.3 161.7v-16.1l-11.8 1.7V143l11.8-1.7v-5.6l-17.2 2.5v26.1l17.2-2.6zm-11.8-8.9l6.2-.9v4.9l-6.2.9v-4.9zM68.2 161.2l17.2-2.5v-26.2L68.2 135v26.2zM79.9 139v14.9l-6.2.9v-14.9l6.2-.9zM86.5 138.1l5.8-.9v20.6l5.5-.8v-20.6l5.8-.9V130l-17.2 2.5.1 5.6zM104 156.1l5.5-.8.6-6.3 6-.9.6 6.1 5.5-.8-2.5-25.8-13.1 2c.1 0-2.6 26.5-2.6 26.5zm7.4-21.6l3.4-.5.8 8.7-5.1.8.9-9zM10.3 183.8l177.2-25.2v.6L10.3 184.3v-.5zM50.8 31.6c-.6.1-1.1.1-1.6-.2-.5-.4-1.7-.1-3.8-.8-2.2-.7-4.5-.2-5.9.2-1.5.4-2.8-.5-4-1.3-1.1-.7-2.4-.3-3.3-.4-1.1-.1-1.3-1.9-1.3-1.9.9.3 1.3-.6 1.8-.7.5-.2.8-.5 1.4-.7.6-.2.5-.8.5-1.1.1-.3-.2-.9-.2-.9s-.5-.7-.6-1.1-.8-1-1-1.3-.9-.1-1.2-.8c-.4-.8-1.1-.1-1.7-.1-.7 0-1 .2-1.7.4s-1.3 1.6-1.4 2.9.4 2.6.4 2.6l.1 1.2s-.2-.3-1-1.1c-.8-.9-1.2-2.2-2-3.2-.9-1.2-.8-1.7-1.1-3.8-.3-2.3-1.3-3.5-1.5-4.2s.4-1.2.4-1.9c0-.6-.1-1-.5-1.3s-1.1-1.6-1.1-1.6v-1s4.6.4 4.1-4.2C24.5.3 17.9 0 17.9 0s5.7 1.5 5.7 5.4-3.7 3.3-3.7 3.3l-.2 2.3H19s-.2-.5.2-1-.2-.7-.2-1.1c0-.4-.2-.8-.5-1.2-.3-.3-.6-.7-.6-.7l-.1-1.3.8-.6-.1-2.5-1.9.3-1 1.3.2 2.3 1.2-.2v1.2s-.7.6-1 1.2c-.3.7 0 1.6.1 2.3.1.6.8 1.7 1 2.3s-.3 4.7-.1 6.9c0 .2 0 .5.1.7-.6-.5-1.5-.6-2.5-.2-1.2.4-1.5 1-1.7 3.6s.8 3.3.8 3.3-.1.4-.3 2.2C13 31.4 12 31.4 11 32c-1.1.6-.7 2.4.1 5s3 8.1 3 8.1-.1.7-.3 1.3c-.2.6-.1 1.6-.1 1.6s-.8.6-1.3 1c-.6.3-.8 1.1-.6 1.5s.4 1 .4 1.6c-.1.6.8 1.3 1.2 1.6s.5.9.5.9l-.3 2.1c-.1.7.3.8.4 2 .2 1.3.9 9.2.9 10.3s-.2 1-.7 1.6c-.3.3-.6.8-.8 1.1-1.3.2-2.2.5-2.7.6v7.5l34.6-4.9V70l-2-.1v-.1c.1-.6-.7-.2-1.3-.5-.6-.4-1.2-1.6-1.6-3.2-.4-1.8-.9-4.7-.9-4.7s.9-.2 1.6-.4c.7-.2-.1-.7-.1-.7s1.1-.9 1.3-2.2C42.6 56.9 41 57 41 57s1.7-1.3 1.8-2.2c.2-.9-.7-.6-1.4-1s-.2-1.3-.6-2.6c-.4-1.5-2.7-.2-2.8-1.2-.1-1.1-1.5-1.9-1.5-1.9s-.5-.4-.3-1.5-1.8-1.9-1.7-3.1c.2-1.5-2.3-3.2-2.3-3.2v-2.2c0-1.6 1-3.2 1-3.2s2.7-.5 3.8-.6c1.2-.2.8.3 2.2.2 1.5 0 2.6-.4 4.5-.8 1.8-.5 3.7-.1 4.6-.1s.9 1.4 1.2 1.5c.3 0 1.2.2 1.8-.5s.7-1.1.8-2.1c.4-1.1-.6-1-1.3-.9zm-33.3-3.5l-.8-2.1 1-2.3c.1.4.1.8.1 1-.1 1.2-.3 3.4-.3 3.4zm5.5-9.5c.2 1.1.1 3.2.1 3.2s-.3-2.4-.5-3.1c-.1-.8-1-2.6-1-2.6s1.2 1.4 1.4 2.5zm-2.1 50.2c-.4.4-.8 1.1-1.2 1.5-.4.1-.9.2-1.4.2v-2.2l.8-3.9 1.5 2.4c.6.7.9 1.2.3 2zm2.2-31.1c.7 1.3.8 2 .7 2.5s.1 1.1.1 1.1-.7 0-1.1.3-.7.9-.9.9c-.2 0-.5-.3-.9-1.3-.4-1.1-.7-2.5-.4-5.2.3-2.8.5-4.6.7-5.7s-.3-2.1-.4-3.2c-.1-1.3-.1-4.2-.1-4.2s.4 1.5.8 2.2c.4.8.5 1.9 1.2 3.1.7 1.3 1.1 2.5 1.3 3.1.2.8.3 1.5.3 1.5s-.8.4-1.7 2.4c-.3.3-.2 1.3.4 2.5zm12.6 23.6c.8.4 1.9 3 2 3.9.2 1-.2.5-.4 1.4-.3.9 1 1.7 1.6 2.4.3.3.4.5.6.7l-4.6-.3-3.3.8-3.9-.2c0-.2-.1-.5-.2-.8-.3-.6-.8-1.3-1.5-2.1s-1.8-3.8-1.8-3.8 1.2.1 1.9.3c.8.2 1.5-.3 1.9-.4.5-.1 1.3-.8 1.4-1.3s.3-.8.7-1.2c.4-.4.9-.1 1.8.3 1.1.3 3.1-.2 3.8.3zm8.9-30c-1.7-.2-3.9-.3-4.9-.1 0 0 1.7-.8 3.5-.6 1.8.2 2.6.6 3.3.7.6 0 1.8.2 1.8.2s-2.1 0-3.7-.2zM10.3 200l1.6-.2V194l1.8-.3v5.8l1.6-.2V192l-4.9.7v7.3h-.1zM16.4 199.1l4.9-.7V191l-4.9.7v7.4zm3.3-6.2v4.2l-1.8.3v-4.3l1.8-.2zM22.4 196.8l-.6.1v1.6l1.9-.3.7-5.9 1.1-.2v5.8l1.6-.2v-7.4l-4.1.6-.6 5.9zM28.1 191.7v5.8l1.6-.2v-2.9l1.8-.3v2.9l1.6-.2v-7.4l-1.6.2v2.8l-1.8.3v-2.8l-1.6.2v1.6zM33.8 196.7l1.6-.2.2-1.8 1.8-.2.2 1.7 1.6-.2-.7-7.3-3.7.5-1 7.5zm2.1-6.1l1-.1.2 2.5-1.5.2.3-2.6zM39.8 188.5v4.9l1-.1-1.4 2.6 1.8-.3 1.2-2.5.8-.1v2.5l1.6-.2v-7.4l-5 .6zm3.3 2.9l-1.8.3v-1.8l1.8-.3v1.8zM48.5 194.6l4.9-.7v-2.3l-1.6.2v.7l-1.8.3v-4.2l1.8-.3v.7l1.6-.2v-2.3l-4.9.7v7.4zM54.1 188l1.7-.2v5.8l1.6-.2v-5.8l1.7-.2v-1.6l-4.9.7-.1 1.5zM59.8 193l1.6-.2v-2.3l3.3-.5v-5.2l-4.9.7v7.5zm3.3-6.2v2l-1.8.3v-2l1.8-.3zM65.2 192.3l1.6-.2.2-1.8 1.8-.2.2 1.7 1.6-.2-.7-7.3-3.7.5-1 7.5zm2.2-6.1l1-.1.2 2.5-1.5.2.3-2.6zM71.3 189.8l-.6.1v2.5l1.6-.2v-1l2.8-.4v1l1.6-.2v-2.5l-.6.1v-5.8l-4 .6-.8 5.8zm2.1-4.4l1.1-.2v4.2l-1.7.2.6-4.2zM77.1 190.6l1.6-.2.2-1.8 1.8-.2.2 1.7 1.6-.2-.7-7.3-3.7.5-1 7.5zm2-6.1l1-.1.2 2.5-1.5.2.3-2.6zM82.9 184v5.8l1.6-.2v-2.9l1.8-.3v2.9l1.6-.2v-7.4l-1.6.2v2.8l-1.8.3v-2.8l-1.6.2v1.6zM90.6 185.8v-4.4l-1.6.2v7.4l1.6-.2 2.1-4.7v4.4l1.6-.2v-7.4l-1.6.2-2.1 4.7zM179.3 173.3v-4.4l-1.6.2v7.4l1.6-.2 2.1-4.7v4.4l1.6-.2v-7.4l-1.6.2-2.1 4.7zM97 184.9v-4.4l-1.6.2v7.4l1.6-.2 2.1-4.7v4.4l1.6-.2V180l-1.6.2-2.1 4.7zm-.3-5l2.6-.4v-1.3l-2.6.4v1.3zM101.7 188.2l1.5-1.3v-1.6l-1.5.2v2.7zM111.9 185.7v-4.5l-3.3.5v-1.3l3.3-.5v-1.6l-4.9.7v7.4l4.9-.7zm-3.5-2.5l1.8-.3v1.4l-1.8.3v-1.4zM112.9 185.6l4.9-.7v-7.4l-4.9.7v7.4zm3.4-6.3v4.2l-1.8.3v-4.2l1.8-.3zM118.9 183.1l-.6.1v1.6l1.9-.3.7-5.9 1.1-.2v5.8l1.6-.2v-7.4l-4.1.6-.6 5.9zM126.3 180.7v-4.4l-1.6.2v7.4l1.6-.2 2.1-4.7v4.4l1.6-.2v-7.4l-1.6.2-2.1 4.7zM135.4 179.4V175l-1.6.2v7.4l1.6-.2 2.1-4.7v4.4l1.6-.2v-7.4l-1.6.2-2.1 4.7zM142.8 181.4l4.9-.7v-7.4l-4.9.7v7.4zm3.4-6.3v4.2l-1.8.3v-4.2l1.8-.3zM148.3 174.8l1.7-.2v5.8l1.6-.2v-5.8l1.7-.2v-1.7l-4.9.7v1.6h-.1zM153.9 174v3.2l3.2-.5v2.5l1.6-.2v-7.4l-1.6.2v3.2l-1.7.2V172l-1.6.2v1.8h.1zM159.5 179l1.6-.2.2-1.8 1.8-.2.2 1.7 1.6-.2-.7-7.3-3.7.5-1 7.5zm2.2-6.1l1-.1.2 2.5-1.5.2.3-2.6zM171.8 171.5v5.8l1.6-.2v-2.9l1.8-.3v2.9l1.6-.2v-7.4l-1.6.2v2.8l-1.8.3v-2.8l-1.6.2v1.6zM183.8 168.2v4.9l1-.1-1.4 2.6 1.8-.3 1.2-2.5.8-.1v2.5l1.6-.2v-7.4l-5 .6zm3.4 3l-1.8.3v-1.9l1.8-.3v1.9zM165.9 170.6v4.9l1-.1-1.4 2.6 1.8-.3 1.2-2.5.8-.1v2.5l1.6-.2V170l-5 .6zm3.4 3l-1.8.3V172l1.8-.3v1.9z"/></svg>