<svg xmlns="http://www.w3.org/2000/svg" viewBox="0 0 52 65"><path fill="#2f302f" fill-rule="evenodd" d="M3.82 60.91V3.89h35.62c.87.87 7.86 7.43 8.85 8.3v48.64c-14.37.08-42.47.08-44.47.08zM40.86.07H0v64.56h52V10.55L40.86.07zm0 0"/><path fill="#2f302f" fill-rule="evenodd" d="M15.76 33.88l-3.22-7.15h3.16l1.68 4.16.4 1.58.37-1.58 1.77-4.16h2.83l-3.33 7.01 3.49 7.54h-3.05l-1.96-4.47-.43-1.62-.42 1.62-1.95 4.47h-2.89l3.55-7.4zm0 0M31.73 41.28H24V26.73h2.62v12.14h5.11v2.41zm0 0M37.9 37.54c0-.44-.13-.82-.39-1.13-.26-.31-.59-.61-.99-.89-.39-.27-.82-.56-1.29-.85-.46-.29-.89-.63-1.29-1.02-.39-.38-.72-.84-.98-1.37-.27-.53-.4-1.17-.4-1.93 0-.71.11-1.31.32-1.8.22-.49.51-.89.89-1.21.37-.31.81-.54 1.33-.68.51-.15 1.06-.22 1.64-.22.71 0 1.37.07 1.98.21.6.14 1.11.32 1.51.56l-.81 2.31c-.23-.17-.58-.32-1.05-.46-.46-.14-.96-.21-1.51-.21-.54 0-.95.11-1.24.33-.29.23-.44.55-.44.98 0 .39.13.73.4 1.03.26.3.59.59.98.86.4.28.83.57 1.29.87.47.29.9.64 1.29 1.03.4.4.73.86.99 1.4.26.53.39 1.17.39 1.9s-.1 1.37-.32 1.91c-.21.54-.52.99-.91 1.34-.4.36-.87.62-1.43.8-.55.18-1.17.27-1.85.27-.86 0-1.61-.08-2.25-.25-.65-.16-1.14-.35-1.49-.56l.85-2.35c.28.17.66.34 1.15.5.48.17 1 .25 1.56.25 1.38 0 2.07-.54 2.07-1.62"/></svg>
