<svg xmlns="http://www.w3.org/2000/svg" viewBox="-1.4 4.8 180.7 148.2" width="180.7" height="148.2"><path fill="#E9E2D3" d="M35.9 48.3l10.6-1.5v3.6l5.9-.8V40l-2.3.3V18.7l-14.9 2.1-2.9 22.1-2.3.3v9.6l5.9-.8v-3.7zM40.2 26l4-.6v15.8l-6.2.9L40.2 26zm20.1 12.4l6.5-.9.6 6.4 5.9-.8-2.7-27.3-14.2 2-2.7 28 5.9-.8.7-6.6zM61.6 23l3.8-.5.9 9.2-5.5.8.8-9.5zM83.2 6.1l-5.5.8v5.5l5.5-.8V6.1zm9.2-1.3l-5.5.8v5.5l5.5-.8V4.8zm1.8 29.4L82 35.9V31l6.2-.9v-5.9l-6.2.9v-4.9l12.2-1.7v-5.9L76 15.1v27.6l18.2-2.6v-5.9zm31.3-26.1l-5.9.8v21.7l-4.9.7V9.6l-5.9.8v21.7l-4.9.7V11.2l-6 .8v27.6l27.6-3.9V8.1zm22.4 7l-12.2 1.7V6.7l-5.9.8v27.6l18.2-2.6V15.1zM142 27.5l-6.3.9v-5.6l6.3-.9v5.6zM12 81.1l-4.2.6-3.5 7.7-1.8.3v-7.2l-4 .6v18.5l4-.6v-7.3l1.8-.3 3.5 6.8 4.4-.6-4.7-8.9 4.5-9.6zm10.1 17.1l4-.6-1.8-18.2-9.5 1.3L13 99.5l4-.6.4-4.4 4.4-.6.3 4.3zm-4.4-7.7l.6-6.3 2.5-.4.6 6.1-3.7.6zM35 96l4-.6V77l-4 .6v8.2l-4.2.6v-8.2l-4 .6V91l8.2-1.2V96zm18.9-17.2v-4l-12.2 1.7V95l12.2-1.7v-4l-8.2 1.2v-3.3l4.2-.6v-4l-4.2.6V80l8.2-1.2zm14.8-.2v-5.8l-12.4 1.7V93l12.4-1.7v-5.8l-4 .6v1.8l-4.5.6V78l4.5-.6v1.8l4-.6zm14-7.8l-12.4 1.7v4l4.2-.6v14.5l4-.6V75.4l4.2-.6v-4zm14.2-2l-12.4 1.7V89l12.4-1.7v-7.4l-2.3-1.5 2.3-2.2v-7.4zM93 83.9l-4.5.6v-3.4l3.1-.4 1.4 1.1v2.1zm0-8.5L91.5 77l-3.1.4V74l4.5-.6v2zm18.9-4.7v-4l-12.2 1.7v18.5l12.2-1.7v-4l-8.2 1.2v-3.3l4.2-.6v-4l-4.2.6v-3.3l8.2-1.1zm10.8 1.7l-4.5.6v-7.2l-4 .6v18.5l4-.6V77l4.5-.6v7.3l4-.6V64.7l-4 .6v7.1zm10.7 2.5l4.5-.6v7.3l4-.6V62.5l-4 .6v7.2l-4.5.6v-7.2l-4 .6v18.5l4-.6v-7.3zm26 3.6l4-.6V59.5l-4 .6v18.4zm-14.8-16.4v18.5l12.2-1.7V67.2l-8.2 1.2v-6.8l-4 .5zm8.2 9.6v3.8l-4.2.6v-3.8l4.2-.6zm22.6-13.9l-5.2 11.8v-11l-4 .6v18.5l4-.6 5.2-11.8v11l4-.6V57.2l-4 .6zm.7-5l-6.6.9V57l6.6-.9v-3.3zM37.7 115.3l-6.7.9v4.7l-11.6 1.6v26.9l11.6-1.6v5.3l6.7-.9v-5.3l11.6-1.6v-26.9L37.7 120v-4.7zm-6.5 26.2l-5.1.7v-14.4l5.1-.7v14.4zm11.4-16v14.4l-5.1.7v-14.4l5.1-.7zm11.1 22.9l6.7-.9v-9.4l14.3-2v-21.8l-20.9 2.9v31.2zm6.7-25.5l7.6-1.1v8.5l-7.6 1.1v-8.5zm18.7 21.9l20.9-2.9v-31.2l-20.9 2.9v31.2zm6.7-25.4l7.6-1.1v17.8l-7.6 1.1v-17.8zm33.2.7l-7.6 1.1v-12.1l-6.7.9v31.2l6.7-.9v-12.4l7.6-1.1v12.4l6.7-.9v-31.2l-6.7.9v12.1zm9.8-6.8l7.1-1v24.5l6.7-.9v-24.5l7.1-1v-6.7l-20.9 2.9v6.7zm24.8 11.2l5.4-.8.7-21.5-6.7.9.6 21.4zm-.5 9.9l6.5-.9V127l-6.5.9v6.5z"/></svg>