<svg xmlns="http://www.w3.org/2000/svg" xmlns:xlink="http://www.w3.org/1999/xlink" width="254.5" height="272.5" viewBox="9.045 42.302 254.5 272.5"><path fill="#AA9061" d="M172.336 108.898h.328v196.57h-.328z"/><g opacity=".3"><defs><path id="a" d="M20.514 109.087s-.016.23-.016.343c0 17.496 113.168 36.28 167.46 31.514 20.61-1.81 40.464-13.185 40.464-30.68 0-.383-.023-1.14-.023-1.14l-207.886-.037z"/></defs><defs><path id="b" d="M20.514 108.586s-.016.142-.016.21c0 10.79 113.168 22.375 167.46 19.436 20.61-1.115 40.464-8.13 40.464-18.92 0-.233-.023-.7-.023-.7l-207.886-.026z"/></defs><defs><path id="c" d="M119.904 94.536h51.5v13.938h-51.5z"/></defs><path fill="#BAA073" d="M20.514 109.087s-.016.23-.016.343c0 17.496 113.168 36.28 167.46 31.514 20.61-1.81 40.464-13.185 40.464-30.68 0-.383-.023-1.14-.023-1.14l-207.886-.037z"/><defs><path id="d" d="M20.514 109.087s-.016.23-.016.343c0 17.496 113.168 36.28 167.46 31.514 20.61-1.81 40.464-13.185 40.464-30.68 0-.383-.023-1.14-.023-1.14l-207.886-.037z"/></defs><clipPath id="e"><use xlink:href="#d" overflow="visible"/></clipPath><path clip-path="url(#e)" fill="#BAA073" d="M16.622 117.586H19l39-6.892H16.62"/><path fill="#BAA073" d="M228.398 108.657s.02-.758.02-1.14c0-17.496-19.85-28.87-40.46-30.68-54.29-4.767-167.46 14.018-167.46 31.516 0 .113.016.342.016.342l207.884-.038z"/><path fill="#BAA073" d="M228.398 108.67s.02-.466.02-.7c0-10.79-19.85-17.804-40.46-18.92-54.292-2.94-167.462 8.644-167.462 19.434 0 .07.016.21.016.21l207.886-.023zM29.65 101.02L14.62 84.615l14.32-6.463 29.473 14.46s-8.517 1.49-16.516 3.827-12.25 4.58-12.25 4.58zM41.9 121.733c7.998 2.338 16.515 3.827 16.515 3.827l-28.473 14.46-14.32-6.462 14.027-16.405s4.25 2.243 12.25 4.58z"/><path fill="#BAA073" d="M20.514 108.586s-.016.142-.016.21c0 10.79 113.168 22.375 167.46 19.436 20.61-1.115 40.464-8.13 40.464-18.92 0-.233-.023-.7-.023-.7l-207.886-.026z"/><path fill="#BAA073" d="M58 106.694v4H34.404v-4H58z"/><path fill="#BAA073" d="M34.405 106.694v4H13.622v-4h20.783z"/><defs><path id="f" d="M20.514 108.586s-.016.142-.016.21c0 10.79 113.168 22.375 167.46 19.436 20.61-1.115 40.464-8.13 40.464-18.92 0-.233-.023-.7-.023-.7l-207.886-.026z"/></defs><clipPath id="g"><use xlink:href="#f" overflow="visible"/></clipPath><path clip-path="url(#g)" fill="#BAA073" d="M16.622 117.586H19l39-6.892H16.62"/><path fill="#BAA073" d="M125.402 104.983c-.916.94-1.41 2.197-1.41 3.505 0 1.423.482 2.668 1.537 3.62.99.9 2.26 1.41 3.594 1.41.772 0 1.37-.19 2.196-.444v-2.985c-.52.622-1.334 1.017-2.146 1.017-1.55 0-2.592-1.093-2.592-2.604 0-1.485 1.027-2.653 2.553-2.653.352 0 .695.064 1.018.188.398-.718.773-1.43 1.166-2.12-.736-.304-1.474-.48-2.272-.48-1.348-.004-2.706.58-3.646 1.545zM138.523 106.15c-.457-.38-1.04-.634-1.65-.634-.456 0-1.064.268-1.064.8 0 .56.67.773 1.103.914l.635.19c1.334.394 2.363 1.066 2.363 2.616 0 .952-.228 1.93-.99 2.578-.75.635-1.753.9-2.718.9-1.205 0-2.39-.406-3.365-1.092l1.064-2.007c.624.546 1.36.99 2.212.99.584 0 1.207-.29 1.207-.965 0-.697-.98-.938-1.513-1.092-1.562-.443-2.593-.852-2.593-2.705 0-1.942 1.386-3.213 3.304-3.213.965 0 2.146.305 2.998.787l-.993 1.934zM146.98 106.15c-.46-.38-1.043-.634-1.65-.634-.458 0-1.066.268-1.066.8 0 .56.674.773 1.104.914l.635.19c1.334.394 2.36 1.066 2.36 2.616 0 .952-.23 1.93-.99 2.578-.747.635-1.75.9-2.72.9-1.203 0-2.386-.406-3.36-1.092l1.064-2.007c.62.546 1.357.99 2.21.99.583 0 1.206-.29 1.206-.965 0-.697-.98-.938-1.512-1.092-1.56-.443-2.59-.852-2.59-2.705 0-1.942 1.384-3.213 3.302-3.213.965 0 2.146.305 2.997.787l-.99 1.934zM155.438 106.15c-.457-.38-1.04-.634-1.65-.634-.458 0-1.066.268-1.066.8 0 .56.674.773 1.104.914l.635.19c1.335.394 2.36 1.066 2.36 2.616 0 .952-.228 1.93-.988 2.578-.748.635-1.752.9-2.718.9-1.206 0-2.39-.406-3.364-1.092l1.065-2.007c.62.546 1.357.99 2.21.99.583 0 1.206-.29 1.206-.965 0-.697-.978-.938-1.51-1.092-1.563-.443-2.593-.852-2.593-2.705 0-1.942 1.387-3.213 3.305-3.213.965 0 2.146.305 2.994.787l-.988 1.934zM166.273 113.263H163.5l-2.352-3.684h-.024v3.683h-2.488v-9.575h3.722c1.893 0 3.328.9 3.328 2.945 0 1.32-.736 2.465-2.097 2.705l2.683 3.925zm-5.15-5.283h.243c.812 0 1.727-.15 1.727-1.192s-.913-1.194-1.727-1.194h-.242v2.386z"/><g><defs><path id="h" d="M119.904 94.536h51.5v13.938h-51.5z"/></defs><clipPath id="i"><use xlink:href="#h" overflow="visible"/></clipPath><path clip-path="url(#i)" fill="#BAA073" d="M125.402 104.983c-.916.94-1.41 2.197-1.41 3.505 0 1.423.482 2.668 1.537 3.62.99.9 2.26 1.41 3.594 1.41.772 0 1.37-.19 2.196-.444v-2.985c-.52.622-1.334 1.017-2.146 1.017-1.55 0-2.592-1.093-2.592-2.604 0-1.485 1.027-2.653 2.553-2.653.352 0 .695.064 1.018.188.398-.718.773-1.43 1.166-2.12-.736-.304-1.474-.48-2.272-.48-1.348-.004-2.706.58-3.646 1.545zM138.523 106.15c-.457-.38-1.04-.634-1.65-.634-.456 0-1.064.268-1.064.8 0 .56.67.773 1.103.914l.635.19c1.334.394 2.363 1.066 2.363 2.616 0 .952-.228 1.93-.99 2.578-.75.635-1.753.9-2.718.9-1.205 0-2.39-.406-3.365-1.092l1.064-2.007c.624.546 1.36.99 2.212.99.584 0 1.207-.29 1.207-.965 0-.697-.98-.938-1.513-1.092-1.562-.443-2.593-.852-2.593-2.705 0-1.942 1.386-3.213 3.304-3.213.965 0 2.146.305 2.998.787l-.993 1.934zM146.98 106.15c-.46-.38-1.043-.634-1.65-.634-.458 0-1.066.268-1.066.8 0 .56.674.773 1.104.914l.635.19c1.334.394 2.36 1.066 2.36 2.616 0 .952-.23 1.93-.99 2.578-.747.635-1.75.9-2.72.9-1.203 0-2.386-.406-3.36-1.092l1.064-2.007c.62.546 1.357.99 2.21.99.583 0 1.206-.29 1.206-.965 0-.697-.98-.938-1.512-1.092-1.56-.443-2.59-.852-2.59-2.705 0-1.942 1.384-3.213 3.302-3.213.965 0 2.146.305 2.997.787l-.99 1.934zM155.438 106.15c-.457-.38-1.04-.634-1.65-.634-.458 0-1.066.268-1.066.8 0 .56.674.773 1.104.914l.635.19c1.335.394 2.36 1.066 2.36 2.616 0 .952-.228 1.93-.988 2.578-.748.635-1.752.9-2.718.9-1.206 0-2.39-.406-3.364-1.092l1.065-2.007c.62.546 1.357.99 2.21.99.583 0 1.206-.29 1.206-.965 0-.697-.978-.938-1.51-1.092-1.563-.443-2.593-.852-2.593-2.705 0-1.942 1.387-3.213 3.305-3.213.965 0 2.146.305 2.994.787l-.988 1.934zM166.273 113.263H163.5l-2.352-3.684h-.024v3.683h-2.488v-9.575h3.722c1.893 0 3.328.9 3.328 2.945 0 1.32-.736 2.465-2.097 2.705l2.683 3.925zm-5.15-5.283h.243c.812 0 1.727-.15 1.727-1.192s-.913-1.194-1.727-1.194h-.242v2.386z"/></g><g><defs><path id="j" d="M20.514 109.087s-.016.23-.016.343c0 17.496 113.168 36.28 167.46 31.514 20.61-1.81 40.464-13.185 40.464-30.68 0-.383-.023-1.14-.023-1.14l-207.886-.037z"/></defs></g><g><defs><path id="k" d="M20.514 108.586s-.016.142-.016.21c0 10.79 113.168 22.375 167.46 19.436 20.61-1.115 40.464-8.13 40.464-18.92 0-.233-.023-.7-.023-.7l-207.886-.026z"/></defs></g><g><defs><path id="l" d="M119.904 94.536h51.5v13.938h-51.5z"/></defs></g></g><defs><path id="m" d="M50.514 79.087s-.016.23-.016.343c0 17.496 113.168 36.28 167.46 31.514 20.61-1.81 40.464-13.185 40.464-30.68 0-.383-.023-1.14-.023-1.14l-207.886-.037z"/></defs><defs><path id="n" d="M50.514 78.586s-.016.142-.016.21c0 10.79 113.168 22.375 167.46 19.436 20.61-1.115 40.464-8.13 40.464-18.92 0-.233-.023-.7-.023-.7l-207.886-.026z"/></defs><defs><path id="o" d="M149.904 64.536h51.5v13.938h-51.5z"/></defs><g><path fill="#EFE8D9" d="M50.514 79.087s-.016.23-.016.343c0 17.496 113.168 36.28 167.46 31.514 20.61-1.81 40.464-13.185 40.464-30.68 0-.383-.023-1.14-.023-1.14l-207.886-.037z"/><defs><path id="p" d="M50.514 79.087s-.016.23-.016.343c0 17.496 113.168 36.28 167.46 31.514 20.61-1.81 40.464-13.185 40.464-30.68 0-.383-.023-1.14-.023-1.14l-207.886-.037z"/></defs><clipPath id="q"><use xlink:href="#p" overflow="visible"/></clipPath><path clip-path="url(#q)" fill="#F0ECE5" d="M46.622 87.586H49l39-6.892H46.62"/><path fill="#FCFBF6" d="M258.398 78.657s.02-.758.02-1.14c0-17.496-19.85-28.87-40.46-30.68-54.29-4.767-167.46 14.018-167.46 31.516 0 .113.016.342.016.342l207.884-.038z"/><path fill="#F8F6EF" d="M258.398 78.67s.02-.466.02-.7c0-10.79-19.85-17.804-40.46-18.92-54.292-2.94-167.462 8.644-167.462 19.434 0 .07.016.21.016.21l207.886-.023z"/><path fill="#F8F7F1" d="M59.65 71.02L44.62 54.615l14.32-6.463 29.473 14.46s-8.517 1.49-16.516 3.827-12.25 4.58-12.25 4.58zM71.9 91.733c7.998 2.338 16.515 3.827 16.515 3.827l-28.473 14.46-14.32-6.462L59.65 87.153s4.25 2.243 12.25 4.58z"/><path fill="#F6F4E8" d="M50.514 78.586s-.016.142-.016.21c0 10.79 113.168 22.375 167.46 19.436 20.61-1.115 40.464-8.13 40.464-18.92 0-.233-.023-.7-.023-.7l-207.886-.026z"/><path fill="#FCFBF7" d="M88 76.694v4H64.404v-4H88z"/><path fill="#F8F5EE" d="M64.405 76.694v4H43.622v-4h20.783z"/><defs><path id="r" d="M50.514 78.586s-.016.142-.016.21c0 10.79 113.168 22.375 167.46 19.436 20.61-1.115 40.464-8.13 40.464-18.92 0-.233-.023-.7-.023-.7l-207.886-.026z"/></defs><clipPath id="s"><use xlink:href="#r" overflow="visible"/></clipPath><path clip-path="url(#s)" fill="#F3EFE5" d="M46.622 87.586H49l39-6.892H46.62"/><path fill="#C62119" d="M155.402 74.983c-.916.94-1.41 2.197-1.41 3.505 0 1.423.482 2.668 1.537 3.62.99.9 2.26 1.41 3.594 1.41.772 0 1.37-.19 2.196-.444V80.09c-.52.622-1.334 1.017-2.146 1.017-1.55 0-2.592-1.093-2.592-2.604 0-1.485 1.027-2.653 2.553-2.653.352 0 .695.064 1.018.188.398-.718.773-1.43 1.166-2.12-.736-.304-1.474-.48-2.272-.48-1.348-.004-2.706.58-3.646 1.545zM168.523 76.15c-.457-.38-1.04-.634-1.65-.634-.456 0-1.064.268-1.064.8 0 .56.67.773 1.103.914l.635.19c1.334.394 2.363 1.066 2.363 2.616 0 .952-.228 1.93-.99 2.578-.75.635-1.753.9-2.718.9-1.205 0-2.39-.406-3.365-1.092l1.064-2.007c.624.546 1.36.99 2.212.99.584 0 1.207-.29 1.207-.965 0-.697-.98-.938-1.513-1.092-1.562-.443-2.593-.852-2.593-2.705 0-1.942 1.386-3.213 3.304-3.213.965 0 2.146.305 2.998.787l-.993 1.934zM176.98 76.15c-.46-.38-1.043-.634-1.65-.634-.458 0-1.066.268-1.066.8 0 .56.674.773 1.104.914l.635.19c1.334.394 2.36 1.066 2.36 2.616 0 .952-.23 1.93-.99 2.578-.747.635-1.75.9-2.72.9-1.203 0-2.386-.406-3.36-1.092l1.064-2.007c.62.546 1.357.99 2.21.99.583 0 1.206-.29 1.206-.965 0-.697-.98-.938-1.512-1.092-1.56-.443-2.59-.852-2.59-2.705 0-1.942 1.384-3.213 3.302-3.213.965 0 2.146.305 2.997.787l-.99 1.934zM185.438 76.15c-.457-.38-1.04-.634-1.65-.634-.458 0-1.066.268-1.066.8 0 .56.674.773 1.104.914l.635.19c1.335.394 2.36 1.066 2.36 2.616 0 .952-.228 1.93-.988 2.578-.748.635-1.752.9-2.718.9-1.206 0-2.39-.406-3.364-1.092l1.065-2.007c.62.546 1.357.99 2.21.99.583 0 1.206-.29 1.206-.965 0-.697-.978-.938-1.51-1.092-1.563-.443-2.593-.852-2.593-2.705 0-1.942 1.387-3.213 3.305-3.213.965 0 2.146.305 2.994.787l-.988 1.934zM196.273 83.263H193.5l-2.352-3.684h-.024v3.683h-2.488v-9.575h3.722c1.893 0 3.328.9 3.328 2.945 0 1.32-.736 2.465-2.097 2.705l2.683 3.925zm-5.15-5.283h.243c.812 0 1.727-.15 1.727-1.192s-.913-1.194-1.727-1.194h-.242v2.386z"/><g><defs><path id="t" d="M149.904 64.536h51.5v13.938h-51.5z"/></defs><clipPath id="u"><use xlink:href="#t" overflow="visible"/></clipPath><g clip-path="url(#u)" fill="#D12D2C"><path d="M155.402 74.983c-.916.94-1.41 2.197-1.41 3.505 0 1.423.482 2.668 1.537 3.62.99.9 2.26 1.41 3.594 1.41.772 0 1.37-.19 2.196-.444V80.09c-.52.622-1.334 1.017-2.146 1.017-1.55 0-2.592-1.093-2.592-2.604 0-1.485 1.027-2.653 2.553-2.653.352 0 .695.064 1.018.188.398-.718.773-1.43 1.166-2.12-.736-.304-1.474-.48-2.272-.48-1.348-.004-2.706.58-3.646 1.545zM168.523 76.15c-.457-.38-1.04-.634-1.65-.634-.456 0-1.064.268-1.064.8 0 .56.67.773 1.103.914l.635.19c1.334.394 2.363 1.066 2.363 2.616 0 .952-.228 1.93-.99 2.578-.75.635-1.753.9-2.718.9-1.205 0-2.39-.406-3.365-1.092l1.064-2.007c.624.546 1.36.99 2.212.99.584 0 1.207-.29 1.207-.965 0-.697-.98-.938-1.513-1.092-1.562-.443-2.593-.852-2.593-2.705 0-1.942 1.386-3.213 3.304-3.213.965 0 2.146.305 2.998.787l-.993 1.934zM176.98 76.15c-.46-.38-1.043-.634-1.65-.634-.458 0-1.066.268-1.066.8 0 .56.674.773 1.104.914l.635.19c1.334.394 2.36 1.066 2.36 2.616 0 .952-.23 1.93-.99 2.578-.747.635-1.75.9-2.72.9-1.203 0-2.386-.406-3.36-1.092l1.064-2.007c.62.546 1.357.99 2.21.99.583 0 1.206-.29 1.206-.965 0-.697-.98-.938-1.512-1.092-1.56-.443-2.59-.852-2.59-2.705 0-1.942 1.384-3.213 3.302-3.213.965 0 2.146.305 2.997.787l-.99 1.934zM185.438 76.15c-.457-.38-1.04-.634-1.65-.634-.458 0-1.066.268-1.066.8 0 .56.674.773 1.104.914l.635.19c1.335.394 2.36 1.066 2.36 2.616 0 .952-.228 1.93-.988 2.578-.748.635-1.752.9-2.718.9-1.206 0-2.39-.406-3.364-1.092l1.065-2.007c.62.546 1.357.99 2.21.99.583 0 1.206-.29 1.206-.965 0-.697-.978-.938-1.51-1.092-1.563-.443-2.593-.852-2.593-2.705 0-1.942 1.387-3.213 3.305-3.213.965 0 2.146.305 2.994.787l-.988 1.934zM196.273 83.263H193.5l-2.352-3.684h-.024v3.683h-2.488v-9.575h3.722c1.893 0 3.328.9 3.328 2.945 0 1.32-.736 2.465-2.097 2.705l2.683 3.925zm-5.15-5.283h.243c.812 0 1.727-.15 1.727-1.192s-.913-1.194-1.727-1.194h-.242v2.386z"/></g></g></g><g><defs><path id="v" d="M50.514 79.087s-.016.23-.016.343c0 17.496 113.168 36.28 167.46 31.514 20.61-1.81 40.464-13.185 40.464-30.68 0-.383-.023-1.14-.023-1.14l-207.886-.037z"/></defs><defs><path id="w" d="M50.514 78.586s-.016.142-.016.21c0 10.79 113.168 22.375 167.46 19.436 20.61-1.115 40.464-8.13 40.464-18.92 0-.233-.023-.7-.023-.7l-207.886-.026z"/></defs><defs><path id="x" d="M149.904 64.536h51.5v13.938h-51.5z"/></defs></g></svg>