<svg xmlns="http://www.w3.org/2000/svg" xmlns:xlink="http://www.w3.org/1999/xlink" width="254.5" height="272.5" viewBox="9.045 42.302 254.5 272.5"><path fill="#AA9061" d="M172.336 108.898h.328v196.57h-.328z"/><g opacity=".3"><path fill="#BAA073" d="M20.514 109.087s-.016.23-.016.343c0 17.496 113.168 36.28 167.46 31.514 20.61-1.81 40.464-13.185 40.464-30.68 0-.383-.023-1.14-.023-1.14l-207.887-.037z"/><defs><path id="a" d="M20.514 109.087s-.016.23-.016.343c0 17.496 113.168 36.28 167.46 31.514 20.61-1.81 40.464-13.185 40.464-30.68 0-.383-.023-1.14-.023-1.14l-207.887-.037z"/></defs><clipPath id="b"><use xlink:href="#a" overflow="visible"/></clipPath><path clip-path="url(#b)" fill="#BAA073" d="M16.622 117.586H19l39-6.892H16.62"/><path fill="#BAA073" d="M228.398 108.657s.02-.758.02-1.14c0-17.496-19.85-28.87-40.46-30.68-54.29-4.767-167.46 14.018-167.46 31.516 0 .113.016.342.016.342l207.884-.038z"/><path fill="#BAA073" d="M228.398 108.67s.02-.466.02-.7c0-10.79-19.85-17.804-40.46-18.92-54.292-2.94-167.462 8.644-167.462 19.434 0 .07.016.21.016.21l207.886-.023zM29.65 101.02L14.62 84.615l14.32-6.463 29.473 14.46s-8.517 1.49-16.516 3.827-12.25 4.58-12.25 4.58zm12.25 20.713c7.998 2.338 16.515 3.827 16.515 3.827l-28.473 14.46-14.32-6.462 14.027-16.405s4.25 2.243 12.25 4.58z"/><path fill="#BAA073" d="M20.514 108.586s-.016.142-.016.21c0 10.79 113.168 22.375 167.46 19.436 20.61-1.115 40.464-8.13 40.464-18.92 0-.233-.023-.7-.023-.7l-207.887-.026z"/><path fill="#BAA073" d="M58 106.694v4H34.404v-4H58z"/><path fill="#BAA073" d="M34.405 106.694v4H13.622v-4h20.783z"/><defs><path id="c" d="M20.514 108.586s-.016.142-.016.21c0 10.79 113.168 22.375 167.46 19.436 20.61-1.115 40.464-8.13 40.464-18.92 0-.233-.023-.7-.023-.7l-207.887-.026z"/></defs><clipPath id="d"><use xlink:href="#c" overflow="visible"/></clipPath><path clip-path="url(#d)" fill="#BAA073" d="M16.622 117.586H19l39-6.892H16.62"/><path fill="#BAA073" d="M125.402 104.983a5.005 5.005 0 0 0-1.41 3.505c0 1.423.482 2.668 1.537 3.62.99.9 2.26 1.41 3.593 1.41.772 0 1.37-.19 2.196-.444v-2.985a2.865 2.865 0 0 1-2.147 1.016c-1.55 0-2.592-1.093-2.592-2.604 0-1.485 1.028-2.653 2.554-2.653.352 0 .695.063 1.018.187.398-.718.773-1.43 1.166-2.12-.736-.304-1.474-.48-2.272-.48-1.348-.004-2.706.58-3.646 1.545zm13.12 1.167c-.456-.38-1.04-.634-1.65-.634-.455 0-1.063.268-1.063.8 0 .56.67.773 1.102.914l.635.19c1.334.394 2.363 1.066 2.363 2.616 0 .952-.228 1.93-.99 2.578-.75.635-1.753.9-2.718.9-1.205 0-2.39-.406-3.365-1.092l1.064-2.007c.625.546 1.36.99 2.213.99.584 0 1.207-.29 1.207-.965 0-.697-.98-.938-1.513-1.092-1.562-.443-2.593-.852-2.593-2.705 0-1.942 1.386-3.213 3.304-3.213.965 0 2.146.305 2.998.787l-.993 1.934zm8.458 0c-.46-.38-1.043-.634-1.65-.634-.458 0-1.066.268-1.066.8 0 .56.674.773 1.104.914l.635.19c1.334.394 2.36 1.066 2.36 2.616 0 .952-.23 1.93-.99 2.578-.747.635-1.75.9-2.72.9-1.203 0-2.386-.406-3.36-1.092l1.064-2.007c.62.546 1.357.99 2.21.99.583 0 1.206-.29 1.206-.965 0-.697-.98-.938-1.512-1.092-1.56-.443-2.59-.852-2.59-2.705 0-1.942 1.385-3.213 3.303-3.213.965 0 2.146.305 2.997.787l-.99 1.934zm8.458 0c-.457-.38-1.04-.634-1.65-.634-.458 0-1.066.268-1.066.8 0 .56.674.773 1.104.914l.635.19c1.336.394 2.36 1.066 2.36 2.616 0 .952-.227 1.93-.987 2.578-.748.635-1.752.9-2.718.9-1.206 0-2.39-.406-3.364-1.092l1.066-2.007c.62.546 1.357.99 2.21.99.583 0 1.206-.29 1.206-.965 0-.697-.978-.938-1.51-1.092-1.563-.443-2.593-.852-2.593-2.705 0-1.942 1.386-3.213 3.304-3.213.965 0 2.146.305 2.994.787l-.988 1.934zm10.835 7.113H163.5l-2.352-3.684h-.024v3.682h-2.488v-9.575h3.722c1.893 0 3.328.9 3.328 2.945 0 1.32-.736 2.465-2.097 2.705l2.682 3.925zm-5.15-5.283h.243c.812 0 1.727-.15 1.727-1.192s-.913-1.194-1.727-1.194h-.242v2.386z"/><defs><path id="e" d="M119.904 94.536h51.5v13.938h-51.5z"/></defs><clipPath id="f"><use xlink:href="#e" overflow="visible"/></clipPath><path clip-path="url(#f)" fill="#BAA073" d="M125.402 104.983a5.005 5.005 0 0 0-1.41 3.505c0 1.423.482 2.668 1.537 3.62.99.9 2.26 1.41 3.593 1.41.772 0 1.37-.19 2.196-.444v-2.985a2.865 2.865 0 0 1-2.147 1.016c-1.55 0-2.592-1.093-2.592-2.604 0-1.485 1.028-2.653 2.554-2.653.352 0 .695.063 1.018.187.398-.718.773-1.43 1.166-2.12-.736-.304-1.474-.48-2.272-.48-1.348-.004-2.706.58-3.646 1.545zm13.12 1.167c-.456-.38-1.04-.634-1.65-.634-.455 0-1.063.268-1.063.8 0 .56.67.773 1.102.914l.635.19c1.334.394 2.363 1.066 2.363 2.616 0 .952-.228 1.93-.99 2.578-.75.635-1.753.9-2.718.9-1.205 0-2.39-.406-3.365-1.092l1.064-2.007c.625.546 1.36.99 2.213.99.584 0 1.207-.29 1.207-.965 0-.697-.98-.938-1.513-1.092-1.562-.443-2.593-.852-2.593-2.705 0-1.942 1.386-3.213 3.304-3.213.965 0 2.146.305 2.998.787l-.993 1.934zm8.458 0c-.46-.38-1.043-.634-1.65-.634-.458 0-1.066.268-1.066.8 0 .56.674.773 1.104.914l.635.19c1.334.394 2.36 1.066 2.36 2.616 0 .952-.23 1.93-.99 2.578-.747.635-1.75.9-2.72.9-1.203 0-2.386-.406-3.36-1.092l1.064-2.007c.62.546 1.357.99 2.21.99.583 0 1.206-.29 1.206-.965 0-.697-.98-.938-1.512-1.092-1.56-.443-2.59-.852-2.59-2.705 0-1.942 1.385-3.213 3.303-3.213.965 0 2.146.305 2.997.787l-.99 1.934zm8.458 0c-.457-.38-1.04-.634-1.65-.634-.458 0-1.066.268-1.066.8 0 .56.674.773 1.104.914l.635.19c1.336.394 2.36 1.066 2.36 2.616 0 .952-.227 1.93-.987 2.578-.748.635-1.752.9-2.718.9-1.206 0-2.39-.406-3.364-1.092l1.066-2.007c.62.546 1.357.99 2.21.99.583 0 1.206-.29 1.206-.965 0-.697-.978-.938-1.51-1.092-1.563-.443-2.593-.852-2.593-2.705 0-1.942 1.386-3.213 3.304-3.213.965 0 2.146.305 2.994.787l-.988 1.934zm10.835 7.113H163.5l-2.352-3.684h-.024v3.682h-2.488v-9.575h3.722c1.893 0 3.328.9 3.328 2.945 0 1.32-.736 2.465-2.097 2.705l2.682 3.925zm-5.15-5.283h.243c.812 0 1.727-.15 1.727-1.192s-.913-1.194-1.727-1.194h-.242v2.386z"/></g><path fill="#EFE8D9" d="M50.514 79.087s-.016.23-.016.343c0 17.496 113.168 36.28 167.46 31.514 20.61-1.81 40.464-13.185 40.464-30.68 0-.383-.023-1.14-.023-1.14l-207.887-.037z"/><defs><path id="g" d="M50.514 79.087s-.016.23-.016.343c0 17.496 113.168 36.28 167.46 31.514 20.61-1.81 40.464-13.185 40.464-30.68 0-.383-.023-1.14-.023-1.14l-207.887-.037z"/></defs><clipPath id="h"><use xlink:href="#g" overflow="visible"/></clipPath><path clip-path="url(#h)" fill="#F0ECE5" d="M46.622 87.586H49l39-6.892H46.62"/><path fill="#FCFBF6" d="M258.398 78.657s.02-.758.02-1.14c0-17.496-19.85-28.87-40.46-30.68-54.29-4.767-167.46 14.018-167.46 31.516 0 .113.016.342.016.342l207.884-.038z"/><path fill="#F8F6EF" d="M258.398 78.67s.02-.466.02-.7c0-10.79-19.85-17.804-40.46-18.92-54.292-2.94-167.462 8.644-167.462 19.434 0 .07.016.21.016.21l207.886-.023z"/><path fill="#F8F7F1" d="M59.65 71.02L44.62 54.615l14.32-6.463 29.473 14.46s-8.517 1.49-16.516 3.827-12.25 4.58-12.25 4.58zM71.9 91.733c7.998 2.338 16.515 3.827 16.515 3.827l-28.473 14.46-14.32-6.462L59.65 87.153s4.25 2.243 12.25 4.58z"/><path fill="#F6F4E8" d="M50.514 78.586s-.016.142-.016.21c0 10.79 113.168 22.375 167.46 19.436 20.61-1.115 40.464-8.13 40.464-18.92 0-.233-.023-.7-.023-.7l-207.887-.026z"/><path fill="#FCFBF7" d="M88 76.694v4H64.404v-4H88z"/><path fill="#F8F5EE" d="M64.405 76.694v4H43.622v-4h20.783z"/><defs><path id="i" d="M50.514 78.586s-.016.142-.016.21c0 10.79 113.168 22.375 167.46 19.436 20.61-1.115 40.464-8.13 40.464-18.92 0-.233-.023-.7-.023-.7l-207.887-.026z"/></defs><clipPath id="j"><use xlink:href="#i" overflow="visible"/></clipPath><path clip-path="url(#j)" fill="#F3EFE5" d="M46.622 87.586H49l39-6.892H46.62"/><path fill="#C62119" d="M155.402 74.983a5.005 5.005 0 0 0-1.41 3.505c0 1.423.482 2.668 1.537 3.62.99.9 2.26 1.41 3.593 1.41.772 0 1.37-.19 2.196-.444V80.09a2.865 2.865 0 0 1-2.147 1.017c-1.55 0-2.592-1.093-2.592-2.604 0-1.485 1.028-2.653 2.554-2.653.352 0 .695.064 1.018.188.398-.718.773-1.43 1.166-2.12-.736-.304-1.474-.48-2.272-.48-1.348-.004-2.706.58-3.646 1.545zm13.12 1.167c-.456-.38-1.04-.634-1.65-.634-.455 0-1.063.268-1.063.8 0 .56.67.773 1.102.914l.635.19c1.334.394 2.363 1.066 2.363 2.616 0 .952-.228 1.93-.99 2.578-.75.635-1.753.9-2.718.9-1.205 0-2.39-.406-3.365-1.092l1.064-2.007c.625.546 1.36.99 2.213.99.584 0 1.207-.29 1.207-.965 0-.697-.98-.938-1.513-1.092-1.562-.443-2.593-.852-2.593-2.705 0-1.942 1.386-3.213 3.304-3.213.965 0 2.146.305 2.998.787l-.993 1.934zm8.458 0c-.46-.38-1.043-.634-1.65-.634-.458 0-1.066.268-1.066.8 0 .56.674.773 1.104.914l.635.19c1.334.394 2.36 1.066 2.36 2.616 0 .952-.23 1.93-.99 2.578-.747.635-1.75.9-2.72.9-1.203 0-2.386-.406-3.36-1.092l1.064-2.007c.62.546 1.357.99 2.21.99.583 0 1.206-.29 1.206-.965 0-.697-.98-.938-1.512-1.092-1.56-.443-2.59-.852-2.59-2.705 0-1.942 1.385-3.213 3.303-3.213.965 0 2.146.305 2.997.787l-.99 1.934zm8.458 0c-.457-.38-1.04-.634-1.65-.634-.458 0-1.066.268-1.066.8 0 .56.674.773 1.104.914l.635.19c1.336.394 2.36 1.066 2.36 2.616 0 .952-.227 1.93-.987 2.578-.748.635-1.752.9-2.718.9-1.206 0-2.39-.406-3.364-1.092l1.066-2.007c.62.546 1.357.99 2.21.99.583 0 1.206-.29 1.206-.965 0-.697-.978-.938-1.51-1.092-1.563-.443-2.593-.852-2.593-2.705 0-1.942 1.386-3.213 3.304-3.213.965 0 2.146.305 2.994.787l-.988 1.934zm10.835 7.113H193.5l-2.352-3.684h-.024v3.682h-2.488v-9.575h3.722c1.893 0 3.328.9 3.328 2.945 0 1.32-.736 2.465-2.097 2.705l2.682 3.925zm-5.15-5.283h.243c.812 0 1.727-.15 1.727-1.192s-.913-1.194-1.727-1.194h-.242v2.386z"/><defs><path id="k" d="M149.904 64.536h51.5v13.938h-51.5z"/></defs><clipPath id="l"><use xlink:href="#k" overflow="visible"/></clipPath><g clip-path="url(#l)" fill="#D12D2C"><path d="M155.402 74.983a5.005 5.005 0 0 0-1.41 3.505c0 1.423.482 2.668 1.537 3.62.99.9 2.26 1.41 3.593 1.41.772 0 1.37-.19 2.196-.444V80.09a2.865 2.865 0 0 1-2.147 1.017c-1.55 0-2.592-1.093-2.592-2.604 0-1.485 1.028-2.653 2.554-2.653.352 0 .695.064 1.018.188.398-.718.773-1.43 1.166-2.12-.736-.304-1.474-.48-2.272-.48-1.348-.004-2.706.58-3.646 1.545zm13.12 1.167c-.456-.38-1.04-.634-1.65-.634-.455 0-1.063.268-1.063.8 0 .56.67.773 1.102.914l.635.19c1.334.394 2.363 1.066 2.363 2.616 0 .952-.228 1.93-.99 2.578-.75.635-1.753.9-2.718.9-1.205 0-2.39-.406-3.365-1.092l1.064-2.007c.625.546 1.36.99 2.213.99.584 0 1.207-.29 1.207-.965 0-.697-.98-.938-1.513-1.092-1.562-.443-2.593-.852-2.593-2.705 0-1.942 1.386-3.213 3.304-3.213.965 0 2.146.305 2.998.787l-.993 1.934zm8.458 0c-.46-.38-1.043-.634-1.65-.634-.458 0-1.066.268-1.066.8 0 .56.674.773 1.104.914l.635.19c1.334.394 2.36 1.066 2.36 2.616 0 .952-.23 1.93-.99 2.578-.747.635-1.75.9-2.72.9-1.203 0-2.386-.406-3.36-1.092l1.064-2.007c.62.546 1.357.99 2.21.99.583 0 1.206-.29 1.206-.965 0-.697-.98-.938-1.512-1.092-1.56-.443-2.59-.852-2.59-2.705 0-1.942 1.385-3.213 3.303-3.213.965 0 2.146.305 2.997.787l-.99 1.934zm8.458 0c-.457-.38-1.04-.634-1.65-.634-.458 0-1.066.268-1.066.8 0 .56.674.773 1.104.914l.635.19c1.336.394 2.36 1.066 2.36 2.616 0 .952-.227 1.93-.987 2.578-.748.635-1.752.9-2.718.9-1.206 0-2.39-.406-3.364-1.092l1.066-2.007c.62.546 1.357.99 2.21.99.583 0 1.206-.29 1.206-.965 0-.697-.978-.938-1.51-1.092-1.563-.443-2.593-.852-2.593-2.705 0-1.942 1.386-3.213 3.304-3.213.965 0 2.146.305 2.994.787l-.988 1.934zm10.835 7.113H193.5l-2.352-3.684h-.024v3.682h-2.488v-9.575h3.722c1.893 0 3.328.9 3.328 2.945 0 1.32-.736 2.465-2.097 2.705l2.682 3.925zm-5.15-5.283h.243c.812 0 1.727-.15 1.727-1.192s-.913-1.194-1.727-1.194h-.242v2.386z"/></g></svg>