<svg xmlns="http://www.w3.org/2000/svg" width="171.727" height="137.333" viewBox="0 0 171.727 137.333"><path fill="#E9E2D3" d="M28.01 52.266l11.578-1.628v3.975l6.48-.91V43.247l-2.506.352V19.84l-16.33 2.295-3.196 24.21-2.505.35v10.456l6.48-.91v-3.974zm4.71-24.422l4.362-.613v17.28l-6.74.947 2.377-17.613zm21.987 13.54l7.128-1 .648 7.036 6.48-.91-2.938-29.827-15.51 2.18-2.937 30.652 6.48-.91.65-7.22zm1.512-16.842l4.103-.577.95 10.02-6.005.843.95-10.286zm35.64 12.27l-13.393 1.882v-5.4l6.825-.958v-6.48l-6.825.96v-5.4l13.392-1.883v-6.48l-19.873 2.794v30.24l19.872-2.793v-6.482zm34.255-28.574l-6.48.91v23.76l-5.398.76V9.908l-6.48.91v23.76l-5.4.76v-23.76l-6.48.91v30.24l30.24-4.25V8.238zm11.147 9.536V6.67l-6.48.912v30.24l19.872-2.793V15.89l-13.392 1.884zm6.912 11.685l-6.912.97v-6.177l6.912-.972v6.18zM37.446 85.74l10.716-1.507V74.36l-7.296 1.026V72.72l7.296-1.026v-3.42L37.446 69.78v15.96zm3.42-6.934l3.876-.545v3.034l-3.876.544v-3.032zm9.69-10.87v15.96l10.487-1.473v-10.1l-7.068.993v-5.86l-3.42.48zm7.068 8.287v3.26l-3.648.514v-3.26l3.648-.514zm9.12 5.4v-15.96l-3.42.48v15.96l3.42-.48zm13.11-6.814l-3.42.48v1.55l-3.876.545v-9.12l3.876-.545v1.55l3.42-.48v-4.97l-10.716 1.506v15.96l10.716-1.506v-4.97zm8.435 3.784v-12.54l3.647-.513v-3.42L81.22 63.628v3.42l3.65-.513v12.54l3.42-.48zm8.663-6.006l7.296-1.025V60.39l-10.717 1.507v15.96l3.42-.48v-4.79zm0-7.752l3.876-.545v4.333l-3.877.545v-4.332zm25.764 8.92v-15.96l-3.42.48v15.96l3.42-.48zM109.95 59.588l-3.42.48v15.96l10.487-1.475v-10.1l-7.068.993v-5.86zm3.648 8.767v3.26l-3.648.513v-3.26l3.648-.513zm22.867 3.466v-15.96l-3.42.48-4.514 10.165v-9.53l-3.42.48v15.96l3.42-.48 4.515-10.164v9.53l3.42-.48zm-2.827-19.803l-5.7.8v2.85l5.7-.8v-2.85zM26.152 131.727l20.304-2.854v-9.418l-6.48.91v2.938l-7.344 1.032v-17.28l7.344-1.032v2.938l6.48-.91v-9.417l-20.304 2.854v30.24zm22.896-26.978l6.912-.972v23.76l6.48-.91v-23.76l6.912-.973v-6.48L49.048 98.27v6.48zM73.8 94.79l-2.937 30.653 6.48-.91.648-7.22 7.13-1.002.647 7.038 6.48-.91L89.31 92.61 73.8 94.79zm4.753 15.964l.95-10.286 4.105-.576.95 10.02-6.005.842zm16.72 11.258l6.478-.91v-9.072l13.825-1.942v-21.17L95.27 91.774v30.24zm6.478-24.67l7.345-1.032v8.208l-7.344 1.032v-8.208zm15.9-2.234l6.91-.972v23.76l6.48-.91v-23.76l6.913-.972v-6.48l-20.305 2.854v6.48zm24.104 10.868l5.227-.735.65-20.825-6.524.916.648 20.646zm-.518 9.576l6.265-.88v-6.264l-6.264.88v6.264z"/></svg>